<svg width="832" height="311" viewBox="0 0 832 311" fill="none" xmlns="http://www.w3.org/2000/svg">
<g clip-path="url(#clip0_112_12)">
<path d="M279.623 221.754L272.253 224.736L265.256 228.35L258.087 231.647L250.889 234.859L243.663 237.956L236.465 241.139L229.267 244.408L221.754 246.817L212.606 248.452L203.372 249.255L194.024 247.878L193.852 242.602L196.719 235.289L199.214 227.575L203.659 220.836L207.817 214.241L214.47 210.255L222.012 207.789L229.095 204.147L236.522 201.25L242.831 196.089L249.283 191.156L255.162 185.536L261.069 179.973L267.263 174.639L272.224 168.129L277.472 161.935L281.544 154.938L284.24 147.654L280.655 139.023L272.798 133.689L265.371 136.213L258.087 139.482L251.577 144.156L245.469 149.346L238.96 154.078L232.88 159.326L226.858 164.659L221.324 170.509L216.076 176.646L209.882 181.837L204.864 187.916V180.259L203.917 172.631L203.028 165.004L199.931 157.118L194.167 150.78L187.572 145.389L179.743 142.12L171.828 139.023L163.398 137.876L154.995 136.815L146.507 136.442L138.248 135.295L140.514 124.025L146.134 117.888L150.981 111.235L156.028 104.697L161.734 98.7326L167.728 93.0547L172.689 86.4591L176.789 79.7202L180.976 73.0386L185.908 66.8445L189.665 59.9048L193.708 53.1372L197.264 46.0828L201.996 39.6593L205.122 32.4042L208.391 25.2352L211.574 17.9801L213.122 10.1514L210.255 3.32645L203.63 -0.0860291L196.203 0.745584L189.464 5.3338L182.84 9.86465L177.191 15.5999L171.742 21.5359L166.093 27.3285L160.673 33.3792L156.286 40.2042L152.501 47.402L148.228 54.2556L143.525 60.8798L139.596 67.9629L135.553 74.9886L132.054 82.2724L129.158 89.8142L126.462 97.7002L123.222 105.443L120.383 113.3L117.831 121.272L114.533 128.957L110.031 136.012L104.009 141.804L96.8972 146.737L89.3266 150.981L82.1862 155.77L76.0495 159.756L70.4289 164.487L66.615 170.681L65.0091 177.478L69.0812 180.403L76.0495 176.187L83.1326 172.259L89.9862 167.986L96.9545 163.943L104.066 161.706L101.6 169.391L99.4781 177.22L96.5531 184.79L94.6891 192.705L91.248 200.103L88.9252 207.875L87.0325 215.789L83.448 223.159L80.7811 230.844L79.2326 238.788L79.548 248.538L85.4553 243.921L91.2193 239.963L97.6428 236.694L100.74 228.522L103.808 220.492L106.762 212.405L110.604 204.692L114.132 196.863L117.688 189.034L120.068 180.689L123.537 172.803L127.237 165.004L130.936 157.318L138.994 155.254L147.626 155.196L156.2 156.028L164.573 158.179L172.603 161.419L179.084 167.154L183.729 174.323L184.79 182.926L182.295 191.242L177.879 198.67L172.201 204.606L165.778 209.653L159.383 214.7L153.418 220.464L146.22 224.421L139.281 228.808L132.226 232.995L125.057 237.01L117.544 240.308L110.346 244.265L102.546 246.989L95.4634 251.233L87.9789 254.588L79.8921 256.481L72.5223 260.123L64.579 262.274L56.7217 264.568L48.8644 266.804L40.835 267.98L34.6696 267.55L28.3321 266.575L20.6755 268.296L13.7359 271.765L7.71385 276.554L2.23667 282.032L0.114624 289.43L5.96459 294.42L13.9366 294.735L21.8799 294.133L29.6226 292.183L37.5659 290.979L45.0791 288.14L52.6496 285.616L60.6216 282.892L68.5937 280.168L76.6804 277.673L84.509 274.461L91.6781 269.873L99.306 266.288L107.192 263.22L114.332 258.689L121.53 254.273L129.359 250.918L135.983 245.613L142.951 240.881L149.977 236.236L156.687 231.131L163.885 226.658L170.653 221.582L177.42 216.506L183.242 210.341L189.55 204.95L186.711 212.09L183.041 218.944L180.087 226.113L177.019 233.253L174.639 240.68L170.882 247.534L167.871 254.732L169.821 262.216L173.95 268.525L180.03 273.199L188.231 274.203L196.318 273.142L204.319 271.565L212.205 269.357L220.062 266.977L227.862 264.424L235.174 260.639L242.688 257.37L250.086 253.9L257.054 250.459L264.568 248.136L271.479 244.523L278.705 241.569L285.415 237.555L292.24 233.741L299.954 230.644L299.18 222.098L289.545 221.84L279.709 221.725L279.623 221.754ZM246.329 167.842L251.434 162.509L258.201 159.928L254.703 166.896L249.427 173.348L242.917 178.567L236.436 183.758L230.013 188.948L222.758 191.673L228.034 185.392L233.253 178.653L240.135 173.549L246.329 167.814V167.842ZM164.201 55.5174L168.875 47.6027L174.409 40.2329L179.829 32.691L186.711 26.8697L184.188 34.0388L181.349 41.3799L179.112 49.0365L174.581 55.6034L171.513 62.9445L166.581 69.1673L163.283 76.4797L157.462 82.0143L152.759 88.7819L155.684 80.2363L158.15 71.8342L161.075 63.6328L164.143 55.5174H164.201Z" fill="black"/>
<path d="M367.372 196.347C360.691 193.709 352.117 191.099 341.678 188.518L335.771 186.97C328.573 185.45 322.867 183.901 318.68 182.353C314.493 180.804 311.023 178.682 308.27 175.929C305.518 173.205 304.17 169.506 304.17 164.889C304.17 158.723 306.693 153.906 311.74 150.493C316.787 147.052 324.042 145.36 333.448 145.36C353.149 145.36 364.734 153.734 368.147 170.538H385.639C384.435 158.896 379.416 149.346 370.584 141.89C361.752 134.435 349.306 130.707 333.19 130.707C318.623 130.707 307.238 133.861 299.037 140.199C290.807 146.536 286.677 155.11 286.677 165.921C286.677 173.779 288.857 180.145 293.244 184.934C297.603 189.723 302.965 193.307 309.303 195.716C315.64 198.125 324.301 200.677 335.255 203.43C338.18 204.118 340.13 204.548 341.162 204.72C348.188 206.269 353.837 207.789 358.139 209.337C362.411 210.886 365.967 213.237 368.806 216.42C371.616 219.575 373.022 223.819 373.022 229.124C373.022 236.322 370.383 242.2 365.078 246.731C359.744 251.262 351.285 253.527 339.614 253.527C326.595 253.527 316.759 250.66 310.077 244.925C303.396 239.189 299.782 231.533 299.266 221.926H281.802C281.831 222.872 281.888 223.819 281.946 224.765C282.06 226.285 282.261 227.776 282.519 229.267C284.268 239.533 289.258 248.194 297.488 255.219C307.582 263.851 321.548 268.181 339.356 268.181C355.472 268.181 368.061 264.596 377.151 257.399C386.213 250.201 390.772 240.594 390.772 228.608C390.772 220.062 388.536 213.18 384.091 208.047C379.617 202.914 374.054 199.014 367.372 196.347Z" fill="black"/>
<path d="M416.982 133.775V90.101H400.264V133.775H380.994V148.429H400.264V179.399V230.93V250.201V264.855H416.982H438.805V250.201H416.982V179.399V148.429H447.035V264.855H463.753V133.775H447.035H416.982Z" fill="black"/>
<path d="M466.048 90.101H444.483V111.666H466.048V90.101Z" fill="black"/>
<path d="M744.122 133.775L703.516 243.003H703L661.505 133.775H656.487H650.666H643.066H607.393H590.703V148.429V264.854V265.17H607.393V264.854V148.429H648.859L694.712 263.937L678.94 309.102L678.281 310.851H693.508L762.102 133.775H744.122Z" fill="black"/>
<path d="M575.276 250.201V172.087C575.276 157.519 571.032 146.937 562.572 140.342C554.084 133.746 543.158 130.449 529.795 130.449C511.987 130.449 498.71 134.435 489.964 142.407C481.217 150.35 476.515 160.673 475.826 173.348H493.548C494.236 163.426 497.276 156.229 502.696 151.784C508.087 147.31 516.948 145.102 529.279 145.102C539.373 145.102 546.886 147.052 551.761 151.009C556.636 154.938 559.102 160.415 559.102 167.441C559.102 172.431 557.726 176.187 554.973 178.768C552.249 181.32 548.779 183.184 544.563 184.274C540.377 185.392 533.38 186.826 523.63 188.518C511.299 190.755 501.262 193.393 493.548 196.49C485.834 199.558 479.927 203.946 475.826 209.595C471.726 215.244 469.661 222.614 469.661 231.705C469.661 242.659 473.561 251.491 481.361 258.173C489.132 264.854 499.542 268.181 512.589 268.181C523.2 268.181 532.405 266.231 540.205 262.274C548.005 258.345 554.113 252.61 558.586 245.068H559.102V264.854H582.502V250.201H575.276ZM547.001 243.376C538.943 250.172 528.161 253.527 514.625 253.527C496.301 253.527 487.125 245.756 487.125 230.156C487.125 222.098 490.164 216.076 496.244 212.033C502.323 208.018 512.159 204.806 525.694 202.397C534.756 200.849 542.183 199.243 547.919 197.522C553.654 195.802 557.382 193.737 559.102 191.357V215.761C559.102 227.403 555.059 236.637 547.001 243.376Z" fill="black"/>
<path d="M782.29 104.841H771.508V100.396H798.234V104.841H787.452V133.775H782.261V104.841H782.29Z" fill="black"/>
<path d="M799.008 100.396H805.776L815.382 126.606H815.468L825.132 100.396H831.9V133.746H826.853V107.852H826.767L817.562 133.746H813.318L804.113 107.852H804.027V133.746H798.98V100.396H799.008Z" fill="black"/>
</g>
<defs>
<clipPath id="clip0_112_12">
<rect width="831.9" height="310.851" fill="white"/>
</clipPath>
</defs>
</svg>
