<svg width="278" height="77" viewBox="0 0 278 77" fill="none" xmlns="http://www.w3.org/2000/svg">
<path d="M123.88 48.2999C123.88 52.4799 122.29 55.8299 119.13 58.3399C115.96 60.8499 111.57 62.0999 105.95 62.0999C99.74 62.0999 94.87 60.5899 91.35 57.5799C90.86 57.1599 90.4 56.7299 89.98 56.2799C88.96 55.1899 88.13 54.0099 87.49 52.7399C87.36 52.4699 87.23 52.1899 87.11 51.9099C86.97 51.5799 86.84 51.2399 86.73 50.8899C86.71 50.8199 86.68 50.7499 86.66 50.6799C86.61 50.5399 86.57 50.3999 86.52 50.2499C86.49 50.1199 86.45 49.9999 86.42 49.8699C86.3 49.4299 86.21 48.9899 86.13 48.5399C86.04 48.0099 85.97 47.4899 85.93 46.9599V46.6599L86.26 46.1099V45.9699H91.97C91.98 46.1599 91.99 46.3499 92.02 46.5299C92.05 46.9399 92.1 47.3299 92.18 47.7199C92.2 47.8299 92.22 47.9499 92.25 48.0599C92.28 48.2299 92.32 48.3999 92.37 48.5599C92.44 48.8299 92.52 49.0999 92.61 49.3599C92.92 50.2899 93.34 51.1399 93.88 51.9199C94.39 52.6799 95.01 53.3699 95.74 53.9899C98.07 55.9899 101.5 56.9899 106.04 56.9899C110.11 56.9899 113.06 56.1999 114.92 54.6199C116.77 53.0399 117.69 50.9899 117.69 48.4799C117.69 46.6299 117.2 45.1499 116.22 44.0499C115.23 42.9399 113.99 42.1199 112.5 41.5799C111 41.0399 109.03 40.5099 106.58 39.9699C106.4 39.9399 106.14 39.8899 105.8 39.8099C105.73 39.7899 105.67 39.7799 105.61 39.7699C105.32 39.7099 104.98 39.6299 104.58 39.5299C104.56 39.5299 104.54 39.5199 104.52 39.5199C103.71 39.3199 102.94 39.1199 102.21 38.9199C99.46 38.1899 97.21 37.4899 95.47 36.8299C93.26 35.9899 91.39 34.7399 89.87 33.0699C88.34 31.3999 87.58 29.1799 87.58 26.4399C87.58 22.6699 89.02 19.6799 91.89 17.4699C94.75 15.2599 98.72 14.1599 103.8 14.1599C109.42 14.1599 113.76 15.4599 116.84 18.0599C119.92 20.6599 121.67 23.9899 122.09 28.0499H115.99C114.8 22.1899 110.76 19.2699 103.89 19.2699C100.61 19.2699 98.08 19.8599 96.32 21.0599C94.56 22.2499 93.68 23.9299 93.68 26.0799C93.68 27.6899 94.15 28.9799 95.11 29.9299C96.07 30.8899 97.28 31.6299 98.74 32.1699C100.2 32.7099 102.19 33.2499 104.7 33.7799L106.76 34.3199C110.4 35.2199 113.39 36.1299 115.72 37.0499C118.05 37.9799 119.99 39.3399 121.55 41.1299C123.1 42.9199 123.88 45.3199 123.88 48.2999Z" fill="black"/>
<path d="M133.03 15.23V0H127.2V15.23H120.48V20.34H127.2V31.14V49.11V55.83V60.94H133.03H140.64V55.83H133.03V31.14V20.34H143.51V60.94H149.34V15.23H143.51H133.03Z" fill="black"/>
<path d="M150.14 0H142.62V7.52H150.14V0Z" fill="black"/>
<path d="M247.11 15.23L232.95 53.32H232.77L218.3 15.23H216.55H214.52H211.87H199.43H193.61V20.34V60.94V61.05H199.43V60.94V20.34H213.88L229.88 60.62L224.38 76.37L224.15 76.98H229.46L253.38 15.23H247.11Z" fill="black"/>
<path d="M188.22 55.8299V28.5899C188.22 23.5099 186.74 19.8199 183.79 17.5199C180.83 15.2199 177.02 14.0699 172.36 14.0699C166.15 14.0699 161.52 15.4599 158.47 18.2399C155.42 21.0099 153.78 24.6099 153.54 29.0299H159.72C159.96 25.5699 161.02 23.0599 162.91 21.5099C164.79 19.9499 167.88 19.1799 172.18 19.1799C175.7 19.1799 178.32 19.8599 180.02 21.2399C181.72 22.6099 182.58 24.5199 182.58 26.9699C182.58 28.7099 182.1 30.0199 181.14 30.9199C180.19 31.8099 178.98 32.4599 177.51 32.8399C176.05 33.2299 173.61 33.7299 170.21 34.3199C165.91 35.0999 162.41 36.0199 159.72 37.0999C157.03 38.1699 154.97 39.6999 153.54 41.6699C152.11 43.6399 151.39 46.2099 151.39 49.3799C151.39 53.1999 152.75 56.2799 155.47 58.6099C158.18 60.9399 161.81 62.0999 166.36 62.0999C170.06 62.0999 173.27 61.4199 175.99 60.0399C178.71 58.6699 180.84 56.6699 182.4 54.0399H182.58V60.9399H190.74V55.8299H188.22ZM182.58 43.8199C182.58 47.8799 181.17 51.0999 178.36 53.4499C175.55 55.8199 171.79 56.9899 167.07 56.9899C160.68 56.9899 157.48 54.2799 157.48 48.8399C157.48 46.0299 158.54 43.9299 160.66 42.5199C162.78 41.1199 166.21 39.9999 170.93 39.1599C174.09 38.6199 176.68 38.0599 178.68 37.4599C180.68 36.8599 181.98 36.1399 182.58 35.3099V43.8199Z" fill="black"/>
<path d="M256.66 3.59998V5.13998H260.42V15.23H262.23V5.13998H265.98V3.59998H256.66Z" fill="black"/>
<path d="M275.36 3.59998L271.99 12.74H271.95L268.6 3.59998H266.24V15.23H268V6.19997H268.03L271.24 15.23H272.72L275.92 6.19997H275.96V15.23H277.71V3.59998H275.36Z" fill="black"/>
<path d="M89.32 50.44L87.97 48.04L86.28 45.97L83.81 47.34L81.7 49.22L79.54 51.05L77.19 52.62L74.97 54.39L72.48 55.79L69.61 55.96L67.79 54.27L66.81 52.13L67.05 49.1L67.32 46.07L67.55 43.73L67.62 41.4L68.12 39.72L68.35 39.59L69.81 39.1L72.71 38.81L75.23 37.39L77.52 35.76L79.6 33.91L81.49 32.73L83.27 31.37L84.05 29.01L83.12 26.47L81.89 24.07L80.84 21.59L79.36 19.3L78.33 16.11L77.54 12.88L76.56 12.22L74.02 12.84L71.74 13.68L69.57 14.79L67.31 15.7L64.68 16.22L62.19 17.16L59.57 17.7L57.07 18.63L54.29 19.69L56.3 21.55L56.86 24.44L56.98 27.35L57.34 30.24L57.62 33.14L58.01 36.35V39.58L57.86 42.78L54.77 44.14L51.96 45.95L52.01 43.69L51.77 41.06L51.32 38.45L50.63 35.89L49.53 33.47L48.37 30.58L46.26 28.29L44.03 26.14L41.24 24.21L38.02 23.1L36.49 22.85L36.26 23.05L36.45 22.79L39.23 20.87L42.27 19.38L43.26 17.1L42.06 14.51L40.72 11.98L39.45 9.42996L38.28 6.83996L36.73 4.45996L35.59 1.83996L33.44 0.209961L30.86 0.689962L28.81 1.51996L26.85 2.49996L23.32 4.72996L21.26 6.97996L18.96 8.84996L17.37 7.06996L16.13 4.90996L15.26 2.56996L12.62 1.02996L9.85999 2.13996L7.38998 3.82996L4.82999 5.33996L5.69998 6.22996L7.25 8.96996L8.81998 11.7L9.97 13.46L11.34 14.75L11.53 17.33L11.24 19.98L11.44 22.63L11.2 25.97L10.42 28.81L10.23 32.51L10.41 36.02L9.22 39.71L8.12997 42.93L5.25998 43.85L2.59 45.22L0 47.47L2.81 48.32L5.19 49.79L7.57999 51.24L10.07 52.52L12.48 53.93L14.84 55.87L17.17 57.82L19.28 60.01L21.3 62.29L22.98 64.84L25.43 65.94L27.57 65.59L29.64 65.13L32.12 64.33L34.48 63.24L36.91 62.33L39.43 61.64L41.75 60.21L44.13 58.87L45.88 56.77V56.74L48.42 55.37L50.63 53.59L52.81 51.77L55.01 49.97L57.23 48.2L56.87 52.33L56.58 56.17L57.97 58.73L58.34 58.62L61.39 61.18L63.63 62.67L66.16 63.61L68.77 64.3L71.56 64.69L73.58 62.75L75.81 61.15L78.01 59.5L80.14 57.76L82.46 56.28L84.54 54.46L86.73 52.79L89.23 50.43L89.32 50.44ZM20.55 22.11L20.74 19.57L20.98 17.03L21.15 14.49L21.5 13.04L23.49 10.92L25.68 9.00996L27.69 6.78996L28.77 8.21996L29.92 10.4L30.86 12.7L32.09 14.84L33.18 17.59L33.45 17.93L33.06 20.36L30.98 21.95L28.64 23.12L26.29 24.23L24.03 25.54L20.24 27.39L20.12 27.32L20.66 24.74L20.55 22.11ZM41.3 51.62L40.01 53.89L38.51 56.02L37.02 58.16L35.23 60.2L32.84 61.61L32.92 61.51L31.24 59.43L29.59 57.36L27.85 55.39L25.95 53.51L23.22 51.8L20.52 50.04L17.74 48.41L15.03 46.67L11.15 44.85L11.17 44.31L13.54 43.77L15.91 43.19L19.37 42.75L22.56 41.31L23.53 40.21L22.4 39.37L20.93 38.06L19.63 35.71L19.53 33.02L20.14 30.52L23.35 29.14L26.63 27.7L29.27 26.47L32.14 27.19L34.5 28.9L36.7 31.01L38.53 33.44L40.05 36.07L41.3 38.27L42.13 40.68L42.29 43.22L42.68 45.72L42.08 48.67L41.29 51.59L41.3 51.62ZM64.95 19.03L68.97 18.15L69.61 19.06L70.42 21.53L71.42 23.94L72.43 26.34L73.6 29.28L75.21 32.01V32.23L72.32 34.22L69.29 36.02L69.34 36.08L67.9 36.92L67.73 33.91L67.66 30.86L67.38 27.83L67.04 24.81L66.25 21.87L64.94 19.04L64.95 19.03Z" fill="black"/>
</svg>
