<svg width="299" height="80" viewBox="0 0 299 80" fill="none" xmlns="http://www.w3.org/2000/svg">
<path d="M144.83 50.99C144.83 55.17 143.24 58.52 140.08 61.03C136.91 63.54 132.52 64.79 126.9 64.79C120.69 64.79 115.82 63.28 112.3 60.27C111.81 59.85 111.35 59.42 110.93 58.97C109.91 57.88 109.08 56.7 108.44 55.43C108.31 55.16 108.18 54.88 108.06 54.6C107.92 54.27 107.79 53.93 107.68 53.58C107.66 53.51 107.63 53.44 107.61 53.37C107.56 53.23 107.52 53.09 107.47 52.94C107.44 52.81 107.4 52.69 107.37 52.56C107.25 52.12 107.16 51.68 107.08 51.23C106.99 50.7 106.92 50.18 106.88 49.65V49.35L107.21 48.8V48.66H112.92C112.93 48.85 112.94 49.04 112.97 49.22C113 49.63 113.05 50.02 113.13 50.41C113.15 50.52 113.17 50.64 113.2 50.75C113.23 50.92 113.27 51.09 113.32 51.25C113.39 51.52 113.47 51.79 113.56 52.05C113.87 52.98 114.29 53.83 114.83 54.61C115.34 55.37 115.96 56.06 116.69 56.68C119.02 58.68 122.45 59.68 126.99 59.68C131.06 59.68 134.01 58.89 135.87 57.31C137.72 55.73 138.64 53.68 138.64 51.17C138.64 49.32 138.15 47.84 137.17 46.74C136.18 45.63 134.94 44.81 133.45 44.27C131.95 43.73 129.98 43.2 127.53 42.66C127.35 42.63 127.09 42.58 126.75 42.5C126.68 42.48 126.62 42.47 126.56 42.46C126.27 42.4 125.93 42.32 125.53 42.22C125.51 42.22 125.49 42.21 125.47 42.21C124.66 42.01 123.89 41.81 123.16 41.61C120.41 40.88 118.16 40.18 116.42 39.52C114.21 38.68 112.34 37.43 110.82 35.76C109.29 34.09 108.53 31.87 108.53 29.13C108.53 25.36 109.97 22.37 112.84 20.16C115.7 17.95 119.67 16.85 124.75 16.85C130.37 16.85 134.71 18.15 137.79 20.75C140.87 23.35 142.62 26.68 143.04 30.74H136.94C135.75 24.88 131.71 21.96 124.84 21.96C121.56 21.96 119.03 22.55 117.27 23.75C115.51 24.94 114.63 26.62 114.63 28.77C114.63 30.38 115.1 31.67 116.06 32.62C117.02 33.58 118.23 34.32 119.69 34.86C121.15 35.4 123.14 35.94 125.65 36.47L127.71 37.01C131.35 37.91 134.34 38.82 136.67 39.74C139 40.67 140.94 42.03 142.5 43.82C144.05 45.61 144.83 48.01 144.83 50.99Z" fill="black"/>
<path d="M153.97 17.9201V2.69006H148.14V17.9201H141.42V23.0301H148.14V33.8301V51.8001V58.5201V63.6301H153.97H161.59V58.5201H153.97V33.8301V23.0301H164.45V63.6301H170.28V17.9201H164.45H153.97Z" fill="black"/>
<path d="M171.08 2.69006H163.56V10.2101H171.08V2.69006Z" fill="black"/>
<path d="M268.05 17.92L253.89 56.01H253.71L239.24 17.92H237.49H235.46H232.81H220.37H214.55V23.03V63.63V63.74H220.37V63.63V23.03H234.83L250.82 63.31L245.32 79.06L245.09 79.67H250.4L274.32 17.92H268.05Z" fill="black"/>
<path d="M209.16 58.52V31.28C209.16 26.2 207.68 22.51 204.73 20.21C201.77 17.91 197.96 16.76 193.3 16.76C187.09 16.76 182.46 18.15 179.41 20.93C176.36 23.7 174.72 27.3 174.48 31.72H180.66C180.9 28.26 181.96 25.75 183.85 24.2C185.73 22.64 188.82 21.87 193.12 21.87C196.64 21.87 199.26 22.55 200.96 23.93C202.66 25.3 203.52 27.21 203.52 29.66C203.52 31.4 203.04 32.71 202.08 33.61C201.13 34.5 199.92 35.15 198.45 35.53C196.99 35.92 194.55 36.42 191.15 37.01C186.85 37.79 183.35 38.71 180.66 39.79C177.97 40.86 175.91 42.39 174.48 44.36C173.05 46.33 172.33 48.9 172.33 52.07C172.33 55.89 173.69 58.97 176.41 61.3C179.12 63.63 182.75 64.79 187.3 64.79C191 64.79 194.21 64.11 196.93 62.73C199.65 61.36 201.78 59.36 203.34 56.73H203.52V63.63H211.68V58.52H209.16ZM203.52 46.51C203.52 50.57 202.11 53.79 199.3 56.14C196.49 58.51 192.73 59.68 188.01 59.68C181.62 59.68 178.42 56.97 178.42 51.53C178.42 48.72 179.48 46.62 181.6 45.21C183.72 43.81 187.15 42.69 191.87 41.85C195.03 41.31 197.62 40.75 199.62 40.15C201.62 39.55 202.92 38.83 203.52 38V46.51Z" fill="black"/>
<path d="M277.6 6.29004V7.83004H281.36V17.92H283.17V7.83004H286.92V6.29004H277.6Z" fill="black"/>
<path d="M296.3 6.29004L292.93 15.43H292.89L289.54 6.29004H287.18V17.92H288.94V8.89004H288.97L292.18 17.92H293.66L296.86 8.89004H296.9V17.92H298.65V6.29004H296.3Z" fill="black"/>
<path d="M59.54 36.55L54.94 31.68L49.1 28.03L42.73 24.22L49.24 25.78L55.37 23.74L56.19 15.94L53.62 8.7L46.57 7.37L40.04 4.76L33.52 2.1L26.56 1.05L19.85 0L14.17 5.17L6.63 7.72L0 12.4L0.400024 20.01L0.809998 26.37L6.45001 21.52L9.82001 14.02L12.83 19.76L15.54 26.26L11.72 31.76L11.56 37.49L13.17 45.9L16.75 53.81L18.45 62.04L11.41 60.84L5.08002 63.26L4.31 69.33L7.78003 75.81L13.34 71.68L20.03 70.01L25.51 65.98L32.38 66.45L38.34 69.34L44.72 71.62L50.24 76.03L55.09 68.88L62.56 64.75L68.54 58.7L64.97 51.32L63.06 43.47L59.53 36.57L59.54 36.55ZM25.77 5.24L32.18 7.5L38.24 9.38L45.06 10.67L43.01 15.54L37.8 17.68L31.19 18.58L26.24 21.82L23.02 15.59L20.7 8.13L25.76 5.23L25.77 5.24ZM44.41 61.22L37.17 57.24L30.01 53.94L27.17 47.62L25.94 41.15L25.7 35.4L26.9 31.14L32.09 32.23L38.72 34.01L44.3 37.92L49.3 41.87L52.8 52.06L49.62 57.4L44.39 61.22H44.41Z" fill="black"/>
<path d="M77.36 37.3701L77.03 31.6901L80.3 26.0301L89.06 25.3301L92.81 31.0501L87.56 35.1901L85.11 40.9901L77.37 37.3801L77.36 37.3701ZM113.56 52.0501C113.47 51.7901 113.39 51.5201 113.32 51.2501C113.27 51.0901 113.23 50.9201 113.2 50.7501C113.17 50.6401 113.15 50.5201 113.13 50.4101C113.05 50.0201 113 49.6301 112.97 49.2201C112.94 49.0401 112.93 48.8501 112.92 48.6601H107.22L102.97 55.8601L96.04 53.2801L89.6 53.5301L82.6 53.9601L76.25 57.7701L75.59 48.4001L85.38 48.6801L91.96 43.3601L97.1 36.7301L103.79 30.8401L98.36 24.9901L95.98 17.6901L88.39 16.8201L81.37 19.9001L73.63 18.2201L70.27 24.9501L68.24 32.0401L64.79 38.4901L62.95 45.3701L63.88 53.1801L66.43 60.8601L69.39 68.6801L76 65.9401L81.54 62.4201L87.88 59.6401L97.41 60.6601L106.74 63.9401L110.93 58.9701L111.38 58.4401L114.83 54.6101C114.29 53.8301 113.87 52.9801 113.56 52.0501Z" fill="black"/>
</svg>
