<svg width="291" height="116" viewBox="0 0 291 116" fill="none" xmlns="http://www.w3.org/2000/svg">
<path d="M136.34 64.22C136.34 68.4 134.75 71.75 131.59 74.26C128.42 76.77 124.03 78.02 118.41 78.02C112.2 78.02 107.33 76.51 103.81 73.5C102.15 72.08 100.86 70.46 99.9501 68.66C99.8201 68.39 99.6901 68.11 99.5701 67.83C99.4301 67.5 99.3001 67.16 99.1901 66.81C99.1701 66.74 99.15 66.67 99.13 66.6C99.07 66.46 99.0301 66.32 98.9801 66.17C98.9501 66.04 98.91 65.92 98.88 65.79C98.76 65.35 98.6701 64.91 98.5901 64.46C98.5001 63.93 98.43 63.41 98.4 62.88C98.4 62.81 98.38 62.75 98.38 62.68C98.9 62.41 99.38 62.14 99.88 61.89H104.43C104.44 62.08 104.45 62.27 104.48 62.45C104.48 62.4599 104.48 62.46 104.48 62.46C104.51 62.87 104.56 63.25 104.65 63.64C104.65 63.75 104.68 63.87 104.71 63.98C104.74 64.15 104.78 64.32 104.83 64.48C104.9 64.75 104.98 65.02 105.07 65.28C105.67 67.1 106.72 68.64 108.2 69.91C110.53 71.91 113.96 72.91 118.5 72.91C122.57 72.91 125.52 72.12 127.38 70.54C129.23 68.96 130.15 66.91 130.15 64.4C130.15 62.55 129.66 61.07 128.68 59.97C127.69 58.86 126.45 58.04 124.96 57.5C123.46 56.96 121.49 56.43 119.04 55.89C118.86 55.86 118.61 55.81 118.26 55.73C118.19 55.71 118.13 55.7 118.07 55.69C117.78 55.63 117.44 55.55 117.04 55.45C117.02 55.45 117 55.44 116.98 55.44C116.17 55.24 115.4 55.04 114.67 54.84C111.92 54.11 109.67 53.41 107.93 52.75C105.72 51.91 103.86 50.66 102.33 48.99C100.8 47.32 100.04 45.1 100.04 42.36C100.04 38.59 101.48 35.6 104.36 33.39C107.21 31.18 111.18 30.08 116.26 30.08C121.88 30.08 126.22 31.38 129.3 33.98C132.38 36.58 134.13 39.91 134.55 43.97H128.45C127.26 38.11 123.22 35.19 116.36 35.19C113.07 35.19 110.54 35.78 108.78 36.98C107.02 38.17 106.15 39.85 106.15 42C106.15 43.61 106.61 44.9 107.57 45.85C108.53 46.81 109.74 47.55 111.2 48.09C112.66 48.63 114.65 49.17 117.16 49.7L119.22 50.24C122.86 51.14 125.86 52.05 128.18 52.97C130.51 53.9 132.45 55.26 134.01 57.05C135.56 58.84 136.34 61.24 136.34 64.22Z" fill="black"/>
<path d="M145.49 31.15V15.92H139.66V31.15H132.94V36.26H139.66V47.06V65.03V71.75V76.86H145.49H153.11V71.75H145.49V47.06V36.26H155.97V76.86H161.8V31.15H155.97H145.49Z" fill="black"/>
<path d="M162.6 15.92H155.08V23.44H162.6V15.92Z" fill="black"/>
<path d="M259.57 31.15L245.41 69.24H245.23L230.76 31.15H229.01H226.99H224.33H211.89H206.07V36.26V76.86V76.97H211.89V76.86V36.26H226.35L242.34 76.54L236.84 92.29L236.61 92.9H241.92L265.84 31.15H259.57Z" fill="black"/>
<path d="M200.69 71.75V44.51C200.69 39.43 199.21 35.74 196.26 33.44C193.3 31.14 189.49 29.99 184.83 29.99C178.62 29.99 173.99 31.38 170.94 34.16C167.89 36.93 166.25 40.53 166.01 44.95H172.19C172.43 41.49 173.49 38.98 175.38 37.43C177.26 35.87 180.35 35.1 184.65 35.1C188.17 35.1 190.79 35.78 192.49 37.16C194.19 38.53 195.05 40.44 195.05 42.89C195.05 44.63 194.57 45.94 193.61 46.84C192.66 47.73 191.45 48.38 189.98 48.76C188.52 49.15 186.08 49.65 182.68 50.24C178.38 51.02 174.88 51.94 172.19 53.02C169.5 54.09 167.44 55.62 166.01 57.59C164.58 59.56 163.86 62.13 163.86 65.3C163.86 69.12 165.22 72.2 167.94 74.53C170.65 76.86 174.28 78.02 178.83 78.02C182.53 78.02 185.74 77.34 188.46 75.96C191.18 74.59 193.31 72.59 194.87 69.96H195.05V76.86H203.21V71.75H200.69ZM195.05 59.74C195.05 63.8 193.64 67.02 190.83 69.37C188.02 71.74 184.26 72.91 179.54 72.91C173.15 72.91 169.95 70.2 169.95 64.76C169.95 61.95 171.01 59.85 173.13 58.44C175.25 57.04 178.68 55.92 183.4 55.08C186.56 54.54 189.15 53.98 191.15 53.38C193.15 52.78 194.45 52.06 195.05 51.23V59.74Z" fill="black"/>
<path d="M269.13 19.52V21.06H272.89V31.15H274.7V21.06H278.45V19.52H269.13Z" fill="black"/>
<path d="M287.83 19.52L284.46 28.66H284.42L281.07 19.52H278.71V31.15H280.47V22.12H280.5L283.71 31.15H285.19L288.39 22.12H288.43V31.15H290.18V19.52H287.83Z" fill="black"/>
<path d="M104.43 61.87L101.4 61.95L98.37 61.8L95.3401 61.7L92.51 61.99L89.67 62.12L86.9501 62.96L84.2301 63.45L81.6001 64.28L79.01 65.24L76.4401 66.23L73.8501 67.22L71.54 68.76L69.1001 70.07L66.65 71.3L64.2001 72.54L61.8601 74.03L59.3201 74.54L60.0901 72.53L61.2301 70.53L62.2201 68.07L63.5 65.76L64.9401 63.54L66.4301 61.36L67.91 59.22L70.2101 57.37L72.63 55.63L75.29 54.29L77.9701 52.99L80.67 51.74L83.39 50.53L86.1001 49.3L88.6101 47.43L90.54 44.97L92.5601 42.62L94.7301 40.35L96.13 37.55L96.3201 34.53L93.87 33.65L91.27 34.59L88.25 34.33L85.24 34.45L82.2201 34.38L79.2101 34.62L76.24 35.2L73.8601 35.45L71.7301 36.1L70.4 38.51L69.04 40.92L67.4601 43.2L66.3501 45.75L65.62 49.76L63.1001 51.2L60.6801 52.74L58.27 54.3L55.63 55.47L53.28 57.14L53.0701 57.17L53.2101 57L55.4601 54.57L57.5 51.96L59.53 49.64L61.2001 47.05L62.7001 44.36L64.52 41.87L66.0901 39.21L67.0701 36.2L64.9401 34.13L62.02 34.03L59.12 33.96L56.29 34.52L53.51 34.81L50.8 35.44L48.1901 36.44L45.51 37.17L42.89 38.1L40.17 38.72L37.52 39.57L34.42 41.24L31 41.79L31.9701 40.66L34.1001 38.71L36.1101 36.62L38.17 34.59L40.49 32.85L42.6901 30.98L44.5901 28.79L46.6001 26.72L48.51 24.56L50.42 22.4L52.04 20.02L53.64 17.63L55.15 15.18L56.87 12.84L58.01 10.18L58.6801 7.22L56.37 6L53.24 6.03L50.41 6.64L47.66 7.57L44.8301 8.18L42.03 8.94L39.3201 9.96L36.5801 10.91L33.8101 11.76L31.1001 12.8L28.3 13.54L24.9 14.49L21.65 13.9L21.52 11.19L21.3101 8.49L21.38 5.79L20.6101 2.8L19.41 0L17.05 0.31L15.79 2.77L15.9401 5.83L16.27 8.91L16.9601 11.95L16.89 14.19L16.66 16.44L14.25 17.4L11.8201 18.25H9.21008L6.66003 18.66L4.9801 21.4L3.4801 24.1L1.80005 26.67L0.210083 29.63L1.06006 32.65L3.41003 33.24L6.02002 32.96L8.61011 32.12L11.0701 30.96L13.62 30.02L16.29 29.57L17.4401 29.8L17.92 32.81L18.01 35.84L17.87 38.87V41.91L16.0601 43.86L14.38 45.91L12.5701 47.82L11.39 50.07L10.01 52.21L8.80005 54.44L7.46008 57.18L6.33008 59.99L6.28003 62.93L7.73999 65.13L10.4301 64.91L12.91 63.95L15.02 62.31L17.3501 61.24L18.28 61.64L18.3101 64.4L18.04 67.16L18.27 69.92L18.1801 72.68L18.27 75.44L18.4301 78.23L16.5701 80.36L14.28 81.91L12.2101 83.69L10.15 85.5L8.2301 87.47L6.54004 89.62L5 91.83L3.68005 94.56L3.11011 97.58L1.88 99.87L0.480103 102.01L0 104.93L2.43005 106.49L4.92004 103L6.73999 100.97L8.67004 99.03L10.4501 96.95L12.38 95.01L14.39 93.16L16.64 91.65L17.91 91.11L17.6101 93.91L17.6901 96.71L17.5601 99.5L17.5801 102.3L17.55 105.1L17.29 107.9L17.2201 111.08L17.8401 114.22L18.54 115.58L19.7301 112.84L19.91 109.95V107.07L19.8601 104.2L20.05 101.33L20.39 98.41L20.9601 95.52L20.91 92.56L21.3201 89.65L21.8101 86.77L23.99 84.73L26.2001 82.71L28.39 80.67L30.54 78.58L32.63 76.42L34.74 74.29L36.9701 72.29L39.42 70.53L41.49 68.35L43.74 66.34L46.1901 65.23L48.7201 64.32L51.3301 63.62L53.66 62.21L56.1901 61.28L58.8 60.61L57.8 63.23L56.79 66.11L55.4801 68.85L54.25 71.64L52.4801 74.15L51.4301 77.01L50.5701 79.87L49.8301 82.77L48.8401 85.61L48.64 88.49L51.0801 87.45L53.6001 86.18L56.17 84.98L58.55 83.44L61.0701 82.15L63.3401 80.43L65.9 79.19L68.2101 77.54L70.88 76.06L73.62 74.7L76.4601 73.57L79.2201 72.25L82.1901 71.45L84.9701 70.18L87.8301 69.57L90.5801 68.52L93.42 67.82L96.3 67.25L99.1001 66.35L101.84 64.41L104.01 62.89L104.43 62.46L104.47 61.86L104.43 61.87ZM74.9401 42.1L78.02 41.52L81.14 41.17L84.25 40.76L87.3201 40.07L86.49 40.94L84.3101 42.48L81.87 43.59L79.54 44.91L77.2101 46.23L74.8201 47.46L74.4 47.02L74.51 44.57L74.9501 42.09L74.9401 42.1ZM22.89 27.64L25.4401 26.79L28.0601 26.16L30.67 25.47L33.1901 24.51L35.8201 23.9L38.3101 22.81L40.92 22.2L40 24.12L37.66 26.03L35.26 27.85L32.76 29.55L30.5601 31.63L28.1101 33.4L25.6801 35.2L23.3301 37.05L22.27 36.7L22.9301 33.62L22.8501 30.61L22.91 27.64H22.89ZM22.0701 74.56L21.5801 72.07L21.7201 69.28L21.89 66.49L21.8301 63.69L22.2301 60.93L22.91 58.26L25.63 57.22L28.24 55.99L30.8601 54.79L33.55 53.74L36.3101 52.9L38.9401 51.69L41.7301 50.95L44.54 50.3L47.3501 49.71L50.1901 48.91L48.27 51.33L46.0801 53.36L43.78 55.28L41.6801 57.44L39.41 59.39L37.3201 61.15L35.26 62.94L33.3401 64.88L31.3501 66.75L29.51 68.78L27.4601 70.58L25.41 72.38L23.29 74.1L22.0801 74.57L22.0701 74.56Z" fill="black"/>
</svg>
