<svg width="321" height="85" viewBox="0 0 321 85" fill="none" xmlns="http://www.w3.org/2000/svg">
<path d="M166.516 52.24C166.516 56.42 164.926 59.77 161.766 62.28C158.596 64.79 154.206 66.04 148.586 66.04C142.376 66.04 137.506 64.53 133.986 61.52C132.316 60.1 131.036 58.48 130.126 56.68C129.996 56.41 129.866 56.13 129.746 55.85C129.606 55.52 129.476 55.18 129.366 54.83C129.226 54.44 129.106 54.03 129.006 53.62C128.916 53.24 128.836 52.86 128.766 52.48C128.676 51.95 128.606 51.43 128.566 50.9C128.566 50.83 128.566 50.77 128.566 50.7C129.076 50.43 129.566 50.16 130.056 49.91H134.616C134.646 50.43 134.696 50.93 134.786 51.42C134.816 51.62 134.856 51.81 134.896 52C134.986 52.45 135.106 52.88 135.256 53.3C135.856 55.12 136.906 56.66 138.386 57.93C140.716 59.93 144.146 60.93 148.686 60.93C152.756 60.93 155.706 60.14 157.566 58.56C159.416 56.98 160.336 54.93 160.336 52.42C160.336 50.57 159.846 49.09 158.866 47.99C157.876 46.88 156.636 46.06 155.146 45.52C153.646 44.98 151.676 44.45 149.226 43.91C149.046 43.88 148.786 43.83 148.446 43.75C148.376 43.73 148.316 43.72 148.256 43.71C147.966 43.65 147.626 43.57 147.226 43.47C147.206 43.47 147.186 43.46 147.166 43.46C146.356 43.26 145.586 43.06 144.856 42.86C142.106 42.13 139.856 41.43 138.116 40.77C135.906 39.93 134.036 38.68 132.516 37.01C130.986 35.34 130.226 33.12 130.226 30.38C130.226 26.61 131.666 23.62 134.536 21.41C137.396 19.2 141.366 18.1 146.446 18.1C152.066 18.1 156.406 19.4 159.486 22C162.566 24.6 164.316 27.93 164.736 31.99H158.636C157.446 26.13 153.406 23.21 146.536 23.21C143.256 23.21 140.726 23.8 138.966 25C137.206 26.19 136.326 27.87 136.326 30.02C136.326 31.63 136.796 32.92 137.756 33.87C138.716 34.83 139.926 35.57 141.386 36.11C142.846 36.65 144.836 37.19 147.346 37.72L149.406 38.26C153.046 39.16 156.036 40.07 158.366 40.99C160.696 41.92 162.636 43.28 164.196 45.07C165.746 46.86 166.526 49.26 166.526 52.24H166.516Z" fill="black"/>
<path d="M175.656 19.1701V3.94006H169.826V19.1701H163.106V24.2801H169.826V35.0801V53.0501V59.7701V64.8801H175.656H183.266V59.7701H175.656V35.0801V24.2801H186.136V64.8801H191.966V19.1701H186.136H175.656Z" fill="black"/>
<path d="M192.766 3.94006H185.246V11.4601H192.766V3.94006Z" fill="black"/>
<path d="M289.736 19.17L275.576 57.26H275.396L260.926 19.17H259.176H257.146H254.496H242.056H236.236V24.28V64.88V64.99H242.056V64.88V24.28H256.506L272.506 64.56L267.006 80.31L266.776 80.92H272.086L296.006 19.17H289.736Z" fill="black"/>
<path d="M230.856 59.77V32.53C230.856 27.45 229.376 23.76 226.426 21.46C223.466 19.16 219.656 18.01 214.996 18.01C208.786 18.01 204.156 19.4 201.106 22.18C198.056 24.95 196.416 28.55 196.176 32.97H202.356C202.596 29.51 203.656 27 205.546 25.45C207.426 23.89 210.516 23.12 214.816 23.12C218.336 23.12 220.956 23.8 222.656 25.18C224.356 26.55 225.216 28.46 225.216 30.91C225.216 32.65 224.736 33.96 223.776 34.86C222.826 35.75 221.616 36.4 220.146 36.78C218.686 37.17 216.246 37.67 212.846 38.26C208.546 39.04 205.046 39.96 202.356 41.04C199.666 42.11 197.606 43.64 196.176 45.61C194.746 47.58 194.026 50.15 194.026 53.32C194.026 57.14 195.386 60.22 198.106 62.55C200.816 64.88 204.446 66.04 208.996 66.04C212.696 66.04 215.906 65.36 218.626 63.98C221.346 62.61 223.476 60.61 225.036 57.98H225.216V64.88H233.376V59.77H230.856ZM225.216 47.76C225.216 51.82 223.806 55.04 220.996 57.39C218.186 59.76 214.426 60.93 209.706 60.93C203.316 60.93 200.116 58.22 200.116 52.78C200.116 49.97 201.176 47.87 203.296 46.46C205.416 45.06 208.846 43.94 213.566 43.1C216.726 42.56 219.316 42 221.316 41.4C223.316 40.8 224.616 40.08 225.216 39.25V47.76Z" fill="black"/>
<path d="M303.046 9.08003H299.286V7.53003H308.606V9.08003H304.846V19.17H303.036V9.08003H303.046Z" fill="black"/>
<path d="M308.866 7.53003H311.226L314.576 16.67H314.605L317.976 7.53003H320.335V19.16H318.576V10.13H318.546L315.335 19.16H313.855L310.646 10.13H310.615V19.16H308.856V7.53003H308.866Z" fill="black"/>
<path d="M94.0056 31.21C94.0056 30.93 93.9556 30.62 93.8356 30.38C93.4956 29.67 93.1656 28.94 92.7156 28.3C92.3456 27.77 91.9756 27.28 91.7356 26.66C91.4556 25.92 90.8856 25.26 90.0556 25.11C89.2656 24.96 88.5356 24.69 87.8556 24.3C87.0056 23.82 86.1155 23.69 85.1555 23.71C83.6455 23.74 82.1356 23.71 80.6356 23.71C79.9856 23.71 79.3556 23.57 78.7156 23.5C78.0256 23.42 77.3156 23.67 76.6056 23.72C75.8856 23.77 75.1456 23.65 74.4556 23.79C73.6956 23.94 72.9756 24.31 72.2356 24.58C72.1056 24.63 71.9756 24.7 71.8656 24.78C71.8156 24.82 71.8156 24.91 71.7956 24.98C71.7556 25.21 71.6255 25.4 71.3955 25.41C70.2355 25.44 69.1656 25.95 68.0156 25.98C67.2056 26.38 66.3356 26.3 65.4756 26.31C64.8256 26.31 64.1456 26.22 63.5456 26.39C62.5556 26.68 61.5756 26.76 60.5656 26.76C60.2856 26.76 60.0056 26.82 59.7256 26.89C59.0956 27.03 58.4656 27.18 57.8556 27.37C57.4956 27.48 57.1656 27.48 56.8056 27.35C56.0256 27.07 55.2556 27.13 54.5156 27.52C54.2656 27.65 53.9956 27.77 53.7356 27.88C53.6056 27.93 53.4556 27.98 53.3156 27.97C53.1856 27.97 53.0056 27.93 52.9456 27.84C52.8856 27.76 52.9656 27.59 52.9956 27.46C53.0156 27.39 53.0756 27.34 53.1056 27.27C53.1356 27.21 53.1655 27.14 53.1555 27.07C53.1455 26.93 53.0256 26.84 52.8656 26.89C52.3256 27.07 51.7756 27.21 51.1856 27.18C50.5356 27.15 49.8956 27.21 49.2956 27.49C49.1756 27.55 49.0056 27.54 48.8756 27.51C48.7456 27.49 48.5755 27.41 48.5255 27.31C48.4855 27.21 48.5256 26.98 48.5856 26.93C49.5456 26.32 50.1256 25.2 51.3256 24.9C51.5056 24.86 51.6355 24.62 51.7855 24.47C51.9855 24.27 52.1556 24.01 52.3856 23.87C53.3756 23.28 54.1256 22.35 55.2356 21.96C55.4956 21.86 55.7156 21.64 55.9356 21.46C57.3456 20.36 58.7056 19.19 60.1656 18.16C61.3555 17.33 62.3656 16.33 63.3856 15.32C63.6356 15.07 63.8855 14.8 64.1455 14.56C65.1255 13.68 65.8256 12.6 66.4856 11.49C66.7356 11.05 66.9556 10.59 67.2456 10.19C67.7256 9.53 67.9656 8.76 68.0656 7.99C68.1956 7.07 68.3255 6.16 68.5255 5.25C68.6355 4.75 68.5556 4.24 68.2256 3.81C68.0956 3.64 67.9556 3.47 67.8556 3.28C67.4556 2.5 66.8855 1.86 66.1455 1.39C65.3655 0.890001 64.6156 0.300001 63.6156 0.290001C63.0156 0.0200009 62.3656 0.0100002 61.7156 0.0100002C60.3556 0.0100002 58.9856 0 57.6256 0C57.4056 0 57.1956 0.0499999 56.9856 0.0799999C56.8256 0.11 56.7556 0.230001 56.7256 0.390001C56.6756 0.600001 56.5556 0.81 56.3256 0.83C55.2456 0.88 54.1656 0.88 53.1356 1.25C53.0056 1.3 52.8556 1.29 52.7056 1.28C51.7356 1.18 50.8756 1.45 50.1256 2.1C49.8556 2.33 49.5356 2.51 49.2256 2.68C48.9756 2.81 48.6956 2.97 48.4356 2.98C47.6156 2.98 46.8956 3.29 46.1856 3.64C45.6056 3.92 44.9855 4.12 44.3955 4.38C43.8055 4.64 43.2255 4.92 42.6455 5.21C42.0555 5.5 41.6156 5.98 41.2256 6.5C41.1156 6.65 41.0556 6.92 41.1056 7.1C41.1956 7.49 41.1456 7.81 40.8456 8.08C40.4256 8.46 39.9856 8.83 39.5456 9.2C39.4156 9.31 39.3756 9.45 39.4756 9.59C39.5556 9.69 39.6655 9.83 39.7755 9.84C40.4155 9.94 41.0856 9.91 41.6856 10.12C42.3756 10.36 42.9456 9.95 43.5856 9.96C44.3056 9.97 45.0256 9.94 45.7356 9.96C46.0256 9.97 46.3156 10.06 46.4856 10.32C46.8656 10.91 47.3756 11.22 48.0856 11.26C48.2856 11.27 48.4756 11.4 48.6756 11.49C48.8556 11.57 48.9556 11.92 48.8456 12.05C48.0656 12.99 47.2256 13.87 46.2456 14.6C45.1656 15.42 44.0756 16.25 43.0456 17.13C42.5056 17.6 41.9556 18.05 41.3356 18.42C40.4756 18.94 39.6257 19.46 38.7656 19.98C38.5956 20.08 38.3356 20.01 38.2056 19.81C38.0856 19.63 37.9756 19.45 37.8656 19.26C37.4756 18.61 36.9556 18.21 36.1656 18.08C35.3256 17.94 34.4856 17.73 33.8356 17.09C33.6956 16.96 33.3456 17.1 33.3056 17.27C33.2356 17.55 33.2056 17.84 33.1156 18.11C32.9456 18.67 32.2156 19.18 31.6356 19.14C31.5156 19.14 31.3656 19.02 31.2956 18.91C31.1756 18.74 31.1155 18.53 31.0255 18.33C30.7955 17.83 30.6856 17.74 30.2256 17.9C29.7256 18.09 29.2555 18.1 28.7755 17.87C28.6455 17.81 28.4956 17.78 28.3556 17.77C28.1456 17.76 27.8855 17.77 27.7855 17.99C27.3555 18.98 26.7456 19.86 26.1256 20.73C26.0856 20.79 26.0555 20.86 26.0255 20.92C25.8955 21.2 25.8856 21.48 26.0056 21.75C26.0656 21.88 26.1456 22.01 26.2256 22.12C26.4656 22.43 26.5755 22.75 26.2755 23.08C25.9055 23.48 25.8456 23.97 25.8356 24.49C25.8256 25.15 26.0056 25.76 26.3056 26.34C26.5356 26.8 26.7156 27.26 26.7156 27.78C26.7156 28.3 26.5756 28.76 26.0456 29.01C24.9356 29.54 23.8555 30.1 23.0355 31.06C22.9055 31.22 22.6956 31.31 22.5156 31.44C21.7656 31.97 20.9856 32.49 20.2556 33.06C19.8556 33.37 19.4556 33.72 19.2056 34.13C18.7956 34.82 18.2456 35.38 17.7356 35.98C17.4156 36.35 17.1656 36.81 16.9856 37.27C16.8556 37.59 16.8155 37.99 16.8955 38.32C17.0455 38.94 17.1255 39.61 17.5355 40.13C17.9255 40.6 18.0456 41.13 18.1656 41.7C18.2156 41.97 18.3856 42.25 18.5856 42.43C19.0656 42.85 19.5656 43.27 20.1156 43.59C20.8556 44.03 21.6355 44.39 22.3955 44.77C22.4555 44.8 22.5356 44.81 22.6056 44.81C23.2556 44.8 23.8956 44.79 24.5456 44.78C25.6856 44.32 26.9656 44.54 28.1156 44.09C28.3356 44.01 28.7456 44.31 28.7656 44.53C28.7956 44.81 28.8456 45.09 28.8456 45.38C28.8556 46.6 28.8556 47.82 28.8556 49.04C28.8556 49.48 28.8456 49.91 28.8856 50.34C29.0756 52.2 29.9355 53.59 31.7755 54.25C31.9755 54.32 32.1955 54.36 32.3955 54.42C32.7355 54.54 33.0656 54.68 33.4156 54.77C33.8656 54.88 34.1756 55.14 34.4356 55.5C34.5156 55.62 34.6056 55.75 34.7256 55.81C34.8356 55.86 35.0456 55.88 35.1156 55.81C35.5056 55.43 35.8956 55.24 36.4556 55.5C36.8756 55.7 37.2955 55.56 37.6555 55.26C37.8155 55.13 37.9856 54.99 38.1256 54.82C38.6156 54.25 39.2156 53.93 39.9756 53.85C40.4356 53.81 40.7255 53.48 40.8955 53.05C41.3289 51.9767 41.6556 50.7433 41.8756 49.35C41.9056 49.2 41.9256 49.06 41.9856 48.93C42.2856 48.25 42.2556 47.53 42.2556 46.81C42.2656 45.59 42.2656 44.36 42.2656 43.14C42.2656 42.71 42.2656 42.28 42.2656 41.85C42.2757 41.31 42.4956 40.86 42.9856 40.62C43.8856 40.17 44.7956 39.74 45.7056 39.31C46.0256 39.16 46.3956 39.08 46.6756 38.87C47.1656 38.5 47.6955 38.39 48.2855 38.39C48.8755 38.39 49.4456 38.43 49.9756 38.16C50.6856 37.81 51.4256 37.56 52.2156 37.41C52.5256 37.35 52.8056 37.03 53.0556 36.79C53.2956 36.57 53.1856 36.26 53.1756 35.98C53.1556 35.59 53.5755 35.31 53.8955 35.46C54.0855 35.55 54.2856 35.64 54.4556 35.76C54.6856 35.93 54.8856 36.14 55.1056 36.33C55.3456 36.52 55.6156 36.57 55.9156 36.48C56.2556 36.39 56.6056 36.32 56.9556 36.22C57.9356 35.92 58.8155 35.51 59.1555 34.41C59.2755 34.06 59.5656 33.79 59.9356 33.73C60.9956 33.55 62.0056 33.12 63.1056 33.2C63.4556 33.22 63.8255 33.13 64.1555 33.02C64.6455 32.86 65.1355 32.76 65.6455 32.8C67.1755 32.93 68.6256 32.45 70.0956 32.18C70.7356 32.05 71.3556 31.93 72.0056 31.93C72.7256 31.93 73.4455 31.93 74.1555 31.93C75.0255 31.93 75.8856 31.93 76.7456 31.93C77.0356 31.93 77.3156 31.97 77.6056 32.01C77.9756 32.07 78.3656 32.51 78.4156 32.92C78.4756 33.28 78.4355 33.63 78.2855 33.97C77.8755 34.9 77.2456 35.68 76.6756 36.5C75.0056 38.07 73.5855 39.92 71.6455 41.2C71.3455 41.39 71.1056 41.67 70.8456 41.92C70.2856 42.47 69.7055 43.02 69.1555 43.59C68.7555 44 68.3055 44.36 67.7755 44.59C67.0355 44.91 66.4555 45.44 65.8955 46C65.4355 46.46 64.9656 46.91 64.4556 47.3C62.8656 48.52 61.1856 49.62 59.5756 50.82C58.4856 51.63 57.3156 52.32 56.3856 53.34C56.1956 53.54 55.9456 53.74 55.6756 53.82C53.8956 54.35 52.5256 55.47 51.2456 56.76C50.7456 57.27 50.2456 57.8 49.4756 57.9C49.3456 57.92 49.2156 58.02 49.1056 58.11C48.4856 58.6 47.7756 58.95 47.1856 59.49C46.6256 60.02 45.7356 60.1 45.3256 60.87C45.2356 61.03 44.9855 61.14 44.7855 61.19C43.4555 61.5 42.5156 62.38 41.6756 63.38C41.4356 63.66 41.5356 64 41.9356 64.22C41.9956 64.25 42.0756 64.26 42.1356 64.3C42.3656 64.43 42.4356 64.65 42.2956 64.8C42.1456 64.95 42.0256 65.16 41.8456 65.25C40.9956 65.68 40.3556 66.36 39.6956 67.02C39.1456 67.59 38.5755 68.13 38.0255 68.7C37.6055 69.13 37.1355 69.37 36.5255 69.47C35.2955 69.66 34.2055 70.15 33.3955 71.16C33.0255 71.61 32.5656 71.96 31.9656 72.07C31.7656 72.11 31.5555 72.23 31.3955 72.36C30.9855 72.68 30.5455 72.88 30.0255 72.91C29.6555 72.93 29.3656 73.15 29.0556 73.33C28.3056 73.77 27.5456 74.16 26.6256 74.01C26.4556 73.98 26.2256 74.11 26.0556 74.23C25.7656 74.43 25.5256 74.78 25.2156 74.87C24.5156 75.07 24.1456 75.51 23.9256 76.17C23.8656 76.35 23.6656 76.51 23.4856 76.62C23.1856 76.8 22.8556 76.96 22.5156 77.08C22.2456 77.17 21.9456 77.14 21.7056 76.94C21.5956 76.85 21.5156 76.72 21.3856 76.65C21.2756 76.59 21.1156 76.54 20.9956 76.57C20.8456 76.6 20.7856 76.77 20.8356 76.92C20.9956 77.42 21.0555 77.89 20.6455 78.32C20.2855 78.7 20.2756 79.24 20.0756 79.7C19.7956 80.32 19.7656 80.94 20.0456 81.57C20.1256 81.76 20.0956 81.99 20.1156 82.2C20.1756 82.7 20.1755 82.72 20.5355 82.78C20.8855 82.85 21.2556 82.86 21.5456 83.09C22.5756 83.87 23.8156 83.94 25.0056 84.09C25.7856 84.19 26.5856 84.1 27.3756 84.11C27.9756 84.12 28.5256 83.92 28.9856 83.59C29.6856 83.1 30.3956 82.58 30.9656 81.95C31.4556 81.42 31.8955 80.88 32.5355 80.51C32.9055 80.3 33.2057 79.97 33.5156 79.67C34.1357 79.08 34.6956 78.4 35.6856 78.43C35.8756 78.43 36.0856 78.27 36.2656 78.17C36.8256 77.85 37.3756 77.51 37.9456 77.2C38.3956 76.95 38.7656 76.62 39.0456 76.2C39.1756 76.02 39.2456 75.8 39.3856 75.65C39.5856 75.45 39.8056 75.19 40.0456 75.14C40.9156 74.97 41.4856 74.16 42.3756 74.07C43.1756 73.6 44.0155 73.17 44.7755 72.65C45.2655 72.31 45.7556 72.08 46.3056 71.89C46.8556 71.71 47.3555 71.43 47.7755 71.02C48.0355 70.77 48.3156 70.53 48.6256 70.36C49.0856 70.11 49.4056 69.75 49.6656 69.31C49.8055 69.07 50.0355 68.82 50.2755 68.74C50.9555 68.52 51.6856 68.45 51.9256 67.59C51.9556 67.49 52.1356 67.4 52.2656 67.35C52.6756 67.22 53.0656 67.03 53.3656 66.71C53.7756 66.28 54.2656 66.02 54.8556 65.89C55.1256 65.83 55.3956 65.69 55.6356 65.53C56.2856 65.08 56.9356 64.65 57.7656 64.61C57.9656 64.61 58.1556 64.43 58.3356 64.32C59.5056 63.62 60.6456 62.87 61.8456 62.24C63.0556 61.6 64.2356 60.92 65.2656 60.01C65.5356 59.77 65.8756 59.66 66.1956 59.5C67.2256 59 68.2355 58.46 69.1555 57.78C69.6755 57.4 70.1456 56.99 70.8056 56.81C71.1856 56.7 71.5156 56.33 71.8056 56.03C72.6656 55.15 73.5656 54.37 74.6956 53.82C75.4556 53.45 76.0956 52.83 76.8156 52.36C77.9456 51.61 78.8856 50.59 80.1656 50.05C80.2756 50 80.3756 49.95 80.4756 49.88C80.8056 49.68 81.0856 49.4 81.3356 49.11C82.5056 47.73 84.0856 46.82 85.3656 45.57C86.4756 44.99 87.2456 44.02 88.1356 43.19C88.6056 42.75 89.0556 42.28 89.5856 41.91C90.0056 41.62 90.3556 41.3 90.6256 40.86C90.8456 40.5 91.1456 40.17 91.4556 39.87C92.0356 39.31 92.4056 38.63 92.6756 37.87C92.8656 37.33 93.1156 36.81 93.3256 36.28C93.5956 35.56 93.9056 34.85 93.9556 34.07C93.9656 34.05 93.9656 34.03 93.9656 34.01C94.0156 33.08 94.0056 32.15 93.9956 31.21H94.0056ZM41.9156 67.25C41.7356 67.55 41.4556 67.64 41.2356 67.47C41.1956 67.44 41.1655 67.36 41.1555 67.3C41.1455 67.24 41.1556 67.15 41.1956 67.11C41.3456 66.93 41.5457 66.88 41.7656 66.94C41.8256 66.95 41.8756 67.02 41.9256 67.06C41.9256 67.13 41.9456 67.21 41.9156 67.25Z" fill="black"/>
<path d="M134.596 49.93L132.346 49.99L132.196 49.95L131.446 50.07L130.046 49.92L125.796 50.06L122.086 50.64L119.676 51.31L117.226 51.62L114.776 51.96L111.876 52L110.996 51.89L109.296 51.96L107.306 52.63L107.076 53.2L106.376 52.79L105.366 52.71L103.976 52.82L102.606 52.88L100.356 53.09L99.8256 53.05L99.6356 52.72L98.6156 52.64L95.2556 52.56L94.0756 52.54L92.5656 52.31L92.0056 52.29L91.9756 51.06L92.3356 50.05L93.1555 49.26L94.9255 47.97L96.6356 45.89L99.2755 44.04L100.476 43.39L102.856 43.55L104.246 43.48L106.026 42.96L106.806 42.63L109.156 41.72L111.556 40.92L112.466 40.87L115.356 39.61L117.226 38.95L117.736 38.19L118.556 37.71L120.706 36.59L122.926 35.5L124.656 33.41L125.626 32.72L127.496 29.72L128.096 28.57L128.316 27.59L127.746 25.8L127.856 24.16L127.516 23.13L126.056 22.64L124.596 21.25L124.156 20.84L123.996 19.69L122.746 19.12L121.156 19.58L119.936 19.94L118.316 21.38L116.326 21.95L115.346 21.99L114.606 22.13L112.746 21.8L111.986 22.25L110.866 22.79L109.446 23.1L107.686 24.37L106.056 25.49L102.746 27.33L101.316 28.74L100.666 28.77L97.7156 30.51L97.4355 30.79L95.7356 32.03L94.3256 33.54L94.0756 34.12L93.9456 33.88L93.5856 34.34L93.3656 34.94L92.9656 36.25L91.1156 38.31L90.4756 38.29L90.0355 38.17L89.3556 38.22L86.3356 41.03L85.6356 41.8L83.1256 44.37L81.1855 47.96L80.7256 48.67L80.4956 49.9L80.1455 52.97L80.1956 54.85L80.4756 57.29L81.2855 59.59L81.7156 60.09L82.3456 61.4L84.8055 64.15L85.5056 64.54L89.4956 65.85L90.9756 65.83L93.3656 66.28L94.6156 65.86L96.2855 65.03L97.2855 64.74L97.6855 64.05L99.1855 63.73L99.8656 64.41L101.446 63.78L102.456 63.08L103.846 62.57L105.046 61.74L106.786 60.88L107.976 60.2L109.636 59.72L111.316 58.97L114.616 57.07L115.136 57.65L115.576 58.08L116.496 57.77L119.716 56.37L123.326 54.67L126.176 54.24L129.016 53.66L130.566 53.33L132.466 52.56L133.156 52.5L134.016 51.97L134.726 51.45L134.606 49.97L134.596 49.93ZM105.016 33.29L108.076 30.49L111.286 30.39L114.866 28.69L116.796 27.27L120.006 29.07L116.986 31.15L114.646 31.98L112.486 33.26L109.776 34.3L107.016 35.22L103.906 36.1L100.896 36.61L103.086 35.27L105.036 33.3L105.016 33.29ZM94.6056 34.29L93.9456 34.04L93.6256 34.93L93.8856 35.54L94.1256 35.28L94.6256 34.48L94.5956 34.28L94.6056 34.29Z" fill="black"/>
<path d="M6.5956 33.19C6.1856 33.19 5.60554 33.24 5.03554 33.18C4.38554 33.11 3.71558 32.9 3.32558 32.37C2.83558 31.7 2.18562 31.3 1.49562 30.93C1.43562 30.9 1.37558 30.85 1.32558 30.8C1.11558 30.6 0.925535 30.37 0.905535 30.07C0.855535 29.35 0.815569 28.64 0.815569 27.92C0.815569 27.32 0.675549 26.79 0.295549 26.32C0.165549 26.16 0.0955492 25.94 0.0455492 25.73C-0.0444508 25.37 -0.00442636 25 0.195574 24.69C0.775574 23.79 1.36561 22.88 1.98561 22.01C2.18561 21.73 2.46553 21.42 2.77553 21.31C4.05553 20.84 5.2556 20.15 6.5956 19.89C7.2556 19.76 7.7956 19.5 8.3456 19.13C9.5956 18.29 10.8656 17.52 12.3356 17.05C13.2856 16.75 14.1556 16.2 15.0556 15.76C15.4656 15.56 15.8855 15.52 16.2955 15.71C16.7855 15.93 17.2456 15.86 17.7556 15.71C18.9256 15.37 20.0955 15.06 21.2855 14.82C22.6855 14.54 24.0856 14.23 25.4656 13.87C25.9356 13.75 26.4556 13.82 26.9556 13.83C27.3256 13.84 27.5256 14.27 27.3456 14.64C27.1956 14.96 27.0156 15.26 26.7156 15.49C25.6356 16.31 24.5656 17.16 23.4856 17.97C22.7456 18.53 21.9756 19.05 21.2156 19.58C20.7956 19.88 20.4656 20.24 20.2356 20.71C19.9556 21.29 19.6856 21.88 19.3556 22.43C19.1356 22.79 18.8755 23.19 18.5355 23.4C17.5355 24 16.7756 24.87 15.9556 25.67C15.5456 26.07 15.1556 26.5 14.7256 26.88C13.9556 27.56 13.4656 28.38 13.0856 29.35C12.4556 30.99 12.3355 31.04 10.7955 32.06C10.6755 32.14 10.5556 32.22 10.4356 32.3C9.30556 32.98 8.1156 33.43 6.5956 33.19Z" fill="black"/>
<path d="M48.9155 26.02C48.9755 26.03 49.0556 26.02 49.0956 26.07C49.1356 26.1 49.1656 26.21 49.1356 26.23C49.0456 26.32 48.9456 26.4 48.8356 26.46C48.8156 26.46 48.7155 26.38 48.7055 26.33C48.6855 26.17 48.7655 26.07 48.9155 26.02Z" fill="black"/>
</svg>
