<svg width="295" height="97" viewBox="0 0 295 97" fill="none" xmlns="http://www.w3.org/2000/svg">
<path d="M103.959 53.3599C103.469 53.6099 102.979 53.8799 102.469 54.1499C102.469 54.2199 102.479 54.2799 102.479 54.3499C102.519 54.8799 102.589 55.3999 102.679 55.9199C102.759 56.3799 102.849 56.8199 102.969 57.2599C103.039 57.5299 103.119 57.8099 103.209 58.0699C103.229 58.1399 103.259 58.2099 103.279 58.2799C103.389 58.6299 103.519 58.9699 103.659 59.2999C103.779 59.5799 103.909 59.8599 104.039 60.1299C104.949 61.9299 106.229 63.5499 107.899 64.9699C111.419 67.9799 116.289 69.4899 122.499 69.4899C128.119 69.4899 132.509 68.2399 135.679 65.7299C138.839 63.2199 140.429 59.8699 140.429 55.6899C140.429 52.7099 139.649 50.3099 138.099 48.5199C136.539 46.7299 134.599 45.3699 132.269 44.4399C129.939 43.5199 126.949 42.6099 123.309 41.7099L121.249 41.1699C118.739 40.6399 116.749 40.0999 115.289 39.5599C113.829 39.0199 112.619 38.2799 111.659 37.3199C110.699 36.3699 110.229 35.0799 110.229 33.4699C110.229 31.3199 111.109 29.6399 112.869 28.4499C114.629 27.2499 117.159 26.6599 120.439 26.6599C127.309 26.6599 131.349 29.5799 132.539 35.4399H138.639C138.219 31.3799 136.469 28.0499 133.389 25.4499C130.309 22.8499 125.969 21.5499 120.349 21.5499C115.269 21.5499 111.299 22.6499 108.439 24.8599C105.569 27.0699 104.129 30.0599 104.129 33.8299C104.129 36.5699 104.889 38.7899 106.419 40.4599C107.939 42.1299 109.809 43.3799 112.019 44.2199C113.759 44.8799 116.009 45.5799 118.759 46.3099C119.489 46.5099 120.259 46.7099 121.069 46.9099C121.089 46.9099 121.109 46.9199 121.129 46.9199C121.529 47.0199 121.869 47.0999 122.159 47.1599C122.219 47.1699 122.279 47.1799 122.349 47.1999C122.689 47.2799 122.949 47.3299 123.129 47.3599C125.579 47.8999 127.549 48.4299 129.049 48.9699C130.539 49.5099 131.779 50.3299 132.769 51.4399C133.749 52.5399 134.239 54.0199 134.239 55.8699C134.239 58.3799 133.319 60.4299 131.469 62.0099C129.609 63.5899 126.659 64.3799 122.589 64.3799C118.049 64.3799 114.619 63.3799 112.289 61.3799C110.809 60.1099 109.759 58.5699 109.159 56.7499C109.069 56.4899 108.989 56.2199 108.919 55.9499C108.869 55.7899 108.829 55.6199 108.799 55.4499C108.769 55.3399 108.749 55.2199 108.729 55.1099C108.619 54.5499 108.549 53.9699 108.519 53.3599H103.959Z" fill="black"/>
<path d="M149.569 22.62V7.39001H143.739V22.62H137.019V27.73H143.739V38.53V56.5V63.22V68.33H149.569H157.189V63.22H149.569V38.53V27.73H160.049V68.33H165.879V22.62H160.049H149.569Z" fill="black"/>
<path d="M166.679 7.39001H159.159V14.91H166.679V7.39001Z" fill="black"/>
<path d="M263.649 22.62L249.489 60.71H249.309L234.839 22.62H233.089H231.059H228.409H215.969H210.149V27.73V68.33V68.44H215.969V68.33V27.73H230.429L246.419 68.01L240.919 83.76L240.689 84.37H245.999L269.919 22.62H263.649Z" fill="black"/>
<path d="M204.769 63.22V35.98C204.769 30.9 203.289 27.21 200.339 24.91C197.379 22.61 193.569 21.46 188.909 21.46C182.699 21.46 178.069 22.85 175.019 25.63C171.969 28.4 170.329 32 170.089 36.42H176.269C176.509 32.96 177.569 30.45 179.459 28.9C181.339 27.34 184.429 26.57 188.729 26.57C192.249 26.57 194.869 27.25 196.569 28.63C198.269 30 199.129 31.91 199.129 34.36C199.129 36.1 198.649 37.41 197.689 38.31C196.739 39.2 195.529 39.85 194.059 40.23C192.599 40.62 190.159 41.12 186.759 41.71C182.459 42.49 178.959 43.41 176.269 44.49C173.579 45.56 171.519 47.09 170.089 49.06C168.659 51.03 167.939 53.6 167.939 56.77C167.939 60.59 169.299 63.67 172.019 66C174.729 68.33 178.359 69.49 182.909 69.49C186.609 69.49 189.819 68.81 192.539 67.43C195.259 66.06 197.389 64.06 198.949 61.43H199.129V68.33H207.289V63.22H204.769ZM199.129 51.21C199.129 55.27 197.719 58.49 194.909 60.84C192.099 63.21 188.339 64.38 183.619 64.38C177.229 64.38 174.029 61.67 174.029 56.23C174.029 53.42 175.089 51.32 177.209 49.91C179.329 48.51 182.759 47.39 187.479 46.55C190.639 46.01 193.229 45.45 195.229 44.85C197.229 44.25 198.529 43.53 199.129 42.7V51.21Z" fill="black"/>
<path d="M276.959 12.53H273.199V10.98H282.519V12.53H278.759V22.62H276.949V12.53H276.959Z" fill="black"/>
<path d="M282.789 10.98H285.149L288.499 20.12H288.529L291.899 10.98H294.259V22.61H292.499V13.58H292.469L289.259 22.61H287.779L284.569 13.58H284.539V22.61H282.779V10.98H282.789Z" fill="black"/>
<path d="M108.799 55.45C108.769 55.34 108.749 55.22 108.729 55.11C108.619 54.55 108.549 53.97 108.519 53.36H101.129C95.4193 55.29 87.9992 57.9 86.2692 58.77C80.1392 61.85 74.5892 63.99 69.2992 65.31C68.3992 65.54 67.7393 65.64 67.2493 65.64C66.4393 65.64 65.8593 65.64 65.7193 62.54C65.6793 61.65 66.0093 60.91 66.3893 60.06C66.5193 59.76 66.6492 59.46 66.7692 59.15C67.1892 58.39 67.0693 57.58 66.9693 56.93C66.8293 55.98 66.8493 55.72 67.3593 55.44L67.7092 55.25L67.7792 54.86C67.9092 54.25 68.1893 53.66 68.4893 53.03C68.9293 52.11 69.3892 51.16 69.4292 50C69.5292 47.38 70.8292 45.03 72.0792 42.77C72.4292 42.13 72.7793 41.51 73.0892 40.89C73.7093 39.68 74.2893 38.42 74.8593 37.2C76.2493 34.18 77.6892 31.06 79.7792 28.43L79.9492 28.21V27.94C80.0392 26.34 80.4393 25.67 81.5093 25.39C81.6693 25.35 81.8092 25.32 81.9392 25.32C82.5192 25.32 82.9492 25.72 83.5892 26.38C83.7093 26.5 83.8292 26.62 83.9592 26.74C85.3892 28.12 87.1392 28.78 88.8192 29.42C89.0792 29.51 89.3292 29.61 89.5792 29.71C90.3392 31.24 91.1793 32.8 93.1293 33.86C94.1593 34.41 94.3693 34.82 94.3593 34.92C94.3493 35.03 94.0393 35.47 92.7293 35.95C87.0193 38.07 80.3393 40.72 74.0093 44.37L73.5792 44.61C72.7292 45.09 71.8593 45.58 71.1193 46.37C69.7493 47.83 70.2392 48.95 70.6492 49.49C71.1392 50.12 71.6992 50.25 72.0792 50.25C72.7492 50.25 73.3192 49.86 73.8092 49.5C75.9492 47.91 78.3792 46.96 80.9492 45.96C82.2892 45.43 83.6693 44.89 85.0093 44.25L85.2092 44.15L85.3292 43.97C86.0792 42.92 87.0992 42.1 88.4192 41.49C88.6892 41.53 88.9593 41.54 89.2293 41.54C91.1493 41.54 92.7492 40.71 94.2892 39.9C94.9692 39.54 95.6192 39.2 96.2692 38.94C98.7092 37.99 100.079 36.72 100.359 35.19C100.639 33.65 99.7992 31.97 97.8392 30.19C93.5192 26.27 88.7992 22.27 82.8192 20.21C81.7992 19.86 81.0493 19.7 80.3793 19.7C78.4993 19.7 77.4893 21.01 76.7593 22.29C76.2393 23.19 75.7592 24.12 75.2992 25.02C74.6392 26.31 73.9492 27.65 73.1692 28.86C69.7292 34.16 66.8093 40.11 64.5093 46.54C64.0093 47.94 63.4492 49.35 62.8992 50.71C62.2792 52.26 61.6593 53.83 61.0993 55.44C61.0993 55.45 61.0992 55.46 61.0892 55.47C61.0492 54.74 60.6793 54.01 59.9793 53.36C57.1193 50.7 53.6993 48.26 49.2193 45.68C46.5793 44.16 43.7192 43.13 40.9592 42.14C39.5692 41.64 38.1392 41.12 36.7692 40.56C36.1592 40.31 35.7792 40.04 35.6792 39.79C35.5892 39.55 35.6893 39.13 36.0093 38.46C36.7293 36.93 37.7392 35.61 38.8092 34.2C39.2692 33.6 39.7293 33 40.1093 32.44L40.7393 31.71C42.3193 29.9 43.9492 28.04 44.9492 25.69C45.6592 24.46 46.6692 22.64 47.4392 20.77C47.5992 20.38 47.8593 19.98 48.1293 19.55C48.9093 18.34 49.8793 16.84 48.8793 14.86L48.8593 14.81L48.8292 14.77C46.9592 12 44.9693 10.48 42.3693 9.82C40.6293 9.38 38.8892 8.75 37.1992 8.14C36.7292 7.97 34.7092 7.25 34.7092 7.25C26.4592 4.33 17.9293 1.31 8.96925 0.0799999C8.56925 0.0299999 8.22919 0 7.89919 0C5.63919 0 4.89921 1.37 4.42921 2.85L4.36928 3.03L4.3893 3.22C4.6093 4.87 5.7992 6.02 7.2892 6.02C7.9792 6.02 8.66921 5.77 9.29921 5.31C9.42921 5.21 9.5492 5.11 9.6592 5.01C9.7592 4.93 9.89919 4.8 9.89919 4.78C9.89919 4.78 9.92928 4.78 9.99928 4.83L10.0492 4.86L10.0993 4.88C10.4393 5.02 10.7693 5.15 11.1093 5.29C12.1193 5.69 13.0793 6.07 13.9693 6.58C13.8993 7.9 14.0892 9.16 14.2792 10.4C14.3392 10.83 14.4092 11.26 14.4592 11.69C14.1492 13.11 14.1993 14.52 14.2493 15.89C14.2993 17.24 14.3392 18.52 14.0592 19.76L14.0292 19.88V20C14.2092 22.94 13.7293 25.9 13.2593 28.77C12.8793 31.1 12.4892 33.5 12.4292 35.93C12.1392 37.27 12.1793 38.61 12.2193 39.9C12.2593 41.13 12.2992 42.29 12.0592 43.41C11.5592 44.28 11.7692 45.14 11.9292 45.77C12.0492 46.26 12.1193 46.57 12.0093 46.81L11.9793 46.88L11.9592 46.95C11.6192 48.35 11.6692 49.73 11.7092 51.07C11.7492 52.3 11.7892 53.47 11.5392 54.6L10.9092 56.04L10.8793 56.76C10.8793 57.14 10.8992 57.52 10.9192 57.89C10.9492 58.69 10.9892 59.45 10.9192 60.19C10.7992 61.58 10.6493 62.96 10.4893 64.35C10.0993 67.82 9.68923 71.41 9.94923 75.02C9.94923 75.16 9.95925 75.31 9.96925 75.46C9.98925 76.24 10.0293 78.08 11.7393 78.08C11.8693 78.08 12.0192 78.07 12.1792 78.04L12.3693 78C13.5693 77.78 15.7992 77.38 16.0592 74.97C16.1692 74.01 16.2392 73.05 16.3192 72.08C16.3992 71.04 16.4893 70 16.6093 68.96C16.7993 67.31 16.7192 65.65 16.6492 64.05C16.5592 62.2 16.4792 60.45 16.7892 58.75C17.7192 53.55 17.9092 48.25 18.0892 43.12C18.1492 41.58 18.1992 40.04 18.2792 38.51C18.3792 36.34 18.6993 34.15 18.9993 32.02C19.4493 28.85 19.9193 25.57 19.7293 22.25C19.7293 22.16 19.8592 21.88 19.9392 21.71C20.0192 21.54 20.1092 21.36 20.1692 21.19L20.2393 21.01L20.2193 20.82C19.7593 16.29 19.9492 11.81 20.1892 8.12C20.2792 7.58 20.4293 7.58 20.4793 7.58C20.5493 7.58 20.7093 7.6 20.9793 7.71C21.7193 8.02 23.9993 8.97 23.9993 8.97C24.6493 9.54 25.3993 9.62 25.9993 9.62C26.1393 9.62 26.5592 9.61 26.5592 9.61C27.4092 9.91 28.2893 10.14 29.1293 10.35C30.4493 10.69 31.6892 11.01 32.8392 11.59C33.2692 12.27 33.8892 12.62 34.6992 12.62C35.0192 12.62 35.3293 12.57 35.6193 12.52C35.8593 12.48 36.0892 12.44 36.2892 12.44C36.4392 12.44 36.5393 12.46 36.6393 12.52C37.9993 13.29 39.5292 14.16 41.1792 14.23C42.3792 14.28 42.9492 14.67 43.3192 15.75C41.2992 21.46 38.1593 26.41 35.3493 30.52C34.7793 31.36 34.1293 32.19 33.5093 32.99C32.0793 34.83 30.5992 36.73 29.6992 39.05C29.0792 40.65 29.0792 42.25 29.6992 43.43C30.1792 44.34 30.9892 44.95 32.0292 45.19C33.2792 45.48 34.4492 45.94 35.6792 46.44C36.5392 46.79 37.4392 47.14 38.4292 47.45C38.9792 47.57 39.5292 47.62 40.0592 47.68C40.6692 47.74 41.2392 47.8 41.7792 47.95C46.0092 49.79 49.5093 51.86 52.4993 54.28C53.4493 55.05 54.4192 55.9 54.4092 56.4C54.4092 56.99 53.0593 58.06 52.6193 58.41L52.4092 58.58C49.0692 61.24 45.6093 64 42.1293 66.6C29.1793 76.3 16.8593 83.74 4.46925 89.35C3.21925 89.91 2.19924 90.63 1.32924 91.52L1.12929 91.73C0.499288 92.36 -0.670717 93.54 0.499283 95.17C1.07928 95.98 1.79928 96.4 2.61928 96.4C3.19928 96.4 3.81928 96.19 4.49928 95.75C5.73928 94.95 6.8492 94.34 7.9092 93.88C15.0992 90.76 21.4392 86.68 28.3992 82.05C30.2192 80.84 32.0292 79.55 33.7792 78.31C37.0392 75.99 40.4192 73.59 43.9592 71.62L44.0993 71.54L44.1992 71.41C45.0492 70.37 45.9193 69.43 47.2493 69.29L47.7293 69.24L48.0392 68.59C48.5492 67.5 48.8992 66.83 49.7792 66.63L49.8693 66.61L49.9492 66.57C51.1892 65.98 52.1492 65.09 53.0792 64.24C53.6392 63.72 54.1792 63.23 54.6992 62.85C56.1992 61.95 57.2792 60.69 58.3292 59.47C58.9392 58.76 59.5192 58.08 60.1792 57.48C60.3192 57.35 60.4193 57.23 60.5093 57.1C60.5093 57.11 60.5093 57.13 60.4993 57.14C60.0393 58.59 59.6592 60.08 59.4092 61.62C58.9192 64.55 58.7593 68.72 62.9893 71.2L63.1093 71.27L63.2593 71.3C64.2493 71.49 65.1293 71.58 65.9693 71.58C67.7893 71.58 69.3692 71.14 70.7992 70.23C71.5492 70.04 72.3092 69.89 73.0792 69.73C74.9192 69.36 76.8092 68.98 78.5192 68.15L79.3493 67.75C83.5693 65.7 94.8992 61.22 103.169 58.08C105.349 57.26 107.309 56.53 108.879 55.96C108.829 55.8 108.789 55.63 108.759 55.46L108.799 55.45Z" fill="black"/>
</svg>
