<svg width="317" height="77" viewBox="0 0 317 77" fill="none" xmlns="http://www.w3.org/2000/svg">
<path d="M162.89 48.2999C162.89 52.4799 161.3 55.8299 158.14 58.3399C154.97 60.8499 150.58 62.0999 144.96 62.0999C138.75 62.0999 133.88 60.5899 130.36 57.5799C128.69 56.1599 127.41 54.5399 126.5 52.7399C126.37 52.4699 126.24 52.1899 126.12 51.9099C125.98 51.5799 125.85 51.2399 125.74 50.8899C125.48 50.1399 125.28 49.3499 125.14 48.5399C125.05 48.0099 124.98 47.4899 124.94 46.9599C124.94 46.8899 124.94 46.8299 124.94 46.7599C125.45 46.4899 125.94 46.2199 126.43 45.9699H130.99C131.03 46.6999 131.12 47.3999 131.27 48.0599C131.36 48.5099 131.48 48.9399 131.63 49.3599C132.23 51.1799 133.28 52.7199 134.76 53.9899C137.09 55.9899 140.52 56.9899 145.06 56.9899C149.13 56.9899 152.08 56.1999 153.94 54.6199C155.79 53.0399 156.71 50.9899 156.71 48.4799C156.71 46.6299 156.22 45.1499 155.24 44.0499C154.25 42.9399 153.01 42.1199 151.52 41.5799C150.02 41.0399 148.05 40.5099 145.6 39.9699C145.42 39.9399 145.16 39.8899 144.82 39.8099C144.75 39.7899 144.69 39.7799 144.63 39.7699C144.34 39.7099 144 39.6299 143.6 39.5299C143.58 39.5299 143.56 39.5199 143.54 39.5199C142.73 39.3199 141.96 39.1199 141.23 38.9199C138.48 38.1899 136.23 37.4899 134.49 36.8299C132.28 35.9899 130.41 34.7399 128.89 33.0699C127.36 31.3999 126.6 29.1799 126.6 26.4399C126.6 22.6699 128.04 19.6799 130.91 17.4699C133.77 15.2599 137.74 14.1599 142.82 14.1599C148.44 14.1599 152.78 15.4599 155.86 18.0599C158.94 20.6599 160.69 23.9899 161.11 28.0499H155.01C153.82 22.1899 149.78 19.2699 142.91 19.2699C139.63 19.2699 137.1 19.8599 135.34 21.0599C133.58 22.2499 132.7 23.9299 132.7 26.0799C132.7 27.6899 133.17 28.9799 134.13 29.9299C135.09 30.8899 136.3 31.6299 137.76 32.1699C139.22 32.7099 141.21 33.2499 143.72 33.7799L145.78 34.3199C149.42 35.2199 152.41 36.1299 154.74 37.0499C157.07 37.9799 159.01 39.3399 160.57 41.1299C162.12 42.9199 162.9 45.3199 162.9 48.2999H162.89Z" fill="black"/>
<path d="M172.03 15.23V0H166.2V15.23H159.48V20.34H166.2V31.14V49.11V55.83V60.94H172.03H179.65V55.83H172.03V31.14V20.34H182.51V60.94H188.34V15.23H182.51H172.03Z" fill="black"/>
<path d="M189.14 0H181.62V7.52H189.14V0Z" fill="black"/>
<path d="M286.11 15.23L271.95 53.32H271.77L257.3 15.23H255.55H253.52H250.87H238.43H232.61V20.34V60.94V61.05H238.43V60.94V20.34H252.89L268.88 60.62L263.38 76.37L263.15 76.98H268.46L292.38 15.23H286.11Z" fill="black"/>
<path d="M227.23 55.8299V28.5899C227.23 23.5099 225.75 19.8199 222.8 17.5199C219.84 15.2199 216.03 14.0699 211.37 14.0699C205.16 14.0699 200.53 15.4599 197.48 18.2399C194.43 21.0099 192.79 24.6099 192.55 29.0299H198.73C198.97 25.5699 200.03 23.0599 201.92 21.5099C203.8 19.9499 206.89 19.1799 211.19 19.1799C214.71 19.1799 217.33 19.8599 219.03 21.2399C220.73 22.6099 221.59 24.5199 221.59 26.9699C221.59 28.7099 221.11 30.0199 220.15 30.9199C219.2 31.8099 217.99 32.4599 216.52 32.8399C215.06 33.2299 212.62 33.7299 209.22 34.3199C204.92 35.0999 201.42 36.0199 198.73 37.0999C196.04 38.1699 193.98 39.6999 192.55 41.6699C191.12 43.6399 190.4 46.2099 190.4 49.3799C190.4 53.1999 191.76 56.2799 194.48 58.6099C197.19 60.9399 200.82 62.0999 205.37 62.0999C209.07 62.0999 212.28 61.4199 215 60.0399C217.72 58.6699 219.85 56.6699 221.41 54.0399H221.59V60.9399H229.75V55.8299H227.23ZM221.59 43.8199C221.59 47.8799 220.18 51.0999 217.37 53.4499C214.56 55.8199 210.8 56.9899 206.08 56.9899C199.69 56.9899 196.49 54.2799 196.49 48.8399C196.49 46.0299 197.55 43.9299 199.67 42.5199C201.79 41.1199 205.22 39.9999 209.94 39.1599C213.1 38.6199 215.69 38.0599 217.69 37.4599C219.69 36.8599 220.99 36.1399 221.59 35.3099V43.8199Z" fill="black"/>
<path d="M299.42 5.13997H295.66V3.58997H304.98V5.13997H301.22V15.23H299.41V5.13997H299.42Z" fill="black"/>
<path d="M305.25 3.58997H307.61L310.96 12.73H310.99L314.36 3.58997H316.72V15.22H314.96V6.18997H314.93L311.72 15.22H310.24L307.03 6.18997H307V15.22H305.24V3.58997H305.25Z" fill="black"/>
<path d="M129.48 47.1199L126.42 45.9699L125.19 46.1099L122.62 47.1499L119.97 47.9599L117.36 48.8899L114.77 49.8699L112.05 50.4399L109.41 51.2699L106.76 52.0599L104.13 52.9199L101.39 53.8699L98.6199 54.7699L95.73 55.1599L92.8699 55.6899L89.96 55.6399L87.0598 55.8999L85.0999 55.5399L85.98 53.9899L87.47 51.1999L88.8999 48.3699L90.6899 45.7599L92.45 43.1499L94.2898 40.5699L96.0999 40.4899L98.0999 42.0299L100.62 41.4999L103.63 40.9999L106.6 40.3299L109.56 39.6399L112.51 38.9099L115.68 38.3199L118.89 38.0199L122.05 37.3199L124.48 36.4199L125.21 34.0999L124.86 30.9399L123.29 28.1699L121.91 25.3199L120.16 23.3899L118.91 21.1099L117.64 18.8399L115.52 16.3299L113.99 13.4299L112.04 10.7699L110.86 11.0599L108.21 12.1599L106.36 14.2999L104.98 16.8399L103.29 19.1799L101.8 21.6499L100.16 24.0199L98.49 26.3699L97.0298 28.5299L95.25 30.4499L93.7998 32.6299L92.1699 34.6699L90.5398 36.5999L88.74 38.3799L87.24 40.6499L83.96 38.9399L81.26 38.3299L78.5298 37.8799L75.76 37.7099H72.99L70.21 37.7799L67.47 38.3299L64.72 38.6899L61.9299 38.7599L59.1499 38.9499L56.4299 39.6299L53.6699 39.9599L50.8198 40.1799L47.97 40.4999V40.1299L48.8499 39.5199L51.1599 37.9899L53.6699 36.8299L55.9299 35.2099L58.4399 34.0599L60.8899 32.7899L63.24 31.3299L65.7998 30.2599L68.2798 29.0399L70.5398 27.4399L72.8799 25.9699L75.5498 24.3599L78.0398 22.4899L80.51 20.5799L83.2 18.9699L84.0698 15.8799L81.75 13.7599L79.3899 13.3699L77.01 13.4299L74.21 13.4499L71.4099 13.5699L68.6199 13.8799L65.8198 13.8399L63.0198 13.8099L60.23 14.2599L57.47 13.4199L55.6499 13.4799L53.6199 14.0999L50.46 14.0099L47.3198 13.6299L44.1799 13.3499L41.0798 12.8099L37.9399 12.3499L33.8999 12.0999L31.6399 14.8699L33.8499 17.1899L36.3098 18.1699L38.8899 18.5999L41.5 18.7899L44.1199 18.9199L46.96 19.6699L45.8699 20.6899L43.6199 22.6999L41.6299 25.0099L39.1399 26.7599L37.0999 29.0099L34.7798 30.9599L32.6699 33.1299L30.3599 35.0799L28.4399 37.1099L26.3599 38.9799L24.5298 41.0999L22.5 43.0299L20.5398 45.0299L18.8098 47.2299L16.9199 49.2899L15.1699 51.4799L13.0298 53.3099L11.6299 55.4199L10.0198 57.3699L10.8699 60.2299L13.2798 60.7099L15.4399 59.2999L17.22 57.1199L19.1299 55.0599L21.0498 53.0099L22.9199 50.9099L24.5498 48.5999L26.74 46.7899L28.5898 44.6699L30.5698 42.6699L32.4199 40.5599L34.5198 38.4899L36.6599 36.4599L38.5698 34.1999L40.9099 32.3799L42.7998 30.0799L45.0598 28.1799L47.25 26.1999L49.6699 24.4899L51.8699 22.5199L54.3198 20.8699L56.8298 19.9499L59.8198 19.5599L62.8298 19.4799L65.8499 19.5899L68.8398 19.0299L71.8599 19.2499L73.9399 19.3099L72.22 20.7499L69.5798 22.1899L67.0698 23.8699L64.25 24.9799L61.6899 26.5599L59.0698 28.0299L56.3599 29.3399L53.6799 30.7099L51.3198 32.1699L48.7798 33.2899L46.3398 34.6099L43.76 35.6399L41.4199 37.1699L38.9299 38.3799L36.3198 39.2899L33.9399 40.6499L31.6499 42.1599L31.3899 45.5999L34.3999 47.0599L37.75 46.9999L40.6499 46.8099L43.5198 46.3299L46.4099 46.0299L49.2798 45.5899L52.21 45.7299L55.0598 45.0599L57.9099 44.6299L60.7998 44.6099L63.6499 44.2199L66.51 43.9199L69.3599 43.4999L71.0398 43.7999L71.24 44.2399L69.7798 44.7899L67 45.4899L64.3599 46.5599L61.76 47.7499L58.97 48.3899L56.3499 49.5299L53.6599 50.4899L50.8599 51.0899L48.26 52.3099L45.4299 52.7999L42.7998 53.9299L40.0798 54.7899L37.2898 55.4199L34.5798 56.3099L31.7698 56.8399L28.97 58.0599L25.99 58.6399L23.0598 59.3799L20.1299 60.1499L17.1699 60.8099L14.3298 61.8999L11.3799 62.5799L8.46997 63.3999L5.55981 64.2399L3.11987 65.0099L0.709961 65.9099L0 69.3899L1.7998 70.7499L4.09985 70.6899L7.09985 69.5599L10.1299 68.4999L13.1899 67.5399L15.9199 66.8099L18.6199 65.9699L21.3298 65.1399L24.0798 64.4699L26.8899 63.9899L29.5398 62.9699L32.3298 62.4299L34.9399 61.2699L37.72 60.6999L40.3699 59.6699L43.1399 59.0599L45.8098 58.0999L48.5398 57.3599L51.3298 56.8199L53.9199 55.6199L56.71 55.0499L59.46 53.9899L62.3298 53.3099L65.0398 52.1699L67.74 51.0199L70.6199 50.3399L73.25 48.9799L76.0498 48.0799L78.8098 47.0699L81.6399 46.2699L83.73 45.5399L83.4199 46.7799L81.5598 49.3299L80.22 52.1599L78.6399 54.8599L77.1399 57.5999L77.6099 60.4399L79.8999 61.6399L82.3999 62.2499L85.1299 62.8799L87.9099 62.5999L90.6499 62.2099L93.4199 61.9999L96.1199 61.3799L98.7898 60.5999L101.48 59.8699L104.21 59.3299L106.96 58.8399L109.57 57.8299L112.35 57.4399L115.16 56.4199L117.93 55.2999L120.88 54.7299L123.71 53.7999L126.51 52.7899L127.23 52.6499L129.47 50.3099L129.45 47.0799L129.48 47.1199ZM109.88 20.3999L111.53 22.6499L112.74 25.1499L114.11 27.5399L115.62 29.8499L117.42 32.1599L114.65 32.8699L111.92 32.9899L109.32 33.7299L106.68 34.2899L104.07 34.9799L101.42 35.4799L98.95 35.7199L100.4 33.6899L102.06 31.5399L103.52 29.2399L105.3 27.1799L106.89 24.9799L108.45 22.7699L109.87 20.4099L109.88 20.3999Z" fill="black"/>
</svg>
