<svg width="283" height="90" viewBox="0 0 283 90" fill="none" xmlns="http://www.w3.org/2000/svg">
<path d="M128.42 57.73C128.42 61.91 126.83 65.26 123.67 67.77C120.5 70.28 116.11 71.53 110.49 71.53C104.28 71.53 99.4099 70.02 95.8899 67.01C93.9699 65.37 92.5599 63.48 91.6499 61.34C91.1999 60.28 90.8699 59.15 90.6699 57.97C90.5799 57.44 90.51 56.92 90.47 56.39C90.47 56.32 90.46 56.26 90.46 56.19C90.97 55.92 91.46 55.65 91.95 55.4H96.51C96.55 56.13 96.64 56.83 96.79 57.49C97.29 59.88 98.46 61.86 100.28 63.42C102.61 65.42 106.04 66.42 110.58 66.42C114.65 66.42 117.6 65.63 119.46 64.05C121.31 62.47 122.23 60.42 122.23 57.91C122.23 56.06 121.74 54.58 120.76 53.48C119.77 52.37 118.53 51.55 117.04 51.01C115.54 50.47 113.57 49.94 111.12 49.4C110.76 49.34 110.08 49.19 109.06 48.95C105.24 47.99 102.22 47.1 100.01 46.26C97.8 45.42 95.9299 44.17 94.4099 42.5C92.8799 40.83 92.1201 38.61 92.1201 35.87C92.1201 32.1 93.5599 29.11 96.4299 26.9C99.2899 24.69 103.26 23.59 108.34 23.59C113.96 23.59 118.3 24.89 121.38 27.49C124.46 30.09 126.21 33.42 126.63 37.48H120.53C119.34 31.62 115.3 28.7 108.43 28.7C105.15 28.7 102.62 29.29 100.86 30.49C99.1001 31.68 98.22 33.36 98.22 35.51C98.22 37.12 98.6899 38.41 99.6499 39.36C100.61 40.32 101.82 41.06 103.28 41.6C104.74 42.14 106.73 42.68 109.24 43.21L111.3 43.75C114.94 44.65 117.93 45.56 120.26 46.48C122.59 47.41 124.53 48.77 126.09 50.56C127.64 52.35 128.42 54.75 128.42 57.73Z" fill="black"/>
<path d="M137.56 24.6601V9.43005H131.73V24.6601H125.01V29.7701H131.73V40.5701V58.5401V65.2601V70.3701H137.56H145.17V65.2601H137.56V40.5701V29.7701H148.04V70.3701H153.87V24.6601H148.04H137.56Z" fill="black"/>
<path d="M154.67 9.43005H147.15V16.9501H154.67V9.43005Z" fill="black"/>
<path d="M251.64 24.66L237.48 62.75H237.3L222.83 24.66H221.08H219.05H216.4H203.96H198.14V29.77V70.37V70.48H203.96V70.37V29.77H218.41L234.41 70.05L228.91 85.8L228.68 86.41H233.99L257.91 24.66H251.64Z" fill="black"/>
<path d="M192.76 65.26V38.02C192.76 32.94 191.28 29.25 188.33 26.95C185.37 24.65 181.56 23.5 176.9 23.5C170.69 23.5 166.06 24.89 163.01 27.67C159.96 30.44 158.32 34.04 158.08 38.46H164.26C164.5 35 165.56 32.49 167.45 30.94C169.33 29.38 172.42 28.61 176.72 28.61C180.24 28.61 182.86 29.29 184.56 30.67C186.26 32.04 187.12 33.95 187.12 36.4C187.12 38.14 186.64 39.45 185.68 40.35C184.73 41.24 183.52 41.89 182.05 42.27C180.59 42.66 178.15 43.16 174.75 43.75C170.45 44.53 166.95 45.45 164.26 46.53C161.57 47.6 159.51 49.13 158.08 51.1C156.65 53.07 155.93 55.64 155.93 58.81C155.93 62.63 157.29 65.71 160.01 68.04C162.72 70.37 166.35 71.53 170.9 71.53C174.6 71.53 177.81 70.85 180.53 69.47C183.25 68.1 185.38 66.1 186.94 63.47H187.12V70.37H195.28V65.26H192.76ZM187.12 53.25C187.12 57.31 185.71 60.53 182.9 62.88C180.09 65.25 176.33 66.42 171.61 66.42C165.22 66.42 162.02 63.71 162.02 58.27C162.02 55.46 163.08 53.36 165.2 51.95C167.32 50.55 170.75 49.43 175.47 48.59C178.63 48.05 181.22 47.49 183.22 46.89C185.22 46.29 186.52 45.57 187.12 44.74V53.25Z" fill="black"/>
<path d="M264.95 14.57H261.19V13.02H270.51V14.57H266.75V24.66H264.94V14.57H264.95Z" fill="black"/>
<path d="M270.77 13.02H273.13L276.48 22.16H276.51L279.88 13.02H282.24V24.65H280.48V15.62H280.45L277.24 24.65H275.76L272.55 15.62H272.52V24.65H270.76V13.02H270.77Z" fill="black"/>
<path d="M95.5901 55.62L91.95 55.4L91.1201 55.6L89.54 56.05L87.1899 57.63L84.6201 58.84L82.3501 60.56L79.8801 61.94L77.26 63.02L74.6301 64.03L72.0601 65.29L69.2 65.22L66.3801 65.3L63.77 63.92L61.9399 61.61L61.1101 58.84L61.6001 56.14L63.6899 54.24L65.8501 52.36L68.1699 50.67L70.24 48.68L72.3999 46.79L74.6301 44.99L76.99 43.35L79.0901 41.4L81.2 39.46L83.1799 37.39L85.52 35.24L87.6301 32.95L88.0601 30.44L87.1101 27.96L85.21 26.14L82.8701 25.11L80.1201 25.64L77.3899 26.53L75 28.1L72.6101 29.66L70.4199 31.51L67.99 33.02L65.47 34.38L63.05 35.79L61.1201 34.1L59.1001 32.2L56.8 30.83L54.1499 30.21L51.3899 30.32L48.8201 30.66L50.23 28.2L51.53 25.49L53 22.88L54.78 20.45L56.02 17.71L57.3999 15.04L58.0701 12.1L58.21 9.12L58.0701 6.17L57.27 3.79L55.6799 1.75L53.4399 0.440001L50.9299 0L48.3601 1.11L45.95 2.57L43.73 4.33L41.3701 5.96L39.45 8.08L37.49 10.15L35.6399 12.29L33.95 14.62L32.47 17.1L31.3999 19.78L29.99 22.31L29.21 25.1L28.28 27.83L27.4099 30.58L26.71 33.38L25.95 36.17L25.75 39.07L24.98 41.87L24.77 44.75L24.1399 47.57L23.1301 50.11L22.3101 52.71L21.6399 55.36L20.8301 57.97L19.8301 60.52L22.26 60.82L25 60.26L27.27 58.69L28.53 56.25L29.6201 53.65L30.3999 50.94L31.5 48.34L32.6001 45.76L34.8401 44.11L36.9399 42.27L39.29 40.76L41.6699 39.31L44.1899 38.14L47.0601 37.17L50.05 36.62L53.0601 37L55.3601 38.91L55.5801 41.93L54.74 44.84L53.3801 47.33L51.5601 49.5L49.8101 51.74L47.5901 53.52L45.6599 55.61L43.6301 57.6L41.25 59.17L38.95 60.83L36.95 62.89L34.5601 64.44L32.3201 66.19L29.79 67.53L27.47 69.17L25.1201 70.77L22.8899 72.54L20.4299 73.95L17.8101 75.35L15.25 76.87L12.6301 78.28L9.8999 79.49L7.36011 81.06L4.87012 82.7L2.59009 84.61L0.5 86.73L0 89.01L2.55005 89.13L5.09009 88.76L7.59009 87.99L9.86011 86.67L12.21 85.5L14.97 84.51L17.49 83.02L20.21 81.93L22.6301 80.26L25.1899 78.86L27.99 77.9L30.52 76.45L33.02 74.93L35.52 73.41L38.02 71.9L40.46 70.29L42.97 68.81L45.5 67.36L47.8 65.55L50.3601 64.11L52.6499 64.78L54.3899 66.35L55.98 68.24L58.1499 70.29L60.8801 71.49L63.6799 72.31L66.6101 72.24L69.45 71.47L72.3101 70.73L75.01 69.51L77.7 68.3L80.3401 66.95L83 65.64L85.6101 64.23L88.3601 63.05L90.9099 61.51L93.3501 59.37L95.8201 57.45L95.5901 55.62ZM70.6001 37.56L73.1499 35.33L76.01 34.14L78.73 32.58L78.4199 34.04L76.76 36.13L74.24 37.79L71.9299 39.73L69.4399 41.42L67.23 43.49L64.8401 45.15L66.6201 42.6L68.54 40.03L70.5901 37.55L70.6001 37.56ZM38.6301 32.6L36.54 33.75L37.24 31.02L38.01 28.03L38.72 25.01L39.48 22.01L40.3601 19.06L40.8899 14.98L42.04 12.49L43.76 10.32L45.6101 8.24L48.1499 7.09L50.0801 8.7L50.8101 11.25L50.23 13.99L49.01 16.49L47.8999 19.01L46.8801 21.59L45.51 24L44.1399 26.42L42.1799 28.42L40.6899 30.76L38.6301 32.6Z" fill="black"/>
</svg>
