<svg width="285" height="92" viewBox="0 0 285 92" fill="none" xmlns="http://www.w3.org/2000/svg">
<path d="M128.65 55.61C127.09 53.82 125.15 52.46 122.82 51.53C120.49 50.61 117.5 49.7 113.86 48.8L111.8 48.26C109.29 47.73 107.3 47.19 105.84 46.65C104.38 46.11 103.17 45.37 102.21 44.41C101.25 43.46 100.78 42.17 100.78 40.56C100.78 38.41 101.66 36.73 103.42 35.54C105.18 34.34 107.71 33.75 110.99 33.75C117.86 33.75 121.9 36.67 123.09 42.53H129.19C128.77 38.47 127.02 35.14 123.94 32.54C120.86 29.94 116.52 28.64 110.9 28.64C105.82 28.64 101.85 29.74 98.99 31.95C96.12 34.16 94.6802 37.15 94.6802 40.92C94.6802 43.66 95.44 45.88 96.97 47.55C98.49 49.22 100.36 50.47 102.57 51.31C104.78 52.15 107.8 53.04 111.62 54C112.64 54.24 113.32 54.39 113.68 54.45C116.13 54.99 118.1 55.52 119.6 56.06C121.09 56.6 122.33 57.42 123.32 58.53C124.3 59.63 124.79 61.11 124.79 62.96C124.79 65.47 123.87 67.52 122.02 69.1C120.16 70.68 117.21 71.47 113.14 71.47C108.6 71.47 105.17 70.47 102.84 68.47C100.51 66.47 99.2501 63.8 99.0701 60.45H92.98C92.99 60.78 93.01 61.11 93.03 61.44C93.07 61.97 93.14 62.49 93.23 63.01C93.33 63.58 93.4501 64.13 93.6101 64.66C93.6301 64.77 93.6702 64.89 93.7002 65C93.7302 65.09 93.76 65.19 93.8 65.28C94.66 67.88 96.2102 70.15 98.4502 72.06C101.97 75.07 106.84 76.58 113.05 76.58C118.67 76.58 123.06 75.33 126.23 72.82C129.39 70.31 130.98 66.96 130.98 62.78C130.98 59.8 130.2 57.4 128.65 55.61Z" fill="black"/>
<path d="M140.12 29.7101V14.4801H134.29V29.7101H127.57V34.8201H134.29V63.5901C134.29 65.9801 134.52 67.9801 134.98 69.5901C135.05 69.8401 135.13 70.0801 135.21 70.3101C135.63 71.5101 136.21 72.4701 136.94 73.1801C137.78 74.0001 138.84 74.6401 140.12 75.0701V34.8201H150.6V29.7101H140.12Z" fill="black"/>
<path d="M150.6 29.7101V75.4201H156.43V29.7101H150.6ZM149.71 14.4801V22.0001H157.23V14.4801H149.71Z" fill="black"/>
<path d="M200.7 29.7101V75.4201H206.52V29.7101H200.7ZM218.96 29.7101L220.8 34.3701H220.86C221.11 34.3701 221.36 34.3801 221.61 34.3901C222.3 34.4201 222.98 34.5101 223.64 34.6401V29.7101H218.96Z" fill="black"/>
<path d="M254.2 29.7101L240.04 67.8001H239.86L225.39 29.7101H218.96L220.8 34.3701L236.97 75.1001L231.47 90.8501L231.24 91.4601H236.55L260.47 29.7101H254.2Z" fill="black"/>
<path d="M140.12 45.6201H134.29V75.4201H140.12V45.6201Z" fill="black"/>
<path d="M195.32 45.6201H189.68V75.4201H195.32V45.6201Z" fill="black"/>
<path d="M206.52 29.7101H200.7V75.5301H206.52V29.7101Z" fill="black"/>
<path d="M147.74 70.3101H134.29V75.4201H147.74V70.3101Z" fill="black"/>
<path d="M221.61 29.7101H200.7V34.8201H221.61V29.7101Z" fill="black"/>
<path d="M195.32 70.31V43.07C195.32 37.99 193.84 34.3 190.89 32C187.93 29.7 184.12 28.55 179.46 28.55C173.25 28.55 168.62 29.94 165.57 32.72C162.52 35.49 160.88 39.09 160.64 43.51H166.82C167.06 40.05 168.12 37.54 170.01 35.99C171.89 34.43 174.98 33.66 179.28 33.66C182.8 33.66 185.42 34.34 187.12 35.72C188.82 37.09 189.68 39 189.68 41.45C189.68 43.19 189.2 44.5 188.24 45.4C187.29 46.29 186.08 46.9401 184.61 47.32C183.15 47.71 180.71 48.21 177.31 48.8C173.01 49.58 169.51 50.5 166.82 51.58C164.13 52.65 162.07 54.18 160.64 56.15C159.21 58.12 158.49 60.69 158.49 63.8601C158.49 67.68 159.85 70.76 162.57 73.09C165.28 75.42 168.91 76.58 173.46 76.58C177.16 76.58 180.37 75.9 183.09 74.52C185.81 73.15 187.94 71.15 189.5 68.52H189.68C189.72 69.16 189.79 69.76 189.87 70.31H189.68V75.42H197.84V70.31H195.32ZM189.68 58.3C189.68 62.36 188.27 65.5801 185.46 67.93C182.65 70.3 178.89 71.4701 174.17 71.4701C167.78 71.4701 164.58 68.76 164.58 63.32C164.58 60.51 165.64 58.41 167.76 57C169.88 55.6 173.31 54.48 178.03 53.64C181.19 53.1 183.78 52.54 185.78 51.94C187.78 51.34 189.08 50.6201 189.68 49.7901V58.3Z" fill="black"/>
<path d="M263.75 18.0801V19.6201H267.51V29.7101H269.32V19.6201H273.08V18.0801H263.75Z" fill="black"/>
<path d="M282.45 18.0801L279.08 27.2201H279.05L275.7 18.0801H273.34V29.7101H275.09V20.6801H275.13L278.33 29.7101H279.81L283.02 20.6801H283.05V29.7101H284.81V18.0801H282.45Z" fill="black"/>
<path d="M90.98 60.45L88.3101 62.87L86.4302 64.67L84.72 66.63L82.8301 68.42L80.3701 70.75L77.8401 73.01L76.8501 73.42L75.74 72.63L74.0701 70.3L71.5801 68.85L69.74 67.37L68.71 65.24L68.3101 62.13L68.46 60.07L70.5 59.93L71.05 59.6L72.1802 59.73L74.4502 59.57L76.6501 58.96L78.9102 57.3L81.53 56.24L83.8901 54.74L86.0701 52.96L87.79 51.27L89.1902 49.31L89.9001 46.96L89.8401 45.38L90.25 43.81L90.49 40.76L89.8401 37.76L88.26 35.15L86.1602 33.01L84.05 31.2L81.73 29.65L79.4502 28.05L77.8601 27.29L76 28.6L74.8101 30.52L73.54 32.39L72.3801 34.51L70.8501 36.38L69.6301 38.46L67.97 40.78L66.6001 43.29L65.5 45.92L64.48 48.58L63.6702 51.31L62.71 54.03L62.1501 54.69L60.75 55.22L59.0701 56.38L57.29 57.26L56.9102 57.75L55.25 54.62L54.2002 51.99L52.5601 49.68L50.9001 47.4L48.76 45.59L49.77 45.11L53.1501 43.98L55.7002 43.04L57.3301 40.81L58.1401 38.5L58.6001 36.1L58.6902 34.33L59.23 31.44L60.1902 28.65L60.74 25.73L62.1001 23.08L63.1702 20.75L62.8901 18.17L61.6301 15.87L60.8701 15.11L58.8301 12.58L56.5901 10.24L54.22 8.58L51.9202 6.84L49.6101 5.11L47.3901 3.24L44.8801 1.78L44.3301 1.12L42.25 0.33L40.0701 0L38.3301 0.23L35.53 0.9L32.73 1.66L30.1501 2.97L27.8601 4.75L25.24 6.07L22.8701 7.76L20.6201 9.62L18.4202 11.53L16.24 13.45L13.9502 15.25L11.6902 17.09L10.8101 17.47L8.17017 20.37L7.8501 24.01L9.71997 25.18L11.0601 24.97L13.4302 23.47L15.8601 21.45L18.22 19.35L20.5 17.15L23.6401 14.26L24.28 14.17L23.77 14.77L23.49 16.22L22.49 19.06L21.97 22.08L21.47 25.1L20.97 28.15L21.4202 31.23L21.51 34.3L21.4001 37.01L21.6802 39.69L22.26 42.33L22.6001 45L23.03 47.22L22.8501 49.51L23.0601 52.37L21.9502 55.06L20.9402 56.69L18.48 59.6L16.47 61.97L14.26 64.17L11.79 66.07L9.11011 67.66L6.52002 69.37L4.64014 70.06L2.15015 71.69L0 73.71L0.670166 76.93L2.33008 77.42L4.62012 76.74L4.78003 76.84L7.42017 75.45L10.21 74.32L12.6201 72.54L15.21 71.01L17.3201 68.87L19.54 66.88L21.8101 64.93L22.6501 64.47L23.5901 64.53L24.8801 66.38L26.72 67.63L28.71 69.48L30.6301 71.41L32.47 73.42L34.55 75.39L36.9502 76.96L39.46 78.31L42 79.61L44.78 80.28L47.1602 80.55L50.1401 79.78L53.02 78.19L55.6401 76.22L58.27 74.27L59.1702 73.42L60.47 71.51L60.26 69.15L59.6501 66.22L59.02 63.3V62.53L61.5901 60.99L62.29 60.54L62.1201 60.71L62.3901 61.43L62.5901 63.35L63.28 67.12L64.2002 69.99L66.3201 72.28L66.9202 72.57L69.0601 74.16L71.1001 75.96L73.5801 78.05L76.3501 78.77L79.3301 78.27L82 76.81L84.25 74.76L85.5601 72.9L86.9502 71.12L89.9302 68.13L90.0901 67.67L92.8201 65.39V65.17L93.53 64.43L95.3701 62.93L96.77 60.4H93.03H91.03L90.98 60.45ZM73.04 44.02L74.03 41.77L75.6001 39.65L77.1802 37.53L78.52 35.26L78.96 34.56L79.6501 34.76L82.3101 37.09L83.6201 38.23L85.48 41.61L85.3901 44.04L85.1602 46.46L84.3201 47.53L81.6501 49.27L79.1401 50.78L76.74 52.43L73.6602 53.5L70.46 53.96L69.3101 54.03L69.1802 54.13L69 53.76L68.98 53.81L69.4502 51.16L70.54 48.7L71.76 46.33L73.0701 44.02H73.04ZM27.77 20.72L28.55 18.23L29.1101 15.67L30.3501 13.36L31.51 11.03L33.1702 9.03L35.77 7.27L38.8801 6.44L41.8901 7.01L44.01 8.72L46.1401 10.42L48.3901 11.94L50.47 13.7L52.6902 15.29L54.3501 16.68L55.71 18.37L57.0701 19.78L57.28 21.32L55.7002 23.64L54.9302 26.34L54.2002 29.03L53.4402 31.73L53 34.5L52.28 37.98L48.96 39.19L45.9402 40.03L42.8601 40.72L39.7002 40.63L36.5901 40.36L33.52 39.85L30.49 39.12L28.75 39.15L28.02 38.89L27.9001 38.75L27.9202 37.65L27.54 34.84L26.99 32.04L26.9302 29.2L26.9001 26.35L27.4402 23.55L27.79 20.73L27.77 20.72ZM54.04 70.71L53.73 71.01L51.26 72.51L48.76 73.93L47.3101 74.46L46.6602 74.21L43.6702 73.61L41.04 72.07L38.53 70.35L36.25 68.33L34.0901 66.07L32.02 63.72L29.6001 61.73L27.46 59.46L27.0901 58.98L26.8101 58.05L27.75 55.56L28.8701 53.13L29.1201 50.46L29.0601 47.77L28.6702 46.11L28.6501 45.37L29.99 45.88L32.1501 46.6L34.3701 47.12L36.97 47.54L40 47.89L42.8101 49.08L45.3401 50.79L47.47 52.99L49.1301 55.55L50.3801 58.23L51.5601 60.94L53 63.55L53.71 66L53.8201 68.56L54.23 70.11L54.03 70.75L54.04 70.71Z" fill="black"/>
</svg>
