<svg width="267" height="80" viewBox="0 0 267 80" fill="none" xmlns="http://www.w3.org/2000/svg">
<path d="M112.26 50.74C112.26 54.92 110.67 58.27 107.51 60.78C104.34 63.29 99.9501 64.54 94.3301 64.54C88.1201 64.54 83.2501 63.03 79.7301 60.02C79.2401 59.6 78.7801 59.17 78.3601 58.72C77.3401 57.63 76.5101 56.45 75.8701 55.18C75.7401 54.91 75.6101 54.63 75.4901 54.35C75.3501 54.02 75.2201 53.68 75.1101 53.33C75.0901 53.26 75.0601 53.19 75.0401 53.12C74.9901 52.98 74.9501 52.84 74.9001 52.69C74.8701 52.56 74.8301 52.44 74.8001 52.31C74.6801 51.87 74.5901 51.43 74.5101 50.98C74.4201 50.45 74.3501 49.93 74.3101 49.4V49.1L74.6401 48.55V48.41H80.3501C80.3601 48.6 80.3701 48.79 80.4001 48.97C80.4301 49.38 80.4801 49.77 80.5601 50.16C80.5801 50.27 80.6001 50.39 80.6301 50.5C80.6601 50.67 80.7001 50.84 80.7501 51C80.8201 51.27 80.9001 51.54 80.9901 51.8C81.3001 52.73 81.7201 53.58 82.2601 54.36C82.7701 55.12 83.3901 55.81 84.1201 56.43C86.4501 58.43 89.8801 59.43 94.4201 59.43C98.4901 59.43 101.44 58.64 103.3 57.06C105.15 55.48 106.07 53.43 106.07 50.92C106.07 49.07 105.58 47.59 104.6 46.49C103.61 45.38 102.37 44.56 100.88 44.02C99.3801 43.48 97.4101 42.95 94.9601 42.41C94.7801 42.38 94.5201 42.33 94.1801 42.25C94.1101 42.23 94.0501 42.22 93.9901 42.21C93.7001 42.15 93.3601 42.07 92.9601 41.97C92.9401 41.97 92.9201 41.96 92.9001 41.96C92.0901 41.76 91.3201 41.56 90.5901 41.36C87.8401 40.63 85.5901 39.93 83.8501 39.27C81.6401 38.43 79.7701 37.18 78.2501 35.51C76.7201 33.84 75.9601 31.62 75.9601 28.88C75.9601 25.11 77.4001 22.12 80.2701 19.91C83.1301 17.7 87.1001 16.6 92.1801 16.6C97.8001 16.6 102.14 17.9 105.22 20.5C108.3 23.1 110.05 26.43 110.47 30.49H104.37C103.18 24.63 99.1401 21.71 92.2701 21.71C88.9901 21.71 86.4601 22.3 84.7001 23.5C82.9401 24.69 82.0601 26.37 82.0601 28.52C82.0601 30.13 82.5301 31.42 83.4901 32.37C84.4501 33.33 85.6601 34.07 87.1201 34.61C88.5801 35.15 90.5701 35.69 93.0801 36.22L95.1401 36.76C98.7801 37.66 101.77 38.57 104.1 39.49C106.43 40.42 108.37 41.78 109.93 43.57C111.48 45.36 112.26 47.76 112.26 50.74Z" fill="black"/>
<path d="M121.4 17.6701V2.44006H115.57V17.6701H108.85V22.7801H115.57V33.5801V51.5501V58.2701V63.3801H121.4H129.02V58.2701H121.4V33.5801V22.7801H131.88V63.3801H137.71V17.6701H131.88H121.4Z" fill="black"/>
<path d="M138.51 2.44006H130.99V9.96006H138.51V2.44006Z" fill="black"/>
<path d="M235.48 17.67L221.32 55.76H221.14L206.67 17.67H204.92H202.9H200.24H187.8H181.98V22.78V63.38V63.49H187.8V63.38V22.78H202.26L218.25 63.06L212.75 78.81L212.52 79.42H217.83L241.75 17.67H235.48Z" fill="black"/>
<path d="M176.6 58.27V31.03C176.6 25.95 175.12 22.26 172.17 19.96C169.21 17.66 165.4 16.51 160.74 16.51C154.53 16.51 149.9 17.9 146.85 20.68C143.8 23.45 142.16 27.05 141.92 31.47H148.1C148.34 28.01 149.4 25.5 151.29 23.95C153.17 22.39 156.26 21.62 160.56 21.62C164.08 21.62 166.7 22.3 168.4 23.68C170.1 25.05 170.96 26.96 170.96 29.41C170.96 31.15 170.48 32.46 169.52 33.36C168.57 34.25 167.36 34.9 165.89 35.28C164.43 35.67 161.99 36.17 158.59 36.76C154.29 37.54 150.79 38.46 148.1 39.54C145.41 40.61 143.35 42.14 141.92 44.11C140.49 46.08 139.77 48.65 139.77 51.82C139.77 55.64 141.13 58.72 143.85 61.05C146.56 63.38 150.19 64.54 154.74 64.54C158.44 64.54 161.65 63.86 164.37 62.48C167.09 61.11 169.22 59.11 170.78 56.48H170.96V63.38H179.12V58.27H176.6ZM170.96 46.26C170.96 50.32 169.55 53.54 166.74 55.89C163.93 58.26 160.17 59.43 155.45 59.43C149.06 59.43 145.86 56.72 145.86 51.28C145.86 48.47 146.92 46.37 149.04 44.96C151.16 43.56 154.59 42.44 159.31 41.6C162.47 41.06 165.06 40.5 167.06 39.9C169.06 39.3 170.36 38.58 170.96 37.75V46.26Z" fill="black"/>
<path d="M245.04 6.04004V7.58004H248.8V17.67H250.61V7.58004H254.36V6.04004H245.04Z" fill="black"/>
<path d="M263.74 6.04004L260.37 15.18H260.33L256.98 6.04004H254.62V17.67H256.38V8.64004H256.41L259.62 17.67H261.1L264.3 8.64004H264.34V17.67H266.09V6.04004H263.74Z" fill="black"/>
<path d="M43.21 36.18L40.67 34.87L38.19 33.43L35.59 32.23L32.91 31.22L30.49 29.66L27.79 28.67L25.32 27.22L22.73 26.01L20.23 24.61L17.45 23.8L15.15 22.37L17.64 21.73L20.25 20.88L22.73 19.61L25.4 18.95L28.11 18.44L30.76 17.72L33.45 17.17L36.19 15.93L38.37 13.8L37.09 11.23L34.61 9.59L32.12 7.96L29.77 6.11L27.2 4.6L24.44 3.45L21.96 1.78L19.19 0.66L16.59 0L13.95 0.75L11.57 2.14L10.66 4.68L12.64 6.46L15.41 7.8L17.89 9.66L20.68 10.97L23.14 12.67L20.69 13.62L18.04 14.26L15.46 15.11L12.96 15.76L13.19 11.75L12.6 8.97L9.87 7.73L7 8.3L4.21 9.07L2.71 11.56L2.61 14.4L2.29 17.22L2 20.15L0 22.49L1.19 25.17L0.99 28.03L1.02 31.04L0.59 34.02L0.73 37.03L0.75 40.03L0.71 43.03L0.5 46.03L0.67 49.03L0.35 52.04L1.78 54.06L4.08 54.86L6.54 55.02L9.59 53.2L11.19 50.22L11.08 47.32L10.91 44.41L11.24 41.51L11.05 38.6L11.11 35.69L11.53 32.81L11.47 29.79L14.12 31.24L16.82 32.35L19.49 33.52L22.01 35L24.67 36.19L27.33 37.37L29.91 38.74L32.65 40.05L30.29 42.02L27.81 43.63L25.52 45.48L23.11 47.17L20.69 48.83L18.27 50.51L15.88 52.22L13.51 53.98L10.85 55.27L8.47 57.03L5.91 58.48L3.3 59.85L1.49 62.08L2.02 64.92L4.58 65.61L7.17 65.57L9.5 64.48L12.11 63.4L14.42 61.8L16.92 60.53L19.18 58.87L21.59 57.44L23.99 55.99L26.44 54.61L28.59 52.8L30.88 51.2L33.12 49.51L35.4 47.9L37.76 46.36L39.91 44.56L42 42.69L44.14 40.89L44.9 38.27L43.21 36.18Z" fill="black"/>
<path d="M72.6499 58.45L69.6399 57.92L66.6199 58.02L63.5899 58.01L60.5699 58.18L57.5699 58.57L54.5499 58.67L51.5199 58.62L48.5199 59L45.4999 59.24L47.3899 57.12L49.6299 55.37L51.7999 53.57L53.8499 51.62L55.9499 49.74L57.9699 47.76L60.1299 45.94L62.1999 44.01L64.5899 42.47L66.8599 40.79L67.4499 38.06L65.1099 36.54L63.0099 34.67L60.6199 33.24L58.1699 31.88L55.8199 30.39L53.5899 28.69L50.9899 27.61L48.7299 25.94L46.1799 24.79L43.9499 23.43L46.5499 23.28L49.3099 22.91L52.0899 22.78L54.8599 22.58L57.6399 22.32L60.4099 22L63.1999 22.2L65.9899 22.03L68.7599 22.39L71.3299 22.26L73.7899 21.43L75.4699 19.52L75.2899 17.55L72.9099 17.16L70.1499 16.65L67.3599 16.93L64.5799 16.8L61.7899 16.77L59.0199 17L56.2499 17.34L53.4699 17.35L50.6799 17.4L47.9099 17.64L45.1799 18.23L42.4199 18.62L39.6499 18.85L36.8799 19.19L34.1399 19.7L31.4699 20.88L28.9399 22.19L29.1899 25L31.7999 26.24L34.4799 27.33L36.8499 29.01L39.3599 30.43L41.9199 31.75L44.3799 33.25L46.9599 34.57L49.4199 36.07L51.5899 38.02L54.1899 39.31L56.5899 41.04L54.3199 42.94L52.0399 44.7L49.7699 46.49L47.7599 48.58L45.3999 50.26L43.4599 52.42L41.2999 54.33L38.9599 56.05L37.0399 58.22L34.9499 60.2L32.7899 62.12L32.7599 64.84L36.0999 65.23L39.0699 65.13L41.9599 64.46L44.9099 64.25L47.8399 63.85L50.8099 63.97L53.7599 63.84L56.6999 63.68L59.6499 63.74L62.5999 63.52L65.5599 63.37L68.5099 63.49L71.0799 63.57L73.3699 62.39L75.4999 60.98L75.0499 58.77L72.6499 58.45Z" fill="black"/>
</svg>
