<svg width="303" height="89" viewBox="0 0 303 89" fill="none" xmlns="http://www.w3.org/2000/svg">
<path d="M148.357 59.4837C148.357 63.6637 146.767 67.0138 143.607 69.5238C140.437 72.0337 136.047 73.2837 130.427 73.2837C124.217 73.2837 119.347 71.7737 115.827 68.7637C113.907 67.1237 112.497 65.2337 111.587 63.0938C111.447 62.7637 111.317 62.4237 111.207 62.0737C110.947 61.3237 110.747 60.5337 110.607 59.7237C110.517 59.1937 110.447 58.6737 110.407 58.1437C110.407 58.0737 110.397 58.0137 110.397 57.9437C110.907 57.6737 111.397 57.4037 111.887 57.1537H116.447C116.487 57.8837 116.577 58.5838 116.727 59.2438C116.817 59.6938 116.937 60.1237 117.087 60.5437C117.687 62.3637 118.737 63.9038 120.217 65.1738C122.547 67.1738 125.977 68.1738 130.517 68.1738C134.587 68.1738 137.537 67.3838 139.397 65.8037C141.247 64.2237 142.167 62.1737 142.167 59.6637C142.167 57.8138 141.677 56.3337 140.697 55.2337C139.707 54.1237 138.467 53.3037 136.977 52.7637C135.477 52.2237 133.507 51.6937 131.057 51.1537C130.877 51.1237 130.617 51.0738 130.277 50.9938C130.207 50.9738 130.147 50.9638 130.087 50.9538C129.797 50.8938 129.457 50.8137 129.057 50.7137C129.037 50.7137 129.017 50.7038 128.997 50.7038C128.187 50.5037 127.417 50.3037 126.687 50.1037C123.937 49.3737 121.687 48.6737 119.947 48.0137C117.737 47.1737 115.867 45.9237 114.347 44.2537C112.817 42.5837 112.057 40.3637 112.057 37.6237C112.057 33.8537 113.497 30.8637 116.367 28.6537C119.227 26.4437 123.197 25.3438 128.277 25.3438C133.897 25.3438 138.237 26.6437 141.317 29.2437C144.397 31.8437 146.147 35.1737 146.567 39.2337H140.467C139.277 33.3737 135.237 30.4537 128.367 30.4537C125.087 30.4537 122.557 31.0437 120.797 32.2437C119.037 33.4337 118.157 35.1137 118.157 37.2637C118.157 38.8737 118.627 40.1637 119.587 41.1137C120.547 42.0737 121.757 42.8137 123.217 43.3537C124.677 43.8937 126.667 44.4337 129.177 44.9637L131.237 45.5037C134.877 46.4037 137.867 47.3137 140.197 48.2337C142.527 49.1637 144.467 50.5238 146.027 52.3138C147.577 54.1038 148.357 56.5037 148.357 59.4837Z" fill="black"/>
<path d="M157.497 26.4138V11.1838H151.667V26.4138H144.947V31.5238H151.667V42.3238V60.2938V67.0138V72.1238H157.497H165.107V67.0138H157.497V42.3238V31.5238H167.977V72.1238H173.807V26.4138H167.977H157.497Z" fill="black"/>
<path d="M174.607 11.1838H167.087V18.7038H174.607V11.1838Z" fill="black"/>
<path d="M271.577 26.4138L257.417 64.5038H257.237L242.767 26.4138H241.017H238.987H236.337H223.897H218.077V31.5238V72.1238V72.2338H223.897V72.1238V31.5238H238.347L254.347 71.8038L248.847 87.5538L248.617 88.1638H253.927L277.847 26.4138H271.577Z" fill="black"/>
<path d="M212.697 67.0138V39.7738C212.697 34.6938 211.217 31.0038 208.267 28.7038C205.307 26.4038 201.497 25.2538 196.837 25.2538C190.627 25.2538 185.997 26.6438 182.947 29.4238C179.897 32.1938 178.257 35.7938 178.017 40.2138H184.197C184.437 36.7538 185.497 34.2438 187.387 32.6938C189.267 31.1338 192.357 30.3638 196.657 30.3638C200.177 30.3638 202.797 31.0438 204.497 32.4238C206.197 33.7938 207.057 35.7038 207.057 38.1538C207.057 39.8938 206.577 41.2038 205.617 42.1038C204.667 42.9938 203.457 43.6438 201.987 44.0238C200.527 44.4138 198.087 44.9138 194.687 45.5038C190.387 46.2838 186.887 47.2038 184.197 48.2838C181.507 49.3538 179.447 50.8838 178.017 52.8538C176.587 54.8238 175.867 57.3938 175.867 60.5638C175.867 64.3838 177.227 67.4638 179.947 69.7938C182.657 72.1238 186.287 73.2838 190.837 73.2838C194.537 73.2838 197.747 72.6038 200.467 71.2238C203.187 69.8538 205.317 67.8538 206.877 65.2238H207.057V72.1238H215.217V67.0138H212.697ZM207.057 55.0038C207.057 59.0638 205.647 62.2838 202.837 64.6338C200.027 67.0038 196.267 68.1738 191.547 68.1738C185.157 68.1738 181.957 65.4638 181.957 60.0238C181.957 57.2138 183.017 55.1138 185.137 53.7038C187.257 52.3038 190.687 51.1838 195.407 50.3438C198.567 49.8038 201.157 49.2438 203.157 48.6438C205.157 48.0438 206.457 47.3238 207.057 46.4938V55.0038Z" fill="black"/>
<path d="M284.887 16.3238H281.127V14.7738H290.447V16.3238H286.687V26.4138H284.877V16.3238H284.887Z" fill="black"/>
<path d="M290.707 14.7738H293.067L296.417 23.9138H296.447L299.817 14.7738H302.177V26.4038H300.417V17.3738H300.387L297.177 26.4038H295.697L292.487 17.3738H292.457V26.4038H290.697V14.7738H290.707Z" fill="black"/>
<path d="M116.447 57.1538H106.187C106.007 57.2338 105.827 57.3338 105.657 57.4538C105.597 57.4938 105.517 57.4938 105.437 57.5138C105.227 57.5538 105.007 57.6038 104.787 57.6438C104.527 57.7038 104.257 57.8038 103.987 57.8038C103.407 57.7938 102.887 58.0538 102.317 58.1338C102.247 58.1438 102.177 58.1838 102.117 58.2238C101.937 58.3938 101.737 58.5138 101.497 58.6138C101.147 58.7438 101.097 58.9438 101.267 59.3138C101.357 59.5138 101.337 59.6538 101.247 59.8638C101.057 60.2938 100.827 60.5838 100.327 60.5338C100.067 60.6638 99.7966 60.6538 99.5166 60.6438C99.4266 60.6438 99.2868 60.6438 99.2368 60.5838C98.9768 60.3038 98.5666 60.2538 98.3066 60.0038C98.0566 59.7538 97.7768 59.6938 97.4868 59.7638C96.8368 59.9338 96.1666 59.9638 95.5466 60.2738C95.2666 60.4138 94.9567 60.4838 94.6167 60.5138C94.2267 60.5438 93.8368 60.6238 93.4668 60.7438C92.7568 60.9838 92.0667 61.2738 91.3767 61.5338C91.2167 61.5938 91.0467 61.6738 90.8767 61.6738C90.4267 61.6838 90.0668 61.8938 89.7068 62.1138C89.6068 62.1738 89.4867 62.2738 89.3767 62.2738C88.8267 62.2738 88.3166 62.4938 87.7866 62.5938C87.3466 62.6738 86.8968 62.7238 86.4768 62.8738C85.2568 63.2838 83.9968 63.5238 82.7268 63.7738C82.0268 63.9138 81.3367 64.1038 80.6667 64.3638C80.4867 64.4438 80.2867 64.5138 80.0967 64.5238C79.8367 64.5338 79.6167 64.6038 79.3867 64.7038C79.1767 64.7938 78.9666 64.8838 78.7566 64.9338C78.3466 65.0138 77.9266 65.0638 77.5066 65.1238C76.9966 65.2038 76.4768 65.2538 75.9768 65.3738C75.3068 65.5238 74.6466 65.7138 74.0066 66.0138C73.2666 66.3638 72.4267 66.3638 71.6467 66.6138C71.4167 66.6938 71.1667 66.7238 70.9167 66.7638C70.3167 66.8738 69.6967 66.9438 69.0967 67.0838C68.7067 67.1838 68.3167 67.2138 67.9167 67.2138C67.4467 67.2138 66.9866 67.2038 66.5166 67.3438C66.1666 67.4538 65.7868 67.4338 65.4268 67.5238C65.0068 67.6238 64.5868 67.6338 64.1768 67.7038C63.4668 67.8438 62.7666 68.0038 62.0466 67.9638C61.9266 67.9638 61.7868 67.9538 61.6768 67.9938C61.3167 68.1438 60.9366 68.0938 60.5666 68.1138C60.0766 68.1238 59.5767 68.0638 59.0967 68.2338C58.9567 68.2838 58.7967 68.2538 58.6467 68.2538C57.6567 68.2638 56.6567 68.2638 55.6667 68.2638C55.4867 68.2638 55.2967 68.2938 55.1467 68.2338C54.7567 68.0838 54.3568 68.1238 53.9668 68.1038C53.7968 68.1038 53.6168 68.0738 53.4568 68.0238C52.8868 67.8438 52.3667 67.5538 51.8667 67.2238C51.7967 67.1738 51.7068 67.0738 51.7068 66.9938C51.6668 66.6038 51.6267 66.2038 51.8467 65.8338C52.0467 65.4938 52.1868 65.1238 52.4768 64.8238C52.6668 64.6338 52.8268 64.4038 52.9668 64.1738C53.5368 63.2638 54.2766 62.5038 55.0166 61.7238C55.1466 61.5838 55.2967 61.4538 55.4268 61.3038C55.5267 61.1938 55.6568 61.0738 55.6868 60.9438C55.7468 60.6738 55.9367 60.5238 56.0967 60.3338C56.2767 60.1338 56.5067 59.9438 56.6167 59.7138C56.7967 59.2838 57.1266 59.0438 57.5166 58.8838C57.7066 58.8038 57.8766 58.7138 58.0166 58.5638C58.3266 58.2538 58.5766 57.8738 59.0066 57.6938C59.1266 57.6438 59.2066 57.4738 59.2966 57.3638C59.6966 56.8538 60.1567 56.4038 60.6667 55.9938C61.0867 55.6538 61.4766 55.2638 61.8066 54.8338C62.0366 54.5438 62.2867 54.3538 62.6267 54.2238C62.8367 54.1538 63.0568 54.0738 63.2168 53.9338C63.6068 53.5838 63.9866 53.2238 64.3166 52.8238C64.6766 52.3938 65.0767 52.0538 65.5967 51.8538C66.1267 51.6438 66.4566 51.0938 67.0566 50.9938C67.1166 50.9838 67.1668 50.9038 67.2268 50.8538C67.2368 50.8338 67.2566 50.8138 67.2766 50.8038C67.7866 50.2538 68.5166 49.9738 69.0066 49.3938C69.0466 49.3438 69.1368 49.3338 69.2068 49.3038C69.3168 49.2538 69.4266 49.2038 69.5366 49.1338C69.8366 48.9238 70.1468 48.7138 70.4468 48.4938C70.7968 48.2238 71.2267 48.0638 71.5767 47.8038C71.8967 47.5538 72.2367 47.3738 72.5867 47.1938C72.9367 47.0138 73.2667 46.7838 73.5967 46.5738C73.9167 46.3838 74.2266 46.1738 74.5566 46.0038C74.7266 45.9238 74.9367 45.8838 75.1267 45.8738C75.5367 45.8538 75.7167 45.9838 75.8567 46.3638C75.9667 46.6438 76.0066 46.9338 76.0166 47.2338C76.0366 47.8438 76.1367 48.4238 76.6567 48.8338C76.7767 48.9238 76.8368 49.0738 76.9368 49.1838C77.0268 49.3038 77.1068 49.4438 77.2268 49.5138C77.7868 49.8238 78.3068 50.2438 78.9768 50.3038C79.4168 50.3538 79.8566 50.3838 80.2966 50.4938C80.3366 50.5038 80.3968 50.5038 80.4468 50.5038C80.9568 50.4238 81.4668 50.6738 81.9868 50.5138C82.0768 50.4938 82.1766 50.5538 82.2766 50.5638C82.4966 50.5938 82.7168 50.6138 82.9368 50.6338C83.4168 50.6938 83.8767 50.5738 84.3367 50.5038C84.8567 50.4238 85.3867 50.4438 85.8867 50.3038C86.6867 50.0638 87.5466 50.0138 88.3166 49.6538C88.3866 49.6238 88.4566 49.6138 88.5366 49.6038C89.4266 49.5338 90.2667 49.2138 91.1567 49.0938C91.3867 49.0638 91.6367 48.9938 91.8267 48.8038C92.0767 48.5338 92.4266 48.4538 92.7666 48.4138C93.1666 48.3638 93.5367 48.2338 93.8967 48.0438C94.4167 47.7738 94.9868 47.5738 95.4868 47.2538C95.6368 47.1738 95.8368 47.0538 95.9668 47.0938C96.2668 47.1738 96.4367 47.0438 96.6067 46.8538C96.8367 46.6038 97.1468 46.5038 97.4368 46.3638C97.5768 46.3038 97.7267 46.2738 97.8467 46.1938C98.5267 45.7138 99.3166 45.4538 100.067 45.1538C100.677 44.9038 101.137 44.4338 101.757 44.2338C102.057 43.9438 102.337 43.6138 102.767 43.5038C103.517 42.9838 104.207 42.3738 104.987 41.8838C105.027 41.8638 105.067 41.8238 105.097 41.7838C105.627 41.1938 106.297 40.7438 106.717 40.0438C106.777 39.9438 106.897 39.8738 106.987 39.7938C107.307 39.4838 107.657 39.1938 107.697 38.7038C107.697 38.6338 107.747 38.5538 107.797 38.5138C108.117 38.2238 108.277 37.8138 108.537 37.4938C108.797 37.1638 108.937 36.8138 109.017 36.4238C109.117 35.9638 109.217 35.5038 109.357 35.0638C109.517 34.5638 109.517 34.0838 109.337 33.6038C109.257 33.3938 109.117 33.1938 109.097 32.9838C109.067 32.7438 109.147 32.4938 109.167 32.2538C109.177 32.1538 109.167 32.0538 109.167 31.9538C109.167 31.7938 109.087 31.6738 108.957 31.5738C108.797 31.4638 108.587 31.3638 108.507 31.2038C108.287 30.7638 107.897 30.5538 107.477 30.3938C106.967 30.2138 106.567 29.8938 106.227 29.5038C105.967 29.2038 105.687 29.0538 105.317 29.2038C105.067 29.3038 104.897 29.2738 104.767 29.0238C104.717 28.9238 104.617 28.9038 104.527 29.0038C104.457 29.0938 104.367 29.1138 104.267 29.0738C103.997 28.9538 103.667 29.0038 103.437 28.7738C103.417 28.7738 103.317 28.8438 103.287 28.8938C103.257 28.9238 103.287 28.9838 103.287 29.0338C103.347 29.5338 103.187 29.6838 102.737 29.5538C102.617 29.5238 102.507 29.4538 102.387 29.4138C102.277 29.3738 102.157 29.3038 102.037 29.3038C101.607 29.3138 101.217 29.1438 100.817 29.0138C100.577 28.9438 100.337 28.8538 100.097 28.8538C99.2967 28.8338 98.4968 28.8538 97.7068 28.8538C97.4268 28.8538 97.2166 29.0138 97.2866 29.1538C97.3866 29.3638 97.5866 29.2638 97.7466 29.2738C97.7966 29.2738 97.8467 29.2638 97.8867 29.2438C98.1467 29.0938 98.3667 29.2738 98.5967 29.3338C98.6767 29.3638 98.6867 29.5438 98.6067 29.5938C98.4967 29.6438 98.3866 29.7138 98.2666 29.7238C97.9366 29.7438 97.6167 29.8238 97.3567 30.0038C97.0967 30.1738 96.8667 30.2038 96.5867 30.1038C96.2167 29.9738 95.9068 30.0438 95.7168 30.4338C95.6768 30.5138 95.5866 30.5738 95.5066 30.6238C95.3566 30.7038 95.1866 30.7538 95.0266 30.8238C94.7066 30.9738 94.4267 30.9538 94.1167 30.7638C93.7267 30.5238 93.2166 30.6738 93.0666 31.0938C92.9166 31.5238 92.5968 31.6338 92.2168 31.6738C92.0668 31.6838 91.9166 31.6838 91.7666 31.6738C90.8866 31.6538 90.1066 31.8738 89.5066 32.5638C89.4466 32.6338 89.3466 32.6838 89.2566 32.7138C89.0166 32.7738 88.7766 32.8438 88.5266 32.8638C88.2966 32.8838 88.0968 32.9438 87.9368 33.1238C87.8368 33.2338 87.7167 33.3238 87.6267 33.4438C87.4167 33.6938 87.1567 33.7738 86.8367 33.7738C86.0667 33.7738 85.3066 33.7338 84.5366 33.9038C84.2966 33.9638 84.0667 33.9938 83.8767 34.1838C83.6167 34.4438 83.2868 34.5438 82.9268 34.5138C82.7968 34.5138 82.6766 34.5238 82.5466 34.5138C82.2266 34.4838 81.9666 34.5738 81.7566 34.8238C81.6266 34.9738 81.4766 35.1038 81.2566 35.1138C80.8466 35.1238 80.5067 35.3338 80.1367 35.4738C79.7167 35.6338 79.4267 35.8938 79.1567 36.2238C79.0667 36.3338 78.9467 36.4338 78.8467 36.5438C78.7167 36.6738 78.5667 36.7538 78.3867 36.7538C78.0967 36.7438 77.8567 36.8738 77.6267 37.0238C77.3267 37.1938 77.0168 37.3538 76.7168 37.5238C76.5368 37.6238 76.3467 37.6638 76.1467 37.6538C75.9067 37.6338 75.7166 37.7138 75.5466 37.8938C75.1766 38.2838 74.7268 38.4938 74.1768 38.5738C73.8767 38.6138 73.5166 38.6238 73.2666 38.8438C72.7766 39.2938 72.1967 39.5538 71.5967 39.7838C71.3567 39.8738 71.2466 39.8338 71.2466 39.5938C71.2366 39.0938 71.2366 38.6038 71.2466 38.1038C71.2566 37.7238 71.2066 37.3638 71.0066 37.0238C70.9066 36.8438 70.8266 36.6138 70.8066 36.4038C70.7666 36.1638 70.6966 35.9838 70.4966 35.8438C70.3766 35.7638 70.3168 35.6138 70.2268 35.4938C70.1568 35.3938 70.1166 35.2538 70.0166 35.1938C69.5366 34.9038 69.2066 34.4638 68.8066 34.0938C68.6966 33.9938 68.5868 33.8738 68.4568 33.8138C68.1068 33.6438 67.7467 33.4638 67.3667 33.3438C66.7767 33.1638 66.1766 33.0038 65.5466 33.0138C65.1266 33.0238 64.7066 32.9638 64.2866 32.9038C63.8866 32.8538 63.4566 32.9938 63.0466 33.0138C62.4466 33.0538 61.8466 32.9538 61.2666 33.1538C61.2066 33.1838 61.1166 33.1638 61.0466 33.1638C60.5266 33.2238 60.0166 33.2738 59.4966 33.3438C59.4066 33.3438 59.2968 33.3838 59.2168 33.4438C58.8968 33.6638 58.4967 33.5738 58.1467 33.7338C57.8167 33.8838 57.4767 34.0238 57.1267 34.1638C57.0667 34.1938 56.9867 34.1938 56.9167 34.2138C56.7667 34.2538 56.6166 34.2738 56.4966 34.3538C56.0366 34.6438 55.5166 34.7438 55.0066 34.7838C54.5366 34.8138 54.1568 35.0238 53.7368 35.1538C53.5268 35.2138 53.3267 35.3338 53.1467 35.4638C53.0867 35.5038 53.0667 35.6338 53.0767 35.7138C53.0767 35.7638 53.1768 35.8238 53.2368 35.8338C53.3068 35.8438 53.3868 35.8038 53.4568 35.7938C53.5268 35.7738 53.5967 35.7438 53.6667 35.7238C53.7867 35.7038 53.9468 35.7938 53.9768 35.8838C54.0068 36.0038 53.9267 36.0738 53.8367 36.1238C53.6967 36.2038 53.6168 36.2938 53.7168 36.4738C53.9168 36.8238 53.9067 36.8538 53.6567 37.0938C53.5667 37.1738 53.4767 37.2638 53.3667 37.3238C52.8467 37.6138 52.3268 37.8838 51.6868 37.8138C51.3668 37.7738 51.0468 37.7738 50.7268 37.8938C50.4068 38.0138 50.0768 38.1338 49.7168 38.1038C49.6268 38.1038 49.5168 38.1438 49.4368 38.1938C49.1468 38.3838 48.8566 38.5738 48.5666 38.7738C48.4566 38.8438 48.4366 38.9838 48.5366 39.0938C48.5966 39.1638 48.6766 39.2438 48.7566 39.2638C48.9266 39.3038 49.1266 39.2538 49.2766 39.3238C49.8366 39.5738 50.2868 39.3838 50.7168 39.0338C50.7768 38.9838 50.8567 38.9738 50.9067 38.9238C51.0867 38.7638 51.2766 38.6838 51.5166 38.6838C51.6366 38.6838 51.7567 38.6238 51.8767 38.6038C51.9367 38.6038 52.0166 38.6338 52.0666 38.6638C52.0866 38.6638 52.0866 38.7738 52.0566 38.8038C51.8866 38.9638 51.8766 39.1338 52.0166 39.3238C52.0366 39.3538 51.9167 39.4638 51.8867 39.5538C51.7767 39.8238 51.8867 40.1338 52.1267 40.1538C52.5067 40.1938 52.9166 40.3038 53.2666 40.0238C53.4166 39.9038 53.5866 39.8938 53.7666 39.8938H54.3667C54.5967 39.9038 54.8068 39.8538 54.9668 39.6638C55.1568 39.4338 55.4468 39.3538 55.6968 39.3338C56.1768 39.3038 56.6567 39.0638 57.1567 39.2738C57.2767 39.3238 57.4667 39.3138 57.5967 39.2738C58.0767 39.0938 58.5767 39.1638 59.0767 39.1438C59.2967 39.1338 59.5468 39.1838 59.7368 39.1038C60.0468 38.9738 60.3167 39.0738 60.6067 39.1438C61.1167 39.2638 61.2668 39.4638 61.2268 39.9738C61.2268 40.1138 61.1667 40.2738 61.0967 40.3838C60.9467 40.6138 60.7667 40.8238 60.6067 41.0438C60.4367 41.2538 60.2667 41.4638 60.1067 41.6838C59.8567 42.0238 59.5866 42.3538 59.2966 42.6538C58.6566 43.3438 57.8967 43.9238 57.3567 44.7138C57.2667 44.8538 57.0868 44.9238 56.9468 45.0238C56.6768 45.2438 56.3967 45.4538 56.1267 45.6738C55.9467 45.8138 55.8367 46.0038 55.8567 46.2538C55.8867 46.5438 55.6868 46.6438 55.4568 46.7138C55.3668 46.7438 55.2667 46.7538 55.1667 46.7538C54.6367 46.7438 54.2968 47.0638 53.9768 47.4138C53.8868 47.5038 53.8466 47.6338 53.7566 47.7138C53.2666 48.1238 52.7666 48.5338 52.2566 48.9238C52.0766 49.0538 51.9668 49.1738 51.9768 49.4038C51.9968 49.7138 51.7767 49.9038 51.6067 50.1038C51.5467 50.1738 51.3766 50.1638 51.2566 50.1638C51.1966 50.1538 51.1267 50.0938 51.0867 50.0438C50.9367 49.8738 50.7867 49.8838 50.6167 50.0038C50.4767 50.0938 50.3268 50.1838 50.1868 50.2938C50.0668 50.3838 50.0167 50.5538 50.0767 50.6938C50.1067 50.7638 50.1568 50.8138 50.1968 50.8838C50.3268 51.1138 50.3267 51.2438 50.1067 51.3838C49.7767 51.6038 49.4868 51.8638 49.1968 52.1538C48.8868 52.4738 48.8168 52.4738 48.4468 52.2038C48.3868 52.1538 48.3466 52.0738 48.2866 52.0538C48.2266 52.0338 48.1367 52.0638 48.0867 52.1038C47.9767 52.1938 47.9366 52.3438 48.0366 52.4238C48.3666 52.6938 48.4167 53.0438 48.3967 53.4338C48.3967 53.6538 48.4968 53.8938 48.4368 54.0938C48.3568 54.3438 47.9666 54.1838 47.8166 54.4138C47.8066 54.4338 47.7766 54.4538 47.7566 54.4538C47.6866 54.4538 47.5966 54.4838 47.5466 54.4538C47.3066 54.2838 47.0667 54.1138 46.8267 53.9238C46.6967 53.8238 46.5868 53.6738 46.4468 53.5738C46.3768 53.5338 46.2467 53.5338 46.1768 53.5638C45.8467 53.7138 45.6568 54.0238 45.4368 54.2838C45.2068 54.5638 45.2068 54.6438 45.4468 54.9938C45.5468 55.1338 45.5668 55.2538 45.4768 55.4038C45.4068 55.5238 45.2466 55.6238 45.3066 55.7838C45.3966 56.0138 45.2367 56.1038 45.1267 56.2338C44.9767 56.3938 44.8267 56.4738 44.5967 56.3738C44.4267 56.3038 44.3266 56.4338 44.2466 56.5738C44.1666 56.7238 44.1266 56.9138 44.0166 57.0238C43.6466 57.3538 43.3167 57.7138 42.9067 58.0038C42.4467 58.3338 42.0166 58.5538 41.5366 58.0738C41.5066 58.0438 41.3867 58.0638 41.3367 58.0938C41.1867 58.1938 41.0867 58.3338 41.0867 58.5238C41.0767 58.7238 41.0867 58.9238 41.0767 59.1238C41.0567 59.4838 40.8866 59.7138 40.5266 59.8138C40.1866 59.9038 39.8467 59.9938 39.5967 60.2638C39.2367 60.6338 38.8566 60.9538 38.2866 60.6938C38.1266 60.7538 37.9666 60.8038 37.8166 60.8838C37.6766 60.9538 37.7466 61.0938 37.7666 61.2138C37.7966 61.5138 37.6667 61.7338 37.4067 61.8838C36.8367 62.2138 36.3367 62.6038 36.0967 63.2538C36.0667 63.3438 35.9967 63.4338 35.9167 63.4838C35.6567 63.6338 35.5266 63.8338 35.5366 64.1438C35.5366 64.3138 35.3868 64.3838 35.2068 64.3738C35.1568 64.3638 35.1066 64.3638 35.0666 64.3438C34.8966 64.2738 34.7467 64.2338 34.5867 64.3838C34.4167 64.5338 34.4068 64.6838 34.4568 64.9038C34.5868 65.4538 34.2866 66.0938 33.8066 66.3638C33.6366 66.4638 33.4566 66.6338 33.2666 66.5338C33.1766 66.4838 33.1767 66.2738 33.1267 66.1338C33.0767 65.9738 32.9266 65.8838 32.7866 65.9238C32.3166 66.0538 31.8967 66.2738 31.5967 66.6538C31.4467 66.8538 31.3166 67.0438 31.0566 67.1138C30.9066 67.1538 30.9166 67.3838 31.0466 67.4838C31.2066 67.6038 31.3766 67.7138 31.5266 67.8338C31.5766 67.8738 31.5867 67.9638 31.5867 68.0238C31.5867 68.0438 31.5168 68.0838 31.4668 68.0938C31.0668 68.1538 30.6667 68.1438 30.3367 67.8738C30.1267 67.7038 29.9666 67.6538 29.7466 67.8438C29.6966 67.8838 29.5568 67.8638 29.4768 67.8338C29.1068 67.6838 28.9366 67.4038 28.9966 67.0038C29.0166 66.8338 29.0667 66.6638 29.1167 66.5038C29.2667 65.9238 29.4267 65.3538 29.5867 64.7838C29.6267 64.6638 29.6668 64.5438 29.7068 64.4338C29.9168 63.9238 30.0968 63.4138 30.2168 62.8738C30.3268 62.3438 30.4867 61.8238 30.6367 61.3038C30.8067 60.6838 30.9667 60.0538 30.9267 59.4038C30.9167 59.2738 30.9067 59.1538 30.9267 59.0338C30.9567 58.8938 30.9867 58.7138 31.0867 58.6338C31.3767 58.3638 31.5367 58.0538 31.5867 57.6638C31.6767 56.8638 32.0966 56.1738 32.2866 55.4038C32.3066 55.3338 32.3367 55.2538 32.3767 55.1938C32.6967 54.7638 32.8068 54.2538 32.9868 53.7738C33.0468 53.6338 33.1068 53.5038 33.1868 53.3738C33.4668 52.8738 33.7266 52.3838 33.7966 51.7938C33.8866 51.1038 34.0267 50.8938 34.4167 50.3838C34.5667 50.1938 34.7467 50.0138 34.9268 49.8438C35.1167 49.6638 35.2767 49.4738 35.3367 49.2338C35.4967 48.6338 35.8868 48.1838 36.1968 47.6738C36.3468 47.4238 36.5566 47.2038 36.7466 46.9838C36.9366 46.7738 37.1666 46.6138 37.3166 46.3938C37.5766 46.0138 37.8466 45.6738 38.2466 45.4438C38.3366 45.4038 38.3068 45.2538 38.2068 45.2038C38.1268 45.1538 38.0268 45.1338 37.9368 45.0938C37.8368 45.0338 37.7967 44.9438 37.8567 44.8438C37.9567 44.6738 38.0667 44.5138 38.1768 44.3538C38.2967 44.1938 38.4366 44.0538 38.5466 43.8838C38.6666 43.6938 38.8366 43.6238 39.0466 43.6238H39.7966C40.0366 43.6104 40.1899 43.4504 40.2566 43.1438C40.2766 43.0538 40.3367 42.9738 40.3667 42.8838C40.4467 42.7038 40.5367 42.5238 40.5767 42.3338C40.6067 42.2238 40.5666 42.0838 40.5366 41.9738C40.4766 41.7938 40.3367 41.7138 40.1467 41.6738C39.8767 41.6038 39.8268 41.4738 39.9468 41.2438C40.1068 40.9638 40.2468 40.6438 40.4768 40.4338C40.8368 40.1138 41.0667 39.7338 41.3267 39.3438C41.4767 39.1338 41.5568 38.9638 41.4568 38.7438C41.3268 38.4738 41.4266 38.2638 41.5466 38.0438C41.5966 37.9538 41.6868 37.8938 41.7268 37.8038C41.8868 37.4438 42.2267 37.2038 42.3467 36.7938C42.4267 36.5038 42.8568 36.4238 42.9568 36.0938C43.1968 36.1838 43.2968 35.9738 43.4568 35.8738C43.6768 35.7438 43.7266 35.5338 43.8166 35.3338C43.8766 35.2038 43.9967 35.1038 44.1067 34.9938C44.2167 34.8738 44.3366 34.8138 44.4966 34.8838C44.8166 35.0338 45.0966 34.9538 45.2966 34.6838C45.5666 34.3038 45.9667 34.2038 46.3767 34.1138C46.5467 34.0738 46.7267 34.0838 46.8967 34.0438C46.9767 34.0138 47.0567 33.9338 47.1067 33.8538C47.1167 33.8138 47.0566 33.7038 47.0066 33.6738C46.8866 33.5838 46.7567 33.5238 46.6267 33.4538C46.4367 33.3438 46.4167 33.1938 46.5767 33.0438C47.1067 32.5538 47.7967 32.2938 48.3967 31.9038C48.4867 31.8438 48.5767 31.8738 48.6567 31.9538C48.7667 32.0538 48.8568 32.1638 48.9768 32.2438C49.0968 32.3138 49.3767 32.1838 49.3367 32.0838C49.2267 31.7638 49.4267 31.5038 49.4167 31.2138C49.4067 31.1238 49.3466 31.0038 49.2766 30.9738C48.9666 30.8438 48.6566 30.9538 48.5566 31.2638C48.4566 31.5438 48.3166 31.6838 48.0266 31.6738C47.8466 31.6738 47.6866 31.7338 47.5366 31.8438C47.4466 31.9038 47.3168 31.9638 47.1968 31.9738C46.9868 31.9738 46.8368 32.1038 46.6968 32.2538C46.5868 32.3538 46.4867 32.4638 46.3767 32.5638C46.1667 32.7538 45.9268 32.7638 45.6768 32.6738C45.6367 32.6538 45.6067 32.5438 45.6167 32.4938C45.6367 32.4338 45.6966 32.3638 45.7566 32.3238C46.5866 31.8638 47.1868 31.1038 47.9768 30.5838C48.0068 30.5638 48.0166 30.4938 48.0066 30.4538C47.9966 30.4138 47.9467 30.3638 47.9167 30.3638C47.6667 30.3338 47.4168 30.3338 47.1768 30.2938C46.9468 30.2638 46.8068 29.9338 46.9768 29.7638C47.2768 29.4638 47.4967 29.1238 47.5867 28.6938C47.6267 28.5338 47.7066 28.3638 47.8166 28.2338C48.2066 27.7838 48.6066 27.3538 49.0066 26.9238C49.2466 26.8838 49.3666 26.6738 49.5566 26.5638C49.9066 26.3738 50.1566 26.0538 50.5566 25.9338C50.7866 25.8638 50.9866 25.6538 51.0466 25.4038C51.1266 25.1238 51.2566 24.9738 51.5566 24.9438C51.6866 24.9338 51.8568 24.8538 51.9368 24.7538C52.2168 24.3538 52.6666 24.3638 53.0566 24.2438C53.1566 24.2038 53.2566 24.2738 53.2766 24.3838C53.3266 24.6238 53.3868 24.9038 53.2068 25.1038C52.9968 25.3438 53.0467 25.6638 52.9167 25.9338C52.8867 25.9838 52.9168 26.0838 52.9568 26.1438C53.1168 26.3638 53.4668 26.4238 53.6768 26.2638C53.7568 26.2038 53.8367 26.1338 53.8867 26.0438C53.9767 25.8538 54.1167 25.7338 54.3267 25.6838C54.4167 25.6738 54.5167 25.6138 54.5767 25.5438C54.8667 25.2038 55.2567 25.0438 55.6267 24.8438C55.8167 24.7338 56.0067 24.5938 56.1467 24.4238C56.5067 23.9738 57.0366 23.8338 57.5366 23.6238C57.5666 23.6238 57.5867 23.6238 57.6167 23.6338C57.6367 23.6438 57.6567 23.6538 57.6768 23.6738C57.6867 23.6838 57.6968 23.7238 57.6868 23.7338C57.4168 24.0038 57.2767 24.3938 56.8667 24.5438C56.6267 24.6338 56.5867 24.7838 56.6367 25.0238C56.6667 25.1238 56.7168 25.2138 56.7268 25.3038C56.7768 25.7138 56.9168 25.7338 57.1768 25.4938C57.2668 25.4138 57.3668 25.3138 57.4768 25.2938C57.6268 25.2538 57.8367 25.1438 57.8767 25.4438C57.8767 25.4738 57.9668 25.5138 57.9768 25.5038C58.2768 25.2338 58.6668 25.1338 58.9768 24.8938C59.4068 24.5538 59.8366 24.2238 60.2666 23.8938C60.3866 23.8038 60.4967 23.7038 60.6167 23.6138C60.9867 23.3638 61.2866 23.0438 61.5566 22.6738C61.8766 22.2138 62.2668 21.8238 62.9268 22.0538C62.9967 22.0838 63.1068 22.0338 63.1968 22.0038C63.3068 21.9538 63.4166 21.8438 63.5266 21.8438C63.8366 21.8338 64.0268 21.6538 64.2168 21.4438C64.4068 21.2438 64.6067 21.0538 64.8767 20.9738C65.3067 20.8438 65.6666 20.5638 66.0466 20.3438C66.2966 20.1938 66.5166 19.9838 66.7566 19.8038C67.0866 19.5538 67.4266 19.3138 67.8166 19.1338C68.3566 18.8938 68.8667 18.5838 69.3667 18.2638C69.9267 17.9038 70.4167 17.4238 71.0867 17.2438C71.3367 17.1838 71.5666 17.0038 71.7966 16.8538C72.0666 16.6738 72.3167 16.4638 72.5867 16.2938C73.1167 15.9838 73.6367 15.6438 74.1567 15.3038C75.0267 14.7138 75.7666 13.9838 76.5366 13.2838C76.9366 12.9238 77.2567 12.4638 77.6267 12.0738C78.1067 11.5638 78.4966 11.0038 78.7666 10.3538C78.8966 10.0238 79.0466 9.70377 79.3166 9.47377C79.6066 9.22377 79.6968 8.88378 79.7268 8.54378C79.7868 7.99378 79.9167 7.46378 80.0967 6.95378C80.1867 6.68378 80.2367 6.40377 80.1567 6.14377C79.9367 5.41377 79.7567 4.66377 79.3967 3.97377C79.2967 3.77377 79.1866 3.56378 79.0266 3.42378C78.6766 3.14378 78.3967 2.79378 78.0967 2.46378C77.6467 1.99378 77.1866 1.55378 76.5266 1.38378C76.4766 1.37378 76.4267 1.35377 76.3867 1.32377C75.7967 1.00377 75.1666 0.773775 74.5266 0.583775C74.0466 0.443775 73.5867 0.273776 73.0767 0.303776C72.9967 0.313776 72.9167 0.313776 72.8567 0.283776C72.5167 0.133776 72.1666 0.173775 71.8267 0.163775C71.3466 0.163775 70.8767 0.163775 70.4067 0.163775C70.2267 0.163775 70.0567 0.163776 69.8867 0.133776C69.0767 -0.0462238 68.2668 -0.0462255 67.4568 0.143774C67.1468 0.213774 66.8166 0.313776 66.5066 0.293776C66.0566 0.273776 65.6966 0.593775 65.2966 0.593775C64.8966 0.593775 64.4666 0.473776 64.0466 0.453776C63.6366 0.443776 63.2667 0.623776 62.8667 0.613776C62.4767 0.593776 62.2368 0.853776 61.9468 1.04378C61.8068 1.14378 61.7867 1.42378 61.8767 1.59378C61.9967 1.79378 62.1567 1.94378 62.4067 1.95378C62.5867 1.96378 62.7568 1.97378 62.9268 2.01378C62.9967 2.03378 63.0867 2.14377 63.1067 2.22377C63.1267 2.34377 63.0167 2.39377 62.9167 2.39377C62.1167 2.39377 61.3567 2.67378 60.5767 2.76378C60.2467 2.80378 59.9567 2.86378 59.6267 2.75378C59.3967 2.66378 59.1367 2.66378 58.9268 2.84378C58.7568 2.99378 58.5667 3.00378 58.3667 3.00378C58.0667 3.00378 57.7768 3.04378 57.4868 3.12378C57.0868 3.23378 56.6566 3.27378 56.2466 3.29378C55.9166 3.31378 55.6066 3.32377 55.3066 3.49377C55.0066 3.66377 54.6867 3.62377 54.3667 3.56377C54.3367 3.56377 54.3066 3.47378 54.3166 3.45378C54.3766 3.34378 54.4366 3.24377 54.5166 3.14377C54.6966 2.91377 54.6667 2.78378 54.4167 2.71378C54.0967 2.63378 53.7868 2.57377 53.4768 2.48377C53.0568 2.36377 52.6468 2.38378 52.2368 2.54378C51.5168 2.82378 50.8067 3.10378 50.0767 3.34378C49.5367 3.51378 48.9767 3.65377 48.4167 3.74377C48.1267 3.78377 47.8266 3.83378 47.5566 3.95378C46.9366 4.26378 46.2767 4.50378 45.6367 4.76378C44.8867 5.08378 44.1167 5.34378 43.3267 5.53378C42.8567 5.65378 42.4266 5.80378 42.0366 6.09378C41.8066 6.26378 41.5466 6.41378 41.2566 6.51378C40.8966 6.65378 40.5868 6.92377 40.1768 6.97377C40.0868 6.97377 39.9867 7.04378 39.9067 7.10378C39.4767 7.48378 38.9367 7.63377 38.4167 7.72377C37.9067 7.81377 37.4666 8.01377 37.0266 8.24377C36.4966 8.51377 35.9868 8.81378 35.4768 9.12378C34.9268 9.46378 34.3468 9.73378 33.7068 9.88378C33.1968 10.0138 32.7567 10.2738 32.3367 10.6038C31.8367 11.0138 31.3267 11.4038 30.6667 11.5338C30.5767 11.5538 30.4767 11.6038 30.4067 11.6638C29.9067 12.1038 29.3068 12.3238 28.7068 12.5738C28.4368 12.6938 28.1667 12.8138 27.9167 12.9738C27.2567 13.3738 26.6168 13.7938 25.9668 14.2138C25.8668 14.2838 25.7968 14.3938 25.7068 14.4638C25.3568 14.7438 25.0867 15.1138 24.6667 15.3038C24.1767 15.5338 23.6666 15.7338 23.2466 16.0938C22.8466 16.1638 22.6167 16.4638 22.3467 16.7238C21.9467 17.1238 21.5566 17.5538 21.0666 17.8538C20.8366 17.9938 20.6367 18.1938 20.4267 18.3538C20.0867 18.6138 19.7767 18.9038 19.4167 19.1038C19.2167 19.2038 19.0267 19.3038 18.8667 19.4638C18.6767 19.6538 18.4968 19.8638 18.1968 19.9138C18.1168 19.9138 18.0168 20.0238 17.9768 20.1038C17.8768 20.3138 17.6866 20.4238 17.5066 20.5538C17.2566 20.7538 17.0366 21.0038 16.8166 21.2438C16.7866 21.2738 16.8166 21.3738 16.8066 21.4338C16.8766 21.4438 16.9666 21.4638 17.0066 21.4338C17.3566 21.2038 17.7866 21.1038 18.0566 20.7438C18.1366 20.6438 18.3068 20.6038 18.4368 20.5238C18.7568 20.2938 19.0767 20.0638 19.3967 19.8238C19.4567 19.7838 19.5066 19.7138 19.5666 19.6838C19.6266 19.6538 19.7566 19.6338 19.7666 19.6538C19.8066 19.7338 19.8667 19.8738 19.8267 19.9138C19.5867 20.1938 19.3166 20.4538 19.0566 20.7138C19.0266 20.7438 18.9667 20.7538 18.9167 20.7638C18.4467 20.8138 18.1166 21.1238 17.7966 21.4338C17.5966 21.6238 17.4067 21.8238 17.1367 21.9038C16.8967 21.9838 16.6868 22.1038 16.4768 22.2438C16.1268 22.4638 15.7467 22.6638 15.3867 22.8738C15.0867 23.3038 14.7667 23.6738 14.3467 23.9938C14.0367 24.2338 13.7568 24.5138 13.4468 24.7638C12.9668 25.1538 12.4168 25.4438 11.9668 25.8738C11.7368 26.1038 11.4466 26.3638 11.0566 26.2938C11.0566 26.1038 11.1566 25.9738 11.2866 25.8538C11.5366 25.6238 11.7966 25.3938 12.0466 25.1438C12.0866 25.1138 12.0866 24.9938 12.0566 24.9438C12.0266 24.8838 11.9367 24.8238 11.8767 24.8338C11.6267 24.8638 11.4066 24.9738 11.2466 25.1838C11.1566 25.2938 11.0768 25.4738 10.9568 25.5038C10.6768 25.5738 10.5166 25.8138 10.2966 25.9638C9.83662 26.2938 9.38677 26.6438 8.94677 27.0038C8.69677 27.2138 8.49673 27.4638 8.15673 27.5538C8.03673 27.5838 7.90666 27.7238 7.83666 27.8438C7.70666 28.0738 7.52662 28.2238 7.29662 28.3338C6.42662 28.7738 5.6468 29.3338 4.9768 30.0538C4.4768 30.6038 3.92673 31.1138 3.40673 31.6438C3.28673 31.7738 3.13663 31.8838 3.05663 32.0338C2.80663 32.5238 2.35665 32.8538 2.07665 33.3138C1.78665 33.7738 1.37663 34.1538 1.05663 34.5938C0.736631 35.0338 0.396631 35.4638 0.306631 36.0238C0.286631 36.1238 0.266778 36.2338 0.206778 36.3038C-0.0832222 36.6238 0.0165923 37.0038 0.0165923 37.3738C0.0165923 37.5338 0.0767974 37.6838 0.226797 37.7438C0.596797 37.9038 0.62669 38.2038 0.61669 38.5438C0.60669 38.7638 0.586739 39.0138 0.666739 39.2038C0.816739 39.5638 1.0368 39.8938 1.2268 40.2438C1.3068 40.3838 1.42666 40.4638 1.58666 40.4938C1.70666 40.5138 1.81676 40.5938 1.93676 40.6038C2.20676 40.6338 2.38675 40.7238 2.42675 41.0438C2.44675 41.1938 2.59678 41.3338 2.70678 41.4638C2.89678 41.6738 3.13675 41.7938 3.42675 41.8238C3.64675 41.8438 3.78678 41.6938 3.95678 41.5838C4.12678 41.4638 4.30658 41.4238 4.50658 41.5238C4.64658 41.5838 4.78676 41.6238 4.93676 41.6638C5.13676 41.7038 5.35658 41.7338 5.50658 41.5938C5.76658 41.3638 6.05667 41.4038 6.34667 41.3838C6.48667 41.3738 6.64659 41.3338 6.76659 41.2538C7.04659 41.0538 7.30665 40.8338 7.57665 40.6038C7.68665 40.5038 7.82668 40.3938 7.85668 40.2638C7.96668 39.8438 8.22677 39.5138 8.44677 39.1538C8.92677 38.3738 9.31677 37.5438 9.94677 36.8538C10.1268 36.6538 10.2666 36.4138 10.5066 36.2738C10.6266 36.2038 10.6966 36.0538 10.7966 35.9438C11.0766 35.5938 11.3567 35.2538 11.6467 34.9138C11.7767 34.7638 11.9066 34.6138 12.0666 34.5038C12.7366 33.9838 12.9668 33.0738 13.7368 32.6438C13.7968 32.6038 13.8267 32.5238 13.8767 32.4638C13.9967 32.3138 14.1066 32.1438 14.2466 32.0038C14.6266 31.6138 15.0167 31.2238 15.4067 30.8338C15.7167 30.5238 16.0168 30.1838 16.4568 30.0238C16.5268 29.9938 16.5867 29.9438 16.6367 29.8938C17.2467 29.3438 17.8568 28.7938 18.4468 28.2338C18.8168 27.8838 19.0767 27.4038 19.5967 27.2238C19.6867 27.1938 19.7466 27.0938 19.8166 27.0238C19.9366 26.8938 20.0766 26.8038 20.2466 26.7438C20.4066 26.6838 20.5567 26.5738 20.6767 26.4638C20.8267 26.3038 20.9467 26.1138 21.0967 25.9438C21.1767 25.8538 21.2767 25.7438 21.3867 25.7338C22.1467 25.6238 22.6568 25.0938 23.2168 24.6638C23.5968 24.3738 23.9366 24.0538 24.2966 23.7438C24.3566 23.7038 24.4168 23.6538 24.4868 23.6338C24.6968 23.6038 24.8366 23.4738 24.9966 23.3538C25.2666 23.1338 25.5367 22.8938 25.8467 22.7538C26.5967 22.4338 27.2968 22.0038 27.9768 21.5638C28.7068 21.0938 29.5067 20.7638 30.1767 20.1938C30.2467 20.1238 30.3468 20.0838 30.4368 20.0638C30.6468 20.0138 30.7968 19.9138 30.9568 19.7738C31.0868 19.6638 31.2467 19.5838 31.3867 19.4938C31.7667 19.2638 32.1866 19.0738 32.5166 18.7838C32.9366 18.4238 33.4067 18.1638 33.8967 17.9238C34.2567 17.7538 34.6368 17.6138 34.9468 17.3838C35.2068 17.1838 35.4966 17.0538 35.7866 16.9138C35.9866 16.8138 36.1767 16.7038 36.3667 16.5938C36.7567 16.3638 37.1166 16.0838 37.5266 15.9238C38.0366 15.7238 38.5266 15.5038 39.0066 15.2438C39.8166 14.8038 40.6668 14.4638 41.4668 14.0138C41.6368 13.9138 41.8266 13.8338 42.0166 13.7838C42.7066 13.5738 43.3766 13.3138 44.0266 13.0238C44.7366 12.7138 45.4167 12.3538 46.1667 12.1738C46.8867 12.0138 47.4567 11.5738 48.0967 11.2538C48.2567 11.1738 48.3567 11.0238 48.3867 10.8338C48.4267 10.6238 48.5768 10.4938 48.7268 10.3638C48.9768 10.1238 49.1168 10.1138 49.4368 10.3438C49.5768 10.4438 49.6967 10.4638 49.8467 10.4138C49.9667 10.3738 50.0868 10.3338 50.2068 10.3338C50.5968 10.3038 51.0067 10.3838 51.3367 10.0638C51.3967 10.0138 51.5267 10.0238 51.6267 10.0238C51.8867 10.0438 52.1067 9.94378 52.3367 9.84377C52.9867 9.58377 53.6567 9.40378 54.3567 9.43377C55.1767 9.46377 55.9367 9.27378 56.6667 8.95378C57.0367 8.79378 57.4066 8.66377 57.8166 8.67377C57.9666 8.67377 58.1166 8.65378 58.2566 8.59377C58.9366 8.32377 59.6667 8.37377 60.3667 8.24377C60.6667 8.19377 60.9568 8.16377 61.2168 8.01377C61.5768 7.80377 61.9567 7.71378 62.3567 7.84378C62.5167 7.88378 62.6466 7.88378 62.7966 7.83378C62.9566 7.77378 63.1266 7.75378 63.2966 7.71378C63.6566 7.64378 64.0267 7.56378 64.3867 7.49377C64.8267 7.66377 65.2668 7.47377 65.7068 7.49377C65.7968 7.49377 65.9066 7.48378 65.9966 7.51378C66.3566 7.66378 66.7267 7.62378 67.1067 7.63378C67.6467 7.63378 68.1966 7.64378 68.7466 7.63378C69.0266 7.62378 69.2866 7.70378 69.5466 7.79378C69.7266 7.86378 69.7967 8.06378 69.6467 8.21378C69.2467 8.65378 68.9767 9.19377 68.6067 9.65377C68.1267 10.2338 67.6066 10.7738 67.0466 11.2538C66.6266 11.6038 66.2367 11.9838 65.8367 12.3538C65.5867 12.5938 65.3667 12.8738 65.0867 13.0738C64.7667 13.2838 64.5066 13.5438 64.2466 13.8038C63.8366 14.2038 63.4366 14.6138 63.0266 15.0138C62.9266 15.1238 62.8168 15.2338 62.7068 15.3238C61.8668 15.9438 61.0268 16.5538 60.2268 17.2138C60.0168 17.3838 59.7567 17.5238 59.5867 17.7238C59.2367 18.1438 58.8567 18.5038 58.3867 18.8038C57.8367 19.1638 57.3767 19.6738 56.8767 20.1238C56.6467 20.3438 56.4267 20.5538 56.1067 20.6738C55.5667 20.8938 55.1767 21.3238 54.8867 21.8338C54.7567 22.0738 54.7868 22.2438 54.9868 22.4238C55.1368 22.5538 55.2967 22.6838 55.4268 22.8338C55.6167 23.0438 55.6067 23.5338 55.4067 23.6438C55.0867 23.8338 54.7367 23.9738 54.3467 23.8838C54.1467 23.8438 54.0167 23.5938 54.0967 23.4138C54.1567 23.3038 54.2466 23.2138 54.2966 23.1038C54.4066 22.8838 54.2766 22.6338 54.0466 22.5938C53.8166 22.5538 53.6067 22.5638 53.4067 22.7038C52.6667 23.1638 51.9868 23.6938 51.1968 24.0738C51.0268 24.1638 50.9367 24.3038 50.8767 24.4738C50.7667 24.7438 50.5767 24.9038 50.3267 25.0538C50.1167 25.1938 49.9067 25.3038 49.6467 25.3038C49.4967 25.0238 49.5968 24.7738 49.7268 24.5338C49.8268 24.3338 49.9167 24.0838 50.0867 23.9838C50.4367 23.7938 50.5068 23.5238 50.4768 23.1738C50.4568 22.9438 50.5468 22.7538 50.6968 22.5638C51.3868 21.6838 51.3767 21.6738 51.3767 20.5238C51.3767 20.1938 51.3468 19.8638 51.1968 19.5838C50.9868 19.2138 50.8568 18.8138 50.7068 18.4238C50.5968 18.1238 50.4467 17.8538 50.1467 17.6638C49.8367 17.4538 49.6068 17.1538 49.4468 16.8038C49.3868 16.6738 49.2868 16.5538 49.1968 16.4338C49.0568 16.2338 48.9066 16.0438 48.7566 15.8438C48.6966 15.7638 48.6567 15.6638 48.5867 15.6038C48.1867 15.2638 47.7767 14.9438 47.3767 14.6238C47.1067 14.4138 46.8068 14.3338 46.4668 14.3438C46.2168 14.3438 45.9668 14.3438 45.7268 14.2838C45.2568 14.1538 44.7766 14.1438 44.3166 14.2338C43.2966 14.4138 42.3067 14.7438 41.4067 15.2838C41.1267 15.4438 40.8668 15.6338 40.7068 15.9338C40.6268 16.0838 40.4867 16.2038 40.3667 16.3238C40.0967 16.5638 39.9367 16.8638 39.8467 17.2138C39.6867 17.8838 39.5666 18.5638 39.5666 19.2638C39.5666 19.7238 39.6567 20.1438 39.8467 20.5638C40.0567 21.0338 40.2568 21.5238 40.4868 21.9838C40.6268 22.2738 40.6767 22.5638 40.5967 22.8538C40.4167 23.4738 40.2266 24.0938 39.9966 24.6938C39.6766 25.5238 39.3168 26.3438 38.9668 27.1638C38.7668 27.6438 38.5667 28.1238 38.3467 28.5938C38.1867 28.9338 37.9766 29.2438 37.7966 29.5638C37.5266 30.0438 37.3568 30.5738 36.9568 30.9738C36.8568 31.0738 36.8266 31.2338 36.7566 31.3738C36.5566 31.7938 36.3467 32.2138 36.1467 32.6438C36.1067 32.7038 36.0466 32.7638 36.0266 32.8338C35.8266 33.5038 35.4167 34.0638 35.0867 34.6738C34.9167 35.0038 34.7066 35.3138 34.5366 35.6438C34.3266 36.0438 34.0666 36.4038 33.8166 36.7738C33.3766 37.3938 32.8066 37.9338 32.5566 38.6838C32.5366 38.7538 32.4868 38.8138 32.4468 38.8738C32.2668 39.0938 32.1567 39.3338 32.0867 39.6038C31.9767 39.9938 31.8068 40.3438 31.4768 40.6038C31.2468 40.7938 31.0866 41.0238 30.9966 41.3338C30.9166 41.6438 30.7667 41.9338 30.5967 42.2038C30.4267 42.4838 30.1866 42.7038 30.0166 42.9738C29.8266 43.2638 29.5566 43.5038 29.5466 43.8838C29.5466 43.9538 29.5068 44.0438 29.4568 44.0838C29.0868 44.4038 28.7268 44.7738 28.1968 44.8038C27.8768 44.8238 27.6167 44.8738 27.3967 45.1138C27.2967 45.2238 27.1466 45.2938 27.0166 45.3438C26.9066 45.3838 26.7367 45.4138 26.6567 45.3438C26.2667 45.0638 25.7967 45.1538 25.3667 45.0338C25.1367 44.9638 24.6968 45.2838 24.7368 45.5038C24.7768 45.7038 24.9967 45.6938 25.1767 45.7038C25.2267 45.7038 25.2766 45.7038 25.3166 45.7138C25.5066 45.7538 25.5868 45.9638 25.4668 46.1238C25.2768 46.3538 25.0867 46.5738 24.8867 46.8038C24.7867 46.9238 24.6166 46.8938 24.5166 46.7538C24.4566 46.6738 24.4167 46.5838 24.3567 46.4938C24.2467 46.3238 24.1966 46.3138 24.0066 46.4238C23.8566 46.5138 23.7066 46.6138 23.5566 46.6938C23.1366 46.9138 22.8067 47.1838 22.8367 47.7238C22.8467 47.7738 22.8266 47.8338 22.7966 47.8638C22.7066 47.9438 22.6166 48.0338 22.5066 48.0638C22.3766 48.1138 22.2067 47.9938 22.1567 47.8538C22.1267 47.7638 22.1067 47.6638 22.0967 47.5638C22.0667 47.3738 21.9566 47.2538 21.8066 47.1538C21.7566 47.1138 21.6767 47.1138 21.6067 47.1238C21.5867 47.1238 21.5466 47.2138 21.5566 47.2438C21.6666 47.4538 21.6168 47.6238 21.4668 47.7938C21.4168 47.8538 21.3968 47.9838 21.4368 48.0638C21.5768 48.3838 21.4367 48.5638 21.1567 48.7238C20.9767 48.8338 20.7868 49.0038 20.6868 49.1838C20.4468 49.6238 20.0767 49.7338 19.6267 49.7438C19.4367 49.7438 19.2366 49.8038 19.0466 49.8438C18.7866 49.8938 18.5466 50.0838 18.2566 49.9338C18.2166 49.9138 18.1166 49.9538 18.0566 49.9938C17.9166 50.0938 17.7567 50.1838 17.6567 50.3238C17.5167 50.5238 17.3467 50.5938 17.1067 50.6538C16.6967 50.7538 16.1966 50.7438 15.9966 51.2638C15.9766 51.3138 15.8666 51.3338 15.8066 51.3638C15.6566 51.4538 15.5067 51.5438 15.3667 51.6238C15.1767 51.7338 14.9866 51.8838 14.7866 51.9438C14.4366 52.0538 14.1767 52.2738 13.8867 52.4638C13.5867 52.6738 13.2167 52.7738 12.8867 52.9438C12.7767 52.9938 12.7067 53.1138 12.6067 53.1838C12.4067 53.3338 12.2168 53.5038 11.9868 53.5838C11.4668 53.7538 11.1668 54.2038 10.7268 54.4838C10.3068 55.0638 9.87679 55.6438 9.46679 56.2238C9.08679 56.7438 9.03672 57.3338 9.14672 57.9338C9.20672 58.2238 9.2466 58.5138 9.2766 58.8138C9.3266 59.3338 9.47674 59.8138 9.91674 60.1838C10.3167 60.5138 10.6266 60.9438 11.0266 61.2738C11.4366 61.6238 11.8868 61.8638 12.4368 61.8438C12.6668 61.8438 12.9067 61.7938 13.1067 61.8738C13.4867 62.0138 13.8368 61.9438 14.1968 61.8338C14.3868 61.7838 14.5766 61.7238 14.7766 61.6938C15.0466 61.6438 15.2966 61.5438 15.4966 61.3438C15.6666 61.1738 15.8767 61.1238 16.0867 61.0638C16.4867 60.9338 16.8967 60.8038 17.1067 60.3738C17.1767 60.2238 17.3268 60.0938 17.4668 60.0038C17.9968 59.6738 18.4867 59.2938 18.9167 58.8438C18.9767 58.7738 19.0867 58.7338 19.1567 58.6738C19.7267 58.1938 20.3767 57.8238 20.9067 57.2938C21.1867 57.0138 21.5666 56.8438 21.7766 56.4938C21.8266 56.4138 21.9466 56.3838 22.0366 56.3438C22.2266 56.2438 22.4367 56.1538 22.6267 56.0338C22.7567 55.9638 22.8968 55.8838 22.9668 55.7638C23.1068 55.5138 23.3166 55.3638 23.5466 55.1938C23.7866 55.0238 24.0168 54.8238 24.1868 54.5838C24.3568 54.3238 24.5967 54.1438 24.8267 53.9738C25.2567 53.6638 25.6366 53.3138 25.9966 52.9438C26.0666 52.8738 26.1368 52.7538 26.2268 52.8538C26.2768 52.9038 26.2568 53.0438 26.2268 53.1338C26.0668 53.5738 25.9068 54.0238 25.7168 54.4438C25.3568 55.2338 25.0466 56.0438 24.7766 56.8738C24.6066 57.4438 24.2867 57.9538 24.1767 58.5438C24.1767 58.5938 24.1467 58.6438 24.1067 58.6738C23.8967 58.9338 23.8468 59.2638 23.7368 59.5638C23.5468 60.1038 23.3967 60.6538 23.1267 61.1638C23.0667 61.2638 23.0366 61.3938 23.0066 61.5138C22.8166 62.1238 22.6468 62.7438 22.4568 63.3638C22.2668 63.9738 22.0666 64.5838 21.7866 65.1638C21.7366 65.2738 21.6867 65.3938 21.6767 65.5138C21.6267 66.0638 21.3968 66.5638 21.2068 67.0738C21.1468 67.2338 21.0667 67.4038 21.0767 67.5638C21.0867 67.9538 20.9666 68.2938 20.8066 68.6438C20.7066 68.8638 20.6567 69.1138 20.6067 69.3538C20.4067 70.2238 20.2166 71.0938 20.0166 71.9538C19.9366 72.2938 19.7768 72.6238 19.7368 72.9638C19.6868 73.4338 19.5568 73.8838 19.4668 74.3438C19.3568 74.9138 19.1767 75.4738 19.3867 76.0938C19.5967 76.6938 19.2666 77.2538 19.0266 77.7938C18.9666 77.9238 18.8168 78.0438 18.6868 78.0738C18.1668 78.2238 17.8866 78.6538 17.5666 79.0238C17.2566 79.3838 17.2567 79.8538 17.3967 80.2938C17.4267 80.3938 17.5267 80.4438 17.6367 80.4038C17.8067 80.3438 17.9566 80.2638 18.0566 80.1038C18.1266 79.9738 18.2266 79.8538 18.3166 79.7438C18.4966 79.5038 18.7466 79.4138 19.0366 79.4538C19.1866 79.4738 19.3268 79.5138 19.4668 79.5538C19.9668 79.7238 20.3766 80.0538 20.8066 80.3338C21.2166 80.6038 21.6968 80.7938 21.9368 81.2738C22.1968 81.4038 22.3768 81.7038 22.7068 81.6838C23.1568 81.6538 23.5366 81.7638 23.8267 82.1338C23.9167 82.2538 24.0968 82.3338 24.2268 82.2738C24.6068 82.1038 24.9566 82.2538 25.3166 82.2738C25.5866 82.2938 25.8767 82.3338 26.0867 82.1038C26.4067 81.7638 26.7968 81.6538 27.2368 81.6838C27.5968 81.6938 27.8466 81.5238 28.0366 81.2238C28.3966 80.6638 28.8466 80.1538 28.9966 79.4738C29.0166 79.3838 29.0867 79.3038 29.1267 79.2138C29.4267 78.6138 29.5467 77.9638 29.3767 77.3338C29.2067 76.6938 29.0766 76.0338 28.7666 75.4238C28.5866 75.0738 28.5366 74.6738 28.3166 74.3338C28.0566 73.9338 28.4267 73.5138 28.3767 73.0938V73.0238C28.3667 72.7138 28.3867 72.5938 28.8267 72.4438C28.8967 72.4238 28.9766 72.4238 29.0466 72.4038C29.2566 72.3438 29.3167 72.1738 29.1667 72.0238C29.1167 71.9738 29.0468 71.9438 28.9868 71.8938C28.8268 71.7338 28.8166 71.5638 28.9966 71.4638C29.2566 71.3038 29.5167 71.1338 29.6567 70.8738C29.8267 70.5738 30.0567 70.3738 30.3567 70.2338C30.4767 70.1838 30.5967 70.1238 30.6767 70.0338C30.9667 69.7338 31.3466 69.6438 31.7466 69.5838C31.8266 69.5838 31.9068 69.5938 31.9668 69.5538C32.0468 69.5138 32.1468 69.4538 32.1868 69.3738C32.4968 68.6938 32.6068 68.6038 33.2268 68.5438C33.3768 68.5238 33.5467 68.5338 33.6367 68.4038C33.7767 68.1638 34.0066 68.1138 34.2466 68.0538C34.4866 67.9838 34.7066 67.8638 34.8166 67.6138C34.9266 67.3738 35.1467 67.3138 35.3867 67.3738C35.4567 67.3838 35.5267 67.4238 35.5967 67.4438C35.8967 67.5338 36.1668 67.5038 36.4368 67.3038C36.6268 67.1638 36.8867 67.1038 37.1167 67.0038C37.5167 66.8238 37.8368 66.5938 37.9668 66.1338C38.0168 65.9138 38.1368 65.7238 38.2268 65.5138C38.3368 65.2738 38.5066 65.1938 38.7566 65.3138C38.8466 65.3538 38.9166 65.4238 39.0066 65.4738C39.1466 65.5638 39.3067 65.5738 39.4167 65.4638C39.6667 65.2238 39.9667 64.9938 40.1167 64.6938C40.2467 64.4338 40.3967 64.2538 40.6267 64.1038C40.7967 63.9938 40.9366 63.8438 41.0566 63.6938C41.3566 63.3438 41.7467 63.1938 42.1768 63.1738C42.7067 63.1438 43.0968 62.9138 43.4368 62.5238C43.7168 62.2138 44.0267 61.9238 44.3267 61.6238C44.4167 61.5338 44.5167 61.4438 44.6267 61.4138C44.8967 61.3438 45.1668 61.2938 45.4268 61.2738C45.4868 61.2738 45.6267 61.4038 45.6167 61.4638C45.5667 61.7338 45.4866 61.9838 45.2666 62.1838C44.9466 62.4638 44.6268 62.7638 44.4668 63.1538C44.2468 63.6838 43.7867 64.0738 43.6667 64.6438C43.4267 64.9238 43.4466 65.3238 43.2566 65.5938C42.9766 65.9938 42.8666 66.4338 42.7866 66.9038C42.7266 67.2638 42.6067 67.6338 42.5967 67.9938C42.5967 68.2538 42.7466 68.5138 42.8166 68.7738C42.8466 68.8938 42.8567 69.0238 42.8567 69.1438C42.8667 69.5038 42.9667 69.8438 43.1567 70.1338C43.3667 70.4538 43.4466 70.8138 43.5666 71.1538C43.6466 71.3938 43.7066 71.6338 43.7866 71.8638C43.8866 72.1538 44.0566 72.4138 44.3066 72.5838C44.5566 72.7538 44.7767 72.9338 44.9268 73.2038C44.9868 73.3138 45.0768 73.4138 45.1868 73.4638C45.7568 73.7938 46.1967 74.3538 46.9067 74.4538C46.9967 74.4538 47.0867 74.5338 47.1667 74.5838C47.4567 74.7438 47.7567 74.8338 48.0967 74.8238C48.2567 74.8238 48.4367 74.8738 48.5967 74.9238C49.0167 75.0738 49.4367 75.2338 49.8567 75.3838C50.2067 75.5138 50.5668 75.5938 50.9468 75.5638C51.7968 75.5038 52.6168 75.7938 53.4668 75.7138C53.5368 75.7138 53.6168 75.7438 53.6868 75.7538C54.0968 75.8338 54.5068 75.9438 54.9268 75.9938C55.1867 76.0238 55.4868 76.0438 55.7368 75.9638C56.0768 75.8538 56.4266 75.8738 56.7666 75.8638C57.2566 75.8338 57.7466 75.8638 58.2466 75.7538C58.7066 75.6538 59.1767 75.6538 59.6067 75.4338C59.6867 75.3938 59.8067 75.4138 59.8967 75.4138C60.1267 75.4038 60.3467 75.4138 60.5767 75.4138C61.3867 75.3738 62.2166 75.5138 63.0166 75.2638C63.0666 75.2538 63.1167 75.2638 63.1667 75.2638C63.8667 75.2638 64.5268 75.1238 65.1868 74.8738C65.5768 74.7238 65.9967 74.6238 66.4268 74.6638C66.7268 74.6838 67.0266 74.6438 67.3267 74.6638C67.7867 74.6938 68.2067 74.5938 68.6167 74.3938C68.8467 74.2838 69.0767 74.2338 69.3267 74.2038C69.8967 74.1538 70.4468 74.0238 70.9468 73.7438C71.0468 73.6838 71.1468 73.5938 71.2068 73.4938C71.2868 73.3638 71.3367 73.2238 71.3867 73.0838C71.4967 72.7238 71.7367 72.5638 72.1067 72.5738C72.7767 72.5738 72.9267 72.4938 73.1667 73.2238C73.2267 73.3938 73.3366 73.4538 73.4966 73.4638C74.1566 73.5238 74.7366 73.2838 75.2466 72.9238C75.7066 72.5838 76.3468 72.6038 76.7368 72.1538C76.7668 72.1238 76.8367 72.1538 76.8867 72.1238C77.0667 72.0638 77.2568 71.9938 77.4468 71.9338C77.7068 71.8538 77.9568 71.7138 78.2268 71.6938C78.5868 71.6638 78.8767 71.5138 79.1667 71.3038C79.3867 71.1538 79.6367 71.0338 79.8767 70.9138C80.6467 70.5538 81.4766 70.4138 82.2966 70.2138C82.4366 70.1738 82.5968 70.1738 82.7368 70.2138C82.8968 70.2438 83.0167 70.2638 83.1467 70.1438C83.4267 69.9138 83.7767 69.8838 84.1367 69.8838C84.7267 69.8738 85.3067 69.7338 85.8867 69.6438C86.2067 69.6038 86.5166 69.5138 86.7466 69.2538C86.8366 69.1438 86.9967 69.0838 87.1367 69.0338C87.6967 68.8538 88.2767 68.6938 88.8767 68.6938C89.2267 68.6938 89.5567 68.6638 89.8767 68.4838C90.0967 68.3638 90.3466 68.3138 90.5666 68.2038C90.8766 68.0438 91.2066 68.1438 91.5166 68.0738C91.8266 68.0038 92.0868 67.7738 92.4368 67.7838C93.0168 67.8138 93.5566 67.6338 94.0266 67.2838C94.2566 67.1138 94.4966 67.0238 94.7866 67.0438C95.1366 67.0738 95.4766 67.0138 95.8066 66.9038C96.0266 66.8338 96.2468 66.7738 96.4568 66.7638C96.7268 66.7438 96.9467 66.6738 97.1167 66.4738C97.2867 66.2738 97.4966 66.1838 97.7566 66.1338C98.1566 66.0438 98.5667 65.9438 98.9167 65.6838C99.0767 65.5638 99.2768 65.5238 99.4568 65.4238C99.9168 65.1538 100.407 65.0538 100.947 65.1038C101.197 65.1338 101.437 65.1038 101.667 64.9638C101.887 64.8338 102.127 64.7938 102.377 64.8038C102.697 64.8338 102.997 64.7538 103.207 64.5338C103.477 64.2538 103.787 64.1838 104.157 64.2138C104.687 64.2538 105.167 64.1138 105.637 63.8338C106.097 63.5438 106.617 63.3738 107.187 63.4538C107.457 63.4938 107.727 63.4838 107.957 63.2738C108.147 63.0938 108.447 63.2138 108.637 63.0138C108.827 62.8138 109.067 62.6738 109.257 62.4738C109.477 62.2238 109.767 62.1938 110.057 62.1338C110.147 62.1138 110.247 62.1138 110.347 62.1238C110.637 62.1438 110.917 62.1238 111.197 62.0538C111.377 62.0138 111.557 61.9538 111.727 61.8838C111.937 61.7938 112.147 61.7138 112.357 61.6438C112.497 61.5938 112.637 61.5238 112.787 61.5338C113.167 61.5438 113.527 61.5038 113.787 61.1738C113.847 61.1038 113.967 61.1038 114.067 61.0738C114.227 61.0238 114.397 60.9838 114.557 60.9138C114.717 60.8338 114.827 60.8738 114.967 60.9638C115.237 61.1338 115.527 61.1338 115.797 60.9238C115.947 60.8138 116.107 60.7638 116.287 60.7738C116.577 60.7938 116.837 60.6938 117.077 60.5238C116.927 60.1038 116.807 59.6738 116.717 59.2238C116.567 58.5638 116.477 57.8638 116.437 57.1338L116.447 57.1538ZM84.9368 34.9738C84.9368 34.9738 84.9568 34.9238 84.9768 34.9138C85.3068 34.7538 85.6466 34.6338 86.0366 34.6638C86.0666 34.6638 86.1167 34.6838 86.1567 34.6938C86.1767 34.7038 86.1968 34.7238 86.1968 34.7338C86.1968 34.7638 86.1867 34.7838 86.1667 34.8038C86.1467 34.8138 86.1267 34.8338 86.1067 34.8338C85.7367 34.9238 85.3568 35.0038 84.9868 35.0838C84.9668 35.0838 84.9368 35.0538 84.9368 35.0338C84.9368 35.0238 84.9368 34.9938 84.9368 34.9738ZM84.2966 40.5038C84.7166 40.2838 85.1667 40.1338 85.6067 39.9538C86.1967 39.7038 86.7867 39.4538 87.3867 39.2038C87.4267 39.1838 87.4766 39.1638 87.5166 39.1438C88.2766 38.5738 89.2166 38.4538 90.0666 38.1238C90.2966 38.0338 90.5366 37.9738 90.7666 37.8938C90.8566 37.8638 90.9566 37.8238 91.0466 37.7938C91.9466 37.5238 92.8466 37.2438 93.7566 36.9938C94.2566 36.8638 94.7666 36.7638 95.2566 36.6138C95.6366 36.4838 96.0368 36.4438 96.4368 36.4538C96.6568 36.4538 96.8767 36.3938 97.0967 36.3738C97.3667 36.3538 97.6367 36.3138 97.9067 36.3338C98.0967 36.3438 98.2768 36.4538 98.4668 36.5238C98.4168 36.7738 98.1966 36.8538 98.0066 36.9538C97.6166 37.1638 97.2367 37.3938 96.8667 37.6438C96.2367 38.0738 95.5567 38.4438 94.8667 38.7738C94.4367 38.9738 94.0067 39.1638 93.5967 39.3938C92.7067 39.8838 91.7366 40.2138 90.8066 40.6138C90.3966 40.7838 89.9666 40.9338 89.5666 41.1138C88.6966 41.5138 87.7867 41.7338 86.8467 41.8438C86.6567 41.8738 86.4666 41.9538 86.2666 41.9638C85.9666 41.9838 85.6666 41.9738 85.2766 41.9738C84.7666 42.0238 84.1867 41.9438 83.6167 41.7538C83.5667 41.7338 83.5168 41.7238 83.4668 41.7038C83.2568 41.6238 82.9666 41.8038 82.8066 41.5238C82.9766 41.3538 83.1567 41.1938 83.3267 41.0238C83.5966 40.7438 83.9766 40.6738 84.2966 40.5038ZM83.3267 35.8838C83.3267 35.8838 83.3767 35.9138 83.3867 35.9338C83.3867 35.9438 83.3867 35.9838 83.3767 35.9938C83.3267 36.0438 83.2768 36.1038 83.2168 36.1438C82.8268 36.3538 82.4366 36.5238 81.9966 36.6038C82.2566 36.0438 82.7967 35.9638 83.3267 35.8838ZM81.9868 36.6038C81.8868 36.7838 81.7166 36.7438 81.5466 36.7538C81.6466 36.5738 81.8168 36.6138 81.9868 36.6038ZM80.4368 37.1338C80.5368 37.0338 80.6766 36.9538 80.7666 36.8538C81.0066 36.5738 81.2466 36.5638 81.5366 36.7538C81.4766 36.8238 81.4367 36.9338 81.3667 36.9738C81.0967 37.0938 80.8266 37.2038 80.5566 37.3038C80.5166 37.3138 80.4467 37.2838 80.4268 37.2538C80.4068 37.2238 80.4068 37.1538 80.4268 37.1338H80.4368ZM76.2666 39.3638C76.3266 39.1238 76.4468 38.9738 76.7268 38.9838C76.8168 38.9938 76.9566 38.9638 76.9966 38.9038C77.1466 38.6238 77.4767 38.5538 77.6567 38.3238C77.9167 37.9838 78.2567 37.9238 78.6467 37.9438C78.8467 37.9638 79.0368 37.9538 79.2068 37.8138C79.2968 37.7538 79.3866 37.6038 79.5066 37.7538C79.5066 37.7838 79.4167 37.9238 79.3367 37.9738C78.8667 38.2538 78.4167 38.5738 77.9167 38.7638C77.3767 38.9838 76.9068 39.2638 76.4668 39.6338C76.3968 39.6938 76.2968 39.7138 76.2068 39.7438C76.1668 39.6838 76.1167 39.6438 76.1267 39.6238C76.1667 39.5338 76.2466 39.4538 76.2666 39.3638ZM56.4768 38.3438C56.1368 38.3838 55.8867 38.5638 55.6667 38.8138C55.4967 38.9938 55.2866 39.0338 55.0566 38.9538C54.9166 38.9038 54.7867 38.8438 54.6367 38.9538C54.1967 39.2838 53.6768 39.3238 53.1868 39.2938H52.7866C52.4766 39.2738 52.4266 39.2138 52.5166 38.8538C52.5266 38.8038 52.5867 38.7138 52.6267 38.7138C52.9767 38.7138 53.3367 38.6638 53.6667 38.7538C53.9467 38.8238 54.1467 38.7438 54.3467 38.6138C54.4567 38.5538 54.5267 38.4438 54.6267 38.3738C54.7067 38.3238 54.8267 38.2738 54.8967 38.3038C55.1467 38.4138 55.3566 38.3238 55.4966 38.1638C55.6766 37.9438 55.8567 37.9438 56.0867 38.0538C56.1967 38.1038 56.3268 38.0938 56.4468 38.1338C56.4768 38.1438 56.5266 38.1938 56.5266 38.2338C56.5366 38.2738 56.4968 38.3438 56.4768 38.3438ZM57.2068 35.8638C57.1768 36.1838 56.9467 36.4138 56.6367 36.4538C56.5167 36.4638 56.3866 36.4538 56.2666 36.4538C55.9966 36.4638 55.7268 36.4538 55.4668 36.5538C55.3168 36.6138 55.1268 36.5938 54.9568 36.5938C54.8668 36.5938 54.7368 36.5838 54.7368 36.4638C54.7368 36.3738 54.7867 36.2738 54.8467 36.2138C54.9267 36.1238 55.0367 36.0538 55.1467 36.0038C55.2767 35.9338 55.4166 35.8938 55.5566 35.8338C55.6566 35.7838 55.6867 35.7038 55.6367 35.5938C55.3967 35.0838 55.4068 35.1038 55.9368 34.9138C56.2268 34.8038 56.5166 34.8038 56.8066 34.8238C57.0466 34.8438 57.1668 34.9738 57.1868 35.2038C57.2068 35.3238 57.1968 35.4438 57.1968 35.5738V35.8638H57.2068ZM52.5867 49.2038C52.5867 49.2038 52.6367 49.2638 52.6667 49.2938C52.6167 49.3238 52.5766 49.3538 52.5266 49.3838C52.5066 49.3438 52.4768 49.3038 52.4868 49.2638C52.4968 49.2438 52.5467 49.2238 52.5867 49.2038ZM10.2766 27.0338C10.2766 27.0338 10.1467 27.0038 10.1567 26.9938C10.1567 26.9338 10.1568 26.8538 10.2068 26.8238C10.3768 26.6838 10.5468 26.5438 10.7368 26.4238C10.8368 26.3638 10.9566 26.3438 11.0666 26.3038C10.9866 26.7338 10.7266 26.9938 10.2766 27.0338ZM21.6167 18.7638C21.3667 19.1738 20.9766 19.3538 20.5166 19.4038C20.4766 19.4138 20.4067 19.3638 20.4067 19.3438C20.3867 19.2738 20.3967 19.2038 20.4267 19.1338C20.4267 19.1038 20.4866 19.0538 20.5366 19.0438C20.7966 18.9738 21.0168 18.8338 21.2168 18.6438C21.2968 18.5638 21.4266 18.5238 21.5466 18.4838C21.5766 18.4838 21.6067 18.5338 21.6567 18.5638C21.6467 18.6238 21.6467 18.7138 21.6167 18.7638ZM64.5166 1.61378C64.5166 1.61378 64.5066 1.58377 64.5066 1.57377C64.5166 1.55377 64.5466 1.53378 64.5666 1.53378C64.6266 1.52378 64.6966 1.51378 64.7966 1.50378C64.8366 1.52378 64.9068 1.53377 64.9668 1.56377C64.9668 1.56377 64.9868 1.59378 64.9668 1.60378C64.9268 1.68378 64.5966 1.68378 64.5066 1.61378H64.5166ZM67.1768 1.04378C67.1068 1.06378 67.0368 1.06377 66.9568 1.06377C66.8968 1.05377 66.8166 1.05378 66.7566 1.02378C66.7266 1.01378 66.6868 0.953775 66.6868 0.913775C66.6868 0.873775 66.7166 0.813776 66.7566 0.803776C66.9166 0.753776 67.0768 0.753776 67.2168 0.883776C67.2368 0.903776 67.2466 0.933776 67.2466 0.943776C67.2266 0.983776 67.2067 1.03378 67.1768 1.04378ZM56.0166 23.0538C56.1066 23.0038 56.1966 23.0438 56.2566 23.1738C56.2166 23.2138 56.1667 23.2738 56.1167 23.2838C56.0567 23.2838 55.9967 23.2438 55.9268 23.2138C55.9567 23.1638 55.9666 23.0738 56.0166 23.0538ZM38.6667 62.6838C38.6667 62.6838 38.5867 62.6138 38.5967 62.5738C38.6067 62.3838 38.7467 62.2838 38.9067 62.2238C38.9467 62.2038 39.0166 62.2938 39.0566 62.3238C39.0366 62.5238 38.8367 62.7038 38.6667 62.6838ZM43.3066 61.6838C43.3066 61.6838 43.1767 61.7938 43.1367 61.7838C43.0567 61.7538 42.9568 61.6838 42.9368 61.6138C42.9068 61.5338 42.9468 61.4238 42.9768 61.3438C43.0568 61.1438 43.1566 61.1338 43.2966 61.3038C43.3366 61.3538 43.3667 61.4238 43.4067 61.4838C43.3667 61.5538 43.3466 61.6338 43.3066 61.6838ZM100.847 61.7738C100.737 61.7938 100.627 61.8038 100.507 61.8138C100.497 61.8138 100.477 61.7838 100.477 61.7638C100.477 61.7438 100.487 61.7138 100.507 61.7038C100.587 61.6638 100.677 61.6238 100.767 61.5938C100.797 61.5838 100.847 61.6338 100.887 61.6538C100.877 61.6938 100.867 61.7638 100.847 61.7738Z" fill="black"/>
<path d="M48.6468 29.9939C48.6068 29.9139 48.5367 29.8338 48.5567 29.7938C48.7367 29.4838 48.8069 29.0839 49.2269 28.9739C49.2969 28.9539 49.3669 28.9238 49.4269 28.8838C49.6969 28.6738 49.9569 28.4439 50.2269 28.2239C50.2969 28.1639 50.2669 28.0038 50.1869 27.9738C50.0069 27.8938 49.6469 27.9938 49.6869 27.6838C49.7169 27.4138 50.0567 27.5239 50.2567 27.4439C50.4167 27.3739 50.6169 27.3639 50.7369 27.2639C50.9769 27.0539 51.1067 27.1338 51.2567 27.3638C51.3767 27.5538 51.5569 27.4539 51.7269 27.3939C51.7669 27.3839 51.8168 27.3939 51.8668 27.4039C51.8668 27.4439 51.8668 27.4939 51.8468 27.5339C51.6768 27.8039 51.4869 28.0539 51.1969 28.2139C50.7669 28.4539 50.3969 28.7839 49.9669 29.0339C49.5669 29.2639 49.2368 29.6139 48.8668 29.9039C48.8168 29.9439 48.7368 29.9539 48.6568 29.9839L48.6468 29.9939Z" fill="black"/>
<path d="M61.0468 2.25375C61.0468 2.25375 60.9669 2.35375 60.9069 2.37375C60.6969 2.44375 60.5068 2.39375 60.3868 2.19375C60.2368 1.94375 60.0468 1.93375 59.8268 2.06375C59.5368 2.23375 59.2269 2.26375 58.8969 2.26375C58.6569 2.26375 58.4169 2.33375 58.1669 2.35375C57.7969 2.37375 57.4268 2.37375 57.0668 2.37375C57.0368 2.37375 56.9869 2.31375 56.9769 2.28375C56.9669 2.24375 56.9767 2.17375 57.0067 2.15375C57.5367 1.90375 58.0669 1.63375 58.6869 1.78375C58.8569 1.82375 59.0369 1.80375 59.1769 1.68375C59.3369 1.54375 59.5169 1.50375 59.7269 1.50375C59.8769 1.50375 60.0169 1.47375 60.1669 1.44375C60.7469 1.31375 60.8167 1.35375 61.0067 1.94375C61.0267 2.01375 61.0468 2.08375 61.0668 2.15375C61.0668 2.17375 61.0668 2.20375 61.0568 2.25375H61.0468Z" fill="black"/>
<path d="M48.0166 37.3537C48.0166 37.3537 47.8368 37.3537 47.6968 37.3237C47.6468 37.3137 47.5767 37.2337 47.5667 37.1837C47.5667 37.1237 47.6167 37.0437 47.6667 37.0037C47.7467 36.9537 47.8468 36.9337 47.9368 36.9037C48.1468 36.8437 48.4167 36.8437 48.5667 36.7137C48.8767 36.4437 49.2667 36.5037 49.6067 36.3737C49.6567 36.3537 49.7166 36.3337 49.7466 36.3537C49.8266 36.3937 49.9168 36.4437 49.9768 36.5137C50.0468 36.6037 49.9967 36.7137 49.9167 36.7737C49.4667 37.1337 48.9667 37.3837 48.3667 37.3537C48.2967 37.3537 48.2166 37.3537 48.0266 37.3537H48.0166Z" fill="black"/>
<path d="M15.3968 22.8638C15.0068 22.8138 14.7669 23.1138 14.4769 23.2838C14.3269 23.3738 14.2167 23.5138 14.0967 23.6338C14.0167 23.7038 13.9067 23.7538 13.8367 23.6738C13.7767 23.6138 13.7467 23.4838 13.7667 23.4038C13.8067 23.2638 13.8769 23.1238 13.9769 23.0238C14.2269 22.7938 14.5067 22.5838 14.7767 22.3738C14.8367 22.3338 14.9069 22.3038 14.9769 22.2838C15.1869 22.2138 15.3568 22.3338 15.3868 22.5638C15.3968 22.6638 15.3868 22.7638 15.3868 22.8638H15.3968Z" fill="black"/>
<path d="M45.7466 39.6038C45.7466 39.6038 45.8467 39.6239 45.8967 39.6639C45.9267 39.6839 45.9568 39.7538 45.9468 39.7838C45.8268 40.1038 45.3568 40.3538 44.9868 40.3138C44.8968 40.3138 44.8167 40.1639 44.8667 40.0939C45.0667 39.8039 45.2868 39.5439 45.7368 39.5939L45.7466 39.6038Z" fill="black"/>
<path d="M42.9169 41.0738C42.9169 41.0738 42.8069 41.0738 42.7169 41.0338C42.6669 41.0138 42.6168 40.9038 42.6368 40.8638C42.7868 40.5238 43.1269 40.3938 43.4869 40.5338C43.5269 40.5538 43.5667 40.6638 43.5467 40.7138C43.4867 40.9138 43.3868 41.0738 43.1468 41.0738C43.0968 41.0738 43.0469 41.0738 42.9169 41.0738Z" fill="black"/>
<path d="M24.1066 45.1838C24.1066 45.1838 24.1066 45.2338 24.1066 45.2538C24.0466 45.3338 23.9867 45.4138 23.9167 45.4738C23.6767 45.6438 23.4367 45.8138 23.1967 45.9738C23.1467 46.0038 23.0568 45.9738 22.9868 45.9638C22.9068 45.9338 22.9068 45.7938 22.9868 45.7138C23.0168 45.6738 23.0466 45.6238 23.0866 45.6038C23.3866 45.4438 23.6865 45.2938 23.9965 45.1538C24.0265 45.1438 24.0767 45.1838 24.1267 45.2038L24.1066 45.1838Z" fill="black"/>
<path d="M13.3767 24.0438C13.3067 24.1538 13.2567 24.3238 13.1567 24.3938C12.9767 24.5038 12.7566 24.5438 12.5466 24.6038C12.5266 24.6038 12.4568 24.5438 12.4668 24.5138C12.5068 24.1938 12.9466 23.8838 13.2666 23.9338C13.2966 23.9338 13.3267 23.9938 13.3767 24.0438Z" fill="black"/>
<path d="M54.3266 27.0238C54.3266 27.0238 54.3466 27.1038 54.3466 27.1238C54.2866 27.4638 54.0167 27.6638 53.6667 27.6238C53.6267 27.6238 53.5565 27.5838 53.5465 27.5538C53.5365 27.4938 53.5266 27.3838 53.5666 27.3538C53.7566 27.2038 53.9567 27.0738 54.1667 26.9438C54.1967 26.9238 54.2766 26.9938 54.3266 27.0238Z" fill="black"/>
<path d="M17.9168 81.2638C17.9168 81.2638 17.7969 81.3938 17.7169 81.4738C17.6169 81.3738 17.4968 81.2938 17.4168 81.1838C17.3668 81.1138 17.5668 80.9038 17.6868 80.8838C17.7968 80.8638 17.9268 81.0338 17.9068 81.2638H17.9168Z" fill="black"/>
<path d="M79.7268 71.5438C79.8168 71.5638 79.8767 71.5638 79.9067 71.5938C79.9367 71.6138 79.9668 71.6738 79.9668 71.7038C79.9668 71.7438 79.9267 71.8038 79.8967 71.8038C79.7567 71.8138 79.6168 71.8238 79.4668 71.8138C79.4468 71.8138 79.4167 71.7538 79.4067 71.7138C79.4067 71.7038 79.4168 71.6638 79.4368 71.6538C79.5468 71.6038 79.6468 71.5638 79.7168 71.5338L79.7268 71.5438Z" fill="black"/>
<path d="M36.3065 61.8638C36.4665 61.8438 36.5765 61.9138 36.5465 62.0038C36.5165 62.0838 36.4366 62.1438 36.3766 62.2138C36.3166 62.1438 36.2467 62.0838 36.2067 62.0038C36.1967 61.9738 36.2765 61.9038 36.3065 61.8738V61.8638Z" fill="black"/>
<path d="M48.1868 29.9037C48.1868 29.9037 48.1167 29.9537 48.0867 29.9737C48.0667 29.9237 48.0366 29.8737 48.0166 29.8237C48.0566 29.8137 48.1067 29.7737 48.1367 29.7937C48.1667 29.8037 48.1768 29.8637 48.1868 29.9037Z" fill="black"/>
</svg>
