<svg width="819" height="874" viewBox="0 0 819 874" fill="none" xmlns="http://www.w3.org/2000/svg">
<path d="M791.51 100.03L748.8 146.3L710.84 280.45V351.56L685.92 433.43L670.5 523.6L682.37 595.97L672.87 645.8L643.21 708.68L613.55 716.98L598.13 711.05L585.08 657.66L600.51 501.05L583.89 413.25L610.23 366.39L610.68 306.51L624.49 265.2L651.57 129.7L676.72 63.3802L695.85 54.0702L673.86 53.0402L649.64 62.7902L601.33 104.87L560.2 261.92L546.99 284.19L522.9 261.45L515.75 107.09L531.66 56.9002L576.95 0.200195H553.41L514.87 25.3502L433.13 124.01L420.76 168.43L416.59 241.76L397.97 276.48L352.57 294.89L316.97 224.6L286.86 214.49L239.15 202.05L191.29 270.72L104.57 299.63L136.93 303.77L182.88 323.57L207.8 359.45L250.13 404.04L213.44 473.47L182.39 459.35L140.62 455.4L109.57 377.5L51.4299 340.25L45.7899 354.36L75.6999 400.65L68.3599 416.2L23.6999 452.07L0.689941 459.52L6.09994 475.08L24.7699 468.86L77.8499 436.74H94.0899L126.94 477.98L182.09 486.5L208.59 499.26L262.05 557.09L256.8 622.74L260.02 696.5L262.73 831.18H219.41L161.31 833.8L131.98 842.57L105.58 873.3H284.25L296 843.92V681.81L317.18 557.82L367.59 530.6L412.72 536.64L471.68 601.16L480.49 701.45V837.65L404.07 832.61L344.05 842.05L313.58 862.47L299.2 873.29H521.2L532.1 703.33L582.71 758.5H637.29L678.81 728.84L706.1 655.28L717.97 595.96L703.73 525.96L721.52 438.16L747.63 352.73L748.81 280.44L780.84 166.47L818.8 117.82L791.52 100.03H791.51ZM260 279.15L242.54 283.93L234.7 280.95L235.11 275.75L247.47 263.43L263.04 264.67L260 279.16V279.15Z" fill="black"/>
</svg>
