<svg width="126" height="116" viewBox="0 0 126 116" fill="none" xmlns="http://www.w3.org/2000/svg">
<path d="M122.486 37.0282L121.5 42.2725L120.855 46.913L117.434 51.396L114.045 51.9735L110.902 54.1262L105.868 66.0247L99.089 70.307L89.4242 70.5324L85.4264 67.9489L84.8561 63.2543L92.0436 57.065V53.717L104.75 44.5735L109.176 33.095L105.295 26.5535L105.61 24.1383L112.37 22.3856L110.705 19.9302L106.45 20.2499L104.363 20.2437L103.737 15.7715L99.7767 12.1641L94.9999 10.6755L93.2227 12.388L92.8982 14.2103L97.0583 14.252L96.6967 20.8274L94.0789 23.2488L90.0702 19.6121L87.0042 19.4484L87.8294 21.0034L90.336 24.8548L93.5426 29.6312L91.5522 34.7165L86.0507 39.9484L79.982 40.8394L73.6723 45.0583L68.2295 41.5127L66.1757 31.5538L67.4877 25.6779L70.8242 22.2744L74.6629 16.5714L83.507 15.4101L86.0832 9.04008L86.0646 6.05349L82.5798 11.0414L77.3379 11.2422L82.0822 4.14479L87.1649 2.79974L84.5517 0L80.9711 0.813824H77.1834L70.8242 5.44814L67.5217 4.41967L63.442 6.83334L59.0207 3.90234L55.1758 1.97819L53.3724 2.84607L59.3421 6.27895L59.9278 8.95978L47.2805 20.3811L43.2873 26.2385L42.8577 33.1151L46.7829 39.3199L50.2121 44.958L50.7576 50.1189L47.5819 50.4061L45.3179 48.7383L43.2085 42.0424L40.6339 37.5147L34.1325 34.6917L29.6386 30.6365L37.4365 21.2552L35.8031 19.6754L30.368 25.3042L27.4256 28.2337L23.3335 26.4748L22.1544 22.5879L19.7282 22.5106L15.551 19.314L13.0661 16.346L8.26463 16.8463L5.06726 19.6121L11.343 21.4806L13.2299 24.4811L13.9052 32.4171L13.0614 34.2609L10.9427 34.4663L8.34653 31.5538L5.06726 31.1955L2.03525 29.8922L0.891677 26.2894L0 33.0162L0.891677 37.1548L6.02384 41.0402L8.34653 40.7035L10.9118 42.1968L13.5467 46.2289L18.6062 48.6071L25.4275 48.7383L30.7667 56.0596L31.8021 64.2396L30.4128 72.2203L35.0057 84.5713L31.5502 96.9562L33.8667 106.475L33.1729 114.27L37.9496 116L39.6464 113.498L39.3018 100.93L40.0868 92.8284H44.1419L46.6995 98.8649L45.542 107.053L45.916 114.641L51.7111 115.216L53.122 102.23L52.4745 95.3286L55.7986 85.5287L56.2004 79.1834L58.6112 78.1472L62.249 82.8958L63.6552 91.7088L64.3862 102.23L63.7371 113.87L71.6139 113.62L70.4008 107.349L72.9661 97.8812L74.8962 92.8284L78.347 95.3286L77.6238 101.713L76.8558 108.198L80.8026 115.186L87.4524 115.424L87.1155 112.292L87.7259 108.467L88.259 102.647L87.304 94.9332L90.5153 85.4515L98.9514 80.8743L101.274 77.7657L106.834 74.9629L111.268 71.7354L115.882 65.5754L117.337 57.3831L125.515 47.4998L126 36.8815L122.484 37.0298L122.486 37.0282ZM100.579 25.9806L102.047 27.7225L100.97 30.2906L99.8647 30.9577L99.2729 30.4142L98.9514 27.7503L100.579 25.9806ZM23.3134 33.7498L20.5688 33.271L19.671 32.3429L20.0697 31.6449L22.5979 30.74L24.6857 31.9322L23.3134 33.7498ZM63.8252 15.7252L62.9289 14.7971L63.3276 14.1006L65.8558 13.1957L67.9436 14.3863L66.5713 16.2039L63.8252 15.7252Z" fill="#D9D9D9"/>
</svg>
