<svg width="1440" height="395" viewBox="0 0 1440 395" fill="none" xmlns="http://www.w3.org/2000/svg">
<path d="M-12.0674 314V79.4369H81.4298C127.686 79.4369 155.571 101.745 155.571 138.488C155.571 166.373 139.496 180.808 118.501 188.025V188.681C144.745 193.602 165.085 212.957 165.085 246.748C165.085 291.036 134.247 314 87.6629 314H-12.0674ZM11.881 293.004H88.6471C125.718 293.004 140.153 273.977 140.153 246.748C140.153 219.191 122.437 201.147 94.5522 201.147H11.881V293.004ZM11.881 180.151H86.0226C118.501 180.151 130.639 164.076 130.639 140.784C130.639 116.836 116.204 100.433 86.0226 100.433H11.881V180.151ZM202.581 314V79.4369H361.691V100.433H226.53V181.136H347.256V202.131H226.53V293.004H365.299V314H202.581ZM484.562 318.265C428.136 318.265 387.456 289.067 384.176 236.25H409.108C412.389 272.664 434.697 297.269 483.578 297.269C526.882 297.269 541.645 276.601 541.645 250.684C541.973 215.91 517.696 210.005 469.471 199.179C431.088 190.321 394.017 178.511 394.017 135.535C394.017 98.1363 423.871 75.1721 472.096 75.1721C522.945 75.1721 555.095 101.089 558.704 147.017H533.771C529.834 114.539 511.791 96.1679 472.096 96.1679C437.649 96.1679 418.95 110.275 418.95 134.551C418.95 166.045 446.835 172.606 481.281 180.151C529.506 190.649 566.577 202.459 566.577 250.028C566.577 288.083 540.332 318.265 484.562 318.265ZM650.899 314V100.433H571.18V79.4369H754.566V100.433H674.519V314H650.899ZM784.056 314V79.4369H808.004V314H784.056ZM835.761 314L923.353 79.4369H950.254L1038.5 314H1012.91L989.293 249.044H883.986L860.365 314H835.761ZM891.859 227.72H981.748L937.131 102.073H936.475L891.859 227.72ZM1065.98 314V79.4369H1157.84C1207.7 79.4369 1234.93 102.729 1234.93 145.705C1234.93 176.871 1216.89 198.195 1191.3 204.756V205.412C1245.1 216.238 1226.4 308.095 1239.2 312.032V314H1213.61C1202.78 304.158 1224.11 216.566 1161.45 216.566H1089.93V314H1065.98ZM1089.93 195.57H1151.93C1189.33 195.57 1210.98 178.839 1210.98 146.033C1210.98 116.18 1193.93 100.433 1153.57 100.433H1089.93V195.57ZM1330.51 314V217.878L1244.89 79.4369H1270.81L1342.32 199.179H1342.98L1414.83 79.4369H1440.41L1354.46 217.878V314H1330.51Z" fill="black"/>
</svg>
