<svg width="498" height="187" viewBox="0 0 498 187" fill="none" xmlns="http://www.w3.org/2000/svg">
<g clip-path="url(#clip0_209_54)">
<path d="M167.391 132.748L162.979 134.534L158.79 136.697L154.499 138.671L150.19 140.594L145.864 142.448L141.555 144.353L137.246 146.31L132.749 147.752L127.272 148.73L121.745 149.211L116.149 148.387L116.046 145.229L117.762 140.851L119.256 136.233L121.916 132.199L124.406 128.251L128.388 125.865L132.903 124.388L137.143 122.208L141.589 120.474L145.366 117.384L149.228 114.432L152.748 111.067L156.284 107.737L159.992 104.544L162.962 100.647L166.103 96.9392L168.541 92.7506L170.154 88.3903L168.009 83.2232L163.305 80.0302L158.859 81.5408L154.499 83.4978L150.602 86.296L146.945 89.4031L143.048 92.2356L139.409 95.377L135.804 98.57L132.491 102.072L129.35 105.746L125.642 108.853L122.637 112.492V107.909L122.071 103.342L121.539 98.776L119.685 94.0552L116.234 90.2614L112.286 87.0341L107.6 85.0771L102.862 83.2232L97.8147 82.5365L92.785 81.9013L87.7037 81.6782L82.7597 80.9915L84.1159 74.2451L87.4805 70.5714L90.3817 66.5888L93.403 62.6749L96.8191 59.1042L100.407 55.7053L103.377 51.757L105.831 47.7228L108.338 43.723L111.29 40.0151L113.539 35.8608L115.96 31.8095L118.088 27.5865L120.921 23.7412L122.792 19.3981L124.749 15.1065L126.654 10.7634L127.581 6.07693L125.865 1.9913L121.899 -0.0515137L117.453 0.446315L113.419 3.19295L109.454 5.90526L106.072 9.33856L102.81 12.892L99.4284 16.3597L96.1839 19.9818L93.5575 24.0674L91.2915 28.3762L88.7337 32.479L85.9184 36.4445L83.5666 40.6846L81.1461 44.8904L79.0518 49.2507L77.3179 53.7654L75.7043 58.4862L73.7645 63.1212L72.065 67.8248L70.5372 72.5971L68.563 77.1977L65.8679 81.4207L62.2629 84.8883L58.0056 87.8409L53.4737 90.3816L49.1992 93.2484L45.5256 95.6345L42.161 98.467L39.8778 102.175L38.9165 106.243L41.3541 107.994L45.5256 105.471L49.7657 103.119L53.8685 100.561L58.04 98.1408L62.2973 96.8018L60.8209 101.402L59.5506 106.089L57.7996 110.621L56.6838 115.359L54.6238 119.788L53.2334 124.44L52.1004 129.178L49.9546 133.59L48.3581 138.19L47.4311 142.945L47.6199 148.782L51.1562 146.018L54.6067 143.649L58.452 141.692L60.306 136.8L62.1428 131.993L63.9109 127.152L66.2112 122.534L68.3227 117.848L70.4514 113.162L71.8762 108.166L73.9533 103.445L76.1678 98.776L78.3823 94.1754L83.2061 92.9394L88.3732 92.9051L93.506 93.4029L98.5186 94.6904L103.325 96.6302L107.205 100.063L109.986 104.355L110.621 109.505L109.127 114.483L106.484 118.929L103.085 122.483L99.2396 125.504L95.4114 128.526L91.8408 131.976L87.532 134.345L83.3777 136.971L79.1548 139.478L74.8631 141.881L70.3655 143.855L66.0567 146.224L61.3874 147.855L57.1473 150.396L52.6669 152.404L47.8259 153.537L43.4141 155.717L38.659 157.005L33.9554 158.378L29.2518 159.717L24.4451 160.421L20.7544 160.163L16.9606 159.58L12.3771 160.61L8.22281 162.687L4.61785 165.554L1.33905 168.832L0.0687256 173.261L3.57069 176.248L8.34298 176.437L13.0981 176.077L17.733 174.909L22.4882 174.188L26.9858 172.489L31.5177 170.978L36.29 169.347L41.0623 167.717L45.9033 166.223L50.5897 164.301L54.8813 161.554L59.4476 159.408L64.1684 157.571L68.4429 154.859L72.7517 152.215L77.4381 150.207L81.4036 147.031L85.575 144.199L89.7808 141.418L93.7978 138.362L98.1066 135.684L102.158 132.645L106.209 129.607L109.694 125.916L113.471 122.689L111.771 126.963L109.574 131.066L107.806 135.358L105.969 139.632L104.544 144.078L102.295 148.181L100.493 152.49L101.66 156.97L104.132 160.747L107.771 163.545L112.681 164.146L117.522 163.511L122.311 162.567L127.032 161.245L131.736 159.82L136.405 158.292L140.782 156.026L145.28 154.069L149.709 151.992L153.881 149.932L158.378 148.542L162.515 146.379L166.841 144.611L170.858 142.207L174.944 139.924L179.562 138.07L179.098 132.954L173.33 132.8L167.442 132.731L167.391 132.748ZM147.46 100.475L150.516 97.2825L154.567 95.7375L152.473 99.909L149.314 103.771L145.417 106.896L141.538 110.003L137.693 113.11L133.349 114.741L136.508 110.981L139.632 106.947L143.752 103.892L147.46 100.458V100.475ZM98.2954 33.2343L101.094 28.4964L104.407 24.0846L107.651 19.5698L111.771 16.085L110.26 20.3766L108.561 24.7712L107.222 29.3547L104.51 33.2858L102.673 37.6804L99.7202 41.4056L97.7461 45.783L94.2613 49.0962L91.446 53.1475L93.197 48.0318L94.6733 43.0021L96.4243 38.0924L98.2611 33.2343H98.2954Z" fill="#F5F5F5"/>
<path d="M219.92 117.539C215.92 115.96 210.787 114.398 204.539 112.853L201.002 111.926C196.694 111.016 193.277 110.089 190.771 109.162C188.265 108.235 186.188 106.964 184.54 105.316C182.892 103.686 182.085 101.471 182.085 98.7074C182.085 95.0166 183.596 92.1326 186.617 90.0898C189.638 88.0298 193.981 87.017 199.612 87.017C211.405 87.017 218.341 92.0296 220.383 102.089H230.855C230.134 95.1196 227.13 89.4032 221.843 84.9399C216.555 80.4766 209.105 78.2449 199.457 78.2449C190.737 78.2449 183.922 80.1332 179.012 83.927C174.085 87.7208 171.613 92.8536 171.613 99.3254C171.613 104.029 172.918 107.84 175.545 110.707C178.154 113.574 181.364 115.719 185.158 117.161C188.952 118.603 194.136 120.131 200.693 121.779C202.444 122.191 203.612 122.449 204.23 122.552C208.436 123.479 211.817 124.388 214.392 125.315C216.95 126.242 219.079 127.65 220.778 129.556C222.461 131.444 223.302 133.985 223.302 137.16C223.302 141.469 221.722 144.988 218.547 147.701C215.354 150.413 210.289 151.769 203.303 151.769C195.509 151.769 189.621 150.052 185.621 146.619C181.621 143.186 179.458 138.602 179.149 132.852H168.695C168.712 133.418 168.747 133.985 168.781 134.551C168.85 135.461 168.97 136.354 169.124 137.246C170.171 143.392 173.158 148.576 178.085 152.782C184.128 157.949 192.488 160.541 203.148 160.541C212.796 160.541 220.332 158.395 225.774 154.087C231.198 149.778 233.928 144.027 233.928 136.851C233.928 131.736 232.589 127.616 229.928 124.543C227.25 121.47 223.92 119.136 219.92 117.539Z" fill="#F5F5F5"/>
<path d="M249.618 80.0818V53.9373H239.61V80.0818H228.074V88.8539H239.61V107.394V138.242V149.778V158.55H249.618H262.682V149.778H249.618V107.394V88.8539H267.609V158.55H277.617V80.0818H267.609H249.618Z" fill="#F5F5F5"/>
<path d="M278.99 53.9373H266.081V66.8465H278.99V53.9373Z" fill="#F5F5F5"/>
<path d="M445.453 80.0816L421.146 145.469H420.837L395.997 80.0816H392.992H389.508H384.959H363.603H353.613V88.8537V158.55V158.738H363.603V158.55V88.8537H388.426L415.875 158L406.434 185.038L406.039 186.085H415.154L456.217 80.0816H445.453Z" fill="#F5F5F5"/>
<path d="M344.377 149.778V103.016C344.377 94.2955 341.837 87.9611 336.773 84.0128C331.691 80.0645 325.151 78.0903 317.151 78.0903C306.491 78.0903 298.543 80.4765 293.307 85.2488C288.071 90.0039 285.256 96.1838 284.844 103.771H295.453C295.865 97.8318 297.685 93.523 300.929 90.8622C304.156 88.1842 309.461 86.8624 316.842 86.8624C322.885 86.8624 327.383 88.0297 330.301 90.3987C333.219 92.7505 334.695 96.0293 334.695 100.235C334.695 103.222 333.871 105.471 332.224 107.016C330.593 108.544 328.516 109.66 325.992 110.312C323.486 110.981 319.297 111.84 313.461 112.852C306.079 114.191 300.071 115.771 295.453 117.625C290.835 119.462 287.299 122.088 284.844 125.47C282.389 128.852 281.153 133.263 281.153 138.705C281.153 145.263 283.488 150.55 288.157 154.55C292.809 158.55 299.041 160.541 306.851 160.541C313.203 160.541 318.713 159.374 323.383 157.005C328.052 154.653 331.709 151.22 334.386 146.705H334.695V158.55H348.703V149.778H344.377ZM327.451 145.692C322.627 149.76 316.173 151.769 308.07 151.769C297.101 151.769 291.608 147.117 291.608 137.778C291.608 132.954 293.427 129.349 297.067 126.929C300.706 124.526 306.594 122.603 314.697 121.161C320.121 120.234 324.567 119.273 328.001 118.243C331.434 117.213 333.666 115.977 334.695 114.552V129.161C334.695 136.13 332.275 141.658 327.451 145.692Z" fill="#F5F5F5"/>
<path d="M468.302 62.7607H461.847V60.0999H477.846V62.7607H471.392V80.0817H468.285V62.7607H468.302Z" fill="#F5F5F5"/>
<path d="M478.31 60.0999H482.362L488.112 75.79H488.164L493.949 60.0999H498V80.0645H494.979V64.5631H494.928L489.417 80.0645H486.876L481.366 64.5631H481.315V80.0645H478.293V60.0999H478.31Z" fill="#F5F5F5"/>
</g>
<defs>
<clipPath id="clip0_209_54">
<rect width="498" height="186.085" fill="white"/>
</clipPath>
</defs>
</svg>
