<svg width="127" height="105" viewBox="0 0 127 105" fill="none" xmlns="http://www.w3.org/2000/svg">
<path d="M55.4009 0.109863C55.4706 0.235428 55.4183 0.325111 55.2615 0.325111C55.1222 0.325111 54.948 0.486549 54.8957 0.683853C54.8435 0.881165 54.7041 1.04259 54.5996 1.04259C54.4951 1.04259 54.4951 1.15022 54.6345 1.31165C54.9306 1.67039 54.739 1.65246 54.3732 1.29372C54.1642 1.06054 54.0945 1.06054 54.1293 1.23991C54.1642 1.38341 53.9029 1.93945 53.5371 2.47757C53.1887 3.01569 52.8926 3.39236 52.8926 3.30268C52.8926 3.21299 52.7532 3.26681 52.579 3.42824C52.4048 3.60761 52.2132 3.6973 52.1784 3.66142C52.1436 3.62555 52.0042 3.71523 51.8649 3.85873C51.6558 4.09191 51.6732 4.10985 52.039 4.02016L52.4571 3.89461L52.0565 4.14572C51.8474 4.27129 51.7255 4.43272 51.7952 4.52241C51.8649 4.59415 51.7952 4.59415 51.621 4.52241C51.4294 4.45065 51.29 4.52241 51.2029 4.73765C51.0462 5.18608 50.4539 5.72419 50.2623 5.59863C50.1752 5.54482 50.1578 5.41927 50.2101 5.31164C50.2797 5.20402 50.2449 5.16814 50.1404 5.23989C50.0533 5.2937 50.001 5.59863 50.0533 5.90356C50.1055 6.28024 50.0359 6.51343 49.8617 6.65692C49.6004 6.85423 49.6178 6.94392 50.001 7.49997C50.2275 7.84077 50.5933 8.25333 50.8197 8.39683C51.0287 8.54033 51.6036 8.98875 52.0913 9.38337C53.2932 10.352 53.868 10.7287 54.199 10.7287C54.3558 10.7287 54.4254 10.8004 54.3732 10.908C54.3209 10.9977 54.3732 11.0874 54.5125 11.0874C54.6345 11.0874 55.1919 11.3385 55.7493 11.6434C56.6725 12.1636 56.7247 12.2174 56.4286 12.4686C56.2544 12.6121 56.2196 12.6659 56.3415 12.6121C56.5157 12.5224 56.568 12.5762 56.5157 12.8094C56.4809 13.0067 56.3415 13.1322 56.2196 13.0964C56.0977 13.0784 56.0454 13.1322 56.1151 13.2399C56.1673 13.3475 56.2718 13.3834 56.3415 13.3475C56.5157 13.2399 56.4809 14.352 56.3067 14.6569C56.2022 14.8183 56.2196 14.8721 56.3241 14.8004C56.4286 14.7286 56.5505 14.8004 56.6028 14.9259C56.6551 15.0695 56.6202 15.2309 56.4983 15.2847C56.3415 15.3385 56.3415 15.3744 56.5157 15.3744C56.7596 15.3923 56.8118 15.9304 56.5505 15.9304C56.4635 15.9304 56.3764 16.0919 56.3764 16.2892C56.3764 16.4865 56.2718 16.6479 56.1673 16.6479C55.9931 16.6479 55.9931 16.6838 56.1499 16.7914C56.2718 16.8811 56.3241 17.1143 56.2718 17.3654C56.2196 17.6165 56.1325 18.1008 56.0802 18.4416C56.028 18.7824 55.9235 19.1591 55.8364 19.2667C55.7493 19.3744 55.7319 19.5179 55.8015 19.5717C55.8538 19.6434 55.7841 19.6972 55.6273 19.6972C55.4706 19.6972 55.3312 19.7869 55.3312 19.8766C55.3312 19.9842 55.1396 20.1457 54.8957 20.2353C54.6519 20.325 54.408 20.5403 54.3558 20.6838C54.2861 20.8273 54.1816 20.9528 54.1119 20.9528C53.99 20.9528 53.99 20.7197 54.0945 19.6434C54.1119 19.5537 54.1816 19.5358 54.2687 19.5896C54.3383 19.6434 54.3732 19.482 54.3209 19.2488C54.2861 18.9797 54.3209 18.8004 54.4429 18.8004C54.5474 18.8004 54.6345 18.6031 54.6345 18.3519C54.6345 18.0829 54.7564 17.8497 54.948 17.778C55.3835 17.5986 55.5054 17.3654 55.5054 16.5224C55.5054 15.9304 55.4183 15.6973 55.0525 15.4103C54.7912 15.195 54.3906 15.0336 54.1293 15.0336C53.7809 15.0336 53.7461 14.9798 53.9377 14.8721C54.0945 14.7645 53.2932 14.7107 51.7952 14.7466C50.2275 14.7645 49.4088 14.7107 49.4088 14.5851C49.4088 14.4955 49.3217 14.5493 49.2172 14.7107C49.1301 14.8901 48.8514 15.0336 48.6075 15.0336C48.3288 15.0336 48.2069 14.9618 48.294 14.8363C48.3462 14.7286 48.2069 14.7825 47.963 14.9439C47.7192 15.1053 47.4753 15.2309 47.423 15.2309C47.0224 15.1591 46.9179 15.2309 47.1443 15.3923C47.3359 15.5358 47.2837 15.5537 46.9005 15.4999C46.6218 15.4461 46.256 15.482 46.0818 15.5717C45.8205 15.7152 45.7856 15.6973 45.8379 15.3923C45.8727 15.1771 45.8379 15.0695 45.7334 15.1233C45.6463 15.195 45.6115 15.3026 45.6637 15.3923C45.716 15.482 45.6115 15.6434 45.4198 15.7331C45.2282 15.8407 45.0541 15.8587 45.0192 15.769C44.9844 15.6614 44.6534 15.6614 44.2005 15.7511C43.7825 15.8228 43.2425 15.8766 43.016 15.8407C42.807 15.8228 42.6154 15.8587 42.6154 15.9125C42.6154 15.9842 42.1451 16.0381 41.5703 16.056C40.9432 16.0739 40.56 16.0022 40.6296 15.9125C40.6819 15.8049 40.6296 15.6255 40.5251 15.482C40.4206 15.3385 40.3684 15.1591 40.4206 15.0695C40.4729 14.9798 40.3509 14.4416 40.1593 13.8856C39.9677 13.3295 39.8632 12.7914 39.9155 12.6838C39.9851 12.5941 39.9329 12.5224 39.8284 12.5224C39.7239 12.5224 39.6716 12.4506 39.7239 12.3609C39.7761 12.2713 39.6368 11.8408 39.3929 11.3744C39.1665 10.926 39.0097 10.5493 39.0794 10.5493C39.1316 10.5493 39.0794 10.4417 38.9748 10.3161C38.8703 10.1726 38.8355 10.0112 38.9052 9.95736C38.9574 9.88561 38.9226 9.8318 38.8007 9.8318C38.6787 9.8318 38.6439 9.76005 38.6961 9.65243C38.8181 9.43718 36.4839 7.03361 35.2124 6.065C34.7421 5.68832 33.993 5.09639 33.5576 4.75558C33.1395 4.39684 32.7215 4.16366 32.6518 4.19954C32.5821 4.25335 32.5124 4.19954 32.5124 4.10985C32.5124 4.00223 32.3557 3.91254 32.1466 3.91254C31.955 3.91254 31.8505 3.84079 31.9028 3.73317C31.955 3.64349 31.9028 3.60761 31.746 3.66142C31.6066 3.71523 31.3105 3.64349 31.0841 3.48205C30.875 3.32062 30.5267 3.19505 30.3351 3.19505C30.1435 3.19505 29.6557 2.89012 29.2725 2.49551C28.5583 1.8139 28.4887 1.79596 26.0152 1.29372C25.4752 1.1861 24.6739 1.43722 24.6739 1.68834C24.6739 1.83183 24.5868 1.93945 24.4823 1.93945C24.3952 1.93945 24.343 2.01121 24.3952 2.08295C24.4475 2.17264 24.3255 2.35201 24.1339 2.47757C23.9597 2.62107 23.803 2.83631 23.803 2.96188C23.803 3.08743 23.681 3.19505 23.5417 3.19505C23.4023 3.19505 23.2978 3.24887 23.2978 3.32062C23.3152 3.4103 23.3152 3.62555 23.2804 3.82285L23.263 4.1816L23.1062 3.82285C23.0191 3.62555 22.9494 3.57174 22.9494 3.6973C22.932 4.05604 21.9566 5.54482 21.8346 5.41927C21.7649 5.34751 21.6779 5.4372 21.6082 5.59863C21.5559 5.76007 21.3992 5.88563 21.2946 5.88563C21.1727 5.88563 20.9288 6.02912 20.7372 6.2085C20.4063 6.5493 20.2843 6.60311 19.9708 6.60311C19.8837 6.60311 19.7966 6.6928 19.7966 6.78249C19.7966 6.89011 19.4831 7.30267 19.0999 7.69728C18.7166 8.0919 18.4031 8.50445 18.4031 8.59414C18.4031 8.70176 18.316 8.7197 18.2289 8.66589C18.1244 8.59414 18.0547 8.61208 18.0721 8.70176C18.1418 9.13225 18.0199 9.47306 17.7934 9.47306C17.3057 9.47306 17.7934 10.2264 18.5947 10.6928C19.2392 11.0695 19.605 11.1591 20.8417 11.1771C21.6604 11.195 22.3572 11.1412 22.4094 11.0695C22.4617 10.9977 22.8972 11.1233 23.3675 11.3565C25.5623 12.3968 26.799 12.917 27.1822 12.9529C27.3913 12.9887 27.6874 13.0784 27.8093 13.1502C27.9312 13.2399 28.2448 13.3116 28.4887 13.3475C29.8647 13.491 30.248 13.5807 31.1015 14.0291C31.6241 14.2802 32.1815 14.5313 32.3382 14.5493C32.7215 14.621 33.5924 15.6434 33.4182 15.8407C33.3485 15.9304 33.3834 15.9304 33.5053 15.8587C33.6098 15.8049 33.7492 15.8228 33.8188 15.9304C33.8711 16.0201 33.8537 16.1098 33.7666 16.1098C33.6795 16.1098 33.6098 16.2354 33.6098 16.3789C33.6098 16.5224 33.6795 16.6479 33.7666 16.6479C33.8537 16.6479 33.8885 16.7197 33.8363 16.7914C33.8014 16.8632 33.8188 17.0425 33.9059 17.186C34.0105 17.3475 33.9582 17.5089 33.7666 17.6703C33.5053 17.8676 33.5053 17.8856 33.7492 17.7959C33.9756 17.7241 34.0279 17.8138 34.0105 18.2085C34.0105 18.4954 34.1846 18.9797 34.3937 19.2847C34.6027 19.5896 34.7769 19.9125 34.7769 20.0201C34.7769 20.1098 35.0904 20.5941 35.4736 21.0963C35.8569 21.5806 36.1704 22.1367 36.1704 22.2981C36.1704 22.4595 36.3968 22.908 36.693 23.2847C36.9717 23.6434 37.1459 24.0201 37.0762 24.1098C37.0065 24.1815 37.0936 24.1456 37.2678 24.0201C37.4594 23.8587 37.5639 23.8587 37.5639 23.9663C37.5639 24.0739 37.6684 24.1277 37.8078 24.0739C37.9471 24.0201 38.2084 24.056 38.3826 24.1636C38.7136 24.3609 38.6961 24.3788 37.7207 24.4506C37.5639 24.4506 37.2852 24.5761 37.111 24.7196C36.8323 24.9528 36.8149 24.9528 36.9543 24.7196C37.0762 24.5044 37.0588 24.4865 36.8497 24.6479C36.4665 24.9528 35.5956 25.0604 35.2124 24.8452C34.8988 24.6838 34.8814 24.6838 35.1253 24.9887C35.3691 25.2936 35.3517 25.3116 34.864 25.2039C34.5853 25.1322 34.1498 25.0246 33.9234 24.9707C33.6795 24.9169 33.4356 24.9707 33.3485 25.1143C33.2614 25.2577 33.1569 25.2757 33.0872 25.1681C32.8956 24.9169 32.3382 24.899 32.3905 25.1501C32.4079 25.2577 32.2511 25.3295 32.0421 25.2936C31.7634 25.2577 31.6415 25.3295 31.6415 25.5447C31.6415 25.76 31.5892 25.7959 31.415 25.6524C31.2408 25.5089 31.1363 25.5447 30.9621 25.8138C30.6486 26.3699 30.5267 26.1187 30.4918 24.7555C30.4918 24.0918 30.4047 23.3385 30.3351 23.1053C30.2131 22.6927 30.2131 22.6748 30.5267 22.9259C30.8228 23.1591 30.8402 23.1591 30.666 22.9259C30.4047 22.5492 30.2131 21.9932 30.4047 22.1008C30.4918 22.1546 30.5615 22.0111 30.5615 21.76C30.5615 21.1501 29.4467 19.8766 29.2202 20.2174C29.1332 20.3609 28.9415 20.4147 28.7674 20.343C28.6106 20.2892 28.3145 20.325 28.1054 20.4506C27.8964 20.5761 27.6177 20.6479 27.5132 20.63C27.3913 20.5941 27.2867 20.7017 27.2867 20.8631C27.2867 21.0246 27.2171 21.1143 27.13 21.0425C27.0429 20.9887 26.9035 21.0425 26.8513 21.1501C26.7816 21.2398 26.6248 21.2936 26.4855 21.2398C26.3461 21.186 26.259 21.2398 26.2939 21.3654C26.3113 21.4909 26.1894 21.5627 26.0326 21.5268C25.8584 21.4909 25.719 21.5627 25.719 21.6524C25.719 21.7421 25.5623 21.7959 25.3707 21.76C25.1791 21.7241 24.97 21.7779 24.9178 21.8856C24.8307 22.0111 24.8829 22.0291 25.0397 21.9394C25.1791 21.8497 25.2139 21.8676 25.1442 21.9394C24.97 22.1546 24.4997 22.2084 24.4997 22.0291C24.4997 21.9035 23.9946 21.9214 23.8552 22.0291C23.7855 22.0829 23.5068 22.1546 23.2804 22.1905C23.1759 22.1905 23.1236 22.2802 23.141 22.3699C23.1759 22.4595 22.9843 22.7286 22.723 22.9797C22.2178 23.464 22.0785 24.0021 22.4617 24.0021C22.6011 24.0021 22.5836 24.0739 22.4094 24.1815C22.2701 24.2712 22.2353 24.3609 22.3572 24.3609C22.4617 24.3609 22.514 24.5223 22.4617 24.7196C22.4094 24.9169 22.3049 25.0784 22.2004 25.0784C22.1133 25.0784 22.1307 25.2398 22.2353 25.4371C22.4094 25.7779 22.3049 25.8855 21.852 25.8317C21.7998 25.8138 21.6953 25.9394 21.643 26.0829C21.5733 26.2802 21.6082 26.3519 21.7824 26.2802C21.9391 26.2084 22.0262 26.316 22.0262 26.5672C22.0262 27.4281 22.2004 28.4864 22.3746 28.7017C22.4617 28.8272 22.6011 29.4012 22.6707 29.9573C22.7404 30.5313 22.8449 30.9976 22.9146 30.9976C22.9843 30.9976 23.0365 31.2667 23.0365 31.6075C23.0365 32.0021 22.9669 32.1815 22.8623 32.1277C22.7578 32.0559 22.8101 32.1815 22.9843 32.3967C23.1759 32.612 23.263 32.899 23.2107 33.0963C22.9669 33.9214 23.9423 34.7106 24.8307 34.3698C25.4403 34.1366 25.4403 34.2801 24.8133 34.7644C24.5171 34.9797 24.3255 35.0514 24.3952 34.9259C24.4649 34.7824 24.3604 34.89 24.1513 35.159C23.9423 35.446 23.6985 35.6613 23.5939 35.6613C23.263 35.6613 22.0262 33.8676 21.3992 32.4685C21.1727 31.9483 20.8766 31.464 20.7547 31.4102C20.6153 31.3743 20.5456 31.177 20.5805 30.9797C20.6153 30.8003 20.5805 30.6389 20.4759 30.6389C20.3889 30.6389 20.3192 30.5133 20.3192 30.3519C20.3192 29.9752 16.7657 26.316 16.4522 26.3699C16.3302 26.4057 16.1735 26.4954 16.1212 26.5851C16.0515 26.6568 15.8425 26.6389 15.6161 26.5133C15.2677 26.334 15.2503 26.334 15.3374 26.6568C15.4245 26.908 15.3199 27.0873 15.0064 27.3026C14.7625 27.464 14.6058 27.6613 14.6406 27.751C14.7451 27.9304 14.118 28.6658 13.8568 28.6658C13.7697 28.6658 13.5084 28.8452 13.2994 29.0425C13.0903 29.2577 13.0381 29.3833 13.1774 29.3115C13.3168 29.2398 13.2819 29.3295 13.0903 29.5089C12.8987 29.6882 12.7419 29.9393 12.7245 30.047C12.6723 30.6568 12.6549 30.6748 12.3587 30.4416C12.1671 30.2622 12.1149 30.2622 12.202 30.4057C12.2716 30.5313 12.2716 30.7286 12.202 30.8362C12.1149 30.9797 12.0452 30.9797 11.9581 30.8183C11.871 30.6748 11.7839 30.7824 11.6968 31.1411C11.6271 31.5178 11.5052 31.6613 11.331 31.5896C11.1917 31.5357 11.0871 31.5896 11.0871 31.7151C11.0871 31.8227 11.0001 31.8586 10.913 31.8048C10.8084 31.751 10.6865 31.8227 10.6343 31.9662C10.582 32.1277 10.4601 32.1994 10.3556 32.1456C10.2685 32.0918 10.2859 31.9124 10.4252 31.751C10.6343 31.4819 10.6168 31.464 10.3556 31.6792C10.1988 31.8227 10.0943 32.02 10.1465 32.1456C10.2336 32.3967 9.69363 32.6658 9.04913 32.6837C8.82269 32.7017 8.6485 32.7555 8.6485 32.8272C8.6485 32.899 8.47431 33.1501 8.24786 33.3833C7.49885 34.2263 7.11563 34.7465 7.22015 34.8362C7.2724 34.89 7.15047 34.9976 6.97628 35.0694C6.80209 35.1411 6.54081 35.3025 6.41887 35.4281C6.27952 35.5537 6.12275 35.6254 6.03566 35.5716C5.94856 35.5178 5.84405 35.5537 5.77437 35.6613C5.72212 35.751 5.80921 35.8407 5.96598 35.8407C6.33178 35.8407 6.14017 36.0738 5.72212 36.1277C5.56535 36.1635 5.40858 36.2711 5.37374 36.3608C5.3389 36.4685 5.19955 36.5581 5.04278 36.5581C4.90343 36.5581 4.81633 36.6658 4.86859 36.7734C4.90343 36.8989 4.58989 37.3474 4.17183 37.7599C3.38798 38.5492 3.07444 38.6927 3.07444 38.316C3.07444 38.1007 2.81316 38.2801 2.81316 38.4954C2.79574 38.872 2.13382 39.5716 1.59383 39.7689C1.26287 39.8945 0.984169 40.1097 0.984169 40.2532C0.984169 40.4684 0.914494 40.4864 0.600953 40.307C0.269993 40.1456 0.235156 40.1456 0.409345 40.3429C0.722885 40.6657 0.688048 40.9169 0.357088 40.7913C0.217737 40.7375 0.148061 40.7554 0.200318 40.8631C0.252574 40.9707 0.235156 41.0424 0.130642 41.0424C-0.0435473 41.0424 -0.0435473 42.8541 0.130642 43.0155C0.47902 43.3384 1.33255 44.8451 1.24545 44.9886C1.1932 45.0962 1.26287 45.1142 1.41964 45.0604C1.61125 44.9886 1.66351 45.0245 1.59383 45.2218C1.52416 45.3832 1.82028 45.7599 2.3951 46.2621C2.90025 46.6926 3.49249 47.2307 3.70152 47.446C3.91055 47.6612 4.29377 47.8944 4.53763 47.9662C4.7815 48.02 4.99052 48.1635 4.99052 48.2532C4.99052 48.3608 5.11245 48.3428 5.25181 48.2173C5.40858 48.0917 5.56535 48.0379 5.63502 48.0917C5.77437 48.2532 6.41887 47.8765 6.29694 47.6792C6.24469 47.6074 6.31436 47.5536 6.43629 47.5716C6.68016 47.6074 9.34525 50.3518 9.34525 50.5671C9.34525 50.6388 9.65879 51.0872 10.042 51.5357C10.4252 51.9841 10.7388 52.4146 10.7388 52.4863C10.7388 52.5581 11.1568 53.0783 11.6794 53.6522C12.1845 54.2083 12.7942 55.0872 13.0206 55.5715C13.2471 56.0738 13.491 56.4684 13.5606 56.4684C13.6477 56.4684 13.7 56.6119 13.7 56.7733C13.7 56.9527 14.3271 57.8137 15.0935 58.7105C15.8599 59.5894 16.487 60.3787 16.487 60.4504C16.487 60.5222 16.9922 60.9527 17.6192 61.4011C18.2463 61.8675 18.7515 62.28 18.7515 62.3338C18.7515 62.3876 18.5599 62.3697 18.316 62.3159C17.985 62.2262 17.7586 62.3159 17.4451 62.6388C17.1489 62.9437 17.0793 63.1051 17.236 63.1769C17.358 63.2486 17.236 63.2486 16.9573 63.1948C16.6264 63.1231 16.4522 63.1769 16.3825 63.3562C16.3302 63.4997 15.947 63.7688 15.529 63.9482C15.1109 64.1275 14.7277 64.3966 14.6929 64.576C14.6406 64.7733 14.5013 64.845 14.24 64.7733C13.9787 64.7015 13.8742 64.7553 13.8742 64.9526C13.8742 65.1141 13.7871 65.2935 13.6651 65.3652C13.5432 65.4549 13.5258 65.419 13.6129 65.2396C13.7348 65.0423 13.7174 65.0244 13.5084 65.1858C13.369 65.2935 13.1252 65.3652 12.9336 65.3293C12.5678 65.2755 11.7839 65.5984 11.7839 65.8316C11.7839 65.9033 11.7316 65.9571 11.662 65.9392C11.5749 65.9213 11.3484 65.993 11.122 66.1186C10.913 66.2441 10.6691 66.2979 10.582 66.2441C10.4949 66.1903 10.3904 66.2082 10.3556 66.28C10.3207 66.3697 10.0768 66.6208 9.79815 66.8719C9.51944 67.123 9.34525 67.2127 9.41493 67.0872C9.48461 66.9795 9.44977 66.8719 9.36267 66.8719C9.25816 66.8719 9.17106 66.9795 9.17106 67.123C9.17106 67.2665 9.04913 67.428 8.89236 67.4818C8.73559 67.5356 8.68334 67.6791 8.75301 67.8047C8.84011 67.9482 8.78785 67.9661 8.59624 67.8943C8.42205 67.8226 8.21302 67.9123 8.07367 68.1275C7.93432 68.3248 7.77755 68.4325 7.72529 68.3607C7.65562 68.3069 7.60336 68.3428 7.60336 68.4504C7.60336 68.558 7.48143 68.6118 7.34208 68.558C7.18531 68.4863 7.08079 68.558 7.08079 68.7374C7.08079 68.8988 7.02854 69.0244 6.95886 69.0244C6.81951 69.0244 6.81951 69.7777 6.95886 71.9302C7.01112 72.7553 7.16789 73.3293 7.44659 73.7957C7.65562 74.1544 7.86465 74.6925 7.89948 74.9616C7.9169 75.2486 8.10851 75.6791 8.31754 75.9122C8.63108 76.271 8.82269 76.3427 9.5717 76.3069C10.0768 76.2889 10.7388 76.1275 11.0523 75.9661C11.3484 75.7867 11.6097 75.697 11.6097 75.7508C11.6097 75.8046 11.7665 75.6791 11.9581 75.4818C12.1671 75.2665 12.3936 75.1589 12.4807 75.2127C12.5852 75.2844 12.6549 75.2306 12.6549 75.123C12.6549 75.0154 12.7419 74.9795 12.829 75.0333C12.9336 75.0871 13.0032 75.0513 13.0032 74.9436C13.0032 74.836 13.0903 74.8001 13.1774 74.854C13.2819 74.9078 13.3516 74.8898 13.3516 74.8001C13.3516 74.7105 13.5606 74.6746 13.8045 74.7284C14.1006 74.7822 14.24 74.7463 14.1703 74.6387C14.1006 74.5311 14.1703 74.3517 14.3096 74.2262C14.449 74.1006 14.5187 73.9212 14.449 73.8136C14.3967 73.706 14.4316 73.688 14.5361 73.7598C14.658 73.8315 14.7451 73.8136 14.7451 73.7239C14.7451 73.6342 14.9716 73.4549 15.2503 73.3293C15.529 73.2217 15.8077 72.9885 15.8599 72.845C15.9296 72.6836 16.1038 72.6118 16.2954 72.6656C16.5219 72.7194 16.6089 72.6656 16.5567 72.5221C16.4522 72.2351 16.9399 71.8226 17.2012 72.0019C17.3231 72.0737 17.358 72.0558 17.3057 71.9481C17.236 71.8405 17.3928 71.6791 17.6367 71.5535C17.8805 71.4459 18.0373 71.2845 17.985 71.2127C17.9154 71.0872 18.0547 71.0513 18.9779 70.9616C19.4308 70.9257 19.814 70.4773 19.6921 70.1185C19.6398 69.975 20.0753 70.3159 20.6501 70.8719C21.225 71.428 21.8172 71.8943 21.9566 71.8943C22.1133 71.8943 22.2353 71.9661 22.2353 72.0737C22.2353 72.1634 22.3224 72.2531 22.4269 72.2531C22.6533 72.2531 23.2978 72.7374 24.5868 73.9033C25.092 74.3517 25.6668 74.7822 25.8758 74.854C26.0848 74.9078 26.2416 75.0513 26.2416 75.1409C26.2416 75.2306 26.3461 75.3024 26.4855 75.3024C26.6248 75.3024 26.8687 75.4279 27.008 75.5894C27.4784 76.0737 28.9067 77.0782 29.5338 77.3652C30.0215 77.5804 30.1609 77.5983 30.2828 77.419C30.3525 77.2934 30.4222 77.2575 30.4222 77.3472C30.4222 77.4369 30.5441 77.401 30.6834 77.2755C30.8228 77.1499 30.9447 77.114 30.9447 77.1678C30.9447 77.2396 31.1189 77.1858 31.3454 77.0602C31.5544 76.9526 31.8853 76.827 32.077 76.7912C32.2511 76.7553 32.4776 76.6297 32.5473 76.5042C32.6169 76.3965 32.6866 76.3607 32.6866 76.4683C32.6866 76.558 32.7737 76.54 32.8782 76.4324C32.9827 76.3248 33.1918 76.271 33.3485 76.3427C33.5401 76.4145 33.5924 76.3607 33.5053 76.1454C33.4182 75.8943 33.4705 75.8764 33.8711 76.0378C34.1846 76.1634 34.3588 76.1634 34.3937 76.0378C34.4285 75.9302 34.5156 75.8764 34.6027 75.9302C34.6898 75.984 34.864 75.8943 35.0033 75.7508C35.2124 75.5535 35.2995 75.5356 35.3517 75.7149C35.404 75.8405 35.4562 75.8046 35.4562 75.6073C35.4736 75.3383 35.7001 75.2306 36.2923 75.2486C36.4143 75.2665 36.4839 75.1948 36.4317 75.123C36.3098 74.9257 36.8149 74.5311 37.0413 74.6746C37.1459 74.7463 37.1981 74.6925 37.1807 74.549C37.1459 74.4235 37.2504 74.3158 37.3897 74.3158C37.5291 74.3158 37.7555 74.1903 37.8775 74.0468C38.0865 73.8136 38.1039 73.8136 37.982 74.0468C37.8949 74.2262 37.982 74.2082 38.2258 73.975C38.4697 73.7598 38.6091 73.7239 38.6091 73.8495C38.6091 73.975 38.6961 74.0109 38.7832 73.9571C38.8878 73.8853 38.9052 73.7598 38.8529 73.6522C38.7832 73.5266 38.9226 73.5087 39.3058 73.5984C39.6542 73.6701 39.8284 73.6522 39.7761 73.5625C39.7064 73.4728 39.7761 73.3831 39.9155 73.3831C40.0548 73.3831 40.1768 73.4549 40.1768 73.5445C40.1768 73.6342 40.2987 73.5804 40.4555 73.4369C40.5948 73.2755 40.8038 73.2037 40.9083 73.2575C40.9954 73.3114 41.2219 73.2037 41.4135 72.9885C41.6051 72.7732 41.8838 72.6118 42.058 72.6118C42.267 72.6118 42.2844 72.6656 42.1451 72.7553C42.0232 72.8271 41.8664 73.0961 41.7619 73.3293C41.6399 73.6701 41.5877 73.688 41.5877 73.4549C41.5703 73.2755 41.4832 73.1858 41.3787 73.2396C41.2741 73.3114 41.2393 73.4907 41.309 73.6522C41.4309 74.0109 40.6819 75.123 40.3509 75.0692C40.1593 75.0513 40.1071 75.1768 40.1419 75.6252C40.1768 75.9481 40.1071 76.3427 40.0026 76.4862C39.8632 76.6297 39.8632 76.7374 39.9677 76.7374C40.0548 76.7374 40.1942 76.8629 40.2464 77.0243C40.3335 77.2396 40.2813 77.2934 40.0897 77.2037C39.8981 77.132 39.8458 77.1678 39.9503 77.3293C40.1593 77.6521 40.1768 78.6925 39.9851 78.8181C39.8806 78.8898 39.8806 78.9974 40.0026 79.1589C40.1071 79.2844 40.1419 79.6073 40.0722 79.8764C39.9851 80.2351 39.9155 80.2889 39.811 80.1095C39.689 79.9302 39.6542 79.966 39.6368 80.2351C39.6193 80.4324 39.6193 80.7373 39.6368 80.9167C39.6542 81.0781 39.5845 81.2216 39.4626 81.2216C39.3581 81.2216 39.3058 81.3651 39.3581 81.5804C39.4103 81.7956 39.2884 82.0826 39.0445 82.3337C38.5394 82.8719 38.4 83.679 38.6961 84.3965C38.8355 84.7373 38.8703 84.9884 38.7658 84.9884C38.6613 84.9884 38.6613 85.114 38.7484 85.3113C38.94 85.7059 38.9052 85.8674 38.6265 86.4055C38.5045 86.6387 38.4871 86.7822 38.5742 86.7104C38.6787 86.6387 38.7136 86.7463 38.6613 86.9615C38.6091 87.1588 38.5045 87.2665 38.4174 87.2126C38.3303 87.1588 38.2781 87.2665 38.2955 87.4458C38.3652 88.2709 38.2607 88.6117 37.982 88.5041C37.8078 88.4324 37.7555 88.4682 37.86 88.6297C37.9297 88.7373 38.0168 89.0781 38.0342 89.383C38.0342 89.67 38.0691 89.9212 38.0865 89.9212C38.1213 89.9212 38.2607 90.9436 38.3129 91.5714C38.3303 91.8046 38.4174 91.9839 38.5045 91.9839C38.5916 91.9839 38.5394 92.1274 38.3826 92.3068C38.2084 92.4862 38.1387 92.7014 38.2084 92.7552C38.2607 92.827 38.191 92.8808 38.0342 92.8808C37.8775 92.8808 37.7555 92.9705 37.7904 93.096C37.8078 93.2037 37.6684 93.383 37.4594 93.4906C37.2678 93.5983 37.1284 93.7956 37.1807 93.9211C37.2155 94.0646 37.1459 94.1005 36.9368 94.0108C36.7104 93.9211 36.6755 93.957 36.7801 94.1364C36.8672 94.2978 36.8497 94.3337 36.7278 94.244C36.4839 94.1005 35.7698 94.5489 35.944 94.7283C35.9962 94.8001 35.9614 94.8539 35.8394 94.8539C35.7175 94.8539 35.6653 94.9256 35.7349 95.0153C35.7872 95.105 35.6653 95.3023 35.4736 95.4458C35.282 95.5714 35.1775 95.7507 35.2472 95.8045C35.3517 95.9122 34.8466 95.9839 34.7246 95.8763C34.6375 95.8045 34.115 96.3785 34.1846 96.4861C34.2892 96.6655 33.7666 96.827 33.5053 96.7193C33.366 96.6655 33.1569 96.7731 33.0176 96.9346C32.8608 97.1498 32.8434 97.2036 32.9827 97.1139C33.2963 96.9346 33.2614 97.1498 32.9479 97.4906C32.7911 97.6341 32.5473 97.7059 32.4079 97.6521C32.1989 97.5803 32.1466 97.6162 32.2337 97.8135C32.286 97.957 32.2511 98.0826 32.1466 98.0826C32.0421 98.0826 32.0073 98.1364 32.0595 98.2261C32.0944 98.2978 31.9376 98.4413 31.7112 98.5669C31.3976 98.7104 31.3279 98.7104 31.415 98.5669C31.4673 98.4413 31.3628 98.513 31.1537 98.6924C30.788 99.0332 30.6138 99.4637 30.9273 99.2664C31.0144 99.1947 31.0492 99.3202 30.997 99.5175C30.9447 99.7148 30.8228 99.8763 30.7183 99.8763C30.6138 99.8763 30.6834 100.002 30.875 100.145C31.0667 100.289 31.1189 100.396 30.9796 100.414C30.8576 100.414 31.1189 100.952 31.5544 101.616C31.9899 102.298 32.3731 102.908 32.3905 103.015C32.4253 103.266 33.3834 104.325 33.9408 104.737C34.3937 105.078 34.4459 105.078 34.864 104.791C35.0904 104.63 35.2472 104.432 35.1949 104.343C35.1427 104.253 35.2472 104.235 35.404 104.307C35.613 104.378 35.6653 104.361 35.5782 104.217C35.4736 104.02 35.7872 103.912 36.2052 103.984C36.2923 103.984 36.3446 103.93 36.3446 103.858C36.3446 103.733 37.0936 103.266 37.3897 103.195C37.442 103.195 37.7033 102.961 37.982 102.692C38.2607 102.441 38.5394 102.244 38.5916 102.298C38.6613 102.334 38.8529 102.172 39.0271 101.939C39.2013 101.688 39.4103 101.544 39.4974 101.598C39.5845 101.652 39.6542 101.616 39.6542 101.526C39.6542 101.419 39.8806 101.257 40.1768 101.15C40.4729 101.06 40.6993 100.881 40.6993 100.791C40.6993 100.683 40.8735 100.594 41.1 100.594C41.3961 100.594 41.5877 100.361 41.9012 99.6431C42.1277 99.1408 42.3019 98.6386 42.2844 98.5669C42.267 98.4772 42.3367 98.4592 42.4238 98.513C42.6154 98.6386 42.9812 98.2081 43.0335 97.8135C43.0857 97.4727 44.0089 96.809 44.2179 96.9346C44.305 96.9884 44.4618 96.7911 44.5837 96.5041C44.7057 96.1992 44.8973 96.0198 45.0366 96.0736C45.1934 96.1274 45.2282 96.0736 45.1411 95.9301C45.0366 95.7507 45.0715 95.7149 45.2805 95.8045C45.4547 95.8583 45.5766 95.8404 45.5766 95.7507C45.5766 95.6431 45.6637 95.5714 45.7682 95.5714C46.0469 95.5714 46.4476 95.105 46.4476 94.7821C46.4476 94.6207 46.5695 94.4951 46.7089 94.4951C46.9005 94.4951 46.9353 94.3875 46.8308 94.1005C46.6566 93.5086 46.6914 92.8628 46.9527 92.3785C47.0746 92.1454 47.1443 91.4458 47.1269 90.7283C47.1095 90.0288 47.1443 89.4189 47.1966 89.3651C47.2663 89.2934 47.2314 89.096 47.1443 88.9167C47.0398 88.7373 47.0398 88.5579 47.1269 88.5041C47.214 88.4503 47.2488 87.9301 47.214 87.3741C47.1792 86.8001 47.2314 86.2978 47.3185 86.244C47.4404 86.1723 47.4404 85.8315 47.3359 85.2934C47.2488 84.7732 47.2488 84.3965 47.3534 84.3427C47.4404 84.2889 47.4056 84.1095 47.2837 83.9481C47.1617 83.7866 47.1443 83.7149 47.2488 83.7866C47.3708 83.8584 47.4579 83.7508 47.4579 83.4638C47.4579 83.2127 47.3882 83.0154 47.3011 83.0154C47.214 83.0154 47.1443 82.7463 47.1443 82.4055C47.1443 82.0647 47.0746 81.5804 46.9701 81.3293C46.8482 80.9885 46.8656 80.8629 47.005 80.8629C47.1095 80.8629 47.1443 80.8091 47.0921 80.7373C47.0224 80.6835 47.0572 80.5221 47.1617 80.3786C47.3185 80.1992 47.2837 80.1454 47.0398 80.1454C46.8308 80.1454 46.7785 80.0916 46.9005 80.0019C47.0224 79.9302 47.0398 79.7329 46.9701 79.5176C46.9005 79.3203 46.9005 78.9795 46.9876 78.7822C47.0572 78.5669 47.0746 78.1364 47.0398 77.8136C46.9701 77.4369 47.005 77.2755 47.1269 77.3652C47.2488 77.419 47.3185 77.3293 47.3185 77.114C47.3185 76.9167 47.4056 76.7015 47.4927 76.6477C47.5972 76.5759 47.6321 76.4683 47.5798 76.3786C47.5275 76.2889 47.6321 76.1096 47.8062 75.984C47.9979 75.8584 48.1546 75.697 48.172 75.6252C48.2591 75.2127 48.4159 74.9616 48.5378 75.0333C48.6249 75.0871 48.6598 74.9795 48.6424 74.8181C48.6075 74.6387 48.712 74.4055 48.8688 74.28C49.3043 73.9392 49.4088 74.0109 49.2346 74.5131C49.1127 74.8001 49.1127 74.9257 49.2346 74.854C49.4088 74.7463 49.4262 74.8181 49.4959 75.5714C49.4959 75.7687 49.583 76.1992 49.6526 76.54C49.7397 76.8629 49.8094 77.3652 49.8268 77.6521C49.8443 77.9212 49.9836 78.2979 50.1404 78.4773C50.2797 78.6566 50.5933 79.1589 50.8197 79.6073C51.0462 80.0557 51.3249 80.4683 51.412 80.54C51.5165 80.6118 51.5339 80.6835 51.4642 80.6835C51.2204 80.6835 51.7081 81.7239 52.1784 82.1902C52.5964 82.6028 52.8229 82.6745 54.1467 82.7284C55.8015 82.8001 56.0802 82.8898 55.9409 83.3741C55.8886 83.5355 55.9235 83.8943 56.0106 84.1275C56.1325 84.4324 56.1151 84.6476 55.9757 84.7911C55.8712 84.8988 55.8538 84.9884 55.9583 84.9884C56.1673 84.9884 56.0628 86.244 55.819 86.549C55.7319 86.6745 55.697 86.836 55.7493 86.9436C55.8015 87.0333 55.6796 87.0691 55.4706 87.0333C55.2441 86.9974 55.157 86.9974 55.279 87.0512C55.4183 87.1409 55.4357 87.3023 55.2964 87.7149C55.157 88.1095 55.0699 88.1813 54.9654 88.0019C54.8435 87.8225 54.8087 87.8225 54.7912 88.0378C54.7738 88.1813 54.7564 88.3786 54.7216 88.4862C54.7041 88.5759 54.6693 88.7732 54.6693 88.9167C54.6519 89.0422 54.5299 89.114 54.3732 89.0422C54.1467 88.9705 54.1293 89.0064 54.2861 89.2934C54.4254 89.5624 54.4254 89.6521 54.2687 89.6521C54.1119 89.6521 54.1119 89.7059 54.2687 89.9032C54.4254 90.1005 54.408 90.2081 54.199 90.4234C53.9029 90.7283 53.8506 90.9974 54.0945 90.818C54.199 90.7642 54.3209 91.0153 54.3732 91.392C54.4429 91.7687 54.5648 92.3068 54.6693 92.6117C54.7564 92.8987 54.8783 93.4548 54.9306 93.8135C55.0003 94.4054 54.9828 94.4772 54.6519 94.4054C54.2164 94.3158 54.0771 94.5131 54.3209 94.8539C54.4603 95.0691 54.4603 95.0512 54.3732 94.7642C54.2861 94.4951 54.3209 94.4593 54.4777 94.6207C54.6345 94.7821 54.617 94.9077 54.4254 95.1947C54.2861 95.4099 54.1293 95.5175 54.0596 95.4637C54.0074 95.4099 53.99 95.4996 54.0248 95.6969C54.0422 95.8763 53.9551 96.1633 53.8158 96.3247C53.659 96.5041 53.5893 96.7552 53.6416 96.8987C53.6938 97.0422 53.6764 97.1857 53.5719 97.2216C53.4848 97.2574 53.3803 97.5624 53.328 97.9211C53.2758 98.4054 53.3455 98.7104 53.6067 99.0512C53.7984 99.3023 54.0422 99.5175 54.1293 99.5175C54.2338 99.5175 54.4254 99.6431 54.5648 99.7866C54.8609 100.092 55.3312 100.145 55.3312 99.8763C55.3312 99.7686 55.488 99.7686 55.7667 99.8763C56.0628 99.9839 56.1847 99.9839 56.1499 99.8583C56.0977 99.5713 57.3867 99.1408 57.9266 99.2664C58.9544 99.4817 59.8601 99.4996 59.8079 99.2843C59.7905 99.1767 59.9472 98.9973 60.1388 98.9077C60.5743 98.7104 61.2014 97.7238 60.9053 97.7238C60.8008 97.7238 60.8704 97.4727 61.0795 97.1857C61.2885 96.8808 61.4278 96.522 61.3756 96.3965C61.3233 96.253 61.3582 96.0736 61.4627 95.966C61.5672 95.8583 61.6543 95.2664 61.6717 94.6386C61.7065 93.9929 61.7762 93.383 61.8459 93.2754C61.9156 93.1498 61.8982 93.0602 61.8111 93.0602C61.6369 93.0602 61.602 92.809 61.5846 91.1768C61.5672 90.4593 61.6369 89.9032 61.7414 89.8673C61.8459 89.8315 61.8982 89.7059 61.8459 89.5624C61.7936 89.4369 61.8459 89.2754 61.9504 89.2037C62.1072 89.096 62.1072 89.0243 61.933 88.9167C61.7414 88.7911 61.7588 88.7552 62.0201 88.7552C62.2814 88.7552 62.2988 88.7014 62.1246 88.4862C62.0027 88.3427 61.9852 88.2171 62.0898 88.2171C62.1769 88.2171 62.3336 88.0019 62.4381 87.7149C62.7168 86.9974 63.013 85.1499 62.8736 84.9346C62.8214 84.827 62.8562 84.8091 62.9607 84.8808C63.1697 85.0064 63.4484 84.2351 63.2743 83.9481C63.222 83.8584 63.2917 83.7866 63.431 83.7866C63.553 83.7866 63.8142 84.1275 63.971 84.5221C64.1452 84.9346 64.3716 85.3113 64.4762 85.3831C64.5632 85.4548 64.5807 85.5266 64.511 85.5266C64.4239 85.5266 64.4936 85.7059 64.6329 85.9212C64.7897 86.1364 64.9116 86.4055 64.9116 86.5131C64.9116 86.6028 64.8245 86.5669 64.7374 86.4234C64.5284 86.0826 64.511 86.3517 64.72 86.7642C64.8245 86.9436 64.8245 87.3561 64.7549 87.7149C64.6503 88.1454 64.6678 88.4503 64.8071 88.5938C64.9465 88.7552 64.9465 88.7732 64.7897 88.6835C64.6503 88.6117 64.6155 88.8629 64.6678 89.5983C64.7026 90.1723 64.7549 90.9436 64.7723 91.3203C64.8071 91.679 64.7549 91.9839 64.6503 91.9839C64.5632 91.9839 64.5981 92.0736 64.7374 92.1633C64.8768 92.253 64.9116 92.3427 64.8071 92.3427C64.5632 92.3427 64.6329 93.1678 64.9116 93.8673C65.051 94.1543 65.1729 94.5848 65.1903 94.8001C65.2252 95.0153 65.3297 95.3561 65.4342 95.5714C65.591 95.8583 65.5735 96.0198 65.4168 96.2171C65.2426 96.4323 65.2426 96.4861 65.4342 96.4323C65.6084 96.3965 65.6781 96.6117 65.6781 97.2395C65.6955 97.9749 65.7826 98.1902 66.218 98.6027C66.5142 98.8718 66.8451 99.2843 66.9671 99.5175C67.1761 99.948 68.047 100.217 68.047 99.8404C68.047 99.7507 68.1341 99.7328 68.2212 99.7866C68.3257 99.8404 68.3954 99.8045 68.3954 99.679C68.3954 99.5355 68.4477 99.5175 68.6393 99.679C68.7612 99.7866 69.0573 99.8763 69.2838 99.8763C69.5102 99.8763 70.4334 99.9121 71.3218 99.948C72.1927 99.9839 72.9243 99.948 72.9243 99.8583C72.9243 99.7686 73.0288 99.6969 73.1682 99.6969C73.5863 99.6969 73.6385 99.1767 73.4121 96.6835C73.3946 96.5758 73.325 96.4682 73.2379 96.4682C73.1682 96.4682 73.0985 96.3068 73.0985 96.1095C73.0985 95.9122 73.0288 95.7507 72.9418 95.7507C72.6805 95.7507 72.3669 93.7956 72.4018 92.4324C72.4714 90.7821 72.5063 90.3696 72.6282 90.3696C72.7153 90.3696 72.7501 90.262 72.6979 90.1364C72.6631 90.0288 72.7501 89.8135 72.9069 89.688C73.0637 89.5445 73.0985 89.4907 72.994 89.5445C72.8721 89.6162 72.7153 89.3292 72.5934 88.8449C72.4889 88.3965 72.3321 88.0378 72.245 88.0378C72.1056 88.0378 71.4089 86.6207 71.4786 86.4234C71.496 86.3696 71.4089 86.2261 71.3044 86.1005C71.1999 85.957 71.0954 85.5624 71.0605 85.2037C71.0257 84.827 70.956 84.1813 70.9037 83.7508L70.7992 82.9615L71.8618 83.0512C72.454 83.0871 72.9418 83.0512 72.9766 82.9615C73.0114 82.8539 73.3598 82.7822 73.7604 82.7822C74.1611 82.7822 74.4398 82.7104 74.3875 82.6207C74.3353 82.549 74.3875 82.4593 74.4746 82.4593C74.5791 82.4414 74.7533 82.4234 74.8578 82.4055C74.9449 82.4055 75.1714 82.1902 75.363 81.9391C75.6591 81.5445 75.6591 81.4907 75.3978 81.2754C75.1365 81.0781 75.1365 81.0602 75.3804 81.132C75.7462 81.2754 76.112 80.7911 76.1294 80.1633C76.1468 79.8764 76.2339 79.6432 76.321 79.6611C76.4255 79.679 76.4778 79.4997 76.443 79.2665C76.4255 78.9616 76.4778 78.8719 76.6694 78.9616C77.0178 79.0871 77.0004 78.7642 76.652 78.5669C76.3907 78.4234 76.3907 78.3876 76.6694 78.2979C76.861 78.2082 76.9133 78.0647 76.8436 77.7956C76.7565 77.5266 76.7739 77.4548 76.9133 77.5266C77.0526 77.6163 77.0875 77.4369 77.0526 76.9347C77.0178 76.4324 77.07 76.1813 77.2442 76.1096C77.3836 76.0557 77.4533 75.9661 77.401 75.9122C77.3487 75.8584 77.3662 75.5894 77.4533 75.3203C77.5229 75.0513 77.5055 74.6925 77.4184 74.5311C77.3139 74.3158 77.3313 74.2262 77.4881 74.2262C77.6449 74.2262 77.6449 74.1723 77.4533 74.0468C77.2617 73.9212 77.2617 73.8674 77.4184 73.8674C77.5404 73.8674 77.5926 73.7777 77.5404 73.688C77.4881 73.5804 77.5055 73.5087 77.61 73.5087C77.8539 73.5087 78.8468 74.8001 78.8468 75.1051C78.8468 75.2486 79.0558 75.7149 79.2997 76.1634C79.5609 76.6118 79.7874 77.2217 79.8048 77.5266C79.8397 77.8315 79.9093 78.4234 79.979 78.8539C80.0835 79.4279 80.0487 79.6073 79.8745 79.6073C79.6829 79.6073 79.6829 79.6432 79.8919 79.7867C80.0313 79.8764 80.1009 79.966 80.0313 79.966C79.9616 79.966 79.979 80.1992 80.0661 80.5042C80.1532 80.845 80.1532 81.0423 80.0487 81.0423C79.9442 81.0423 79.9267 81.114 79.979 81.2216C80.0313 81.3293 79.9964 81.401 79.8745 81.401C79.7003 81.401 79.7003 81.4548 79.8571 81.6163C80.1009 81.8674 80.1358 82.7642 79.9267 82.9077C79.8397 82.9615 79.7874 83.3203 79.8222 83.7328C79.8397 84.1275 79.7874 84.4144 79.7003 84.3606C79.6132 84.2889 79.5958 84.3786 79.648 84.54C79.7177 84.6835 79.648 84.9346 79.5261 85.0961C79.3519 85.3292 79.3519 85.401 79.5609 85.5445C79.7526 85.67 79.7526 85.7059 79.5609 85.7059C79.3693 85.7059 79.3693 85.7597 79.5435 85.975C79.6655 86.1185 79.7177 86.244 79.6655 86.244C79.6132 86.244 79.6829 86.531 79.8222 86.8898C80.0138 87.3382 80.0313 87.5893 79.9093 87.7508C79.8048 87.8763 79.77 88.0198 79.8222 88.0736C79.8745 88.1274 79.9442 88.4862 79.9964 88.8629C80.0487 89.2575 80.1532 89.5803 80.2403 89.6162C80.3448 89.6521 80.3448 89.8135 80.2403 90.0288C80.1009 90.2978 80.1184 90.3337 80.3274 90.262C80.6409 90.1364 80.6758 90.4772 80.3796 90.6745C80.1184 90.8539 80.0835 91.8404 80.3274 92.0198C80.4319 92.0915 80.3448 92.1633 80.1532 92.1812C79.9616 92.1812 79.8919 92.235 80.0138 92.2709C80.1358 92.3247 80.1706 92.522 80.1009 92.7552C79.8745 93.5086 79.9964 93.957 80.6235 94.6207C80.9545 94.9974 81.5467 95.7507 81.8951 96.2888C82.888 97.7776 85.6053 100.54 86.5111 100.988C87.2427 101.347 89.9078 103.248 91.1794 104.289C91.7542 104.773 92.7819 105.042 92.7819 104.701C92.7819 104.594 92.8516 104.576 92.9561 104.63C93.0432 104.683 93.2871 104.648 93.4787 104.54C93.74 104.396 93.827 104.396 93.827 104.576C93.827 104.755 93.8793 104.737 93.9838 104.558C94.0709 104.414 94.1058 104.181 94.0361 104.02C93.9838 103.858 94.0012 103.787 94.0709 103.858C94.2277 103.984 94.8722 103.374 94.8722 103.105C94.8722 102.997 94.9593 102.926 95.0638 102.926C95.1509 102.926 95.1857 102.836 95.1335 102.746C95.0812 102.639 95.1161 102.567 95.238 102.567C95.3599 102.567 95.3948 102.423 95.3425 102.19C95.2554 101.885 95.2902 101.867 95.5341 102.065C95.7431 102.244 95.778 102.244 95.6735 102.065C95.6038 101.939 95.6386 101.849 95.7431 101.849C95.8476 101.849 95.8999 101.778 95.8302 101.688C95.778 101.598 95.8476 101.419 95.9696 101.275C96.1089 101.15 96.196 100.917 96.1612 100.773C95.987 99.8583 95.8825 99.5713 95.447 98.9435C95.2031 98.5489 94.8548 98.1722 94.6806 98.0826C94.5238 97.9749 94.2103 97.6162 94.0012 97.2754C93.7922 96.9166 93.3567 96.522 93.0432 96.3785C92.4161 96.1274 90.5871 94.7642 90.2213 94.3158C89.7684 93.7597 88.6885 92.0736 88.671 91.8942C88.671 91.7866 88.7407 91.5714 88.8104 91.4099C88.8975 91.2126 88.8975 91.0871 88.793 91.0871C88.6188 91.0871 88.6362 90.7463 88.8278 90.4413C88.8801 90.3337 88.8801 90.1902 88.8104 90.1185C88.671 89.957 88.6362 89.114 88.7756 89.114C88.8278 89.114 88.8801 88.9525 88.8801 88.7552C88.8801 88.5579 88.8278 88.3965 88.7756 88.3965C88.6885 88.3965 88.6188 87.6611 88.5491 85.975C88.5317 85.5804 88.4272 85.1499 88.3053 85.0243C88.2007 84.9167 88.1311 84.5938 88.1485 84.3248C88.1833 84.0557 88.0091 83.41 87.7827 82.8719C87.5562 82.3517 87.4169 81.8315 87.4866 81.7418C87.5388 81.6521 87.4866 81.2754 87.3646 80.8988C87.2427 80.54 87.1382 79.984 87.1208 79.697C87.0685 78.9436 86.8595 77.8315 86.6853 77.3472C86.5982 77.114 86.5634 76.7553 86.5982 76.54C86.633 76.3248 86.6156 76.0557 86.5459 75.9481C86.4937 75.8405 86.4066 75.5535 86.3717 75.3203C86.2847 74.6925 86.0582 74.28 85.2395 73.3831C84.6124 72.6836 84.7169 72.4683 85.4137 73.0244C85.5356 73.114 85.7621 73.132 85.9189 73.0782C86.0756 73.0064 86.3369 73.0782 86.4937 73.2217C86.6505 73.3652 86.9988 73.5266 87.2775 73.5804C87.5562 73.6342 87.922 73.8136 88.0962 73.975C88.2878 74.1365 88.4272 74.2262 88.4272 74.1544C88.4272 74.0647 88.7059 74.1723 89.0368 74.3876C89.3678 74.5849 90.0297 74.8719 90.5174 75.0154C91.0052 75.1589 91.5626 75.41 91.7716 75.5535C91.9806 75.7149 92.2942 75.8405 92.4684 75.8405C92.6426 75.8405 93.5832 76.253 94.5586 76.7732C95.6386 77.3472 96.3528 77.6163 96.4051 77.4907C96.4399 77.3831 96.5618 77.3293 96.6838 77.3831C96.8231 77.4369 97.0321 77.3472 97.1889 77.2037C97.3283 77.0602 97.485 76.9885 97.5373 77.0423C97.607 77.0961 97.7811 77.0782 97.9553 76.9885C98.2863 76.845 98.4605 76.7912 98.8611 76.7553C98.983 76.7374 99.0527 76.6297 98.983 76.4683C98.9308 76.3069 98.983 76.1992 99.1572 76.1992C99.314 76.1992 99.3663 76.2889 99.2966 76.4145C99.2095 76.5759 99.2618 76.5759 99.4534 76.3965C99.6101 76.271 99.7495 76.2172 99.7495 76.3069C99.7495 76.3965 99.8366 76.3248 99.9411 76.1454C100.028 75.984 100.063 75.7508 100.011 75.6611C99.9585 75.5535 99.9585 75.4818 100.046 75.4638C100.533 75.4279 100.864 75.3024 101.126 75.0513C101.3 74.8898 101.526 74.7643 101.631 74.7643C101.735 74.7643 101.875 74.6746 101.944 74.549C102.014 74.4235 101.997 74.4055 101.875 74.4773C101.753 74.549 101.666 74.5311 101.666 74.4235C101.666 74.3338 101.822 74.1903 102.014 74.1365C102.206 74.0827 102.362 73.9392 102.362 73.8315C102.362 73.5804 102.902 73.1679 103.233 73.1499C103.373 73.1499 103.669 72.9347 103.878 72.6656C104.122 72.3786 104.505 72.1634 104.853 72.1275C105.149 72.1096 105.55 71.9123 105.707 71.697C105.881 71.4997 106.09 71.3741 106.177 71.4459C106.282 71.4997 106.491 71.2486 106.665 70.8898C106.839 70.5311 107.031 70.2441 107.118 70.262C107.187 70.262 107.431 70.28 107.658 70.28C107.919 70.28 108.111 70.4055 108.163 70.6208C108.215 70.836 108.581 71.0872 109.138 71.3024C109.643 71.4818 110.288 71.8943 110.601 72.2172C110.915 72.558 111.316 72.9526 111.49 73.114C111.681 73.2755 112.134 73.706 112.518 74.0468C112.883 74.3876 113.789 74.9795 114.538 75.3562C115.27 75.7508 116.088 76.1813 116.35 76.3248C116.75 76.54 116.942 76.558 117.29 76.3965C117.534 76.2889 117.674 76.271 117.604 76.3786C117.465 76.6297 118.057 76.3965 118.457 76.0378C118.736 75.8046 118.771 75.8046 118.649 76.0199C118.579 76.1634 118.701 76.0916 118.928 75.8584C119.189 75.5714 119.259 75.3921 119.119 75.3383C118.858 75.2486 119.294 74.7643 119.624 74.7643C119.746 74.7643 119.799 74.7105 119.746 74.6566C119.677 74.6028 119.712 74.3158 119.799 74.0109C119.886 73.6701 119.886 73.3293 119.781 73.132C119.659 72.9347 119.659 72.7732 119.781 72.7015C119.973 72.5759 119.938 71.715 119.746 71.715C119.677 71.715 119.607 71.6253 119.607 71.5356C119.607 71.428 119.729 71.3562 119.868 71.3562C120.008 71.3562 120.13 71.2306 120.13 71.0692C120.13 70.9078 120.043 70.854 119.921 70.9257C119.746 71.0333 119.746 70.9975 119.921 70.7822C120.077 70.5849 120.095 70.4594 119.955 70.3697C119.868 70.3159 119.781 70.0647 119.781 69.8316C119.781 69.5446 119.572 69.2217 119.154 68.8988C118.806 68.6298 118.144 68.0737 117.691 67.6612C117.238 67.2486 116.646 66.8719 116.367 66.8002C116.088 66.7284 115.827 66.6029 115.775 66.5311C115.67 66.3517 113.998 65.5446 113.824 65.5804C113.737 65.5984 113.685 65.5266 113.685 65.419C113.685 65.3293 113.615 65.2755 113.528 65.3293C113.441 65.3831 113.284 65.3114 113.162 65.1679C113.04 65.0244 112.849 64.8988 112.744 64.8988C112.622 64.8988 112.343 64.6836 112.1 64.4325C111.873 64.1813 111.403 63.8226 111.054 63.6253C110.427 63.3024 109.33 62.2621 109.33 61.9751C109.33 61.9033 109.347 61.8675 109.382 61.8854C109.487 61.9751 110.201 61.2038 110.201 61.0065C110.201 60.8809 110.288 60.7733 110.392 60.7733C110.48 60.7733 110.654 60.5222 110.741 60.2352C110.88 59.8585 111.054 59.6971 111.298 59.6971C111.56 59.6971 111.612 59.6432 111.472 59.4998C111.333 59.3563 111.403 59.1769 111.699 58.854C111.925 58.6029 112.082 58.3338 112.03 58.2621C111.978 58.1903 112.187 58.0289 112.465 57.9033C112.744 57.7778 112.953 57.6343 112.901 57.5625C112.866 57.4908 112.988 57.1679 113.179 56.8451C113.423 56.4325 113.615 56.289 113.807 56.3608C114.033 56.4504 114.05 56.4325 113.859 56.1993C113.667 55.9482 113.737 55.8585 114.085 55.9123C114.155 55.9123 114.207 55.8047 114.207 55.6433C114.207 55.3204 114.643 54.8182 114.782 54.9617C114.834 55.0155 115.043 54.7464 115.252 54.3339C115.444 53.9213 115.688 53.5984 115.792 53.5984C115.897 53.5984 115.949 53.4729 115.879 53.3294C115.81 53.15 115.897 53.0603 116.123 53.0603C116.315 53.0603 116.454 53.0065 116.454 52.9168C116.402 52.576 116.489 52.3249 116.646 52.4325C116.75 52.4863 116.855 52.4325 116.89 52.307C117.256 50.9617 117.43 50.5491 117.639 50.4774C117.778 50.4236 117.848 50.298 117.778 50.2083C117.726 50.1186 117.761 49.9931 117.865 49.9213C117.97 49.8496 118.005 49.724 117.952 49.6343C117.883 49.5446 118.005 49.4729 118.214 49.4729C118.423 49.4729 118.527 49.3832 118.475 49.2935C118.388 49.1321 118.736 49.0245 119.119 49.0962C119.206 49.0962 119.241 49.0065 119.206 48.881C119.189 48.7554 119.346 48.6657 119.607 48.6657C119.938 48.6478 120.043 48.5581 120.025 48.2711C120.025 48.0559 120.095 47.8944 120.199 47.9124C120.304 47.9303 120.391 47.7868 120.391 47.6074C120.391 47.1052 120.739 47.0514 121.297 47.4639C121.889 47.8765 123.648 47.9841 123.491 47.5895C123.457 47.446 123.579 47.2666 123.77 47.1411C123.979 47.0334 124.258 46.6926 124.397 46.3698C124.746 45.6164 125.094 45.0065 125.268 44.8451C125.355 44.7734 125.355 44.8272 125.268 44.9707C125.164 45.15 125.199 45.1859 125.338 45.0783C125.46 45.0065 125.529 44.7913 125.477 44.6119C125.425 44.4325 125.442 44.2891 125.512 44.307C125.843 44.3429 126.069 44.2352 126.4 43.8765C126.592 43.6613 126.749 43.5536 126.749 43.6613C126.749 43.7509 126.818 43.7151 126.906 43.5716C127.202 43.1052 126.766 41.8855 126.087 41.2218C124.92 40.0918 124.084 39.4281 123.962 39.5178C123.822 39.6075 121.715 37.455 120.896 36.3788C120.635 36.038 120.043 35.3384 119.607 34.8541C119.154 34.3519 118.632 33.6703 118.423 33.3295C118.231 32.9886 117.761 32.5402 117.395 32.3608C117.029 32.1635 116.576 31.8586 116.385 31.6792C116.193 31.5178 115.74 31.2487 115.374 31.0873C115.026 30.9438 114.73 30.7286 114.73 30.6389C114.73 30.5313 114.643 30.4775 114.521 30.5133C114.416 30.5313 114.19 30.2801 114.033 29.9573C113.876 29.6344 113.301 28.899 112.761 28.3429C112.204 27.7869 111.56 27.1053 111.333 26.8541C111.002 26.4775 110.758 26.3878 110.218 26.4057C109.852 26.4237 109.417 26.5492 109.26 26.6748C109.121 26.8003 108.912 26.8541 108.825 26.7824C108.703 26.7107 108.685 26.8003 108.755 26.9797C108.842 27.2308 108.807 27.2667 108.563 27.177C108.389 27.1053 108.302 27.1232 108.372 27.2308C108.511 27.464 108.128 28.1636 107.919 28.038C107.832 27.9663 107.78 28.0201 107.797 28.1636C107.832 28.2891 107.71 28.3788 107.536 28.3788C107.362 28.3609 107.257 28.3788 107.309 28.4326C107.344 28.4864 107.222 28.8093 107.031 29.168C106.839 29.5268 106.647 29.9752 106.613 30.1725C106.578 30.3698 106.456 30.5851 106.334 30.6568C106.09 30.8183 105.985 31.2308 106.02 32.02C106.02 32.3967 105.916 32.7196 105.707 32.899C105.515 33.0604 105.393 33.3653 105.428 33.6165C105.445 33.8496 105.411 34.029 105.358 34.029C104.958 33.9752 104.627 34.0649 104.714 34.2263C104.766 34.316 104.609 34.4416 104.366 34.5133C104.122 34.5671 103.93 34.7106 103.93 34.8003C103.93 34.9976 103.495 35.4819 103.32 35.4819C103.268 35.4819 103.268 35.3922 103.32 35.2846C103.39 35.177 103.338 35.1052 103.216 35.1232C102.85 35.177 102.188 34.9259 102.188 34.7465C102.188 34.6568 101.997 34.5851 101.753 34.5851C101.509 34.5851 101.317 34.5133 101.317 34.4236C101.317 34.3339 101.178 34.2801 101.021 34.316C100.638 34.3698 100.098 34.1008 100.098 33.8496C100.098 33.7599 100.272 33.7241 100.498 33.7779C100.725 33.8496 101.021 33.9214 101.16 33.9393C101.3 33.9752 101.526 34.0469 101.666 34.1008C102.293 34.3339 102.449 34.316 102.798 33.9752C102.989 33.7599 103.268 33.5806 103.407 33.5447C103.547 33.5088 103.704 33.4012 103.721 33.3115C103.756 33.2218 103.86 33.186 103.947 33.2577C104.035 33.3115 104.104 33.2577 104.104 33.168C104.104 33.0604 103.982 32.9707 103.826 32.9707C103.582 32.9707 103.582 32.9348 103.826 32.5761C103.982 32.3608 104.104 32.02 104.104 31.8407C104.104 31.6613 104.174 31.5537 104.261 31.6254C104.366 31.6792 104.366 31.4999 104.261 31.1411C104.069 30.4057 104.069 30.4057 104.331 30.5671C104.487 30.6748 104.487 30.6389 104.313 30.4236C104.174 30.2263 104.156 30.1187 104.278 30.0649C104.383 30.029 104.505 29.6523 104.557 29.2039C104.609 28.7734 104.696 28.3429 104.749 28.2533C104.801 28.1456 104.766 28.1277 104.662 28.1994C104.54 28.2712 104.487 28.0739 104.522 27.5537C104.54 27.1232 104.487 26.6748 104.383 26.5313C104.244 26.334 104.244 26.2981 104.4 26.4057C104.575 26.4954 104.592 26.3878 104.505 25.9573C104.435 25.5806 104.47 25.3474 104.644 25.2398C104.801 25.1501 104.818 25.0784 104.679 25.0784C104.54 25.0784 104.522 24.9169 104.627 24.5403C104.714 24.2174 104.714 24.0021 104.609 24.0021C104.522 24.0021 104.453 23.8587 104.453 23.6793C104.453 22.7286 102.606 21.2398 102.031 21.7241C101.77 21.9394 101.718 21.9394 101.369 21.6344C101.248 21.5268 101.143 21.4909 101.143 21.5448C101.143 21.6165 100.742 21.4551 100.272 21.2039C99.7843 20.9528 99.314 20.8093 99.2269 20.8631C99.1224 20.917 99.0527 20.8811 99.0527 20.7735C99.0527 20.6658 98.983 20.63 98.8785 20.6838C98.7914 20.7376 98.7043 20.6658 98.7043 20.5044C98.7043 20.2712 98.6347 20.2533 98.3211 20.4327C98.025 20.5941 97.9205 20.5941 97.8682 20.4327C97.8334 20.325 97.7289 20.2892 97.6244 20.343C97.5199 20.4147 97.3631 20.343 97.276 20.2174C97.1541 20.038 97.1366 20.0739 97.1889 20.3609C97.2412 20.63 97.1889 20.7735 97.0321 20.7735C96.9102 20.7735 96.7186 20.9349 96.6141 21.1143C96.4051 21.5268 96.3876 21.7241 96.5792 21.5986C96.6489 21.5627 96.7186 21.6703 96.7186 21.8497C96.7186 22.0291 96.6489 22.1367 96.5618 22.0829C96.4747 22.0291 96.4573 22.1546 96.5096 22.3519C96.5792 22.5492 96.5444 22.7645 96.4399 22.8362C96.3528 22.89 96.3005 23.1232 96.3702 23.3564C96.4225 23.6075 96.3528 23.8407 96.196 23.9842C96.0393 24.1098 95.9696 24.3071 96.0393 24.4326C96.1438 24.5941 96.2831 25.6165 96.196 25.6165C96.196 25.6165 95.7954 25.4909 95.3425 25.3474C94.8896 25.2039 94.5586 25.1681 94.6109 25.2577C94.6632 25.3474 94.5586 25.5089 94.3845 25.5985C94.0535 25.7779 93.8445 25.76 92.7297 25.5089C92.3987 25.4371 92.1722 25.4909 92.0329 25.6703C91.7542 26.029 90.5174 25.8676 90.5174 25.4909C90.5174 25.2757 90.4652 25.2577 90.291 25.4192C90.1168 25.5627 89.96 25.5268 89.6813 25.2577C89.4723 25.0604 89.1936 24.899 89.0543 24.899C88.9149 24.899 88.671 24.7734 88.5317 24.612C88.3749 24.4685 88.253 24.3968 88.253 24.4685C88.253 24.5223 88.1485 24.5044 88.044 24.4147C87.922 24.325 87.6608 24.2353 87.4691 24.2174C87.0511 24.1815 86.6853 24.0918 86.3369 23.9483C86.1976 23.8766 85.8492 23.8048 85.5705 23.769C85.2744 23.7331 85.0131 23.5896 84.9782 23.464C84.926 23.3026 84.9957 23.2667 85.2221 23.3564C85.4137 23.4282 85.8492 23.5358 86.2324 23.5717C86.5982 23.6255 87.1904 23.6972 87.5388 23.751C87.8872 23.7869 88.3053 23.8407 88.4794 23.8407C88.6362 23.8407 88.7407 23.9304 88.671 24.038C88.6014 24.1456 88.7059 24.1456 88.9323 24.0201C89.1414 23.8945 89.3852 23.8587 89.4723 23.9125C89.5594 23.9663 89.6639 23.9304 89.7336 23.8228C89.8033 23.7151 89.9252 23.6972 90.0297 23.751C90.1342 23.8228 90.1691 23.7869 90.1168 23.6972C90.0471 23.5896 90.2387 23.3026 90.5349 23.0515C90.8136 22.8183 91.0749 22.4416 91.0923 22.2443C91.0923 22.047 91.1968 21.8856 91.3013 21.9035C91.3884 21.9214 91.4581 21.6883 91.4407 21.3833C91.4058 20.9528 91.5277 20.7017 91.9806 20.2712C92.3116 19.9663 92.6251 19.751 92.6774 19.8049C92.7297 19.8407 92.7471 19.8228 92.6948 19.751C92.6426 19.6972 92.6948 19.5358 92.7993 19.4102C92.9213 19.2488 92.9213 19.0694 92.7819 18.8183C92.6426 18.5313 92.6426 18.4416 92.8167 18.4416C92.9735 18.4416 92.9735 18.3878 92.7819 18.2623C92.6426 18.1726 92.6077 18.0829 92.7122 18.0829C92.8167 18.0829 92.9038 17.9753 92.9213 17.8497C92.9387 17.7421 92.9735 17.2757 93.0258 16.8273C93.0606 16.3789 93.1129 15.9842 93.1303 15.9304C93.1477 15.8766 93.1651 15.7869 93.1477 15.6973C93.1477 15.6255 93.2522 15.5717 93.3916 15.5717C93.5309 15.5717 93.6006 15.4641 93.5658 15.3385C93.4613 15.0156 93.9316 14.4416 94.1928 14.6031C94.3322 14.6748 94.367 14.6569 94.2799 14.5313C94.2103 14.4058 94.2451 14.3161 94.3322 14.3161C94.4367 14.3161 94.5238 14.4058 94.5238 14.4955C94.5238 14.621 94.6283 14.621 94.8373 14.5134C95.0115 14.4237 95.3425 14.3161 95.5864 14.2802C95.8128 14.2443 96.1786 14.1008 96.4051 13.9932C96.736 13.7959 96.8057 13.8138 96.8928 14.0291C96.9625 14.2264 97.0844 14.2623 97.276 14.1547C97.4502 14.065 97.6592 13.9753 97.7463 13.9753C98.1295 13.9035 98.8089 13.7242 98.9656 13.6165C99.1572 13.5089 99.523 13.4013 99.8888 13.3834C99.9933 13.3654 100.098 13.2937 100.098 13.2219C100.098 13.1502 100.307 13.0964 100.586 13.1143C101.439 13.1143 101.683 13.0605 101.578 12.8811C101.526 12.7735 101.596 12.7556 101.735 12.8094C101.892 12.8811 102.014 12.8273 102.014 12.7017C102.014 12.5582 102.24 12.5224 102.711 12.5762C103.094 12.6121 103.355 12.5762 103.303 12.4865C103.216 12.343 104.418 11.6973 104.679 11.769C104.749 11.7869 104.801 11.7331 104.801 11.6255C104.801 11.5358 105.08 11.4461 105.428 11.4461C105.776 11.4461 106.003 11.3744 105.933 11.2668C105.881 11.1591 105.951 11.1412 106.09 11.195C106.247 11.2488 106.613 11.1412 106.926 10.9439C107.24 10.7466 107.605 10.639 107.71 10.6748C107.832 10.7287 107.989 10.639 108.041 10.4775C108.093 10.3161 108.285 10.1905 108.442 10.1905C108.651 10.1905 108.738 10.065 108.703 9.77799C108.685 9.56274 108.651 9.38337 108.633 9.38337C108.616 9.38337 108.581 9.22194 108.546 9.02463C108.511 8.82732 107.727 7.9484 106.804 7.06948C105.881 6.19056 104.888 5.09639 104.592 4.64796C103.582 3.14124 101.979 1.41928 101.457 1.31165C101.195 1.23991 101.004 1.13229 101.056 1.04259C101.178 0.845291 99.3488 1.43722 99.2095 1.65246C99.1398 1.72421 98.983 1.76009 98.8611 1.72421C98.7218 1.67039 98.4256 1.84977 98.1992 2.10089C97.9728 2.35201 97.8508 2.4417 97.9379 2.29819C98.0076 2.1547 97.7811 2.29819 97.4153 2.62107C96.8928 3.10537 96.7012 3.17712 96.5096 2.99775C96.3005 2.81837 96.2831 2.83631 96.3702 3.08743C96.4225 3.24887 96.4051 3.37443 96.3354 3.39236C96.2483 3.39236 96.0393 3.42824 95.8651 3.46411C95.7083 3.49998 95.6038 3.46411 95.656 3.37443C95.7083 3.30268 95.5689 3.26681 95.3773 3.32062C95.1683 3.39236 94.9593 3.58968 94.907 3.78698C94.8199 4.14572 94.8199 4.14572 94.5586 3.80492C94.4019 3.58968 94.3322 3.57174 94.3845 3.73317C94.489 4.0381 94.1058 4.50447 93.9141 4.30716C93.8445 4.23541 93.827 4.28922 93.8619 4.41478C93.8967 4.55828 93.7574 4.75558 93.5658 4.86321C93.3742 4.98877 93.1303 5.18608 93.0258 5.32957C92.9213 5.47308 92.6426 5.61657 92.4161 5.65244C92.1897 5.68832 91.9632 5.79594 91.911 5.88563C91.8064 6.065 91.2142 6.26231 90.6568 6.29818C90.5 6.31612 90.3955 6.36993 90.4478 6.44168C90.5871 6.6928 90.1342 7.4641 89.7162 7.66141C89.4897 7.76903 89.2981 7.93047 89.2981 8.03809C89.2981 8.12777 89.2285 8.21745 89.1414 8.21745C89.0543 8.21745 88.7581 8.30714 88.5143 8.39683C88.1136 8.55827 88.0788 8.63001 88.253 8.84526C88.3749 8.98875 88.3923 9.11431 88.3053 9.11431C88.2182 9.11431 88.1485 9.27575 88.1311 9.47306C88.1136 9.67036 88.1659 9.79593 88.253 9.74211C88.3401 9.6883 88.2878 9.86768 88.1659 10.1367C88.0265 10.4237 87.9046 10.9439 87.8698 11.3206C87.8524 11.769 87.7478 11.9843 87.5562 11.9843C87.2775 12.0022 86.5111 12.5224 86.7898 12.5224C86.8943 12.5224 87.0511 12.4327 87.173 12.3071C87.295 12.1816 87.382 12.1636 87.382 12.2713C87.382 12.3609 87.295 12.5403 87.1904 12.6479C87.0511 12.7914 87.0511 12.8811 87.1904 12.9529C87.382 13.0784 87.1208 13.7421 86.7724 13.9932C86.6853 14.065 86.6679 14.1367 86.7375 14.1367C86.8072 14.1367 86.7201 14.3161 86.5111 14.5313C86.1453 14.9439 86.0582 15.2129 86.3021 15.2129C86.3892 15.2129 86.4588 15.3385 86.4588 15.482C86.4588 15.6255 86.3892 15.6973 86.3195 15.6434C86.2498 15.6076 86.1279 15.6614 86.0582 15.769C86.006 15.8766 86.0582 16.0381 86.1801 16.1277C86.5808 16.3968 86.1801 16.3071 85.6402 16.0201C85.344 15.8587 85.1176 15.7869 85.1176 15.8407C85.1176 15.8946 84.9434 15.8228 84.7344 15.6793C84.5079 15.5537 84.1595 15.4461 83.9505 15.4641C83.7415 15.4999 83.5325 15.4103 83.4802 15.2668C83.4279 15.1412 83.306 15.0336 83.2015 15.0336C83.097 15.0336 83.0621 15.1053 83.1144 15.2129C83.1667 15.3026 83.1492 15.3923 83.0447 15.3923C82.9576 15.3923 82.7486 15.4461 82.6093 15.4999C82.3828 15.5896 82.348 15.5358 82.4525 15.2847C82.557 14.9977 82.5396 14.9798 82.2957 15.2129C82.1389 15.3564 82.0519 15.5537 82.1041 15.6255C82.1564 15.7152 81.9996 15.6793 81.7906 15.5537C80.8325 15.0336 80.7106 14.9977 80.6061 15.1591C80.4145 15.4461 79.9442 15.5537 79.7351 15.3385C79.6306 15.2309 79.4216 15.1233 79.2474 15.1053C79.0906 15.0695 78.7597 14.9977 78.5158 14.9259C78.2719 14.8542 78.0107 14.8004 77.941 14.8183C77.8539 14.8363 77.8016 14.7107 77.7842 14.5313C77.7842 14.334 77.7494 14.3161 77.6797 14.4596C77.61 14.639 77.5404 14.639 77.3139 14.4596C77.1571 14.334 77.0875 14.2981 77.1397 14.4058C77.2094 14.5134 76.7391 14.5851 75.8681 14.5851C75.1191 14.5851 74.492 14.5313 74.492 14.4416C74.492 14.3699 74.3353 14.3878 74.1611 14.4955C73.6908 14.7466 73.3946 14.7286 73.5514 14.4416C73.6559 14.2981 73.6037 14.2981 73.3946 14.4596C73.0637 14.7466 72.3495 14.5672 72.5063 14.2623C72.5585 14.1367 72.4714 14.2085 72.3321 14.3878C72.1753 14.5851 72.0534 14.6748 72.0534 14.5851C72.0534 14.5134 71.914 14.621 71.7224 14.8183C71.5482 15.0336 71.3392 15.1412 71.2695 15.0695C71.1999 14.9977 71.1824 15.1233 71.2347 15.3564C71.287 15.5717 71.2695 15.7152 71.1824 15.6614C70.9908 15.5358 71.0083 16.5224 71.1999 16.7555C71.3044 16.8811 71.4089 17.1502 71.4437 17.3833C71.496 17.5986 71.6179 17.8497 71.7399 17.9215C71.914 18.047 71.9837 18.2981 72.0882 19.4641C72.1056 19.5896 72.1405 19.6614 72.1927 19.6075C72.2276 19.5717 72.454 19.8228 72.6979 20.1815C72.9243 20.5223 73.0811 20.8452 73.0463 20.8811C73.0114 20.9349 72.576 20.63 72.1056 20.2353C71.0954 19.4102 70.7818 18.5851 70.7644 16.7197C70.747 16.1277 70.6599 15.5179 70.5554 15.3744C70.207 14.908 70.0154 14.065 70.0851 13.1502C70.1721 11.8408 70.1547 11.8587 70.5728 11.9484C70.7992 11.9843 71.0257 11.9304 71.0779 11.8228C71.1476 11.7152 71.3915 11.6255 71.6353 11.6255C71.8618 11.6255 72.0534 11.5538 72.0534 11.4641C72.0534 11.3744 72.2102 11.2668 72.4192 11.213C72.6979 11.1412 72.7501 11.1771 72.6631 11.3923C72.6108 11.5538 72.7676 11.4641 73.0288 11.213C73.2727 10.9439 73.5514 10.7825 73.6385 10.8183C73.7082 10.8722 73.8475 10.7825 73.9346 10.621C74.0217 10.4596 74.1611 10.334 74.2482 10.334C74.4746 10.334 74.9623 9.95736 75.032 9.74211C75.1017 9.52687 75.8333 9.11431 76.1643 9.11431C76.3036 9.11431 76.4081 9.04256 76.4081 8.95288C76.4081 8.8632 76.6171 8.80938 76.8959 8.84526C77.1571 8.88113 77.2617 8.88113 77.1571 8.82732C76.7913 8.66589 76.8959 8.39683 77.3313 8.39683C77.5926 8.39683 77.6449 8.34302 77.4881 8.2354C77.3139 8.12777 77.3139 8.05602 77.5404 7.85871C77.7494 7.67934 77.7668 7.57172 77.61 7.39235C77.5055 7.24885 77.4533 7.14123 77.5229 7.14123C77.6971 7.14123 77.1223 5.83182 76.7913 5.52689C76.6346 5.36545 76.2514 5.13227 75.9378 5.00671C75.6417 4.88115 75.3456 4.6659 75.2933 4.50447C75.2411 4.36097 75.1191 4.28922 75.032 4.36097C74.6488 4.59415 73.5863 3.60761 71.7921 1.34753C71.3741 0.827354 71.1302 0.683853 70.6599 0.665916C69.7889 0.630043 69.4231 0.504486 69.5451 0.289238C69.6147 0.181618 69.5276 0.181618 69.3012 0.307175C69.1096 0.414795 68.918 0.612106 68.8657 0.755608C68.8135 0.899101 68.587 1.04259 68.3606 1.07848C68.1341 1.11435 67.9599 1.20403 67.9599 1.31165C67.9599 1.63452 67.3851 2.31614 67.089 2.36995C66.758 2.42376 66.4619 2.83631 66.5838 3.05156C66.6361 3.12331 66.549 3.19505 66.4097 3.19505C66.2529 3.19505 66.1832 3.30268 66.2355 3.44617C66.2877 3.60761 66.1832 3.80492 65.9742 3.94842C65.7652 4.07397 65.6084 4.27129 65.6084 4.39684C65.6084 4.52241 65.5213 4.63003 65.4168 4.63003C65.3297 4.63003 65.2774 4.70177 65.3297 4.77352C65.3819 4.86321 65.1729 5.22195 64.8942 5.5807C64.5981 5.93944 64.4239 6.24437 64.4936 6.24437C64.5632 6.24437 64.4239 6.47755 64.1626 6.74661C63.9013 7.03361 63.7271 7.30267 63.7794 7.37441C63.8317 7.44616 63.8142 7.4641 63.7446 7.41029C63.6923 7.35648 63.5355 7.41029 63.3962 7.53584C63.0826 7.8049 62.1943 6.94392 62.0375 6.22643C61.9678 5.95737 61.6891 5.41927 61.4104 5.06052C61.0795 4.61209 60.9053 4.19954 60.9053 3.78698C60.9053 3.08743 60.5395 2.65694 58.6234 1.13229C57.6305 0.343048 57.4041 0.235428 56.6028 0.217491C56.1151 0.199554 55.6099 0.127808 55.488 0.0560532C55.3486 -0.0336304 55.3138 -0.0156937 55.4009 0.109863ZM63.7794 16.8452C63.7446 17.0246 63.7794 17.2219 63.8665 17.2757C63.9884 17.3475 64.2149 18.2802 64.3194 19.0694C64.3542 19.4641 64.6155 20.343 64.7374 20.5044C64.8071 20.5941 64.842 20.8452 64.8071 21.0425C64.7897 21.2219 64.842 21.5089 64.9639 21.6524C65.0684 21.7779 65.1729 21.9932 65.1729 22.1008C65.2077 22.4775 65.5735 23.195 65.9045 23.464C66.0787 23.6255 66.9148 24.2174 67.7683 24.8093C68.6044 25.4012 69.336 25.9573 69.3709 26.0649C69.4231 26.1725 69.6147 26.2802 69.8238 26.2802C70.0154 26.2981 70.2767 26.4057 70.3638 26.4954C70.6076 26.7465 69.4928 26.603 69.1793 26.334C69.0225 26.1905 68.918 26.1905 68.8309 26.334C68.7786 26.4237 68.6393 26.5133 68.5522 26.5133C68.4477 26.5133 68.4128 26.4416 68.4651 26.3519C68.587 26.1546 68.2386 26.1905 67.9251 26.3878C67.7858 26.4775 67.6987 26.4416 67.6987 26.334C67.6987 26.2084 67.5767 26.2443 67.42 26.4057C67.2806 26.5672 67.2109 26.7645 67.2632 26.8721C67.3851 27.0873 67.3154 27.0873 66.9322 26.9438C66.7755 26.89 66.7058 26.7465 66.758 26.621C66.8103 26.5133 66.758 26.5492 66.6187 26.7107C66.3574 27.0335 64.7549 26.9977 63.6923 26.6568C62.9607 26.4057 61.933 26.3519 62.0549 26.5492C62.1072 26.621 62.0723 26.6927 61.9678 26.6927C61.8807 26.6927 61.6717 26.7465 61.4975 26.8183C61.3059 26.89 61.2362 26.8721 61.3059 26.7465C61.393 26.621 61.184 26.5672 60.7485 26.5851C60.3653 26.5851 60.0866 26.6748 60.0866 26.7645C60.1214 26.9618 58.7627 27.0156 58.6234 26.8183C58.5537 26.7286 58.2924 26.8003 58.0137 26.9797C57.7525 27.177 57.5783 27.2129 57.6479 27.0873C57.735 26.9797 57.7176 26.8721 57.6305 26.8721C57.2996 26.8721 57.2996 26.2084 57.6131 25.9573C57.8047 25.8317 57.9441 25.6165 57.9441 25.4909C57.9441 25.3654 58.0834 25.2577 58.2576 25.2577C58.4318 25.2577 58.7453 25.0963 58.9544 24.899C59.1634 24.7017 59.4247 24.5403 59.5466 24.5403C59.7034 24.5403 59.7034 24.4865 59.5118 24.3609C59.3027 24.2174 59.3376 24.1815 59.6511 24.1815C59.8776 24.1815 60.0169 24.1098 59.9472 24.0201C59.895 23.9125 60.0169 23.8766 60.2085 23.9125C60.4001 23.9483 60.5221 23.9125 60.4698 23.8048C60.4001 23.7151 60.4524 23.6255 60.5395 23.6255C60.644 23.6075 60.8182 23.5717 60.9053 23.5537C61.0098 23.5358 61.1491 23.4999 61.2537 23.482C61.3408 23.482 61.3756 23.3564 61.3233 23.2309C61.2885 23.1053 61.393 22.8362 61.5672 22.6569C61.7414 22.4595 61.8982 22.2622 61.8982 22.2084C61.9156 22.1546 61.9852 21.9753 62.0375 21.7959C62.1072 21.6344 62.1246 21.3116 62.0723 21.1143C62.0027 20.8452 62.0375 20.7735 62.2291 20.8452C62.4033 20.917 62.4556 20.8811 62.351 20.7376C62.1594 20.3968 62.1594 19.8766 62.351 20.0022C62.4556 20.0739 62.4904 19.9663 62.4381 19.7331C62.3859 19.5358 62.4556 19.195 62.5949 18.9977C62.7343 18.7824 62.7865 18.621 62.7168 18.621C62.6646 18.621 62.7168 18.4775 62.8388 18.3161C63.0478 18.0649 63.0478 18.0291 62.8388 18.1726C62.6472 18.2802 62.6646 18.2085 62.8736 17.8856C63.0304 17.6524 63.1697 17.3295 63.1697 17.1502C63.1697 16.9708 63.2568 16.8273 63.3613 16.8273C63.4659 16.8273 63.5181 16.7017 63.4659 16.5762C63.3962 16.3968 63.4484 16.343 63.6052 16.3968C63.7271 16.4506 63.8142 16.6479 63.7794 16.8452ZM82.1564 22.2981C82.1564 22.2443 82.3306 22.3161 82.557 22.4775C82.7834 22.621 83.0273 22.6927 83.0796 22.621C83.1492 22.5672 83.2015 22.6031 83.2015 22.7107C83.2015 22.8362 83.0447 22.9439 82.8531 22.9439C82.6615 22.9618 82.4002 22.9797 82.2957 22.9977C82.0519 23.0335 81.2854 22.4057 81.2854 22.1905C81.2854 22.1008 81.477 22.1187 81.7209 22.2084C81.9648 22.2981 82.1564 22.334 82.1564 22.2981ZM44.427 22.908C44.1309 23.2488 43.9915 23.1053 44.1134 22.621C44.2005 22.3161 44.2702 22.2802 44.4444 22.4416C44.636 22.621 44.636 22.6927 44.427 22.908ZM43.8696 22.7107C43.7476 22.7465 43.6954 22.8362 43.7476 22.9259C43.7999 22.9977 43.6257 23.1053 43.3993 23.1591C43.1554 23.195 42.9115 23.1591 42.8593 23.0694C42.807 22.9977 42.5631 23.0873 42.3193 23.2847C42.0057 23.5358 41.7967 23.5896 41.6922 23.482C41.5703 23.3564 41.4309 23.3564 41.2741 23.482C41.1 23.6434 41.0477 23.6075 41.0477 23.3923C41.0477 23.2129 41.1348 23.1412 41.2219 23.195C41.3264 23.2488 41.3961 23.2309 41.3961 23.1412C41.3961 23.0335 41.5354 22.9977 41.7096 23.0515C41.8838 23.0873 42.2496 22.9977 42.5283 22.8542C42.8593 22.6748 43.1031 22.6389 43.2425 22.7645C43.3818 22.8721 43.4864 22.8542 43.556 22.6569C43.6083 22.4775 43.7476 22.4237 43.8696 22.4954C44.0263 22.6031 44.0263 22.6569 43.8696 22.7107ZM42.7373 23.4999C42.6851 23.6434 42.6328 23.5896 42.6328 23.3923C42.6154 23.195 42.6677 23.0873 42.7199 23.1591C42.7722 23.2129 42.7896 23.3743 42.7373 23.4999ZM84.7692 23.464C84.7692 23.5537 84.6473 23.5896 84.5079 23.5358C84.3686 23.464 84.2466 23.3923 84.2466 23.3564C84.2466 23.3205 84.3686 23.2847 84.5079 23.2847C84.6473 23.2847 84.7692 23.3564 84.7692 23.464ZM40.8213 23.5717C40.769 23.6255 40.6122 23.6434 40.4903 23.5896C40.3509 23.5358 40.4032 23.482 40.5948 23.482C40.7864 23.464 40.8909 23.5178 40.8213 23.5717ZM57.2473 26.7465C57.2473 26.89 57.1428 26.9977 57.0034 26.9977C56.8641 26.9977 56.7944 26.89 56.8467 26.7465C56.8989 26.621 57.0034 26.5133 57.0905 26.5133C57.1776 26.5133 57.2473 26.621 57.2473 26.7465ZM90.6568 31.5537C90.9529 31.6792 91.2142 31.8586 91.2142 31.9483C91.2142 32.02 91.2839 32.0559 91.371 31.9842C91.4581 31.9304 91.58 31.9662 91.6323 32.0559C91.7019 32.1456 91.4929 32.2174 91.1794 32.2174C90.8832 32.1994 90.5871 32.2891 90.5697 32.3788C90.5349 32.4864 90.3258 32.5402 90.1168 32.4864C89.873 32.4326 89.8033 32.4505 89.9426 32.5582C90.1517 32.7196 89.9949 33.1501 89.7162 33.2039C89.6291 33.2218 89.5594 33.3833 89.5768 33.5447C89.5768 33.7061 89.5072 33.7958 89.4201 33.742C89.3155 33.6703 89.2807 33.7599 89.3504 33.9393C89.4201 34.1187 89.4026 34.2084 89.2981 34.1366C89.1936 34.0649 89.1588 33.8317 89.1936 33.5806C89.2459 33.3474 89.211 33.1501 89.1239 33.1501C89.0368 33.1501 88.9672 32.8272 88.9846 32.4505C88.9846 32.0559 88.8627 31.5537 88.7059 31.3384C88.5491 31.1053 88.4272 30.8721 88.4272 30.8003C88.4272 30.6927 89.5594 31.0694 90.6568 31.5537ZM38.1213 30.9797C37.9297 31.1053 37.9471 31.1411 38.1736 31.2308C38.3652 31.3205 38.4 31.4281 38.2955 31.6613C38.2084 31.8407 38.1562 32.0739 38.2084 32.1815C38.2433 32.2891 38.1562 32.4685 38.0168 32.594C37.8949 32.7017 37.8078 32.9528 37.86 33.1321C37.982 33.6165 37.6162 33.7599 37.3897 33.3295C37.2852 33.1321 37.2504 32.9707 37.3026 32.9707C37.3549 32.9707 37.2852 32.6837 37.1284 32.3429C36.902 31.7689 36.902 31.6792 37.1459 31.5896C37.2852 31.5357 37.3723 31.3743 37.32 31.2308C37.2678 31.0873 37.2852 31.0156 37.3549 31.0694C37.4246 31.1053 37.5988 31.0873 37.7381 30.9797C37.8775 30.89 38.0865 30.8183 38.1736 30.8183C38.2781 30.8183 38.2433 30.89 38.1213 30.9797ZM35.613 31.7689C35.6478 31.9662 35.5782 32.0739 35.4388 32.0559C35.3169 32.02 34.8988 32.1097 34.533 32.2174C34.1498 32.325 33.784 32.3788 33.6969 32.325C33.6272 32.2712 33.5576 32.325 33.5576 32.4505C33.5576 32.5761 33.5053 32.6299 33.453 32.5582C33.4008 32.5043 33.1569 32.5223 32.9305 32.612C32.704 32.7017 32.5124 32.7196 32.5124 32.6299C32.5124 32.3788 32.9305 32.1097 33.244 32.1635C33.4008 32.1994 33.6272 32.1097 33.7492 31.9662C33.8537 31.8227 34.0627 31.7151 34.1846 31.7151C34.324 31.7151 34.4285 31.6254 34.4285 31.5178C34.4285 31.177 35.5607 31.4102 35.613 31.7689ZM103.773 31.7689C103.599 31.9304 103.582 31.9124 103.686 31.6613C103.738 31.4819 103.843 31.3923 103.895 31.4461C103.947 31.4999 103.895 31.6434 103.773 31.7689ZM93.3916 32.0739C93.4613 32.1815 93.5658 32.2174 93.6529 32.1635C93.74 32.1097 94.3845 32.2891 95.0812 32.5761C97.3979 33.5088 98.1992 33.7599 99.0527 33.8496C99.2269 33.8676 99.2443 33.9214 99.105 34.0649C98.983 34.1904 98.7566 34.2084 98.5127 34.1187C98.2863 34.0469 98.0424 33.9573 97.9728 33.9393C97.8857 33.9214 97.7811 33.8855 97.7115 33.8676C97.6244 33.8496 97.3631 33.8496 97.1018 33.8676C96.8579 33.8855 96.5967 33.8138 96.527 33.7061C96.4747 33.5985 96.2483 33.5088 96.0393 33.5088C95.8128 33.5088 95.4644 33.3833 95.2554 33.2218C95.0464 33.0783 94.8722 33.0066 94.8722 33.0604C94.8722 33.1142 94.7677 33.1142 94.6632 33.0245C94.5412 32.9528 94.2799 32.881 94.0883 32.881C93.8967 32.881 93.618 32.8093 93.4787 32.7017C93.2174 32.5402 92.9909 32.4685 92.3464 32.3429C92.1548 32.307 91.9632 32.2712 91.911 32.2712C91.8587 32.2532 91.9458 32.1635 92.0852 32.0739C92.4335 31.8407 93.2522 31.8407 93.3916 32.0739ZM32.2511 32.612C32.1989 32.7017 32.0421 32.7913 31.9376 32.7913C31.8157 32.7913 31.8331 32.7196 31.9899 32.612C32.3208 32.3967 32.3905 32.3967 32.2511 32.612ZM31.0318 33.3295C30.8402 33.5626 30.5963 33.6523 30.3873 33.5806C30.2131 33.5268 30.0738 33.5806 30.0738 33.6882C30.0738 33.7958 29.8647 33.8496 29.6035 33.8138C29.3248 33.7779 28.9938 33.8138 28.8545 33.9214C28.6803 34.0469 28.6977 33.9931 28.8893 33.7779C29.0809 33.5626 29.4467 33.4371 29.8996 33.4191C30.2828 33.4012 30.7009 33.2936 30.8054 33.186C31.1712 32.8093 31.3628 32.9528 31.0318 33.3295ZM99.8366 34.0469C99.7843 34.1366 99.645 34.2263 99.5579 34.2263C99.4534 34.2263 99.4359 34.1366 99.4882 34.0469C99.5405 33.9393 99.6798 33.8676 99.7669 33.8676C99.8714 33.8676 99.8888 33.9393 99.8366 34.0469ZM16.278 37.8676C16.4522 38.029 16.6786 38.1725 16.7831 38.1725C16.9747 38.1725 18.6992 40.0918 18.9953 40.6478C19.0824 40.8092 19.2915 41.0783 19.4657 41.2218C19.6224 41.3653 19.9011 41.7061 20.0579 41.9752C20.3366 42.4415 20.3366 42.4595 19.936 42.5671C19.7269 42.6209 19.3611 42.6926 19.1695 42.6926C18.9082 42.7285 18.8211 42.8182 18.8908 43.0155C18.9779 43.2487 18.9605 43.2487 18.647 43.0155C18.4728 42.872 18.3683 42.8182 18.4379 42.9079C18.5076 42.9976 18.4554 43.1769 18.316 43.3025C18.0199 43.6254 18.107 44.6478 18.5076 45.2577C18.6644 45.4908 18.7166 45.7958 18.647 45.9034C18.5599 46.0469 18.5947 46.0648 18.7515 45.9751C18.9257 45.8675 18.9605 45.9034 18.856 46.1545C18.7863 46.3698 18.856 46.5491 19.0999 46.7285C19.2915 46.872 19.4482 47.1411 19.4482 47.3204C19.4482 47.4998 19.5353 47.715 19.6224 47.7689C19.7269 47.8406 19.7618 47.9662 19.7095 48.0559C19.6398 48.1455 19.6573 48.3249 19.7444 48.4325C19.814 48.5581 19.8837 48.7375 19.8837 48.8451C19.9011 49.0962 20.1102 49.6164 20.4934 50.4056C20.685 50.8182 20.7372 51.0872 20.6327 51.1231C20.5282 51.159 20.5979 51.4998 20.8069 51.9662C21.1727 52.7195 21.1727 52.7374 20.8417 52.6478C20.6153 52.594 20.4934 52.6478 20.4934 52.8092C20.4934 52.9527 20.4063 53.0603 20.3018 53.0603C20.2147 53.0603 20.1624 53.1321 20.2147 53.2218C20.3366 53.4191 19.6747 53.6164 19.3611 53.4729C19.1521 53.4011 18.9953 52.9527 18.8734 52.2173C18.856 52.0379 18.7515 51.9123 18.0025 50.9975C17.6715 50.6029 17.3405 50.0828 17.2709 49.8316C17.2012 49.5805 16.8702 48.9168 16.5567 48.3428C16.2257 47.7689 15.9644 47.1949 15.9644 47.0514C15.9644 46.9079 15.8774 46.7464 15.7903 46.6926C15.6857 46.6209 15.6161 46.4774 15.6509 46.3698C15.7032 46.011 15.0412 43.3743 14.8845 43.3743C14.8148 43.3743 14.7451 43.2666 14.7451 43.1411C14.7451 42.7823 13.8045 42.298 13.1252 42.3339C12.7419 42.3518 12.5329 42.4236 12.6026 42.5312C12.6723 42.6388 12.6026 42.6747 12.411 42.603C12.202 42.5133 12.08 42.603 11.9581 42.89C11.871 43.1052 11.8013 43.2128 11.8013 43.1411C11.7839 43.0693 11.6271 43.0873 11.4355 43.1949C11.2439 43.3025 11.122 43.4639 11.1742 43.5536C11.2265 43.6254 11.122 43.6613 10.9478 43.6074C10.7388 43.5536 10.5123 43.6792 10.3207 43.9841C10.1465 44.2532 9.86782 44.4505 9.64138 44.4505C9.293 44.4325 9.293 44.4146 9.5717 44.2532C9.72847 44.1456 9.83298 44.0021 9.78073 43.9124C9.64138 43.6971 10.0768 43.0155 10.3381 43.0155C10.4601 43.0155 10.6517 42.8361 10.7562 42.603C11.0871 41.9931 11.9407 41.1859 12.1671 41.3294C12.2891 41.4012 12.3065 41.3832 12.2368 41.2577C12.1671 41.1321 12.202 41.0424 12.3065 41.0424C12.411 41.0424 12.5678 40.8272 12.6549 40.5761C12.7594 40.3249 12.9858 40.0738 13.1774 40.02C13.5084 39.9303 13.6129 39.733 13.5432 39.3563C13.5258 39.2667 13.6129 39.2487 13.7522 39.3025C13.9264 39.3743 13.9961 39.2667 13.9787 39.0155C13.9613 38.7823 14.0484 38.6389 14.1877 38.6568C14.2922 38.6927 14.3967 38.6209 14.3967 38.4954C14.3967 38.3877 14.449 38.3339 14.5013 38.4057C14.5709 38.4595 14.7277 38.3877 14.8671 38.2442C15.0064 38.1007 15.198 38.0469 15.3025 38.1007C15.4245 38.1725 15.4419 38.1366 15.3722 38.029C15.0412 37.4729 15.7206 37.3474 16.278 37.8676ZM112.849 39.4281C113.197 39.4281 118.457 44.6119 118.283 44.7913C118.248 44.8451 117.952 44.6299 117.639 44.3249C116.925 43.6433 115.862 42.9796 115.723 43.1411C115.653 43.1949 115.601 43.159 115.601 43.0514C115.601 42.9258 115.496 42.8361 115.357 42.8361C115.217 42.8361 114.834 42.6747 114.486 42.4774C114.085 42.2263 113.859 42.1725 113.772 42.298C113.685 42.4415 113.58 42.4415 113.406 42.2801C113.214 42.1187 113.162 42.1366 113.162 42.3877C113.162 42.585 113.075 42.6568 112.901 42.585C112.744 42.5312 112.639 42.585 112.639 42.7644C112.639 42.9079 112.552 42.9796 112.465 42.9258C112.309 42.8182 111.995 43.8047 112.082 44.1276C112.1 44.2173 112.03 44.2711 111.925 44.2711C111.821 44.2711 111.769 44.3967 111.838 44.5402C111.89 44.6837 111.856 44.8092 111.751 44.8092C111.664 44.8092 111.49 45.0245 111.368 45.2935C111.263 45.5805 111.072 45.9034 110.95 46.029C110.828 46.1545 110.723 46.3698 110.723 46.5133C110.723 46.6388 110.584 46.8003 110.427 46.8541C110.218 46.9438 110.201 47.0334 110.323 47.159C110.462 47.3025 110.427 47.5177 110.183 47.9303C110.009 48.2352 109.852 48.594 109.852 48.7375C109.852 48.881 109.678 49.2038 109.469 49.437C109.243 49.6881 109.173 49.8316 109.295 49.7599C109.609 49.5805 109.556 49.8854 109.208 50.298C109.034 50.4953 108.877 50.7644 108.842 50.9079C108.807 51.0514 108.685 51.2307 108.581 51.3025C108.459 51.3742 108.442 51.446 108.546 51.446C108.633 51.446 108.616 51.5357 108.494 51.6612C108.372 51.7868 108.285 52.02 108.285 52.1993C108.285 52.3787 108.198 52.5222 108.093 52.5222C107.989 52.5222 107.936 52.6478 108.006 52.7913C108.058 52.9348 108.006 53.0603 107.902 53.0603C107.797 53.0603 107.745 53.1141 107.814 53.1679C107.867 53.2397 107.797 53.4011 107.658 53.5446C107.431 53.7778 107.362 53.7778 107.013 53.5267C106.804 53.3652 106.369 53.0603 106.073 52.863C105.759 52.6478 105.498 52.4505 105.498 52.4146C105.498 52.3608 105.707 52.2531 105.951 52.1635C106.247 52.0379 106.369 51.8944 106.299 51.715C106.247 51.5715 106.282 51.446 106.369 51.446C106.456 51.446 106.473 51.3204 106.421 51.141C106.334 50.9258 106.369 50.8899 106.56 50.9796C106.7 51.0514 106.665 50.9975 106.491 50.854C106.247 50.6388 106.229 50.5671 106.421 50.4953C106.56 50.4415 106.717 50.2262 106.769 50.0289C106.822 49.8137 106.787 49.6881 106.7 49.7599C106.508 49.8675 106.7 49.3115 106.961 48.9527C107.118 48.7375 107.1 48.7195 106.856 48.8092C106.404 48.9706 106.473 48.8092 107.118 48.1814C107.414 47.8765 107.571 47.6971 107.431 47.7689C107.274 47.8585 107.274 47.7689 107.483 47.4639C107.64 47.2128 107.71 46.9617 107.64 46.9079C107.588 46.8361 107.658 46.7823 107.814 46.7823C108.006 46.7823 108.058 46.6926 107.989 46.4774C107.902 46.2621 107.936 46.2263 108.111 46.3339C108.285 46.4415 108.32 46.3877 108.25 46.1007C108.18 45.8855 108.198 45.7061 108.285 45.7061C108.354 45.7061 108.546 45.5088 108.703 45.2756C108.947 44.881 108.947 44.7554 108.738 44.2352C108.511 43.6792 107.344 42.4415 107.187 42.585C107.153 42.6388 107.013 42.5491 106.909 42.4057C106.717 42.1725 106.769 42.0469 107.153 41.6882C107.396 41.455 107.675 41.0245 107.745 40.7375C107.832 40.4684 107.971 40.2532 108.076 40.2711C108.18 40.307 108.232 40.2173 108.18 40.0738C108.128 39.9303 108.18 39.7689 108.285 39.6971C108.442 39.5895 108.442 39.5178 108.267 39.4101C108.076 39.2846 108.093 39.2487 108.32 39.2487C108.476 39.2487 108.755 39.0514 108.947 38.8003C109.138 38.5671 109.33 38.4236 109.4 38.4774C109.452 38.5312 109.504 38.4954 109.504 38.3698C109.504 38.2442 109.574 38.1904 109.661 38.2622C109.748 38.316 109.87 38.2801 109.94 38.1725C110.009 38.0649 110.131 38.029 110.218 38.0828C110.305 38.1545 110.375 38.1007 110.375 37.9931C110.375 37.8676 110.497 37.8137 110.636 37.8855C110.776 37.9393 110.898 37.9034 110.898 37.8137C110.898 37.7241 111.298 38.0649 111.786 38.5492C112.274 39.0335 112.744 39.4281 112.849 39.4281ZM96.3005 39.6613C96.3876 39.8227 96.4399 39.8048 96.4399 39.6075C96.4399 39.3743 96.4573 39.3743 96.6141 39.6075C96.7012 39.751 96.7883 39.8227 96.7883 39.751C96.7883 39.6792 96.9799 39.6971 97.2237 39.7868C97.5024 39.8945 97.6766 39.8945 97.7637 39.7689C97.8334 39.6433 97.9728 39.6792 98.1469 39.8406C98.3211 39.9841 98.565 40.1456 98.7043 40.1994C98.8785 40.2711 98.8611 40.307 98.5998 40.307C98.4082 40.3249 98.1818 40.2711 98.1295 40.2173C98.0598 40.1456 97.607 40.0738 97.1192 40.0379C96.3876 39.9841 96.2483 40.02 96.3354 40.2532C96.3876 40.4146 96.3702 40.4684 96.2657 40.4146C96.0218 40.2711 94.8199 41.5267 94.5064 42.2622C94.367 42.585 94.1232 42.89 93.949 42.9438C93.7748 42.9976 93.6703 43.159 93.7225 43.2846C93.8619 43.6613 93.618 43.7509 93.3742 43.4101C93.1651 43.1411 93.1651 43.159 93.2522 43.5357C93.3219 43.8406 93.3045 43.9303 93.1651 43.8406C93.0432 43.7689 92.9561 43.8047 92.9561 43.8944C92.9561 44.0021 93.0606 44.0917 93.1825 44.0917C93.2871 44.0917 93.2522 44.1814 93.078 44.2891C92.9213 44.3787 92.7122 44.4146 92.6077 44.3608C92.5206 44.307 92.4858 44.4325 92.5206 44.6299C92.6251 45.2038 92.3116 45.0424 92.1026 44.4146C91.911 43.8586 92.0503 43.5716 92.4858 43.5536C92.5729 43.5536 92.5729 43.4639 92.5206 43.3743C92.4684 43.2666 92.5032 43.1949 92.6077 43.1949C92.7122 43.1949 92.7471 43.1052 92.6774 42.9796C92.5903 42.8361 92.6426 42.8182 92.8342 42.89C92.9909 42.9438 93.1129 42.9438 93.0955 42.872C93.0258 42.5491 93.4961 41.742 93.6877 41.8675C93.7922 41.9393 93.827 41.9213 93.7574 41.7958C93.7051 41.6882 93.7225 41.5626 93.8096 41.4909C93.9141 41.437 93.949 41.2756 93.8793 41.1142C93.827 40.9527 93.8793 40.8631 94.0187 40.8989C94.1406 40.9348 94.2451 40.8631 94.2625 40.7734C94.2625 40.6657 94.367 40.4146 94.489 40.1814C94.6109 39.9662 94.6632 39.6971 94.5935 39.5895C94.5238 39.464 94.6109 39.4281 94.8548 39.5178C95.0638 39.5716 95.2206 39.5536 95.2206 39.446C95.2206 39.2128 96.1438 39.3922 96.3005 39.6613ZM32.4602 40.5402C32.7737 40.8631 33.035 41.2218 33.035 41.3474C33.035 41.4729 33.0872 41.5805 33.1743 41.5805C33.3311 41.5805 34.0105 42.8541 33.9582 43.0335C33.9408 43.1052 34.0279 43.2666 34.1672 43.3743C34.4982 43.6613 34.4982 43.9841 34.1672 44.2711C33.9582 44.4505 33.9059 44.4505 33.9059 44.2173C33.9059 44.0738 33.9582 43.9124 34.0453 43.8586C34.115 43.8227 34.0801 43.8047 33.9756 43.8406C33.8711 43.8586 33.4356 43.3563 33.035 42.7106C32.6169 42.0648 31.955 41.2218 31.5718 40.8451C31.1886 40.4505 30.997 40.1814 31.1537 40.2353C31.3105 40.307 31.4847 40.2711 31.5544 40.1635C31.7286 39.8765 31.8331 39.9124 32.4602 40.5402ZM99.8366 40.6837C99.8888 40.7913 99.8192 40.8092 99.6798 40.7554C99.3663 40.6299 99.314 40.5043 99.5579 40.5043C99.6624 40.5043 99.7843 40.5761 99.8366 40.6837ZM74.2656 44.0917C74.4049 44.2711 74.4049 44.4325 74.283 44.576C74.1611 44.7375 74.1611 44.9707 74.3178 45.3473C74.6314 46.1366 74.4224 46.7285 73.7779 46.872C73.3772 46.9617 73.2901 47.0334 73.4643 47.159C73.6733 47.2846 73.6559 47.3204 73.4469 47.3204C73.3076 47.3204 73.0811 47.4819 72.9592 47.6792C72.6979 48.1097 72.4018 48.1455 72.4018 47.7509C72.4018 47.6074 72.3321 47.5357 72.2276 47.5895C72.1405 47.6433 72.0534 47.6074 72.0534 47.4998C72.0534 47.3025 71.8444 46.9976 71.287 46.4236C70.9734 46.1007 70.9734 46.0828 71.3566 45.6702C71.5831 45.437 71.705 45.3653 71.6353 45.4729C71.5657 45.5985 71.6005 45.7061 71.6876 45.7061C71.7921 45.7061 71.8792 45.5805 71.8792 45.4191C71.8792 45.2756 71.9489 45.2038 72.0534 45.2577C72.1405 45.3115 72.3147 45.2038 72.4366 44.9886C72.5585 44.7913 72.7501 44.6299 72.8547 44.6299C72.9766 44.6299 73.0985 44.5043 73.1682 44.3608C73.2205 44.2173 73.3598 44.1097 73.4817 44.1276C73.6037 44.1635 73.6908 44.0738 73.6733 43.9482C73.6037 43.6613 74.0043 43.7509 74.2656 44.0917ZM54.4429 44.307C55.5925 45.0424 56.777 46.0648 56.446 46.0648C56.2893 46.0648 56.1847 46.1186 56.2544 46.1725C56.3764 46.298 55.7493 46.9617 55.488 46.9617C55.4009 46.9617 55.3661 47.0334 55.4183 47.1411C55.4706 47.2307 55.4009 47.3204 55.2615 47.3204C55.1048 47.3204 55.0003 47.3742 55.0003 47.446C55.1048 48.0738 54.8783 48.02 54.1119 47.2307C53.5545 46.6747 53.2409 46.1904 53.2409 45.9213C53.2409 45.6343 53.3106 45.5447 53.4674 45.6343C53.6067 45.724 53.6067 45.6702 53.4326 45.4729C53.2758 45.2756 53.2584 45.168 53.3977 45.168C53.5022 45.168 53.5719 45.1142 53.5719 45.0245C53.5197 44.6657 53.6067 43.9124 53.6938 43.9124C53.7635 43.9124 54.0945 44.0917 54.4429 44.307ZM30.7357 50.1724C31.7634 51.4101 32.164 52.1993 32.2686 53.0962C32.3208 53.5267 32.5473 54.1186 32.8085 54.4594C33.5227 55.428 33.1221 55.3204 32.0247 54.2442C31.4673 53.6881 30.9099 53.2397 30.788 53.2397C30.457 53.2397 29.5512 52.7195 28.5235 51.9303C27.7048 51.3025 26.2765 50.7106 26.5029 51.0872C26.5377 51.159 26.3461 51.2128 26.05 51.2307L25.51 51.2487L25.9281 50.8361C26.1371 50.6209 26.3984 50.4774 26.4855 50.5132C26.5726 50.5671 26.7293 50.4953 26.8339 50.3518C27.13 49.9572 27.9835 49.6164 28.8545 49.5267C29.2899 49.4729 29.6731 49.4011 29.708 49.3653C29.8822 49.2038 30.0564 49.3473 30.7357 50.1724ZM98.2166 50.0648C98.2689 50.1724 98.5476 50.2621 98.8263 50.298C100.673 50.5132 102.554 51.1231 100.934 50.9975C100.411 50.9617 100.098 50.9975 100.098 51.1231C100.098 51.2307 99.9411 51.2666 99.7495 51.2128C99.523 51.159 99.4359 51.1949 99.523 51.3204C99.5927 51.428 99.4882 51.4639 99.2443 51.3922C99.0179 51.3384 98.896 51.3384 98.9482 51.4101C99.0179 51.4639 98.8437 51.6074 98.5824 51.715C98.234 51.8765 98.0598 51.8765 97.9553 51.733C97.8682 51.6253 97.8334 51.715 97.8857 51.9482C97.9553 52.2531 97.9205 52.3428 97.7463 52.2711C97.607 52.2173 97.4153 52.3249 97.3283 52.4863C97.2237 52.6478 97.1366 52.7016 97.1366 52.6119C97.1366 52.5043 97.067 52.5401 96.9799 52.6836C96.8579 52.8809 96.7534 52.8809 96.4225 52.6836C96.0393 52.4863 96.0218 52.4863 96.2483 52.7733C96.3876 52.9348 96.4225 53.0603 96.3354 53.0424C95.7083 52.9348 94.7503 53.6164 94.9941 54.011C95.0464 54.1186 95.0115 54.1365 94.907 54.0648C94.7851 53.993 94.698 54.011 94.698 54.1007C94.698 54.2083 94.4541 54.3697 94.1754 54.4774C93.8619 54.585 93.6877 54.585 93.74 54.4953C93.8096 54.3877 93.9838 54.3159 94.1406 54.3159C94.4019 54.3159 94.4019 54.28 94.1754 54.1186C93.949 53.9572 93.949 53.9392 94.2103 54.011C94.3845 54.0827 94.5238 53.993 94.5761 53.7419C94.6457 53.5087 94.7503 53.437 94.8896 53.5267C95.0115 53.5984 95.0638 53.5805 94.9941 53.4549C94.8373 53.2038 95.0464 52.6836 95.238 52.8092C95.3773 52.8989 95.4818 52.3787 95.4122 51.8406C95.3948 51.733 95.4993 51.6253 95.656 51.6253C95.8128 51.6253 95.8999 51.5536 95.8476 51.4639C95.7431 51.3025 96.0741 50.8182 96.9102 49.8854C97.2586 49.5267 97.3631 49.4908 97.694 49.6702C97.9205 49.7958 98.1469 49.9751 98.2166 50.0648ZM28.6803 59.1769C28.6803 59.4459 32.5473 62.6567 32.7911 62.6029C33.0176 62.5491 34.2717 63.3921 34.3937 63.6791C34.4285 63.7688 34.533 63.8226 34.6375 63.8226C34.7769 63.8226 35.944 64.6477 36.1704 64.9168C36.2227 64.9706 36.3794 65.0782 36.5188 65.15C37.1807 65.4728 37.6336 65.7957 37.4246 65.7957C37.2852 65.7957 37.2504 65.8854 37.32 66.0109C37.4071 66.1544 37.3549 66.1724 37.1633 66.1006C36.9891 66.0468 36.8672 66.0647 36.8672 66.1365C36.8672 66.2262 36.7452 66.3517 36.5885 66.4056C36.4491 66.4594 36.362 66.4414 36.4143 66.3517C36.4839 66.2621 36.362 66.2262 36.1704 66.28C35.9788 66.3338 35.822 66.4594 35.822 66.5491C35.822 66.6567 35.7175 66.6926 35.5782 66.6387C35.4388 66.5849 35.2472 66.7284 35.1253 66.9616C35.0033 67.2127 34.8291 67.3562 34.7421 67.3024C34.6724 67.2486 34.5504 67.3562 34.4808 67.5356C34.3588 67.8585 33.7666 68.3966 33.5227 68.3966C33.453 68.3966 33.2963 68.558 33.1569 68.7374C33.0002 68.9526 32.8085 69.0423 32.6169 68.9706C32.4427 68.8988 32.3382 68.9526 32.3382 69.132C32.3382 69.2755 32.2686 69.3472 32.164 69.2934C32.077 69.2396 31.9899 69.2934 31.9899 69.419C31.9899 69.6163 31.955 69.5984 31.8331 69.419C31.7112 69.2217 31.6763 69.2396 31.5718 69.4728C31.5195 69.6342 31.3976 69.7239 31.3105 69.6522C31.2234 69.5984 31.1015 69.7239 31.0318 69.9212C30.9796 70.1185 30.8054 70.2979 30.666 70.2979C30.5267 70.3159 30.3525 70.3338 30.2654 70.3517C30.1783 70.3697 29.6731 69.9571 29.1332 69.4369C28.5932 68.9168 28.1577 68.576 28.1577 68.6656C28.1577 68.7374 27.8442 68.6836 27.4609 68.5221C27.0777 68.3607 26.7642 68.1096 26.7642 67.9661C26.7642 67.8226 26.7119 67.7508 26.6597 67.8226C26.6074 67.8764 26.2765 67.6612 25.9455 67.3562C25.6145 67.0334 25.1965 66.6926 25.0223 66.6029C24.8655 66.4952 24.1688 65.9033 23.5068 65.2576C22.8449 64.6118 22.0611 63.9661 21.7824 63.8226C20.6153 63.2307 19.0999 62.28 19.0999 62.1544C19.0999 62.0827 19.2218 62.0289 19.3611 62.0289C19.5179 62.0289 19.7966 61.8675 20.0056 61.6701C20.2147 61.4728 20.4934 61.3114 20.6153 61.3114C20.7547 61.3114 20.8243 61.2397 20.7721 61.15C20.7024 61.0603 20.8243 61.0244 20.9985 61.0782C21.1901 61.132 21.5211 61.0423 21.7475 60.8809C21.9566 60.7195 22.3398 60.5939 22.6011 60.5939C23.0888 60.5939 23.8726 60.0199 23.6636 59.8047C23.5939 59.7329 23.6288 59.6791 23.7159 59.6971C24.0991 59.7867 24.3081 59.6791 24.4126 59.3383C24.4649 59.141 24.6739 58.9796 24.8655 58.9796C25.1616 58.9796 25.2836 58.7823 25.2139 58.3697C25.1965 58.28 25.301 58.3159 25.4578 58.4415C25.6842 58.6388 25.7016 58.6208 25.5971 58.3338C25.4926 58.0289 25.51 58.011 25.8061 58.2621C25.9803 58.4056 26.0848 58.4415 26.0152 58.3338C25.8758 58.0648 26.3287 57.6522 26.59 57.8137C26.6945 57.8854 26.7642 57.8675 26.7468 57.7778C26.7293 57.706 26.7293 57.5625 26.7468 57.4908C26.7642 57.2935 28.6803 58.9616 28.6803 59.1769ZM100.429 58.1724C100.638 58.0468 101.7 58.6567 102.606 59.428C103.042 59.8226 103.512 60.1455 103.634 60.1455C103.913 60.1634 105.219 60.8271 105.289 61.0065C105.324 61.0782 105.428 61.0962 105.515 61.0244C105.602 60.9706 105.672 61.0065 105.672 61.1141C105.672 61.3832 106.578 61.8316 107.309 61.9033C107.971 61.9751 108.389 62.2083 107.884 62.2083C107.727 62.2083 107.536 62.2083 107.466 62.1903C107.414 62.1903 107.292 62.3159 107.205 62.4773C107.048 62.7464 107.013 62.7464 106.804 62.4414C106.578 62.1365 106.56 62.1365 106.647 62.5132C106.734 62.8181 106.647 62.9078 106.16 63.0334C105.846 63.1051 105.515 63.1589 105.445 63.141C105.358 63.1051 105.341 63.1769 105.393 63.2666C105.463 63.3562 105.341 63.5535 105.149 63.697C104.958 63.8226 104.853 64.0199 104.94 64.1096C105.01 64.1813 104.905 64.1455 104.731 64.002C104.505 63.8226 104.435 63.8226 104.522 63.9482C104.592 64.0917 104.557 64.1813 104.453 64.1813C104.331 64.1813 104.278 64.3069 104.348 64.4504C104.435 64.7015 104.244 64.8091 103.86 64.7374C103.773 64.7195 103.791 64.8091 103.895 64.9526C104.069 65.15 104.052 65.2576 103.86 65.419C103.686 65.5625 103.582 65.5804 103.495 65.4369C103.425 65.3114 103.216 65.3831 102.902 65.6163C102.624 65.7957 102.362 65.9033 102.293 65.8495C102.223 65.7778 102.136 65.8854 102.084 66.1006C102.031 66.3159 101.84 66.5132 101.648 66.567C101.474 66.6208 101.352 66.5849 101.422 66.4952C101.474 66.4056 101.387 66.3876 101.248 66.4414C101.091 66.4952 101.004 66.6387 101.021 66.7284C101.038 66.836 100.812 66.9975 100.516 67.0692C100.133 67.1769 99.9237 67.3742 99.854 67.6791C99.7843 67.9302 99.6275 68.1275 99.4882 68.1275C99.3663 68.1275 99.1224 68.3069 98.9482 68.5221C98.7043 68.8629 98.6869 68.8809 98.774 68.5939C98.896 68.2351 98.896 68.2351 98.5127 68.5939C98.2515 68.8091 98.1644 68.845 98.2515 68.6656C98.3211 68.5221 98.2515 68.558 98.1121 68.7374C97.9553 68.9347 97.8334 69.1679 97.8334 69.2755C97.8334 69.3652 97.7115 69.2934 97.5721 69.0961C97.3457 68.7733 97.3283 68.7733 97.4328 69.1679C97.5024 69.4728 97.4328 69.6522 97.1541 69.8495C96.945 70.0109 96.8231 70.1903 96.8754 70.28C96.9799 70.4414 96.0393 69.975 95.3599 69.4907C95.0986 69.3114 94.698 69.1499 94.4541 69.132C94.1928 69.0961 93.409 68.5042 92.5555 67.697C91.7542 66.9437 90.9529 66.3338 90.7962 66.3338C90.6394 66.3338 90.5174 66.2441 90.5174 66.1365C90.5174 66.0468 90.4652 65.993 90.3955 66.0289C90.3084 66.0827 90.082 66.0468 89.8555 65.9571C89.4723 65.8136 89.4723 65.7957 89.7684 65.4728C89.9426 65.2935 90.1342 65.1679 90.2213 65.2038C90.291 65.2396 90.3433 65.1858 90.3433 65.0603C90.3433 64.8988 90.3955 64.8809 90.5349 65.0244C90.7439 65.2396 91.5626 65.1141 91.5626 64.863C91.5626 64.7733 91.6497 64.7553 91.7368 64.8091C91.8413 64.863 91.911 64.8271 91.911 64.7195C91.911 64.5939 92.0329 64.558 92.2071 64.6118C92.3813 64.6836 92.451 64.6836 92.3813 64.6118C92.2071 64.4325 92.9561 63.8047 93.1825 63.9482C93.2871 64.0199 93.3219 63.9482 93.2696 63.7867C93.2 63.6074 93.3567 63.3562 93.6877 63.1051C93.9838 62.8719 94.1754 62.8181 94.1058 62.9437C94.0361 63.0872 94.2277 62.9078 94.5238 62.567C94.8199 62.2262 95.0115 62.0648 94.9419 62.2083C94.8548 62.4056 94.907 62.3876 95.1683 62.1544C95.3599 61.993 95.5689 61.9033 95.6386 61.9751C95.7083 62.0468 95.7083 61.9751 95.656 61.8316C95.5864 61.6343 95.6735 61.4908 95.8651 61.419C96.0393 61.3652 96.4921 61.1141 96.8754 60.8809C97.2412 60.6298 97.6244 60.4863 97.7289 60.5401C97.816 60.5939 97.8334 60.558 97.7637 60.4504C97.6766 60.3069 97.7811 60.2352 98.025 60.2352C98.3211 60.2352 98.356 60.1814 98.1992 59.9841C98.025 59.7867 98.0598 59.6971 98.3385 59.6074C98.5476 59.5536 98.7043 59.428 98.7043 59.3383C98.7043 59.2307 99.4708 58.9258 99.5056 59.0334C99.5579 59.1948 100.098 58.4056 100.115 58.1365C100.115 57.9572 100.168 57.9033 100.22 58.0468C100.255 58.1545 100.359 58.2262 100.429 58.1724ZM38.9052 83.2306C38.8529 83.3562 38.8181 83.2665 38.8181 83.0154C38.8181 82.7642 38.8529 82.6745 38.9052 82.7822C38.94 82.9077 38.94 83.123 38.9052 83.2306Z" fill="#F5F5F5"/>
</svg>
