<svg width="100" height="125" viewBox="0 0 100 125" fill="none" xmlns="http://www.w3.org/2000/svg">
<path d="M60.8048 0.215796C60.5829 0.318389 60.4122 0.455179 60.4122 0.540673C60.4122 0.609068 60.4976 0.626167 60.6 0.557772C60.7194 0.489377 60.7536 0.557772 60.6853 0.780056C60.617 0.985241 60.6682 1.20753 60.8389 1.34432C60.9754 1.46401 61.0949 1.72049 61.0949 1.92567C61.0949 2.13086 61.1632 2.37024 61.2315 2.45574C61.368 2.60963 61.9824 4.11432 62.0507 4.45629C62.0678 4.54179 62.1019 4.61018 62.119 4.62728C62.1531 4.66148 62.1702 5.00346 62.1872 5.41383C62.2214 5.99519 62.1702 6.11488 61.9824 6.04648C61.7947 5.97809 61.7776 6.01228 61.9141 6.18327C62.0678 6.35426 62.1019 7.41439 61.9483 7.41439C61.9312 7.41439 61.88 7.75636 61.8459 8.18383C61.7947 8.6113 61.6752 9.00457 61.5728 9.05587C61.4704 9.12426 61.4533 9.26105 61.5216 9.38075C61.624 9.53463 61.5899 9.56883 61.4533 9.48334C61.3168 9.39784 61.2144 9.48334 61.1461 9.70562C61.0949 9.89371 60.9925 10.0134 60.9072 9.9621C60.8218 9.91081 60.7536 10.0305 60.7536 10.2015C60.7536 10.5948 60.3269 10.988 60.0709 10.8341C59.9685 10.7657 59.9173 10.7828 59.9343 10.8683C59.9514 10.9367 59.8661 11.1761 59.7295 11.3813C59.4735 11.7746 58.8079 11.9114 58.6202 11.6036C58.569 11.501 58.4154 11.4326 58.313 11.4497C58.1594 11.4497 58.1594 11.4839 58.33 11.5523C58.6543 11.6891 58.569 12.0482 58.1935 12.0482C58.0058 12.0482 57.8521 11.9969 57.8521 11.9456C57.8521 11.8943 57.5449 11.843 57.1695 11.8259C56.794 11.8259 56.3673 11.7062 56.2308 11.6036C56.0942 11.4839 55.9747 11.4326 55.9747 11.4839C55.9747 11.5523 55.6675 11.4839 55.275 11.3471C54.8824 11.2103 54.507 11.1419 54.4046 11.1932C54.3192 11.2445 54.1656 11.2103 54.0462 11.1248C53.7389 10.9025 53.0904 10.7657 53.0392 10.9196C53.0051 11.0051 52.6808 10.9538 52.3053 10.817C51.7079 10.6119 50.5132 10.3725 49.8817 10.3554C49.7623 10.3554 49.6599 10.287 49.6599 10.2015C49.6599 10.1331 49.5745 10.0647 49.4721 10.0647C49.3868 10.0647 49.3527 10.1673 49.4209 10.2699C49.5233 10.4409 49.4892 10.4409 49.2844 10.2699C49.0455 10.0818 48.9772 10.0818 48.8577 10.3041C48.7894 10.4409 48.6529 10.5606 48.5505 10.5777C48.3116 10.629 47.5947 10.9025 47.3899 11.0393C47.2875 11.0906 47.2705 11.0564 47.3387 10.9538C47.407 10.8341 47.3899 10.7486 47.3046 10.7486C47.2022 10.7486 47.0998 10.8512 47.0486 10.988C46.9974 11.1248 46.7755 11.1932 46.5195 11.1761C46.2806 11.1419 46.1099 11.1932 46.127 11.2958C46.144 11.3813 45.9904 11.5352 45.7685 11.6207C45.5296 11.7062 45.4101 11.7062 45.4784 11.6207C45.5296 11.5181 45.3248 11.4668 45.0347 11.4668C44.6592 11.4839 44.4714 11.5865 44.4202 11.7917C44.369 11.9798 44.2496 12.0653 44.1642 12.014C44.0789 11.9627 43.857 12.0482 43.6863 12.202C43.4645 12.3901 43.345 12.4243 43.2597 12.2875C43.1743 12.1507 43.0549 12.1678 42.8671 12.3388C42.6964 12.4756 42.338 12.6295 42.0308 12.6808C41.2799 12.8176 40.0681 12.1849 39.9998 11.6036C39.9316 11.1419 39.7267 10.0818 39.6585 9.80822C39.4878 9.19266 39.4537 8.86778 39.5902 8.86778C39.6585 8.86778 39.6926 8.71389 39.6414 8.52581C39.5902 8.32062 39.6414 8.14963 39.795 8.09834C39.9316 8.04704 40.0169 7.77346 39.9998 7.41439C39.9828 7.08951 40.034 6.81593 40.1022 6.81593C40.1705 6.81593 40.29 6.69624 40.3412 6.54235C40.4094 6.37136 40.3753 6.32006 40.2217 6.40556C40.0681 6.50815 40.0681 6.47395 40.2388 6.26877C40.4094 6.04648 40.4094 5.97809 40.2388 5.90969C40.1022 5.8413 40.1193 5.8071 40.3241 5.8071C40.5972 5.79 40.6996 5.39673 40.6654 4.47339C40.6484 4.3537 40.6996 4.28531 40.7678 4.3195C40.9556 4.4392 41.2457 3.48166 41.2116 2.90031C41.1775 2.60963 41.2457 2.37024 41.3481 2.37024C41.4505 2.37024 41.4676 2.31895 41.4164 2.25055C41.3481 2.19926 41.3823 2.06246 41.4676 1.94277C41.6553 1.70339 41.1945 0.933945 40.9385 1.08783C40.8532 1.15623 40.7849 1.10493 40.7849 0.985241C40.7849 0.86555 40.5972 1.03654 40.3582 1.36141C40.1193 1.68629 39.8633 1.92567 39.795 1.90858C39.7267 1.90858 39.6926 1.95987 39.7097 2.04537C39.7438 2.13086 39.6755 2.19926 39.5902 2.19926C39.4878 2.19926 39.4195 2.26765 39.4195 2.37024C39.4195 2.62672 38.788 3.20808 38.6344 3.08839C38.5662 3.02 38.5662 3.10549 38.6174 3.25938C38.6856 3.46457 38.5491 3.65265 38.1224 3.90913C37.8152 4.11432 37.5421 4.3195 37.5421 4.3537C37.5421 4.405 37.6275 4.3879 37.7128 4.3366C38.0883 4.09722 37.8493 4.57599 37.4568 4.83247C37.2179 4.98636 37.0301 5.22574 37.0301 5.36253C37.0301 5.49932 36.9619 5.61901 36.8594 5.61901C36.7741 5.61901 36.6888 5.7387 36.6888 5.87549C36.6888 6.01228 36.6205 6.13198 36.5181 6.13198C36.4328 6.13198 36.3474 6.23457 36.3474 6.37136C36.3474 6.50815 36.1768 6.74753 35.972 6.88432C35.7671 7.03821 35.6647 7.1579 35.7501 7.175C35.8525 7.175 35.7501 7.2434 35.5453 7.32889C35.3234 7.41439 35.1527 7.58537 35.1527 7.70506C35.1527 7.85895 35.2039 7.85895 35.3234 7.67087C35.4087 7.53408 35.4941 7.49988 35.4941 7.58537C35.4941 7.87605 34.8114 8.37192 34.6066 8.25223C34.5042 8.18383 34.47 8.20093 34.5383 8.32062C34.5895 8.42321 34.5724 8.5429 34.47 8.6113C34.3676 8.6797 34.3506 8.79939 34.4018 8.90198C34.4871 9.03877 34.4188 9.05587 34.2311 8.98747C34.0604 8.91908 33.9751 8.93618 34.0434 9.05587C34.1116 9.14136 34.0775 9.31235 33.9922 9.43204C33.9068 9.55173 33.7703 9.89371 33.702 10.1844C33.6508 10.4922 33.5143 10.7486 33.4119 10.7486C33.2924 10.7486 33.2924 10.8341 33.3948 10.9538C33.6508 11.2958 33.4119 12.9715 33.1217 12.9715C32.9169 12.9715 33.0023 13.7409 33.2241 13.9632C33.3777 14.1171 33.3777 14.3052 33.2753 14.613C33.1559 14.9037 33.1559 15.0062 33.2753 14.9379C33.3777 14.8866 33.446 14.9208 33.446 15.0233C33.446 15.1259 33.5996 15.5192 33.7873 15.9125C33.9751 16.2887 34.0775 16.6819 34.0263 16.7503C33.9751 16.8358 33.9922 16.9042 34.0775 16.9042C34.214 16.9042 34.4018 17.2633 34.9138 18.6141C35.0845 19.0416 35.2893 19.4348 35.3746 19.4861C35.4599 19.5374 35.3917 19.64 35.2381 19.7084C35.0845 19.7597 35.0162 19.8794 35.0674 19.982C35.1186 20.0675 35.1015 20.153 34.9991 20.153C34.9138 20.153 34.4359 20.4266 33.9239 20.7514C33.4289 21.0763 32.9169 21.3157 32.7974 21.2644C32.678 21.2131 32.6268 21.2473 32.678 21.3499C32.7292 21.4354 32.5585 21.6406 32.3025 21.8116C31.6198 22.239 31.3979 22.4955 31.5345 22.6323C31.6027 22.7178 31.5686 22.7178 31.4491 22.6494C31.3467 22.5981 31.2102 22.6152 31.1419 22.7178C31.0737 22.8204 30.9542 22.8546 30.8688 22.8033C30.7835 22.752 30.7664 22.8375 30.8347 22.9914C30.903 23.1795 30.8859 23.2479 30.7664 23.1795C30.664 23.1111 30.4422 23.1795 30.3056 23.3334C30.0667 23.5727 29.9814 23.5727 29.7253 23.3676C29.4693 23.1795 29.4523 23.1795 29.64 23.4188C29.8107 23.624 29.8107 23.7266 29.6571 23.8805C29.5376 24.0002 29.5035 24.0857 29.5717 24.0857C29.64 24.0857 29.6059 24.1883 29.4864 24.3251C29.3669 24.4619 29.1963 24.5132 29.0939 24.4619C29.0085 24.4106 29.0427 24.5132 29.1792 24.6842C29.3328 24.8722 29.3499 24.9577 29.2304 24.8722C29.0939 24.8039 29.0085 24.838 29.0085 25.009C29.0085 25.1458 28.9232 25.3168 28.8037 25.3852C28.6842 25.4707 28.6672 25.4365 28.7525 25.2655C28.872 25.0603 28.8549 25.0603 28.633 25.2484C28.4112 25.4194 28.3429 25.4194 28.2746 25.2484C28.2064 25.0945 28.1722 25.0945 28.1722 25.2313C28.1552 25.3339 28.2405 25.4878 28.3258 25.5391C28.4282 25.5904 28.4965 25.7614 28.4965 25.8982C28.4965 26.035 28.4282 26.1034 28.3258 26.0521C28.2405 26.0008 28.1552 26.0692 28.1552 26.206C28.1552 26.3598 28.0528 26.4624 27.9504 26.4453C27.8309 26.4111 27.7455 26.4966 27.7797 26.5992C27.7967 26.7189 27.7285 26.8215 27.6261 26.8215C27.5237 26.8215 27.4725 26.9412 27.5407 27.078C27.5919 27.2319 27.5407 27.3345 27.4042 27.3345C27.2677 27.3345 27.1141 27.5226 27.0629 27.7619C26.9946 28.0013 26.8922 28.1894 26.8068 28.1894C26.7215 28.1894 26.4484 28.4801 26.1754 28.8221C25.9194 29.164 25.8169 29.3863 25.9535 29.3008C26.09 29.2153 25.9706 29.3692 25.7145 29.6086C25.4585 29.8651 25.2879 30.1558 25.3391 30.2413C25.4073 30.3439 25.3903 30.4123 25.3049 30.3952C24.9636 30.3439 24.7246 30.4294 24.827 30.5832C24.8953 30.6858 25.0148 30.7029 25.1172 30.6516C25.2367 30.5832 25.2537 30.6174 25.1855 30.72C25.1172 30.8397 24.9124 30.9252 24.7417 30.9252C24.5198 30.9252 24.4345 31.0107 24.5198 31.1817C24.571 31.3527 24.5198 31.4382 24.3833 31.404C24.2297 31.3698 24.1444 31.4895 24.1614 31.7289C24.1785 31.9511 24.1273 32.1221 24.059 32.1221C23.9908 32.1221 23.7689 32.276 23.547 32.4641C23.3251 32.6522 23.2227 32.8061 23.291 32.8061C23.3593 32.8061 23.2569 32.96 23.035 33.1481C22.5571 33.5584 22.5059 33.5755 22.6424 33.1994C22.7448 32.9429 22.7278 32.9258 22.4888 33.1481C22.3352 33.2848 22.2499 33.4558 22.284 33.5071C22.3523 33.6439 21.772 34.1227 21.3453 34.2595C21.1405 34.3108 21.0211 34.4476 21.0723 34.5331C21.1405 34.6186 21.0893 34.6869 20.9869 34.6869C20.8845 34.6869 20.8504 34.7553 20.9016 34.8579C20.9528 34.9605 20.8333 35.0289 20.6285 35.0289C20.4237 35.0289 20.2872 35.0802 20.3554 35.1315C20.492 35.2683 20.0482 35.7129 19.7922 35.7129C19.6898 35.7129 19.6557 35.7984 19.7239 35.9181C19.8093 36.0549 19.7581 36.072 19.5362 35.9865C19.2802 35.901 19.2631 35.9181 19.4509 36.1403C19.6215 36.3626 19.6045 36.3968 19.2973 36.3968C19.0754 36.3968 18.9389 36.4994 18.9389 36.6704C18.9389 36.8927 18.8877 36.9098 18.6999 36.7559C18.478 36.5678 18.4098 36.6362 18.205 37.2518C18.1708 37.3715 17.198 38.0212 16.8225 38.158C16.6518 38.2264 16.5494 38.3803 16.6006 38.5342C16.6689 38.7052 16.6177 38.7394 16.43 38.671C16.2252 38.5855 16.191 38.6197 16.2934 38.7907C16.3958 38.9616 16.3617 38.9958 16.1398 38.9103C15.9862 38.842 15.8838 38.8591 15.935 38.9445C15.9862 39.0129 15.8326 39.2523 15.6107 39.4404C15.3718 39.6456 15.1841 39.885 15.1841 39.9876C15.1841 40.0731 15.0646 40.1586 14.911 40.1586C14.7574 40.1586 14.7062 40.2441 14.7744 40.3637C14.8598 40.5005 14.8086 40.5005 14.6038 40.3466C14.4502 40.2099 14.3307 40.1757 14.3648 40.2612C14.4502 40.5518 13.6309 41.3384 13.3408 41.2358C13.1531 41.1503 13.1019 41.2016 13.1872 41.4239C13.2725 41.6291 13.2213 41.6975 13.0165 41.6633C12.7605 41.612 12.6922 41.7487 12.5898 42.4669C12.5557 42.655 12.4533 42.9115 12.3338 43.0312C12.2144 43.1508 12.1632 43.356 12.2144 43.4928C12.2826 43.6638 12.2144 43.7493 12.0096 43.7493C11.7706 43.7493 11.7535 43.8006 11.9072 43.8861C12.0608 44.0058 12.0266 44.1939 11.7365 44.7923C11.5317 45.2027 11.3098 45.6815 11.2245 45.8354C11.1562 45.9892 11.1733 46.1773 11.2586 46.2286C11.3439 46.2799 11.3781 46.4338 11.3269 46.5706C11.2586 46.7074 11.1562 46.7929 11.0879 46.7416C11.0026 46.6903 10.9002 46.7245 10.8319 46.8271C10.7807 46.9126 10.7978 46.9981 10.8831 46.9981C11.0709 46.9981 10.8831 48.1779 10.6442 48.5541C10.5759 48.6909 10.4906 48.8618 10.4906 48.9644C10.4735 49.2209 10.2004 50.1443 10.081 50.3323C9.92735 50.6059 9.87615 50.9479 9.80788 52.1277C9.79082 52.7262 9.67135 53.2562 9.56894 53.2904C9.46654 53.3246 9.4324 53.4272 9.48361 53.5127C9.53481 53.6153 9.48361 53.8205 9.34707 53.9744C9.14226 54.2309 9.15933 54.248 9.4324 54.0257C9.70548 53.8034 9.72255 53.8718 9.70548 55.0858C9.68841 55.7868 9.72255 56.4366 9.77375 56.5221C9.82495 56.6076 9.80788 56.7786 9.72255 56.9154C9.65428 57.0351 9.65428 57.3257 9.73961 57.548C9.82495 57.7532 9.82495 57.9413 9.75668 57.9413C9.65428 57.9413 9.65428 59.104 9.77375 60.6771C9.80788 61.002 9.77375 61.4465 9.68841 61.6517C9.62014 61.8569 9.62014 62.0792 9.70548 62.1134C9.77375 62.1647 9.85909 62.4554 9.87615 62.7632C9.91029 63.0709 9.94442 63.4984 9.94442 63.7036C9.96149 63.8917 10.0298 64.0285 10.098 63.9943C10.1663 63.943 10.2687 64.114 10.337 64.3533C10.3882 64.5927 10.5076 64.7808 10.593 64.7808C10.6783 64.7808 10.7466 64.9518 10.7466 65.1741C10.7466 65.3964 10.8149 65.6357 10.9173 65.7383C11.0026 65.8238 11.105 66.1145 11.1221 66.371C11.1391 66.6275 11.2074 66.8327 11.2757 66.8327C11.3781 66.8327 11.5829 67.3114 11.6682 67.7218C11.6682 67.7731 11.7365 67.8928 11.8218 67.9612C11.8901 68.0296 11.9413 68.2177 11.9413 68.3887C11.9413 68.5425 12.0266 68.7135 12.129 68.7477C12.2997 68.799 12.624 69.842 12.6752 70.4576C12.6922 70.6115 12.7434 70.7141 12.8117 70.6628C12.88 70.6286 12.9995 70.8338 13.0507 71.1416C13.1189 71.4493 13.2213 71.74 13.2896 71.7913C13.4432 71.911 14.2112 73.8603 14.2112 74.1167C14.2112 74.2364 14.2795 74.3048 14.3648 74.2535C14.4331 74.2022 14.5014 74.2877 14.5014 74.4245C14.5014 74.5613 14.7744 75.2966 15.0987 76.066C15.4401 76.8184 15.6619 77.5194 15.6107 77.6049C15.5595 77.6904 15.6619 77.8272 15.8155 77.9298C15.9862 78.0153 16.0716 78.1521 16.0033 78.2205C15.918 78.2889 15.9521 78.4427 16.0545 78.5795C16.1569 78.6992 16.191 78.8018 16.1057 78.8018C16.0204 78.8018 16.0374 78.8702 16.1228 78.9386C16.2252 79.007 16.4641 79.4858 16.6518 79.9987C16.9079 80.6998 16.9591 81.0931 16.8567 81.5034C16.7713 81.8112 16.6518 82.0335 16.5665 81.9822C16.4982 81.9309 16.447 82.1703 16.4641 82.4952C16.4641 82.9055 16.3788 83.162 16.191 83.2475C16.0374 83.333 15.8668 83.3672 15.8155 83.3159C15.7814 83.2646 15.7643 83.4698 15.7814 83.7605C15.7985 84.0511 15.7814 84.2563 15.7302 84.205C15.679 84.1537 15.5425 84.2392 15.423 84.4102C15.2694 84.6154 15.2694 84.7693 15.3889 84.9061C15.5083 85.06 15.5083 85.1284 15.3718 85.1284C15.2523 85.1284 15.2182 85.2823 15.2865 85.5558C15.3377 85.7952 15.3206 85.9833 15.2523 85.9833C15.0987 85.9833 15.0475 86.2056 14.9622 87.659C14.911 88.3429 14.9622 88.5994 15.167 88.7191C15.3547 88.8217 15.3718 88.873 15.2182 88.8901C15.0987 88.8901 15.0475 88.9585 15.0987 89.0611C15.1499 89.1637 15.0817 89.1808 14.9451 89.1295C14.7915 89.0782 14.7232 88.9414 14.7915 88.8217C14.8598 88.702 14.8086 88.7191 14.6379 88.8559C14.5014 88.9756 14.2283 89.0098 14.0747 88.9414C13.8699 88.873 13.8016 88.8901 13.8699 89.0098C13.9382 89.1124 13.8699 89.2321 13.7333 89.3005C13.5968 89.3518 13.4773 89.3005 13.4773 89.1808C13.4773 89.044 13.4261 89.044 13.3408 89.1466C13.0507 89.574 12.2314 90.0528 11.9925 89.9673C11.7877 89.8818 11.7535 89.916 11.856 90.087C11.9584 90.258 11.9242 90.2922 11.7365 90.2067C11.5487 90.1383 11.4293 90.2238 11.3781 90.4632C11.3098 90.7026 11.1903 90.7881 11.0026 90.7026C10.8149 90.6342 10.6954 90.7026 10.6271 90.9249C10.5759 91.1471 10.4223 91.2326 10.1322 91.1984C9.87615 91.1813 9.72255 91.2497 9.72255 91.3865C9.72255 91.7114 9.3812 91.6772 8.35717 91.2839C7.87929 91.0958 7.4014 90.9762 7.31607 91.0274C7.23073 91.0958 7.16246 91.0445 7.16246 90.9249C7.16246 90.8052 7.11126 90.7539 7.06006 90.8223C7.00886 90.8736 6.75285 90.8394 6.49684 90.7368C5.91656 90.4974 4.58531 90.4461 4.72185 90.6684C4.79012 90.7539 4.70478 90.7881 4.55118 90.7197C4.3805 90.6684 4.26103 90.6855 4.26103 90.7881C4.26103 90.8907 4.1757 90.9078 4.09036 90.8565C3.98796 90.7881 3.97089 90.6684 4.02209 90.5658C4.09036 90.4461 4.05623 90.429 3.93676 90.4974C3.83435 90.5658 3.78315 90.6855 3.83435 90.771C3.88555 90.8565 3.76608 91.0103 3.56128 91.1129C3.30527 91.2497 3.237 91.2668 3.30527 91.13C3.49301 90.8565 3.30527 90.9078 2.98099 91.2326C2.82739 91.3865 2.53724 91.5233 2.33244 91.5404C2.12763 91.5575 1.64975 91.7114 1.27427 91.8824C0.898789 92.0534 0.540377 92.1731 0.472108 92.1731C0.386772 92.156 0.33557 92.2757 0.33557 92.4466C0.33557 92.6176 0.233167 92.857 0.130763 92.9767C-0.0569764 93.1477 -0.0399092 93.1819 0.164898 93.1306C0.437973 93.0793 0.472108 93.2332 0.557444 94.7892C0.608646 95.8322 0.847587 96.2084 1.75215 96.7555C2.12763 96.9949 2.70792 97.354 3.04926 97.5763C3.3906 97.7815 3.78315 98.0038 3.91969 98.0721C4.05623 98.1405 4.43171 98.3799 4.75598 98.6193C5.33627 99.0639 6.54804 99.2349 6.94059 98.9442C7.06006 98.8587 7.17953 98.8587 7.2478 98.9784C7.299 99.081 7.43554 99.1152 7.52088 99.0468C7.62328 98.9955 8.27183 98.9271 8.97159 98.8929L10.2346 98.8245L11.5487 99.7136C12.8459 100.586 13.2384 101.03 12.7434 101.03C12.5728 101.03 12.5216 101.15 12.5728 101.389C12.6752 101.731 12.1973 102.877 11.856 103.116C11.7535 103.202 11.7535 103.253 11.8901 103.253C11.9925 103.253 12.0437 103.407 11.9925 103.595C11.9413 103.783 11.8389 103.937 11.7706 103.937C11.6853 103.937 11.5829 104.176 11.5146 104.45C11.4463 104.741 11.3269 104.963 11.2415 104.963C11.1391 104.963 11.1221 105.031 11.1733 105.134C11.2245 105.219 11.1903 105.305 11.0879 105.305C10.9855 105.305 10.9514 105.39 11.0026 105.476C11.0538 105.579 11.0367 105.647 10.9685 105.647C10.8831 105.647 10.7978 105.818 10.7636 106.023C10.6442 106.844 10.7636 108.383 10.9514 108.28C11.0026 108.246 11.0367 108.451 11.0197 108.759C10.9855 109.067 11.0367 109.357 11.105 109.409C11.1733 109.46 11.2757 109.768 11.3098 110.093C11.4634 111.255 11.7023 111.563 13.1701 112.435C14.7403 113.376 15.2694 113.615 15.0817 113.307C14.9963 113.17 15.0475 113.153 15.2523 113.222C15.423 113.29 15.5083 113.273 15.4401 113.17C15.3889 113.068 15.423 112.999 15.5254 112.999C15.6278 112.999 15.6619 112.914 15.6107 112.828C15.5425 112.726 15.4059 112.709 15.3035 112.777C15.1841 112.845 15.2011 112.777 15.3377 112.606C15.4571 112.452 15.679 112.315 15.8155 112.315C15.9521 112.315 16.0033 112.23 15.9521 112.144C15.9009 112.042 15.935 111.973 16.0204 111.973C16.1228 111.973 16.191 111.905 16.174 111.837C16.1057 111.614 17.0103 110.606 17.1468 110.742C17.2321 110.811 17.2321 110.777 17.1639 110.657C17.1127 110.554 17.1297 110.417 17.2151 110.366C17.3004 110.315 17.3345 110.11 17.2833 109.922C17.2151 109.648 17.2492 109.597 17.4881 109.699C17.6929 109.768 17.7612 109.751 17.6759 109.614C17.6247 109.511 17.71 109.357 17.8636 109.255C18.0343 109.152 18.1196 109.067 18.0343 109.067C17.8636 109.067 18.7852 107.699 18.9559 107.699C19.0413 107.699 19.0925 107.63 19.0583 107.545C18.9901 107.254 19.6898 106.331 19.9117 106.399C20.0482 106.451 20.0824 106.382 20.0141 106.211C19.9288 106.006 19.9629 105.972 20.1336 106.074C20.2701 106.16 20.3213 106.143 20.253 106.04C20.2018 105.955 20.253 105.579 20.3725 105.219C20.509 104.826 20.6456 104.672 20.6968 104.809C20.748 104.946 20.7992 104.895 20.7992 104.655C20.8162 104.45 20.9016 104.279 20.9869 104.279C21.0893 104.279 21.1576 104.074 21.1576 103.834C21.1576 103.595 21.2259 103.441 21.3283 103.51C21.4307 103.561 21.4989 103.475 21.4989 103.321C21.4989 103.15 21.6184 102.894 21.7549 102.74C21.9086 102.569 22.0451 102.278 22.0963 102.073C22.1304 101.885 22.284 101.543 22.4206 101.338C22.5742 101.133 22.6936 100.808 22.6936 100.637C22.6936 100.466 22.7619 100.38 22.8643 100.432C22.9497 100.483 23.035 100.38 23.035 100.209C23.035 100.021 23.1545 99.782 23.291 99.6623C23.4446 99.5426 23.5129 99.4059 23.4787 99.3546C23.4275 99.3204 23.4958 99.0297 23.6323 98.7219C23.7518 98.397 23.8201 98.1063 23.7518 98.055C23.7006 98.0038 23.7518 97.9525 23.8713 97.9525C23.9908 97.9525 24.042 97.8841 23.9737 97.7986C23.9225 97.696 24.0249 97.5592 24.1785 97.4566C24.4004 97.3198 24.4174 97.2856 24.2468 97.2685C24.042 97.2685 24.059 97.2172 24.2809 97.0462C24.4516 96.9436 24.5881 96.6017 24.6222 96.2939C24.6393 96.0032 24.7076 95.798 24.7929 95.8493C24.8612 95.8835 24.9124 95.7296 24.9124 95.4902C24.9124 95.2508 24.8441 95.0115 24.7417 94.9602C24.6393 94.8918 24.6564 94.7379 24.7758 94.5327C24.8953 94.3617 25.0319 94.242 25.1001 94.2933C25.1684 94.3275 25.2025 94.1223 25.1855 93.8487C25.1684 93.5581 25.2025 93.3358 25.2708 93.3358C25.3391 93.3358 25.3732 92.9596 25.3561 92.4979C25.3391 92.0021 25.4073 91.6943 25.5097 91.7285C25.6121 91.7627 25.6975 91.5917 25.7145 91.3352C25.7316 91.0616 25.7828 90.6171 25.8511 90.3435C25.9023 90.0528 25.9706 89.6766 25.9706 89.4886C25.9876 89.3005 26.09 89.0953 26.1754 89.0269C26.2948 88.9414 26.2948 88.8901 26.1583 88.8901C26.0047 88.8901 25.9876 88.7704 26.1071 88.4455C26.2095 88.2061 26.2436 87.9326 26.1754 87.8471C26.1242 87.7616 26.1583 87.6932 26.2436 87.6932C26.4314 87.6932 26.602 87.0092 26.7215 85.8123C26.7556 85.3848 26.8239 84.8548 26.858 84.6154C26.8922 84.376 26.9263 84.0169 26.9434 83.7947C26.9434 83.5724 27.0287 83.4356 27.1141 83.4869C27.1823 83.5382 27.2165 83.3843 27.1653 83.162C27.1311 82.9226 27.1653 82.7345 27.2677 82.7345C27.3871 82.7345 27.4383 82.4781 27.4042 82.119C27.3871 81.7941 27.4213 81.4863 27.4895 81.435C27.5749 81.4008 27.5749 81.2298 27.5237 81.076C27.4554 80.905 27.4895 80.8366 27.5919 80.905C27.7114 80.9905 27.7455 80.8879 27.6773 80.6485C27.609 80.3749 27.6431 80.3236 27.8309 80.4262C28.0357 80.563 28.0357 80.5288 27.8309 80.2894C27.6261 80.0329 27.6431 79.9987 28.0016 79.9816C28.3088 79.9645 28.3258 79.9303 28.104 79.879C27.865 79.8106 27.8309 79.691 27.9162 79.178C27.9845 78.836 28.0869 78.4598 28.1552 78.3743C28.2234 78.2718 28.2917 77.9469 28.3088 77.6391C28.36 76.6816 28.3941 76.408 28.4965 76.408C28.5477 76.408 28.5818 76.1002 28.5648 75.724C28.5648 75.365 28.616 75.0914 28.7013 75.1427C28.8378 75.2282 28.9061 74.7665 28.8378 74.0313C28.8208 73.7406 28.872 73.6722 29.0427 73.7748C29.1963 73.8603 29.1963 73.809 29.0085 73.5867C28.8549 73.3986 28.8378 73.3131 28.9744 73.3986C29.1109 73.4841 29.1792 73.3644 29.1792 73.0053C29.1792 72.6975 29.2645 72.4753 29.4011 72.4753C29.5376 72.4753 29.5547 72.424 29.4181 72.3385C29.2133 72.2017 29.5376 70.9877 29.7424 71.0561C30.0326 71.1758 30.2203 71.0903 30.1008 70.9022C30.0326 70.7996 30.0496 70.7654 30.152 70.8167C30.2544 70.8851 30.6128 70.7483 30.9542 70.5089C31.2955 70.2866 31.5686 70.1327 31.5686 70.2011C31.5686 70.2524 31.7051 70.2011 31.8758 70.0643C32.2172 69.7908 32.8828 69.3975 33.0193 69.3975C33.0876 69.3975 33.0705 69.483 33.0023 69.6027C32.9169 69.7224 32.9511 69.7395 33.0876 69.6711C33.3095 69.5172 34.2994 69.8591 34.2994 70.0814C34.2994 70.2011 34.453 70.2695 35.1527 70.4918C35.2039 70.5089 35.4258 70.6457 35.6647 70.7996C35.9037 70.9535 36.2962 71.1758 36.5352 71.2783C36.8594 71.4322 36.9619 71.6032 36.9789 72.0136C36.9789 72.3214 36.8936 72.6121 36.7912 72.6804C36.6717 72.7659 36.7229 72.8172 36.9277 72.8172C37.2008 72.8172 37.2179 72.9198 37.1496 73.5867C37.0813 74.0825 37.1155 74.3219 37.2179 74.2535C37.3885 74.1509 37.3203 74.8862 37.1325 75.194C37.0643 75.2795 37.1325 75.3821 37.2349 75.4334C37.4056 75.4846 37.4056 75.5872 37.2349 75.895C37.0813 76.1515 37.0643 76.237 37.2008 76.1515C37.3544 76.0489 37.3544 76.1173 37.2179 76.3738C37.1155 76.579 37.0131 76.9209 36.996 77.1603C36.9789 77.4168 36.8594 77.6049 36.7229 77.6049C36.4498 77.6049 36.1597 78.323 36.3474 78.5282C36.4328 78.6137 36.3304 78.8189 36.1256 79.007C35.9208 79.1951 35.8525 79.2977 35.972 79.2293C36.245 79.0925 36.228 79.3148 35.9208 79.7251C35.7842 79.8961 35.7159 80.1184 35.7842 80.221C35.8354 80.3236 35.8013 80.3407 35.6989 80.2723C35.5794 80.2039 35.4941 80.2381 35.4941 80.3407C35.4941 80.4433 35.4087 80.4775 35.2893 80.4091C35.1357 80.3236 35.1357 80.3749 35.3063 80.563C35.477 80.7853 35.477 80.8537 35.3234 80.8537C35.2039 80.8537 35.1527 80.9563 35.2039 81.0931C35.3405 81.435 35.1357 81.5718 34.8455 81.3153C34.6236 81.1443 34.6066 81.1614 34.7772 81.4863C34.9479 81.777 34.9309 81.9138 34.709 82.119C34.5042 82.3242 34.5042 82.3926 34.6748 82.3926C34.8284 82.3926 34.8455 82.4268 34.6919 82.5293C34.5895 82.5977 34.453 82.8542 34.3847 83.1107C34.3164 83.3672 34.1628 83.6579 34.0263 83.7776C33.8897 83.8802 33.8215 84.034 33.8727 84.1024C33.9068 84.1708 33.7873 84.3931 33.5996 84.5812C33.4119 84.7864 33.3436 84.9574 33.4631 84.9574C33.5996 84.9574 33.5996 85.0258 33.4801 85.1626C33.2924 85.4019 33.2753 85.4703 33.2753 85.9149C33.2753 86.0517 33.2071 86.1372 33.1388 86.0859C33.0535 86.0346 33.0023 86.2569 33.0193 86.5818C33.0193 86.975 32.9681 87.1118 32.8657 87.0092C32.5926 86.7357 32.3878 86.8211 32.5073 87.1631C32.5585 87.3512 32.5244 87.5393 32.439 87.5906C32.3366 87.659 32.3025 87.8129 32.3708 87.9497C32.422 88.1378 32.3366 88.2061 32.0806 88.2061C31.7734 88.2061 31.7393 88.2574 31.8929 88.4284C32.0294 88.5994 32.0124 88.7191 31.8587 88.8901C31.6881 89.0611 31.7051 89.0782 31.8929 88.9756C32.0465 88.8901 32.0124 88.9927 31.8246 89.3005C31.671 89.5399 31.4662 89.6937 31.3809 89.6424C31.2955 89.5911 31.2273 89.6253 31.2273 89.7279C31.2273 89.8134 31.3297 89.9331 31.4491 89.9673C31.5686 90.0186 31.5345 90.0699 31.3467 90.0699C31.1761 90.087 31.0566 90.1896 31.0737 90.2922C31.1249 90.5316 30.903 91.6259 30.7664 91.8482C30.7152 91.9166 30.5958 91.8995 30.4763 91.814C30.3227 91.6943 30.2715 91.7456 30.2715 92.0534C30.2715 92.2928 30.3398 92.4808 30.408 92.4808C30.5787 92.4808 30.2032 93.1819 29.896 93.4213C29.7765 93.5239 29.6571 93.8146 29.64 94.071C29.6229 94.3275 29.4864 94.6182 29.3499 94.7037C29.128 94.8576 29.128 94.8747 29.3499 94.8747C29.5717 94.8747 29.5717 94.8918 29.3499 95.0457C29.1621 95.1654 29.1621 95.2167 29.3157 95.2167C29.4864 95.2167 29.4864 95.2679 29.3157 95.456C29.1963 95.5928 29.0256 95.6441 28.9232 95.5928C28.8378 95.5415 28.8037 95.5586 28.872 95.6441C28.9403 95.7125 28.9061 95.9006 28.7866 96.0374C28.616 96.2597 28.633 96.2768 28.8378 96.1571C29.0427 96.0374 29.0597 96.0545 28.8891 96.2768C28.7696 96.4136 28.7354 96.5846 28.8037 96.6529C28.872 96.7213 28.8549 96.7555 28.7525 96.7213C28.6672 96.6871 28.5818 96.7213 28.5818 96.7726C28.5818 96.8239 28.4794 96.9949 28.3429 97.1488C28.2234 97.3198 28.1722 97.4395 28.2405 97.4395C28.3088 97.4395 28.2405 97.6447 28.0698 97.8841C27.865 98.1918 27.8479 98.2944 28.0016 98.2089C28.1552 98.1405 28.1552 98.1747 27.9845 98.3286C27.8479 98.4483 27.6943 98.7048 27.6773 98.8929C27.6431 99.081 27.5237 99.3375 27.4213 99.4742C27.3018 99.5939 27.2165 99.7991 27.2165 99.9017C27.1994 100.004 27.1482 100.209 27.097 100.346C27.0287 100.483 26.9434 100.825 26.8922 101.082C26.8239 101.372 26.7044 101.509 26.585 101.441C26.4484 101.355 26.4314 101.406 26.4996 101.594C26.5508 101.765 26.5338 101.885 26.4314 101.885C26.329 101.885 26.3119 101.954 26.3631 102.056C26.4143 102.142 26.3802 102.227 26.2778 102.227C26.1754 102.227 26.1412 102.296 26.1924 102.398C26.2436 102.484 26.2095 102.569 26.1242 102.569C26.0218 102.569 25.9364 102.655 25.9364 102.757C25.9364 102.843 26.0218 102.877 26.1412 102.809C26.2436 102.74 26.2778 102.757 26.2266 102.86C26.1583 102.962 26.073 103.475 26.0218 104.023C25.9706 104.553 25.8511 105.151 25.7828 105.356C25.6975 105.561 25.6633 105.869 25.6804 106.04C25.7145 106.194 25.6804 106.331 25.5951 106.331C25.5268 106.331 25.4927 106.485 25.5439 106.673C25.5951 106.861 25.578 107.152 25.5097 107.305C25.4415 107.476 25.3561 107.87 25.3391 108.178C25.2708 108.947 25.066 109.973 24.9465 110.161C24.8953 110.264 24.827 110.571 24.81 110.879C24.7929 111.187 24.7246 111.512 24.6734 111.614C24.6052 111.7 24.6393 111.837 24.7417 111.888C24.8783 111.973 24.8612 112.076 24.7246 112.247C24.6222 112.384 24.5881 112.486 24.6734 112.486C24.8612 112.486 24.8612 113.854 24.6905 114.162C24.6052 114.299 24.6564 114.367 24.827 114.367C24.9807 114.367 25.0489 114.453 24.9977 114.538C24.9295 114.641 24.81 114.675 24.7246 114.624C24.6393 114.555 24.571 114.607 24.571 114.692C24.571 114.795 24.6393 114.88 24.7076 114.88C24.7758 114.88 24.8441 115.256 24.827 115.718C24.827 116.18 24.8783 116.522 24.9636 116.47C25.0319 116.436 25.0831 116.488 25.0831 116.573C25.0831 116.676 24.9807 116.761 24.8441 116.761C24.6222 116.761 24.6222 116.83 24.827 117.223C24.9636 117.479 25.0319 117.719 24.9977 117.787C24.9636 117.838 25.1001 118.095 25.3049 118.334C25.7828 118.881 30.5104 122.763 30.7664 122.814C30.8859 122.831 31.2785 122.985 31.6539 123.156C32.0294 123.327 32.7292 123.601 33.19 123.772C33.6679 123.943 34.5895 124.302 35.2381 124.575C36.3474 125.037 37.1496 125.14 36.9448 124.798C36.8936 124.729 37.0131 124.695 37.2008 124.746C37.4056 124.798 37.5421 124.746 37.5421 124.609C37.5421 124.49 37.5933 124.456 37.6445 124.507C37.8323 124.695 38.4126 124.285 38.2931 124.062C38.2078 123.908 38.2248 123.908 38.3955 124.062C38.6344 124.285 39.0953 124.114 39.5561 123.652C39.6755 123.532 39.9657 123.43 40.2046 123.43C40.4265 123.43 40.6142 123.361 40.6142 123.259C40.6142 123.173 40.802 123.053 41.0409 122.985C41.2799 122.934 41.4676 122.814 41.4676 122.711C41.4676 122.626 41.5359 122.592 41.6212 122.66C41.7065 122.711 41.9113 122.575 42.0479 122.37C42.2015 122.164 42.321 122.079 42.321 122.216C42.321 122.352 42.4746 122.318 42.7647 122.079C43.0207 121.874 43.345 121.72 43.4986 121.72C43.9424 121.72 44.6762 120.796 44.5226 120.403C44.4544 120.232 44.352 119.429 44.2837 118.642C44.2154 117.838 44.096 117.035 44.0277 116.83C43.9424 116.641 43.9082 116.214 43.9253 115.889C43.9594 115.564 43.9082 115.12 43.8399 114.88C43.7546 114.641 43.6693 114.145 43.6351 113.769C43.6181 113.393 43.5498 112.999 43.4986 112.914C43.4474 112.811 43.4303 112.572 43.4474 112.35C43.4474 112.144 43.4133 111.973 43.3279 111.973C43.2597 111.973 43.2255 111.82 43.2597 111.631C43.2938 111.443 43.2597 111.255 43.1743 111.204C43.0207 111.101 43.0719 110.024 43.2597 109.443C43.345 109.203 43.3109 109.067 43.1914 109.067C43.1061 109.067 43.0549 109.203 43.1061 109.357C43.1914 109.614 43.1743 109.631 43.0207 109.409C42.9183 109.255 42.9183 109.084 43.0037 108.998C43.0719 108.93 43.1061 108.742 43.0549 108.605C43.0037 108.468 43.0549 108.383 43.1914 108.417C43.3279 108.451 43.4133 108.349 43.4133 108.16C43.3962 108.007 43.4645 107.87 43.5498 107.87C43.6522 107.87 43.6863 107.716 43.6351 107.528C43.5839 107.34 43.6181 107.186 43.7205 107.186C43.8229 107.186 43.857 107.032 43.8058 106.844C43.7546 106.656 43.7717 106.502 43.8229 106.502C43.8911 106.502 44.0277 106.314 44.1472 106.074C44.2496 105.835 44.2837 105.681 44.1984 105.732C44.1301 105.784 44.0106 105.698 43.9594 105.544C43.9082 105.408 43.9253 105.322 44.0106 105.39C44.096 105.442 44.2154 105.254 44.2837 104.963C44.352 104.672 44.4544 104.484 44.5397 104.535C44.7445 104.655 44.8469 103.8 44.6592 103.612C44.5226 103.475 44.5397 103.424 44.6762 103.424C44.7957 103.424 44.881 103.304 44.881 103.168C44.881 103.031 44.9664 102.911 45.0688 102.911C45.1541 102.911 45.1883 102.826 45.1371 102.74C45.0859 102.638 45.1029 102.569 45.1883 102.569C45.3419 102.569 45.3931 102.278 45.3931 101.509C45.3931 101.253 45.4613 101.013 45.5637 100.945C45.8197 100.791 45.7685 100.483 45.5296 100.603C45.4101 100.671 45.4272 100.62 45.5637 100.483C45.7173 100.363 45.9392 99.7991 46.0758 99.2349C46.1952 98.6706 46.3488 98.1234 46.4171 98.038C46.4854 97.9354 46.6219 97.5421 46.7414 97.1317C46.8438 96.7384 47.0145 96.4136 47.0998 96.4136C47.1851 96.4136 47.2193 96.1742 47.1851 95.8664C47.151 95.5757 47.2363 95.1141 47.3729 94.8405C47.5094 94.584 47.5777 94.3617 47.5094 94.3617C47.4411 94.3617 47.4753 94.2591 47.5947 94.1394C47.6971 94.0026 47.7483 93.7462 47.6971 93.541C47.663 93.3358 47.6971 93.1648 47.7995 93.1648C47.8849 93.1648 47.9531 92.9767 47.9531 92.7373C47.9531 92.515 48.0556 92.2415 48.175 92.156C48.8918 91.5575 49.3527 91.1129 49.2161 91.1129C49.1308 91.1129 49.3697 90.9078 49.7452 90.6513C50.1207 90.3948 50.4791 90.1896 50.5474 90.2238C50.6156 90.2409 50.6327 90.1554 50.5815 90.0357C50.445 89.6424 51.0935 89.2492 52.0493 89.1295C52.5613 89.0782 53.0904 88.9414 53.2099 88.8559C53.3123 88.7533 53.4147 88.7362 53.4147 88.8217C53.4147 88.9072 53.4829 88.873 53.5683 88.7362C53.7901 88.3771 54.3363 88.6507 55.8382 89.8647C56.8793 90.7197 56.9988 90.8565 56.7428 91.0445C56.5892 91.1642 56.555 91.2839 56.6404 91.301C56.7598 91.3523 56.7257 91.5575 56.555 91.8824C56.1796 92.6005 56.1113 93.0451 56.3673 93.199C56.5038 93.2845 56.4697 93.3358 56.2308 93.3358C55.9406 93.3358 55.9235 93.37 56.1454 93.5239C56.3673 93.6778 56.3673 93.6949 56.1454 93.6265C55.9577 93.5752 55.9065 93.37 55.9406 92.8912C55.9747 92.5321 55.9406 92.2928 55.8723 92.3612C55.8041 92.4295 55.7358 92.9596 55.7358 93.5581C55.7187 94.3959 55.6675 94.6011 55.4627 94.5669C55.275 94.5156 55.2921 94.584 55.531 94.8576C55.8211 95.1654 55.8211 95.2337 55.5822 95.7296C55.4286 96.0032 55.3774 96.2084 55.4627 96.1571C55.531 96.1058 55.4627 96.3794 55.275 96.7384C54.8995 97.525 54.8824 97.6789 55.1555 97.5079C55.275 97.4224 55.2921 97.4566 55.2067 97.6276C55.1214 97.7473 55.0531 98.055 55.0361 98.2944C55.0361 98.5338 54.9166 98.91 54.78 99.1494C54.6435 99.3888 54.5582 99.6452 54.5752 99.7307C54.6094 99.7991 54.507 100.056 54.3534 100.278C54.1827 100.534 54.1656 100.688 54.2851 100.688C54.4046 100.688 54.3704 100.842 54.1998 101.116C54.0462 101.355 53.9608 101.543 54.0291 101.543C54.0974 101.543 54.0462 101.646 53.9437 101.783C53.7901 101.971 53.7901 102.039 53.9608 102.107C54.1315 102.176 54.1315 102.21 53.9779 102.21C53.8584 102.227 53.756 102.347 53.756 102.501C53.756 102.655 53.8413 102.706 53.9608 102.638C54.0803 102.569 54.0974 102.586 54.0291 102.723C53.9608 102.826 53.8413 102.877 53.756 102.826C53.6707 102.774 53.5683 102.809 53.5 102.911C53.4488 102.997 53.5171 103.082 53.6536 103.082C53.8243 103.082 53.8755 103.185 53.8243 103.339C53.756 103.475 53.6707 103.561 53.6024 103.527C53.5341 103.475 53.4829 103.646 53.5 103.903C53.5 104.159 53.4147 104.518 53.2952 104.724C53.1757 104.912 53.1245 105.134 53.1928 105.185C53.244 105.254 53.2269 105.305 53.1245 105.305C53.0392 105.305 52.9538 105.51 52.9709 105.784C52.988 106.04 52.8856 106.348 52.7661 106.485C52.5784 106.69 52.5784 106.741 52.7661 106.861C52.9368 106.964 52.9026 107.015 52.6637 107.015C52.4077 107.015 52.3736 107.066 52.5101 107.203C52.7149 107.408 52.6125 107.921 52.3906 107.784C52.3053 107.733 52.2712 107.836 52.3053 107.989C52.3224 108.16 52.237 108.554 52.1176 108.879C51.8957 109.409 51.8957 109.443 52.1688 109.221C52.4589 108.998 52.4589 109.015 52.2029 109.323C51.7933 109.836 51.7079 110.195 51.9298 110.435C52.0834 110.606 52.0664 110.64 51.8615 110.554C51.6397 110.486 51.5885 110.571 51.6226 110.999C51.6397 111.307 51.5714 111.649 51.4861 111.751C51.3837 111.905 51.3837 112.059 51.5031 112.196C51.6055 112.315 51.7421 112.794 51.7933 113.256C51.8615 113.735 51.9981 114.213 52.1176 114.35C52.2712 114.555 52.2541 114.572 52.0493 114.453C51.8445 114.333 51.8274 114.35 51.9981 114.555C52.1005 114.692 52.2541 115.171 52.3224 115.65C52.3906 116.111 52.4589 116.539 52.476 116.59C52.476 116.641 52.5784 116.847 52.6978 117.035C52.8002 117.24 52.8344 117.445 52.7832 117.513C52.5272 117.77 53.4488 118.916 54.9507 120.147L56.5721 121.497L57.8521 121.532C60.2245 121.617 60.5829 121.634 60.5829 121.72C60.5829 121.942 62.3238 121.737 62.7334 121.463C63.0406 121.275 63.143 121.241 63.0577 121.395C62.9723 121.532 63.1259 121.446 63.3649 121.224C63.6209 120.985 63.8257 120.882 63.8257 120.967C63.8257 121.053 63.911 120.985 63.9963 120.831C64.0988 120.677 64.406 120.506 64.679 120.437C64.9692 120.369 65.1911 120.249 65.1911 120.164C65.1911 120.061 65.2423 120.027 65.3276 120.078C65.3959 120.112 65.6348 120.044 65.8737 119.89C66.1298 119.753 66.1639 119.685 65.9761 119.753C65.7031 119.839 65.686 119.805 65.8737 119.582C65.9932 119.446 66.1468 119.377 66.2492 119.429C66.3346 119.48 66.5052 119.446 66.6247 119.343C66.8466 119.155 67.205 119.172 67.7511 119.36C68.1949 119.531 69.9528 119.856 70.7891 119.941C71.5571 120.027 72.274 120.13 72.274 120.181C72.274 120.181 72.7177 120.232 73.2639 120.283C73.9807 120.335 74.2367 120.301 74.2367 120.147C74.2367 119.822 75.1242 117.531 75.2778 117.479C75.3461 117.445 75.3802 117.325 75.329 117.189C75.2778 117.069 75.3119 116.915 75.4143 116.864C75.5167 116.795 75.5509 116.641 75.4826 116.488C75.4314 116.351 75.5338 116.077 75.7045 115.872C75.9946 115.547 75.9946 115.513 75.7215 115.616C75.4485 115.718 75.4485 115.701 75.7045 115.308C75.8581 115.068 76.0629 114.88 76.1653 114.88C76.2677 114.88 76.1994 114.761 76.0117 114.624C75.6874 114.367 75.6874 114.367 76.0287 114.487C76.336 114.59 76.353 114.572 76.1141 114.282C75.9775 114.111 75.9434 114.008 76.0287 114.06C76.1312 114.111 76.3018 114.06 76.4213 113.923C76.5408 113.786 76.5578 113.683 76.4554 113.683C76.3701 113.683 76.2848 113.598 76.2848 113.495C76.2848 113.41 76.3701 113.376 76.4554 113.427C76.5578 113.478 76.6261 113.461 76.6261 113.358C76.6261 113.273 76.5578 113.136 76.4554 113.085C76.353 113.016 76.3872 112.811 76.5578 112.555C76.7797 112.247 76.7797 112.144 76.609 112.144C76.4384 112.144 76.4384 112.093 76.5749 111.956C76.6773 111.854 76.7285 111.649 76.6773 111.529C76.6261 111.392 76.6602 111.29 76.7285 111.29C76.8138 111.29 76.8992 110.999 76.8992 110.64C76.9333 109.768 77.1381 108.485 77.2747 108.383C77.4453 108.263 77.4283 106.502 77.2747 106.604C77.2064 106.656 77.1893 106.451 77.2576 106.143C77.3429 105.698 77.3088 105.63 77.1211 105.732C76.9162 105.852 76.9162 105.835 77.104 105.613C77.2576 105.425 77.2747 105.305 77.1381 105.219C77.0357 105.168 77.0186 105.031 77.0869 104.912C77.3429 104.501 77.3771 102.74 77.1211 102.74C77.0698 102.74 77.0016 102.107 76.9845 101.321C76.9674 100.551 76.9504 99.5939 76.9333 99.2007C76.9333 98.7732 76.848 98.5167 76.7626 98.568C76.6602 98.6364 76.6602 98.568 76.7626 98.3628C76.9162 98.055 76.8821 95.9348 76.7285 95.7638C76.6773 95.7296 76.7114 95.5415 76.8138 95.3705C76.8992 95.1825 76.9162 95.0457 76.848 95.0457C76.6944 95.0457 76.6944 92.0534 76.848 91.0787C76.8992 90.7368 77.0698 90.2067 77.2235 89.9331C77.36 89.6424 77.4453 89.4031 77.3771 89.4031C77.3088 89.4031 77.3771 89.2663 77.4965 89.1124C77.7013 88.8559 77.7013 88.8388 77.4795 88.9756C77.2747 89.0953 77.2576 89.0782 77.4283 88.8559C77.5477 88.7191 77.5989 88.5481 77.5307 88.4968C77.4795 88.4284 77.5136 88.3771 77.616 88.3771C77.7184 88.3771 77.8037 88.2403 77.8037 88.0694C77.8037 87.9155 77.872 87.5051 77.9744 87.1802C78.384 85.7781 78.4694 85.2994 78.3158 85.1968C78.2304 85.1455 78.2304 84.9574 78.3328 84.7693C78.4352 84.5812 78.4694 84.3418 78.4011 84.2392C78.3328 84.1366 78.2475 83.3501 78.2304 82.4952C78.1792 81.1785 77.9915 80.05 77.5648 78.6308C77.5307 78.494 77.3771 77.9127 77.2405 77.3484L77.0016 76.3225L78.0085 77.4339C78.5547 78.0495 79.1009 78.7334 79.2203 78.9557C79.3398 79.1951 79.6129 79.5713 79.8347 79.7935C80.0395 80.0329 80.2102 80.3236 80.2102 80.4433C80.2102 80.5801 80.2785 80.6827 80.3468 80.6827C80.6028 80.6827 81.2513 82.0164 81.2855 82.5977C81.3025 82.9055 81.3879 83.2133 81.4561 83.2646C81.5415 83.3159 81.6097 83.6066 81.6097 83.8973C81.6268 84.1879 81.678 84.3931 81.7463 84.3589C81.8145 84.3076 81.8657 84.5299 81.8316 84.8206C81.8145 85.1284 81.8828 85.5387 82.0023 85.7268C82.1218 85.9491 82.173 86.5818 82.1388 87.5222C82.1047 88.3258 82.0705 89.1124 82.0705 89.2663C82.0705 89.4373 82.0023 89.574 81.9169 89.574C81.8316 89.574 81.8316 89.7792 81.8999 90.0528C81.9852 90.3093 81.9681 90.6855 81.8999 90.9078C81.8145 91.1129 81.8145 91.2839 81.8828 91.2839C81.9511 91.2839 82.0023 91.6259 82.0023 92.0363C82.0023 92.515 81.9511 92.7202 81.8657 92.6005C81.7804 92.4808 81.7463 92.5834 81.7975 92.8741C81.8316 93.1306 81.8145 93.3871 81.7292 93.4384C81.6609 93.4726 81.6268 93.6265 81.6951 93.7633C81.7463 93.9 81.6951 94.0197 81.5756 94.0197C81.4732 94.0197 81.4391 94.1052 81.4903 94.1907C81.5756 94.3275 81.6951 94.3104 81.8828 94.1565C82.1218 93.9684 82.1218 94.0026 81.8657 94.3959C81.678 94.7037 81.6439 94.8747 81.7633 94.8747C81.8999 94.8747 81.8999 94.9431 81.7633 95.1141C81.6097 95.3021 81.6097 95.3876 81.7633 95.4731C81.8999 95.5757 81.8999 95.627 81.7463 95.7296C81.6097 95.8151 81.5756 95.9861 81.6609 96.1742C81.8657 96.67 81.8657 97.2685 81.6609 97.2685C81.5756 97.2685 81.6097 97.354 81.7463 97.4395C81.9681 97.5934 81.9681 97.6105 81.7463 97.6105C81.5415 97.6105 81.5415 97.6447 81.7292 97.7644C81.8828 97.867 81.8999 97.9525 81.7633 98.0209C81.6609 98.0892 81.5756 98.2431 81.5756 98.3457C81.5756 98.4654 81.6439 98.4483 81.7463 98.2944C81.8487 98.1405 81.9169 98.1234 81.9169 98.2431C81.9169 98.3457 81.8316 98.4996 81.7463 98.5509C81.6268 98.6193 81.6439 98.7732 81.7633 99.0126C81.8657 99.2007 81.9169 99.6281 81.8657 99.9359C81.8145 100.244 81.8316 100.517 81.8999 100.551C82.1388 100.637 82.7703 102.261 82.6508 102.449C82.5996 102.552 82.6338 102.569 82.7362 102.501C82.8727 102.415 82.941 102.535 82.941 102.877C82.941 103.133 83.0946 103.527 83.2823 103.732C83.4701 103.937 83.6237 104.211 83.6237 104.347C83.6237 104.724 84.3405 105.134 84.7842 105.014C84.989 104.963 85.1597 104.86 85.1597 104.775C85.1597 104.689 85.3987 104.621 85.6717 104.621C85.996 104.621 86.235 104.518 86.3032 104.347C86.3544 104.211 86.508 104.125 86.6275 104.176C86.747 104.228 86.9688 104.091 87.1224 103.886C87.3443 103.578 87.3785 103.561 87.3785 103.817C87.3785 104.074 87.4126 104.091 87.6174 103.903C87.7539 103.783 87.8222 103.629 87.7881 103.578C87.7539 103.51 87.8393 103.407 87.9929 103.356C88.1636 103.287 88.2148 103.321 88.1465 103.475C88.0782 103.578 88.1806 103.492 88.3684 103.253C88.5561 103.031 88.6756 102.774 88.6414 102.706C88.5902 102.638 88.6926 102.62 88.8462 102.689C89.051 102.757 89.1022 102.74 89.0169 102.603C88.9486 102.484 89.0681 102.33 89.3241 102.21C89.5972 102.073 89.7167 101.902 89.6825 101.68C89.6313 101.441 89.6825 101.372 89.8532 101.441C90.0068 101.492 90.058 101.441 89.9897 101.27C89.9385 101.133 89.9556 101.03 90.0409 101.064C90.1263 101.082 90.3994 100.911 90.6554 100.654C90.8943 100.398 91.0138 100.158 90.9284 100.141C90.826 100.107 90.8602 99.953 91.0138 99.7991C91.1674 99.6623 91.2527 99.4913 91.2015 99.4401C91.1503 99.3888 91.065 98.9271 91.0308 98.4312C90.8772 96.3794 90.809 95.4218 90.7748 95.285C90.7578 95.1996 90.7748 95.0799 90.7919 94.9944C90.8943 94.7208 90.8772 93.8829 90.7748 93.9513C90.7066 93.9855 90.6724 93.2845 90.6895 92.3954C90.6895 91.5062 90.7578 90.771 90.826 90.771C91.0308 90.771 91.8671 91.9166 91.9183 92.2586C91.9354 92.4295 92.0549 92.8741 92.1573 93.2503C92.2597 93.6265 92.3792 94.1052 92.4133 94.3104C92.4645 94.5156 92.584 94.9089 92.7034 95.1654C92.8058 95.4389 92.8741 95.7467 92.857 95.8664C92.84 95.969 92.9082 96.0716 92.9936 96.0716C93.0789 96.0716 93.2837 96.2768 93.4203 96.5504C93.7957 97.2685 94.4272 98.5338 94.4443 98.6364C94.4784 98.7903 95.4854 100.09 95.7243 100.278C95.9633 100.466 97.1068 100.209 97.1068 99.953C97.1068 99.8675 97.1921 99.8675 97.3116 99.9359C97.414 100.004 97.4481 99.9872 97.3969 99.8846C97.3287 99.7991 97.5335 99.4913 97.8236 99.2178C98.1308 98.9442 98.2674 98.8758 98.1308 99.0639C97.9943 99.252 98.2162 99.1152 98.6258 98.7561C99.0524 98.4141 99.445 98.1234 99.5303 98.1234C99.5986 98.1234 99.6669 97.9696 99.6669 97.7986C99.6669 97.6105 99.7693 97.4224 99.8887 97.3882C100.042 97.3198 100.042 97.2514 99.8546 97.1317C99.7181 97.0291 99.701 96.9265 99.8034 96.8581C99.9911 96.7555 99.9399 95.9861 99.7181 95.6783C99.6327 95.5586 99.5815 94.7208 99.5815 93.8146C99.5815 92.8912 99.5474 92.1389 99.4962 92.1389C99.3597 92.1389 99.4279 90.3435 99.5474 90.1212C99.6157 90.0186 99.5986 89.8989 99.5133 89.8476C99.3597 89.745 99.3085 89.044 99.2573 86.4108C99.2402 85.5558 99.1719 84.7693 99.1036 84.6496C99.0183 84.5299 99.0524 84.4444 99.1548 84.4444C99.2743 84.4444 99.2914 84.3418 99.189 84.1537C99.1036 83.9998 99.0866 83.6579 99.1548 83.4014C99.2402 83.1449 99.2743 82.9055 99.2402 82.8713C99.1378 82.7687 98.95 80.6143 98.9671 79.7764C98.9671 79.3148 98.9159 78.6479 98.8306 78.2889C98.7452 77.9298 98.7623 77.5365 98.8476 77.3655C98.933 77.2116 98.933 77.0919 98.8647 77.0919C98.7794 77.0919 98.694 76.1173 98.677 74.9033C98.6087 71.21 98.5575 70.5944 98.4039 70.5944C98.3015 70.5944 98.3186 70.5089 98.421 70.4063C98.5404 70.2866 98.5234 69.9446 98.3698 69.2778C98.2503 68.7477 98.182 68.2519 98.2332 68.1664C98.2844 68.098 98.2674 67.927 98.182 67.8073C98.1137 67.7047 98.0284 67.414 97.9943 67.1746C97.926 66.5762 97.8236 66.0632 97.7895 66.0632C97.7724 66.0632 97.7212 65.7554 97.7041 65.3793C97.6017 64.3362 97.5164 63.7036 97.3628 63.259C97.2945 63.0367 97.2092 62.5751 97.1921 62.2331C97.158 61.8911 97.0556 61.2414 96.9702 60.7626C96.8678 60.3009 96.8337 59.8564 96.8678 59.788C96.902 59.7367 96.8508 59.617 96.7484 59.5657C96.663 59.4973 96.6118 59.3434 96.663 59.2237C96.6972 59.104 96.646 58.6252 96.5265 58.1636C96.407 57.719 96.3388 57.2402 96.39 57.1035C96.4241 56.9667 96.39 56.9154 96.3046 56.9667C96.2022 57.0351 96.151 56.8983 96.1852 56.6247C96.2193 56.1972 96.0998 55.7526 95.7585 55.2055C95.383 54.5899 94.7174 53.1536 94.8198 53.1536C94.888 53.1536 94.8368 53.0339 94.7174 52.8972C94.5979 52.7604 94.2907 52.1961 94.0347 51.666C93.7275 50.9992 92.7376 49.7339 91.0479 47.853C89.6655 46.297 86.6446 42.9115 84.3234 40.3295C82.0193 37.7476 79.8689 35.3538 79.5446 34.9947C79.2374 34.6357 79.0496 34.345 79.1179 34.345C79.2033 34.345 79.1862 34.2766 79.0838 34.2082C78.9984 34.1398 78.7766 33.7807 78.6059 33.4045C78.4352 33.0284 78.1622 32.4128 77.9915 32.0366C77.2064 30.361 76.6602 29.0956 76.5578 28.7537C76.4896 28.5656 76.336 28.292 76.1994 28.1894C76.0629 28.0697 75.9434 27.8303 75.9434 27.6593C75.9434 27.4713 75.8581 27.3345 75.7557 27.3345C75.6703 27.3345 75.6362 27.249 75.6874 27.1635C75.7386 27.0609 75.7215 26.9925 75.6362 26.9925C75.4997 26.9925 74.7487 25.4194 74.7487 25.1116C74.7487 25.009 74.6804 24.9406 74.578 24.9406C74.4927 24.9406 74.4074 24.8209 74.4074 24.6842C74.4074 24.2909 73.3492 23.2992 72.803 23.1624C72.547 23.094 72.3934 22.9743 72.4446 22.9059C72.4958 22.8204 72.3934 22.7691 72.2398 22.7862C72.0692 22.8204 71.7107 22.7007 71.4206 22.5297C71.1475 22.3587 70.4136 21.9655 69.7992 21.6577C69.1848 21.3499 68.3485 20.9053 67.9218 20.683C67.4951 20.4437 67.0514 20.2385 66.9148 20.2043C66.7783 20.1872 66.6076 20.0675 66.5394 19.9478C66.454 19.8281 66.3858 19.7939 66.3858 19.8623C66.3858 20.0846 65.8737 19.5203 65.8737 19.298C65.8737 19.1954 65.7543 18.8877 65.6177 18.6141C65.3788 18.1524 65.3788 18.0498 65.6177 17.5882C65.7713 17.2975 65.8396 16.9726 65.7713 16.87C65.686 16.7503 65.7372 16.7161 65.9079 16.7674C66.0956 16.8529 66.1468 16.7674 66.1127 16.4596C66.0956 16.2374 66.1298 16.0493 66.2151 16.0493C66.3004 16.0493 66.3346 15.8441 66.3004 15.6047C66.2834 15.3482 66.3516 15.1259 66.4882 15.0746C66.6247 15.0233 66.6759 14.9208 66.6247 14.8353C66.5735 14.7498 66.6588 14.6301 66.7954 14.5788C66.949 14.5275 67.0685 14.3736 67.0685 14.2368C67.0685 14.1 67.1538 13.9974 67.2562 13.9974C67.3415 13.9974 67.4098 13.8606 67.3927 13.6896C67.3415 13.1083 67.4098 12.6124 67.5463 12.6979C67.6317 12.7492 67.7853 12.4927 67.9047 12.1507C68.0413 11.8088 68.2973 11.33 68.5021 11.0906C68.6898 10.8683 68.724 10.7657 68.5704 10.8854C68.3314 11.0735 68.2973 11.0564 68.3826 10.7657C68.4338 10.5606 68.5362 10.458 68.6216 10.5093C68.7752 10.5948 68.7922 10.5264 68.8434 9.92791C68.8434 9.77402 68.98 9.50044 69.1165 9.34655C69.6797 8.71389 69.748 8.5771 69.6115 8.25223C69.5432 8.04704 69.5432 7.80766 69.6285 7.68797C69.6968 7.56827 69.6456 7.10661 69.5261 6.67914C69.3896 6.23457 69.3213 5.79 69.3555 5.67031C69.4067 5.55062 69.3725 5.44802 69.2872 5.44802C69.2019 5.44802 69.1677 5.34543 69.2189 5.22574C69.3384 4.90086 68.6216 4.23401 67.5463 3.65265C67.0514 3.39617 66.1298 2.83191 65.5153 2.43864C64.8838 2.02827 64.2865 1.68629 64.1841 1.68629C64.0817 1.68629 63.9963 1.6008 63.9963 1.5153C63.9963 1.41271 63.8939 1.34432 63.7745 1.34432C63.6379 1.34432 63.2113 1.10493 62.8358 0.831352C62.4432 0.540673 62.0507 0.318389 61.9483 0.318389C61.8629 0.318389 61.7776 0.232895 61.7776 0.147401C61.7776 -0.0748834 61.2997 -0.0406858 60.8048 0.215796ZM60.1221 11.4326C60.0709 11.6207 59.9685 11.7233 59.8661 11.672C59.7807 11.6207 59.7978 11.4668 59.9173 11.33C60.1904 11.0051 60.2245 11.0222 60.1221 11.4326ZM55.6334 21.5551C55.6334 21.6577 55.7699 21.6748 55.9406 21.6235C56.1966 21.538 56.1966 21.538 55.9747 21.7261C55.8211 21.8458 55.7187 22.1535 55.7358 22.3929C55.7699 22.7862 55.7358 22.8204 55.275 22.752C54.9678 22.7007 54.78 22.752 54.78 22.8717C54.78 22.9914 54.7118 23.0427 54.6264 22.9743C54.5411 22.923 54.4046 22.9572 54.3534 23.0598C54.2851 23.1624 54.0803 23.1966 53.8925 23.1282C53.6877 23.0769 53.5853 23.094 53.6365 23.1795C53.7048 23.2821 53.5683 23.3163 53.2952 23.265L52.8514 23.1795L53.5512 22.5126C53.9437 22.1535 54.268 21.7774 54.268 21.6919C54.268 21.538 54.6435 21.4183 55.2579 21.4012C55.4627 21.4012 55.6334 21.4696 55.6334 21.5551Z" fill="#FBFBFB"/>
</svg>
