<svg width="513" height="234" viewBox="0 0 513 234" fill="none" xmlns="http://www.w3.org/2000/svg">
<g clip-path="url(#clip0_112_896)">
<path d="M364.849 57.6405C366.373 61.5856 372.824 66.5856 376.386 66.1456C377.507 66.0106 378.578 64.5906 379.475 63.5806C383.933 58.5555 388.322 53.4755 392.003 49.2555C391.136 44.4554 390.294 39.7854 389.448 35.1153C389.732 34.8753 390.021 34.6303 390.304 34.3903C391.734 35.5953 393.826 36.5203 394.474 38.0604C396.775 43.5054 398.106 44.3604 403.64 42.0804C408.198 40.2004 412.557 37.8204 417.14 36.0203C421.344 34.3703 425.683 35.3453 427.915 39.1004C432.927 47.5404 439.437 51.6505 449.694 48.1404C449.824 48.8655 449.954 49.5905 450.083 50.3155C445.933 52.6555 441.784 54.9955 438.416 56.8955C443.871 61.7456 450.676 66.9306 456.41 73.1207C462.632 79.8357 467.822 87.5058 473.551 94.6909C474.523 95.9109 475.768 97.1259 477.153 97.7609C481.118 99.5759 485.218 101.091 489.891 102.976C490.503 102.611 492.655 100.326 494.254 100.661C495.988 101.026 497.776 103.616 498.563 105.626C502.897 116.691 504.048 127.446 496.785 138.236C494.927 140.996 496.77 146.071 496.277 150.006C495.724 154.421 496.9 157.331 501.109 159.091C502.334 159.606 503.45 160.926 504.113 162.151C506.888 167.247 509.468 172.452 512.118 177.617C512.203 177.782 512.323 177.952 512.327 178.127C512.596 191.117 516.367 205.012 502.449 214.187C499.739 215.972 497.492 218.572 495.325 221.052C494.389 222.127 493.492 224.037 493.786 225.272C496.675 237.267 493.452 248.627 488.82 259.152C483.977 270.152 477.228 280.338 470.941 290.653C467.578 296.168 468.086 306.798 473.357 310.413C484.072 317.763 489.851 328.288 494.354 339.998C495.619 343.283 498.668 345.873 499.948 349.153C501.816 353.943 504.108 359.128 503.884 364.038C503.565 370.958 499.012 372.343 492.934 369.308C489.069 375.283 485.676 381.449 481.317 386.829C479.574 388.979 475.195 390.914 472.963 390.149C471.01 389.479 469.207 384.804 469.421 382.059C469.905 375.893 471.852 369.858 472.814 363.708C473.083 362.008 472.595 359.298 471.429 358.413C463.673 352.548 455.782 346.833 447.657 341.498C438.426 335.433 432.897 327.028 431.925 316.193C431.183 307.908 431.776 299.503 431.776 290.938C429.315 290.823 425.534 290.478 421.768 290.573C420.632 290.603 419.332 291.648 418.44 292.558C413.882 297.198 409.493 302.068 401.473 299.523C399.037 305.593 396.9 311.378 394.389 316.993C392.85 320.433 380.227 321.143 378.633 317.808C377.851 316.173 378.757 313.723 378.961 310.708C375.136 311.543 371.36 312.368 366.029 313.533C371.713 316.938 376.092 319.708 380.61 322.238C399.007 332.553 417.434 342.808 435.871 353.043C439.393 354.998 441.878 357.043 443.463 361.473C445.904 368.298 450.686 374.248 454.133 380.754C457.481 387.069 460.599 393.529 463.434 400.094C465.705 405.359 464.191 411.674 460.559 414.594C456.365 417.959 451.064 418.324 446.018 413.544C437.554 405.524 429.958 396.584 421.07 387.039C408.283 387.909 396.038 380.939 384.028 373.853C368.56 364.728 353.451 354.988 336.857 344.688C338.905 351.333 339.956 357.073 342.377 362.163C349.391 376.923 356.31 391.804 364.52 405.899C370.458 416.089 370.154 424.284 362.263 432.869C355.329 440.409 349.057 448.554 342.242 456.214C337.121 461.964 329.3 462.994 322.72 458.954C318.535 456.384 317.683 451.899 318.789 447.714C320.548 441.054 323.223 434.639 325.624 427.804C305.608 404.519 296.741 375.658 292.213 345.028C291.54 340.483 291.431 335.858 290.773 331.313C290.574 329.928 289.692 328.303 288.611 327.438C284.177 323.888 279.54 320.593 275.036 317.243C269.198 322.318 263.394 327.963 256.958 332.748C252.619 335.973 247.493 338.233 242.487 340.388C241.087 340.993 238.382 340.203 237.197 339.078C236.325 338.253 236.295 335.458 237.017 334.188C240.285 328.463 243.951 322.963 247.483 317.388C248.151 316.333 248.883 315.323 248.699 315.588C246.044 310.948 243.269 307.398 241.859 303.373C238.706 294.363 236.404 285.058 233.341 276.013C232.683 274.073 230.516 272.312 228.623 271.177C212.149 261.317 196.677 250.252 184.472 235.157C182.419 232.617 180.721 229.792 178.399 226.437C174.255 233.062 169.866 239.347 166.249 246.052C162.154 253.637 158.752 261.602 155.061 269.402C154.747 270.067 154.687 271.062 154.179 271.397C148.63 275.048 145.521 281.998 138.044 283.078C129.187 284.353 120.374 285.938 111.532 287.308C110.68 287.438 109.564 287.273 108.877 286.798C106.899 285.448 104.134 284.173 103.532 282.273C103.128 280.998 105.479 278.018 107.278 277.008C113.345 273.603 119.717 270.738 125.122 268.077C125.122 264.547 124.728 261.382 125.186 258.347C127.812 241.037 133.65 224.877 143.474 210.042C127.239 197.967 109.504 188.242 97.2249 171.277C87.9294 181.822 82.2654 193.977 76.5415 206.077C76.148 206.902 76.7807 208.502 77.3735 209.472C84.2779 220.787 87.4711 233.732 82.0412 245.367C76.4868 257.272 82.3899 265.592 86.2606 274.673C92.9607 290.378 100.782 305.603 108.309 321.398C107.068 321.638 105.987 321.843 104.807 322.068C106.232 330.333 109.265 337.568 115.273 343.363C118.317 346.298 119.971 349.648 117.181 353.623C114.292 357.733 111.143 362.208 105.37 361.048C101.205 360.213 98.6098 361.948 95.4465 363.938C85.2095 370.383 74.808 376.573 64.3268 382.604C61.1685 384.419 56.8893 385.029 54.9067 381.549C53.8058 379.618 54.8519 375.553 56.2467 373.253C63.7539 360.833 73.8266 350.698 85.7475 341.918C84.3925 338.193 83.0375 334.463 81.5729 330.428C79.6351 330.568 77.6275 331.038 75.7395 330.743C74.3198 330.523 72.4517 329.653 71.8041 328.498C63.1213 313.093 54.6177 297.588 46.0594 282.118C45.9797 281.978 45.7655 281.908 45.2126 281.538C40.1464 297.198 34.9904 312.663 33.4013 328.948C33.9294 329.278 34.4524 329.608 34.9805 329.933C32.2904 330.888 29.6004 331.848 25.7696 333.208C26.0984 336.403 26.7709 340.058 26.7759 343.713C26.7809 347.348 26.1283 350.988 25.7547 354.623C25.6849 355.313 25.4059 356.018 25.5056 356.678C27.3487 369.223 24.4246 381.169 20.8428 392.989C19.7868 396.479 18.2973 401.094 13.8388 399.974C10.9445 399.249 7.56204 395.914 6.55576 392.999C2.32643 380.734 0.269047 368.148 3.79598 355.143C4.64783 352.003 3.36757 348.288 4.19451 345.133C5.8434 338.838 8.2744 332.748 10.1973 327.098C9.3803 326.023 9.21093 325.553 8.93196 325.468C-0.901617 322.638 -0.831876 314.633 0.911667 307.363C4.50835 292.383 8.63307 277.458 13.769 262.947C16.9871 253.857 22.4917 245.592 26.8356 236.887C27.4185 235.717 27.5978 234.087 27.3487 232.787C25.0124 220.547 21.1417 208.397 20.5539 196.087C20.0757 186.077 22.5266 175.602 25.3711 165.827C30.4074 148.531 42.657 129.476 55.4497 116.121C46.4978 98.7709 52.107 82.9258 61.1137 67.7856C69.941 52.9555 81.5331 41.3104 100.074 37.4303C102.072 30.1403 108.772 27.4803 116.09 24.6252C127.966 19.9852 138.627 23.3452 149.442 27.5903C149.78 27.7253 150.244 27.8653 150.378 28.1403C154.597 36.5353 164.65 34.6403 170.638 39.6904C178.838 46.6104 186.778 46.9404 196.791 42.7854C209.424 37.5453 222.79 39.7004 235.578 44.1204C242.756 46.6004 245.6 51.1005 244.758 58.4755C266.094 56.7555 285.473 61.4756 300.901 75.5757C311.536 66.6906 322.022 57.9355 332.449 49.2255C323.89 40.1054 323.213 29.4403 332.374 17.0902C338.357 9.02509 345.984 2.41503 356.813 1.88002C361.167 1.66502 365.207 2.19502 369.736 0.425008C373.233 -0.945005 378.339 1.30002 382.518 2.61003C383.48 2.91003 383.589 5.97006 384.087 7.75508C382.414 7.61507 380.396 8.03008 379.126 7.23507C375.051 4.70005 371.011 3.41004 365.446 5.52005C370.015 8.29008 373.87 10.6301 377.731 12.9751C375.031 17.5002 372.545 18.0052 368.316 14.3601C363.334 10.0651 360.206 10.4601 356.729 15.8252C350.875 24.8652 350.995 29.5403 357.028 38.4054C358.457 40.5054 359.673 42.8404 360.52 45.2354C362.637 51.2105 367.917 54.2305 373.94 52.2005C377.567 50.9805 380.979 49.1205 384.471 47.5554C384.142 56.4405 372.565 62.4306 364.874 57.6605C363.643 57.5555 362.413 57.4455 360.614 57.2855C360.614 59.5606 360.032 61.8556 360.729 63.6556C362.577 68.4556 364.749 73.1657 367.255 77.6507C368.336 79.5907 370.827 82.4008 372.187 82.1508C374.553 81.7108 377.203 79.5957 378.473 77.4357C379.435 75.7957 378.428 73.0007 378.299 70.7157C377.89 71.1657 377.482 71.6157 377.073 72.0657C372.485 69.8307 367.494 68.1556 363.434 65.1856C360.301 62.8906 360.335 59.3905 364.874 57.6355L364.849 57.6405ZM472.724 118.466C470.796 118.326 467.215 117.911 467.185 118.081C466.592 121.706 466.398 125.401 466.029 130.366C468.819 125.391 470.766 121.916 472.714 118.441C472.296 125.101 471.882 131.756 471.389 139.591C477.691 129.561 477.845 124.411 472.724 118.466ZM413.703 177.847C405.349 177.922 401.224 172.022 399.52 163.992C398.813 160.651 396.327 156.591 401.189 153.561C405.598 160.171 405.214 170.137 414.54 172.732C417.339 164.567 419.985 156.861 422.789 148.686C404.856 153.311 388.317 147.751 372.301 141.596C363.827 138.341 357.511 140.511 350.153 143.901C355.533 151.261 361.939 148.066 368.749 145.876C362.737 154.391 353.964 156.671 349.102 150.491C344.145 144.191 340.653 147.701 336.429 150.126C335.179 150.846 334.182 152.001 332.967 152.796C316.378 163.607 306.315 179.617 297.573 197.047C300.861 198.722 303.909 200.272 306.963 201.827C306.799 202.322 306.629 202.812 306.465 203.307C303.576 203.307 300.642 202.982 297.802 203.372C290.076 204.437 282.314 205.477 274.713 207.187C270.882 208.047 267.494 210.042 264.256 206.037C263.698 205.347 261.701 205.172 260.729 205.592C254.393 208.327 248.201 211.397 241.864 214.132C239.383 215.202 236.634 216.382 234.043 216.302C230.008 216.177 226.003 215.022 221.983 214.302C221.908 214.622 221.833 214.942 221.764 215.262C227.004 217.222 232.25 219.187 237.162 221.022C235.094 224.127 233.719 226.187 231.642 229.302C239.413 231.882 245.984 234.062 252.908 236.362C245.864 240.257 239.613 237.397 232.509 234.437C235.503 240.477 240.185 242.362 245.142 243.392C250.263 244.457 255.519 244.897 259.703 245.472C260.311 246.872 260.445 248.102 261.033 248.382C265.327 250.427 274.065 247.907 278 242.987C273.537 241.047 269.452 239.272 266.05 237.792C268.386 234.832 270.015 232.767 271.649 230.702C269.756 230.092 267.863 229.482 264.715 228.467C266.099 226.707 267.146 224.082 268.68 223.757C270.603 223.352 273.552 224.232 274.902 225.662C276.347 227.192 277.124 230.047 276.969 232.237C276.695 236.137 279.056 238.037 281.796 238.517C285.727 239.207 289.871 238.692 294.001 238.692C291.744 234.932 290.12 232.217 288.427 229.387C286.09 230.377 283.754 231.372 280.89 232.587C282.011 227.402 284.352 224.732 287.739 224.162C291.376 223.552 293.921 225.202 295.052 228.547C296.058 231.532 297.692 231.627 300.512 231.332C307.441 230.602 314.44 230.482 321.41 230.117C321.519 230.722 321.634 231.332 321.743 231.937C317.823 233.702 313.902 235.472 309.195 237.592C330.257 239.297 349.042 245.247 366.527 255.102C370.627 257.412 374.299 259.412 377.442 258.177C385.941 239.797 398.748 231.002 416.378 232.337C415.486 214.142 414.609 196.247 413.708 177.852L413.703 177.847ZM356.246 7.18007C344.688 11.3701 336.359 18.8502 333.171 31.2703C331.487 37.8304 332.698 41.1904 338.442 44.7104C348.151 50.6555 348.828 54.2255 342.766 63.6806C343.199 67.3456 343.612 71.1157 342.671 74.5007C340.245 83.2158 337.445 91.7909 338.92 101.046C339.428 104.246 339.747 107.471 340.25 111.456C334.91 108.821 332.887 104.716 332.329 100.156C331.766 95.6059 332.205 90.9359 332.205 86.3158C331.427 86.2108 330.65 86.1058 329.873 86.0008C329.275 88.6558 327.402 91.8859 328.289 93.8709C334.187 107.051 319.198 123.676 308.059 126.491C306.834 126.801 305.494 126.846 304.388 127.381C291.485 133.606 282.798 124.261 284.133 114.651C284.626 111.111 285.816 107.666 286.743 103.981C279.291 96.8759 271.211 90.2158 259.434 90.4508C260.61 93.7959 261.785 96.6709 262.637 99.6459C266.662 113.671 265.198 127.851 262.767 141.811C261.462 149.311 257.481 156.316 255.887 163.797C253.267 176.107 256.829 188.117 258.552 199.227C262.453 200.297 265.497 201.222 268.59 201.937C269.557 202.162 270.707 201.997 271.689 201.712C278.807 199.647 285.906 197.502 293.314 195.297C303.601 161.971 326.61 141.741 361.93 133.941C360.535 120.541 364.251 106.101 358.208 92.5609C355.458 99.3559 356.549 107.081 350.801 112.856C349.755 109.071 349.416 105.346 349.256 101.611C348.928 94.0259 350.332 85.8708 347.966 79.0157C345.49 71.8457 346.078 67.1806 350.696 61.5856C356.978 53.9805 356.639 49.3905 350.856 41.2654C343.762 31.2953 343.717 23.0252 350.851 13.3851C352.48 11.1851 354.442 9.24009 356.256 7.17507L356.246 7.18007ZM183.48 115.201C183.471 114.686 183.461 114.171 183.451 113.651C182.32 114.241 181.229 115.211 180.048 115.341C176.775 115.706 173.463 115.726 170.165 115.881C170.165 112.421 169.079 108.466 170.389 105.616C172.73 100.516 176.626 96.1559 179.62 91.3258C180.412 90.0458 180.287 88.1958 180.586 86.6058C180.073 86.5408 179.565 86.4758 179.052 86.4108C178.499 87.3558 177.996 88.3358 177.388 89.2458C175.161 92.5559 172.606 95.7709 168.117 94.7459C163.724 93.7459 162 90.0458 162.03 85.9108C162.055 81.9308 163.081 77.9657 163.186 73.9807C163.23 72.3457 162.463 69.7607 161.293 69.1806C155.898 66.5106 150.333 64.0656 144.604 62.2506C142.557 61.6056 139.528 62.3706 137.556 63.5306C130.955 67.4206 124.743 67.0456 118.332 63.2306C116.907 62.3806 115.014 62.0056 113.325 61.9706C107.626 61.8556 104.09 65.9856 99.7406 68.8456C88.3329 76.3507 85.2144 87.9058 82.4447 100.666C86.9729 97.9059 90.7938 95.5059 94.6844 93.2209C109.654 84.4158 133.466 86.3258 145.451 97.0009C148.654 99.8559 150.209 103.446 148.216 106.711C146.567 109.421 142.612 112.696 140.002 112.436C133.665 111.811 126.9 110.361 121.445 107.241C113.699 102.806 114.127 102.026 107.746 108.191C106.57 109.326 105.519 110.596 103.691 112.586C109.544 117.766 115.198 122.771 121.256 128.131C126.975 118.706 132.728 128.171 139.618 126.426C135.548 122.391 132.121 118.991 128.295 115.196C134.607 114.346 141.885 119.661 143.937 125.751C145.641 130.806 143.454 133.916 138.104 133.136C134.258 132.576 130.576 130.856 126.651 129.601C123.393 132.031 119.776 134.731 115.756 137.726C130.427 154.596 143.19 173.617 162.179 185.132C171.689 177.907 180.581 171.182 189.418 164.387C190.684 163.417 192.198 162.291 192.721 160.906C196.218 151.621 199.745 142.326 202.669 132.846C203.631 129.731 202.819 126.061 202.819 124.011C195.79 120.806 189.633 118.001 183.475 115.191L183.48 115.201ZM370.742 260.867C367.758 259.917 365.173 259.057 362.567 258.262C349.097 254.147 335.826 248.997 322.077 246.277C311.292 244.142 299.904 245.152 288.8 244.482C285.104 244.257 282.842 245.382 280.556 248.387C273.681 257.432 260.58 258.042 252.883 250.087C252.34 249.527 251.409 249.037 250.657 249.032C241.575 248.977 233.017 247.752 227.343 239.392C227.084 239.007 226.377 238.922 225.873 238.717C216.199 234.722 208.264 228.497 202.241 219.897C197.538 223.732 189.02 224.157 184.178 221.087C184.023 222.917 183.949 225.132 185.01 226.137C195.64 236.202 205.892 246.802 217.395 255.772C227.273 263.472 238.641 269.242 249.616 276.028C252.699 270.502 254.976 271.573 257.048 275.598C257.97 277.393 259.205 279.043 259.977 280.898C266.622 296.758 277.512 309.678 288.566 322.468C289.408 323.443 290.913 324.348 292.143 324.388C306.146 324.848 318.63 319.848 330.625 313.243C335.607 310.498 340.544 307.673 346.143 304.523C332.02 294.168 322.695 281.833 315.143 267.937C314.246 266.287 311.755 264.797 309.842 264.567C305.613 264.062 301.284 264.412 296.995 264.412C296.786 263.752 296.582 263.092 296.372 262.432C298.734 261.242 301.09 259.077 303.466 259.047C310.739 258.962 318.291 258.617 325.25 260.337C339.577 263.877 353.595 268.687 367.947 273.043C368.754 269.532 369.726 265.317 370.752 260.872L370.742 260.867ZM71.1316 205.017C74.3796 191.957 81.4235 179.267 92.2733 166.797C96.4877 161.947 97.0954 162.181 101.17 167.082C105.474 172.257 110.292 177.002 114.89 181.932C115.373 181.532 115.856 181.127 116.339 180.727C116.04 179.157 115.472 177.582 115.497 176.022C115.552 172.277 117.33 169.352 121.261 169.352C125.749 169.352 125.998 173.097 125.246 176.202C124.469 179.402 122.691 182.357 121.161 185.837C127.916 190.607 135.289 195.817 141.421 200.147C145.083 197.987 147.359 196.642 149.631 195.297C150.582 197.932 151.549 200.562 152.475 203.207C152.59 203.537 152.391 203.982 152.52 204.297C153.218 205.992 153.975 207.667 154.712 209.347C155.35 209.282 155.987 209.212 156.63 209.147C158.055 204.667 159.709 200.237 160.76 195.667C161.073 194.312 160.122 191.987 158.981 191.087C154.578 187.607 149.86 184.522 145.038 181.137C144.316 182.492 143.593 183.742 142.966 185.032C141.655 187.722 140.086 191.257 136.759 189.247C135.154 188.277 135.189 184.212 134.96 181.507C134.876 180.482 135.971 179.172 136.833 178.292C139.035 176.042 138.268 174.342 136.574 172.107C128.723 161.751 121.221 151.121 113.236 140.871C110.864 137.826 107.313 135.701 104.269 133.121C100.901 137.396 102.984 144.256 96.8862 143.351C95.2772 143.111 94.5399 136.956 93.3991 133.521C90.739 131.541 88.6218 128.276 86.1559 125.306C83.7548 122.411 80.7858 119.976 78.4794 117.016C77.3286 115.541 76.5416 113.346 76.5366 111.471C76.5216 105.826 77.0945 100.181 77.1493 94.5309C77.1642 93.1309 76.2875 91.5609 75.4356 90.3408C72.382 85.9858 74.3397 81.0258 79.4757 80.0508C80.6962 79.8207 81.9964 79.0107 82.8681 78.0957C87.5757 73.1357 92.1637 68.0556 97.4939 62.2506C96.9061 57.7955 96.1141 51.7355 95.2921 45.5054C80.5517 50.9655 72.088 62.1906 64.6008 74.8407C70.1153 78.1857 68.8351 82.8208 66.8823 86.6958C65.7415 88.9558 62.5235 90.1608 60.2369 91.8409C59.6391 91.4209 59.0364 91.0058 58.4386 90.5858C58.2244 94.3659 57.4821 98.2059 57.9355 101.901C58.4834 106.426 60.2868 110.786 61.029 115.306C61.3279 117.131 60.7949 119.576 59.7139 121.061C56.8395 125.011 53.467 128.596 50.3785 132.226C54.2392 137.001 54.1047 141.406 50.7222 146.001C47.5539 150.306 45.103 146.521 42.2486 145.061C34.0639 160.146 27.5729 175.507 23.6524 191.822C27.5978 193.672 28.4746 191.527 29.8893 189.027C31.2244 186.667 34.303 182.957 35.5882 183.337C39.7478 184.567 38.2982 188.542 37.6655 191.777C37.6058 192.082 37.8748 192.457 37.9345 192.627C43.8725 193.952 49.7159 195.252 55.8034 196.607C56.7349 190.487 62.7078 190.017 65.8113 191.152C71.7194 193.312 66.4589 198.667 66.7827 202.832C68.2323 203.557 69.662 204.277 71.1465 205.017H71.1316ZM462.721 173.897C463.742 165.077 464.091 156.926 465.78 149.071C467.08 143.036 467.115 137.931 463.334 132.786C461.79 130.686 461.411 127.706 460.579 125.096C460.036 123.396 460.091 121.326 459.115 119.971C449.68 106.866 439.308 94.6709 424.214 86.0608C427.277 92.8709 430.386 98.8809 432.722 105.181C437.764 118.776 438.028 132.206 431.362 145.646C427.97 152.486 424.976 159.806 423.457 167.247C419.023 188.947 421.379 210.852 423.033 232.677C423.113 233.697 424.054 234.892 424.931 235.562C428.169 238.022 431.552 240.292 435.123 242.807C439.293 235.007 443.667 226.837 447.921 218.877C446.018 211.127 440.533 203.542 447.244 195.402C453.346 196.937 456.23 204.572 462.363 203.252C459.428 199.622 455.951 196.207 453.61 192.137C451.827 189.032 451.034 185.142 450.656 181.512C450.357 178.677 450.447 174.872 452.081 173.052C453.346 171.642 457.266 172.577 460.006 172.607C460.634 172.612 461.257 173.177 462.716 173.897H462.721ZM414.221 78.2807C414.779 77.5357 415.342 76.7907 415.9 76.0457C419.317 77.1857 423.098 77.7357 426.092 79.5707C440 88.0858 452.24 98.4959 461.247 112.386C463.384 115.681 466.313 115.221 468.794 112.276C470.104 110.716 472.49 109.831 474.557 109.231C476.062 108.796 477.845 109.326 480.206 109.466C471.195 99.5309 462.397 90.6608 454.596 80.9708C448.15 72.9607 440.768 66.4056 431.861 61.5456C425.305 57.9655 418.545 54.7655 411.003 50.9555C418.749 46.1904 423.94 53.4405 430.152 53.5505C428.209 51.0105 426.565 48.2904 424.353 46.1654C422.719 44.5954 419.79 42.3904 418.395 42.9354C414.156 44.5904 408.686 46.5104 406.778 50.0205C402.708 57.4855 400.945 66.1706 397.577 74.0757C391.983 87.2058 391.351 90.8858 392.905 105.166C394.19 116.961 395.032 128.806 396.128 141.271C405.154 144.176 415.287 143.516 425.375 141.256C426.6 140.981 427.975 138.896 428.299 137.431C430.874 125.746 429.504 114.411 424.822 103.431C421.255 95.0609 417.753 86.6658 414.221 78.2807ZM65.7266 223.457C72.2624 228.832 72.8951 236.887 76.3174 243.987C77.0397 238.792 77.5179 233.547 76.9351 228.422C75.8989 219.312 74.1504 210.342 62.8622 208.212C61.841 208.017 60.9692 207.097 59.9829 206.607C50.224 201.727 40.0816 198.567 28.1558 199.412C32.0962 240.162 50.8567 275.038 67.6246 311.213C76.1879 308.838 84.2281 306.613 92.3381 304.368C79.8692 278.193 68.4017 252.322 65.7216 223.467L65.7266 223.457ZM467.782 288.678C476.037 268.102 490.409 249.962 487.823 226.277C487.146 226.017 486.663 225.767 486.149 225.647C479.32 224.062 478.139 222.032 481.925 215.987C484.735 211.502 488.675 207.727 491.973 203.802C493.134 197.152 492.292 190.347 491.241 184.327C488.441 182.642 486.174 180.707 483.554 179.847C480.027 178.692 475.524 176.767 472.704 178.027C467.309 180.432 462.746 182.922 457.58 178.182C457.491 178.102 456.997 178.457 456.599 178.662C457.66 181.267 460.021 184.167 459.528 186.437C458.412 191.562 461.197 193.522 464.659 195.457C467.608 197.107 470.637 198.602 473.81 200.257C467.138 207.69 459.581 209.822 451.139 206.652C453.167 220.087 462.527 223.157 474.552 223.252C472.978 225.357 471.205 228.087 469.601 227.997C463.658 227.657 457.775 226.382 451.468 225.397C447.099 233.797 442.182 243.262 437.26 252.722C443.323 249.532 448.529 245.512 453.759 241.532C465.147 232.872 466.348 232.262 471.025 232.697C457.072 248.542 442.317 262.812 420.353 265.152C420.353 268.472 419.984 271.272 420.418 273.948C422.485 286.768 423.855 285.423 433.619 282.948C443.547 280.428 450.96 273.633 458.776 267.517C463.055 264.172 467.658 261.242 472.116 258.122C472.51 258.617 472.904 259.117 473.297 259.612C466.931 266.632 460.569 273.653 453.959 280.943C458.457 283.458 462.891 285.938 467.787 288.678H467.782ZM247.797 165.382C240.275 166.727 232.145 168.642 224.09 164.917C213.709 160.116 204.049 159.206 194.624 167.862C186.385 175.422 177.169 181.907 167.828 189.302C169.841 190.607 170.509 190.917 171.027 191.392C174.439 194.527 177.647 196.672 182.31 192.887C183.999 191.517 187.859 190.907 189.613 191.912C195.969 195.562 199.76 191.322 204.174 188.312C206.734 186.567 209.404 184.942 212.159 183.527C217.893 180.577 220.578 182.232 221.091 188.857C221.236 190.692 221.181 192.562 221.5 194.367C223.049 203.147 224.03 212.467 236.335 212.297C236.693 212.292 237.057 212.232 237.416 212.202C237.226 211.922 237.037 211.637 236.853 211.357C241.68 207.987 246.507 204.617 251.259 201.297C250.139 189.647 248.988 177.662 247.807 165.382H247.797ZM478.149 355.943C480.789 353.203 484.55 349.488 488.032 345.533C488.745 344.723 489.014 342.693 488.511 341.768C483.619 332.788 479.579 323.388 470.881 316.843C462.582 310.593 461.411 303.818 464.853 294.198C459.638 290.758 454.472 287.348 449.087 283.793C441.644 285.468 438.591 290.948 438.341 298.523C438.247 301.463 438.396 304.418 438.192 307.353C437.29 320.278 442.242 329.993 453.092 337.213C461.521 342.823 469.362 349.328 478.149 355.948V355.943ZM196.622 77.9407C197.783 76.0407 199.132 74.6757 199.491 73.0857C200.627 68.0706 204.871 68.1906 208.099 68.5606C209.908 68.7656 211.666 71.9257 212.911 74.0657C215.841 79.0907 218.356 84.3558 221.285 89.3808C221.729 90.1458 223.721 90.7208 224.518 90.3508C225.246 90.0108 225.968 87.9358 225.585 87.2008C223.617 83.4258 221.266 79.8507 219.114 76.1657C218.401 74.9407 217.883 73.6057 217.275 72.3157C218.854 71.9507 220.613 70.9807 221.968 71.3807C223.587 71.8607 224.703 73.8857 226.317 74.5657C228.135 75.3307 230.272 75.3407 232.265 75.6807C232.135 73.4507 232.878 70.2457 231.697 69.1806C229.092 66.8356 225.594 65.4006 222.322 63.9056C219.462 62.5956 216.404 61.7106 213.435 60.6406C213.499 59.8306 213.564 59.0205 213.624 58.2105C216.593 58.0005 219.562 57.6255 222.531 57.6155C226.332 57.6005 230.187 58.3005 233.919 57.8505C235.647 57.6405 237.137 55.4455 238.731 54.1555C237.426 52.8455 236.35 50.9155 234.775 50.3255C216.08 43.2904 198.086 45.0254 181.03 55.3955C172.466 60.6006 165.771 76.1857 167.584 86.0758C167.769 87.0808 168.366 88.0158 169.109 89.7808C170.548 88.1308 171.893 87.1108 172.536 85.7608C174.648 81.2858 176.337 76.6107 178.554 72.1907C179.326 70.6457 181.144 69.6307 182.484 68.3756C183.346 70.0407 184.566 71.6207 184.975 73.3857C185.483 75.5757 185.314 77.9257 185.438 80.2057C187.022 78.7607 187.501 77.0607 188.323 75.5457C189.369 73.6207 190.694 71.8407 191.894 70.0006C193.055 71.9857 194.211 73.9757 195.376 75.9557C195.63 76.3907 195.914 76.8107 196.622 77.9357V77.9407ZM349.974 397.514C343.089 380.429 336.28 363.533 329.699 347.208C325.978 348.693 321.375 350.943 316.528 352.343C311.671 353.743 306.57 354.283 301.638 355.188C301.683 362.333 302.828 363.408 309.937 361.848C316.996 360.298 323.945 358.228 330.944 356.383C331.163 356.973 331.383 357.558 331.602 358.148C325.724 368.833 314.401 366.963 304.059 368.308C304.851 371.178 305.553 373.713 306.191 376.013C316.986 374.948 326.421 369.403 338.531 370.958C329.021 379.793 318.107 378.828 307.501 381.199C310.361 387.954 313.359 394.584 315.965 401.364C317.355 404.974 319.566 406.254 323.113 405.254C332.404 402.629 341.67 399.914 349.974 397.514ZM148.879 214.317C138.821 227.657 132.405 242.852 130.791 259.922C130.676 261.112 132.958 263.257 134.507 263.747C139.653 265.382 144.968 266.462 149.387 267.547C156.59 252.567 163.963 237.232 170.907 222.797C163.883 220.092 156.779 217.357 148.884 214.317H148.879ZM29.4559 308.693C33.481 296.528 37.1624 285.413 40.8238 274.293C41.1028 273.448 41.6408 272.403 41.3818 271.703C37.9246 262.372 34.3478 253.087 30.4722 242.922C19.8764 262.372 12.7329 281.803 8.11997 303.303C15.7218 305.223 22.681 306.978 29.4559 308.693ZM381.368 83.8808C370.473 90.9008 366.378 89.6408 361.491 78.3557C359.772 74.3857 358.144 70.3707 356.45 66.3056C352.484 68.8506 352.046 71.6057 354.019 75.3857C355.259 77.7557 355.389 80.6908 356.246 83.2908C356.659 84.5358 357.352 86.1758 358.368 86.6508C365.187 89.8208 367.12 95.8309 367.454 102.491C367.892 111.311 367.743 120.161 368.032 128.991C368.082 130.576 368.66 133.171 369.641 133.536C376.351 136.026 383.231 138.046 390.698 140.421C387.804 120.706 388.486 101.871 381.363 83.8808H381.368ZM322.934 266.577C322.555 266.972 322.172 267.367 321.793 267.757C330.855 278.898 339.916 290.033 348.519 300.608C358.771 296.168 367.085 291.283 367.031 279.528C354.911 275.748 342.387 271.807 329.833 267.967C327.602 267.282 325.235 267.027 322.934 266.572V266.577ZM194.898 114.631C199.581 116.251 203.252 115.166 206.216 112.011C208.852 109.201 211.253 106.146 213.529 103.036C216.767 98.6109 217.514 94.2559 213.529 89.5408C211.576 87.2308 210.799 83.9458 209.23 81.2558C208.025 79.1857 206.411 77.3507 204.772 75.1307C199.984 83.6108 198.619 84.3408 192.691 82.7808C184.168 90.8408 177.179 99.5509 173.901 110.531C174.409 111.021 174.922 111.516 175.43 112.006C181.523 106.981 187.62 101.951 193.713 96.9259C194.061 97.1009 194.41 97.2709 194.754 97.4459C193.224 100.996 191.7 104.541 190.061 108.341C200.343 109.606 203.202 99.0909 210.291 95.1609C210.65 104.276 205.937 110.251 194.893 114.631H194.898ZM339.881 55.3205C322.192 61.0806 297.837 87.6408 298.375 98.6659C305.812 99.7659 308.557 91.3559 315.995 90.4809C321.738 89.8058 326.999 84.4408 332.324 80.9408C336.2 78.3907 338.621 69.8456 335.996 67.6956C332.678 64.9806 333.804 62.7356 335.801 60.2156C337.121 58.5505 338.516 56.9505 339.881 55.3205ZM381.328 258.957C384.615 257.797 386.748 257.252 388.7 256.322C398.036 251.892 406.868 252.162 415.337 258.577C416.473 259.437 418.46 259.617 419.98 259.452C429.215 258.457 429.888 257.742 432.478 247.562C410.3 232.487 399.839 238.352 381.333 258.952L381.328 258.957ZM401.453 375.153C406.101 377.493 410.425 379.733 414.824 381.819C415.466 382.124 416.702 381.993 417.255 381.553C424.901 375.428 432.204 368.958 437.081 359.848C431.751 357.818 426.889 355.958 422.356 354.233C419.75 365.758 409.563 368.868 401.453 375.153ZM264.341 304.248C260.575 296.728 257.237 290.018 253.845 283.338C253.377 282.418 252.774 281.123 251.982 280.898C248.375 279.873 244.684 279.173 239.423 277.998C243.159 288.958 246.577 298.988 250.119 309.378C255.743 307.348 259.997 305.813 264.341 304.248ZM385.268 366.448C387.166 367.548 389.677 369.668 392.556 370.478C395.047 371.183 398.15 370.978 400.631 370.133C403.884 369.028 405.095 365.323 409.563 364.338C413.494 363.473 416.223 357.123 420.014 352.553C415.969 350.348 412.054 348.208 409.573 346.853C400.84 353.893 393.029 360.193 385.268 366.448ZM354.343 314.918C351.792 311.158 349.884 309.788 345.625 312.293C330.551 321.153 315.746 330.983 297.045 330.998C297.344 332.498 297.463 333.398 297.717 334.258C297.951 335.048 298.335 335.798 298.629 336.513C319.317 334.488 337.092 325.983 354.343 314.918ZM322.137 412.374C323.173 414.399 324.349 417.079 325.913 419.514C326.441 420.339 328.09 421.139 328.982 420.924C339.423 418.404 350.078 416.294 358.527 408.264C356.779 405.599 355.115 403.059 354.084 401.494C343.144 405.219 332.877 408.719 322.142 412.374H322.137ZM112.14 348.628C110.132 346.713 108.204 344.868 106.276 343.023C106.157 343.538 106.037 344.058 105.918 344.573C100.144 345.358 94.3705 346.148 88.1236 346.998C90.186 349.208 91.5908 350.713 92.9906 352.213C92.7465 352.743 92.4975 353.273 92.2534 353.803C90.3454 353.383 88.4574 352.778 86.5296 352.603C84.9504 352.458 83.3314 352.818 80.4172 353.068C83.72 355.908 85.4635 357.403 87.207 358.898C86.9928 359.538 86.7737 360.173 86.5594 360.813C83.3962 360.103 80.2329 359.398 76.2128 358.498C72.362 363.048 67.9633 368.253 63.5596 373.453C64.0677 373.988 64.5759 374.518 65.084 375.053C74.4244 368.943 83.6901 362.698 93.165 356.813C95.6707 355.253 99.3222 353.348 101.624 354.108C106.839 355.833 109.131 353.418 112.135 348.628H112.14ZM328.633 438.699C331.682 439.704 334.631 440.204 337.067 441.604C339.757 443.149 341.46 442.494 343.204 440.464C349.042 433.654 354.945 426.904 360.649 419.984C361.586 418.849 361.656 416.984 362.233 415.089C356.44 417.984 351.732 420.334 347.025 422.694C345.909 423.254 343.837 423.889 343.856 424.419C344.14 431.184 340.404 427.644 337.635 427.129C336.514 426.919 335.223 427.639 333.953 427.949C336.623 430.384 338.427 432.039 340.235 433.689C337.241 433.939 334.247 434.189 330.421 434.509C330.122 435.209 329.35 437.019 328.628 438.699H328.633ZM127.901 36.3603C125.092 37.0303 122.232 37.5454 119.483 38.4154C116.653 39.3104 113.933 40.5554 110.152 42.0454C116.997 43.0104 122.521 43.6054 127.976 44.6154C133.042 45.5554 134.711 49.4655 131.613 53.5205C129.635 56.1055 126.761 58.0055 124.28 60.2256C133.336 61.6456 137.974 59.0455 139.219 53.7655C136.225 48.0904 133.944 43.9254 131.812 39.6854C130.337 36.7453 129.236 33.6103 127.627 30.7553C127.04 29.7103 125.485 28.5853 124.364 28.5753C117.545 28.5203 112.11 31.6903 107.387 36.2553C114.272 35.0153 120.852 30.5803 127.911 36.3653L127.901 36.3603ZM20.5689 357.533C16.1502 357.743 12.3941 357.923 8.02532 358.128C8.71277 369.633 7.72643 381.309 12.7578 392.119C13.3954 392.159 14.0281 392.194 14.6657 392.234C16.6085 380.824 18.5464 369.418 20.5689 357.528V357.533ZM214.037 189.022C209.654 192.267 205.663 195.222 201.344 198.417C211.676 204.867 212.224 206.697 207.213 217.257C211.796 221.392 216.533 225.667 222.142 230.732C222.202 224.852 220.658 222.022 216.887 219.687C213.953 217.867 210.421 214.057 214.341 210.702C217.848 207.702 217.216 205.057 216.463 201.662C215.626 197.897 214.999 194.087 214.037 189.022ZM440.758 400.674C444.195 403.419 447.503 406.274 451.059 408.784C452.195 409.584 455.079 410.029 455.269 409.659C456.101 408.024 456.893 405.879 456.484 404.219C455.887 401.799 454.273 399.624 453.042 397.374C449.221 390.394 445.38 383.424 441.893 377.078C438.451 381.669 435.373 385.774 431.995 390.274C435.238 388.689 438.551 387.069 441.863 385.449C442.212 385.904 442.566 386.359 442.915 386.809C440.723 389.624 438.536 392.444 436.344 395.259C436.628 395.454 436.917 395.649 437.201 395.844C440.414 393.959 443.627 392.074 446.84 390.189C447.298 390.744 447.757 391.299 448.215 391.854C445.968 394.514 443.722 397.169 440.763 400.669L440.758 400.674ZM69.1141 316.778C71.844 320.043 74.2401 324.813 75.9039 324.573C84.3875 323.338 92.6868 320.803 101.818 318.533C98.4504 313.973 95.8749 310.483 93.0355 306.638C87.5358 314.783 78.5192 314.523 69.1141 316.783V316.778ZM490.533 146.946C483.893 147.821 477.701 148.636 471.663 149.431C470.846 156.846 469.949 164.947 469.063 172.997C473.451 171.747 473.571 171.777 474.672 167.447C476.749 159.246 483.415 156.896 490.533 155.151V146.941V146.946ZM481.307 102.281C481.108 102.451 480.914 102.616 480.715 102.786C483.938 107.636 487.305 112.396 490.274 117.401C490.987 118.606 490.354 120.616 490.344 122.256C488.954 121.456 487.071 120.986 486.269 119.791C483.395 115.511 479.3 114.471 474.782 114.116C478.622 118.216 483.982 121.141 486.379 125.656C488.61 129.851 487.679 135.741 488.117 140.666C496.013 132.401 499.884 122.681 495.131 110.151C492.396 115.146 490.254 112.436 488.102 110.011C485.826 107.446 483.569 104.861 481.307 102.286V102.281ZM357.386 349.923C360.32 350.933 364.037 353.623 366.054 352.673C375.031 348.443 383.52 343.168 393.194 337.703C388.586 334.943 385.657 333.188 382.548 331.328C376.406 340.683 367.628 345.653 357.386 349.923ZM28.913 313.513C20.3995 315.358 13.2261 312.898 6.32661 307.473C5.3303 311.118 4.4934 314.173 3.72126 316.983C12.4689 320.673 20.5539 324.078 28.913 327.603V313.513ZM375.2 268.902C375.001 270.117 374.438 271.928 374.493 273.718C374.538 275.148 374.946 277.118 375.923 277.803C376.824 278.433 378.877 278.053 380.097 277.453C382.553 276.243 384.655 274.293 387.136 273.168C390.618 271.592 394.419 269.828 396.591 275.253C396.83 275.853 398.096 276.043 399.147 276.548C399.71 274.978 400.158 273.718 400.776 271.993C406.27 275.668 411.421 279.108 416.567 282.548C416.916 282.133 417.26 281.718 417.608 281.303C415.576 278.533 413.538 275.763 411.506 272.988C408.387 268.727 404.796 267.732 399.226 268.597C391.485 269.797 383.42 268.897 375.2 268.897V268.902ZM399.182 340.868C389.323 347.018 380.481 352.528 370.214 358.928C374.239 359.698 378.404 361.918 380.715 360.673C389.213 356.098 397.099 350.378 405.498 344.903C402.808 343.188 400.437 341.668 399.177 340.868H399.182ZM356.644 316.183C353.057 326.263 343.961 329.123 336.021 333.358C339.009 337.663 339.767 338.213 342.985 336.458C350.88 332.153 358.617 327.553 366.956 322.763C363.275 320.413 360.236 318.473 356.649 316.183H356.644ZM402.006 49.8455C399.879 50.5455 397.528 50.6105 396.392 51.8205C392.287 56.2005 388.531 60.9206 384.785 65.6306C383.873 66.7756 382.802 68.4956 383.031 69.7206C383.674 73.1957 384.954 76.5507 386.419 81.4008C391.904 70.2957 396.721 60.5506 402.006 49.8505V49.8455ZM398.16 297.633C388.038 294.818 379.793 291.493 375.664 281.888C375.355 281.173 373.641 281.063 372.55 280.663C371.285 284.818 370.189 288.423 368.944 292.513C377.721 294.988 386.11 297.453 394.579 299.608C395.545 299.853 396.955 298.333 398.16 297.633ZM372.47 325.733C363.21 331.898 355.16 337.253 346.666 342.908C348.519 343.553 350.606 345.068 351.673 344.533C360.664 340.018 369.467 335.133 379.509 329.718C375.674 327.548 373.482 326.303 372.47 325.733ZM101.275 113.566C98.3458 115.316 94.6296 117.541 90.8635 119.791C95.9148 130.781 107.706 125.866 115.238 132.726C110.092 125.661 105.893 119.906 101.275 113.566ZM300.378 349.323C310.575 346.903 320.149 344.633 330.307 342.223C329.764 340.228 329.275 338.443 328.937 337.198C318.535 339.563 308.846 341.768 298.903 344.033C299.277 345.383 299.71 346.918 300.378 349.323ZM172.82 217.307C172.82 213.102 172.118 209.482 172.974 206.277C174.479 200.657 171.211 198.887 167.415 196.942C165.457 202.307 163.619 207.342 161.542 213.032C165.014 214.347 168.655 215.732 172.82 217.312V217.307ZM127.005 51.7455C126.885 51.0855 126.771 50.4255 126.651 49.7655H102.675C102.949 52.2105 103.283 55.1755 103.781 59.6106C111.935 56.8505 119.468 54.2955 127 51.7455H127.005ZM86.679 329.473C88.4574 332.638 89.5135 336.303 91.9395 338.243C93.6831 339.633 97.2797 338.968 99.9897 338.678C100.772 338.593 102.072 336.478 101.893 335.533C101.29 332.388 100.119 329.353 99.0681 325.978C94.8189 327.178 91.1674 328.208 86.674 329.478L86.679 329.473ZM413.927 269.742C417.26 261.497 409.593 261.922 406.365 259.757C400.855 256.062 388.885 259.117 384.635 264.777C393.219 264.122 401.463 263.492 410.43 262.812C409.329 264.837 408.871 265.687 408.412 266.522C410.256 267.597 411.825 268.517 413.922 269.742H413.927ZM481.477 177.022C484.894 167.657 492.541 168.212 499.44 167.177C496.272 162.362 491.554 161.151 486.359 163.417C481.447 165.557 479.813 169.382 481.477 177.022ZM187.55 212.862C188.014 212.822 188.477 212.782 188.94 212.747C189.762 208.007 190.584 203.262 191.431 198.382C187.401 196.092 182.175 195.707 180.073 199.322C177.841 203.167 178.464 208.682 177.841 213.467C178.499 213.537 179.161 213.612 179.819 213.682C180.307 210.702 180.472 207.612 181.388 204.772C182.071 202.667 183.735 200.882 184.96 198.952C185.687 201.002 186.694 203.007 187.067 205.117C187.511 207.647 187.416 210.277 187.555 212.862H187.55ZM310.301 119.856C308.004 114.101 306.027 109.151 304.049 104.196C303.416 104.286 302.784 104.371 302.156 104.461C302.679 110.671 303.202 116.881 303.85 124.586C307.182 122.141 309.035 120.786 310.306 119.851L310.301 119.856ZM8.60816 351.638C11.8462 351.638 14.9198 351.883 17.9237 351.528C19.2537 351.373 21.6 349.703 21.4805 349.238C21.0421 347.533 20.1255 345.243 18.7406 344.623C13.4602 342.263 10.3019 344.398 8.60816 351.638ZM294.245 110.091C295.735 114.971 296.706 118.171 297.682 121.366C298.051 121.236 298.425 121.111 298.793 120.981C297.897 115.416 297 109.846 296.068 104.051C290.509 107.761 289.538 110.231 290.868 116.691C291.794 114.881 292.636 113.231 294.245 110.096V110.091ZM326.366 443.854V454.629C326.859 454.824 327.353 455.019 327.846 455.214C330.287 452.904 332.733 450.594 335.786 447.704C332.409 446.324 330.122 445.389 326.366 443.854ZM143.23 30.9953C147.06 43.3704 146.497 41.6704 151.947 40.2304C151.379 35.2053 149.765 31.2453 143.23 30.9953ZM318.371 110.676C324.254 105.771 325.141 99.6659 319.98 93.8809C319.462 99.3059 318.939 104.731 318.371 110.676ZM18.8502 337.903C20.8279 332.933 20.2002 329.753 14.6657 328.993C13.9384 331.718 13.246 334.323 12.4091 337.478C14.7305 337.633 16.8178 337.768 18.8552 337.903H18.8502ZM132.529 27.9203C135.05 33.4553 137.571 38.9904 140.091 44.5304C139.797 37.8454 138.766 31.5353 132.529 27.9203ZM405.498 285.088C405.199 284.573 404.9 284.058 404.601 283.543C401.03 285.643 397.458 287.743 393.034 290.343C400.97 293.823 400.915 285.443 405.498 285.093V285.088ZM313.793 116.636C315.402 115.361 316.423 114.551 317.051 114.051C315.193 109.906 313.564 106.271 311.93 102.631C311.656 102.726 311.382 102.821 311.108 102.916C311.935 107.146 312.762 111.376 313.793 116.636Z" fill="black"/>
<path d="M396.108 26.7401C396.731 27.0401 397.603 27.1701 397.932 27.6651C401.284 32.7351 404.652 30.6951 408.632 28.2651C413.997 24.9901 419.576 21.88 425.42 19.635C431.428 17.33 437.301 19.555 440.085 25.0751C444.355 33.5301 450.616 33.4051 458.024 31.3351C458.716 31.1401 459.449 31.0751 460.166 30.9851C460.33 30.9651 460.51 31.0901 460.684 31.1501C454.975 40.7152 443.194 41.3602 436.997 32.4451C431.433 24.4401 428.274 23.65 419.726 28.5501C416.254 30.5401 413.105 33.0901 409.678 35.1802C405.792 37.5452 401.394 38.2002 397.832 35.2452C395.869 33.6201 395.291 30.3051 394.091 27.7501C394.763 27.4101 395.431 27.0751 396.103 26.7351L396.108 26.7401Z" fill="black"/>
<path d="M390.31 34.3904C390.026 34.6304 389.737 34.8754 389.453 35.1154C388.412 36.6354 386.982 38.0254 386.399 39.7054C384.516 45.1655 380.068 48.2055 373.617 48.0205C369.034 47.8905 363.185 43.3605 362.184 39.0604C362.089 38.6554 362.612 38.1004 363.28 36.7254C369.293 41.3954 375.684 44.9555 382.255 38.3954C378.887 37.5804 375.485 36.7504 372.082 35.9254C372.087 35.1554 372.097 34.3804 372.102 33.6104C376.361 32.3204 380.616 31.0303 385.906 29.4253C381.428 25.8403 373.791 25.0203 377.766 17.9202C379.027 15.6702 382.588 14.4152 385.358 13.5202C386.16 13.2602 387.869 15.8352 389.891 17.8302C386.225 18.7302 384.197 19.2252 380.661 20.0902C387.605 23.3953 394.539 25.7103 390.31 34.3904Z" fill="black"/>
<path d="M357.814 29.8701C355.767 27.575 357.211 25.025 360.375 22.94C363.787 20.69 367.414 19.67 370.796 22.865C371.538 23.565 371.897 25.4 371.523 26.35C371.185 27.205 369.66 27.8451 368.549 28.0801C365.331 28.7601 362.058 29.1851 357.814 29.8701Z" fill="black"/>
<path d="M372.755 248.522C371.34 243.997 368.849 239.507 368.695 234.942C367.952 212.872 367.962 190.797 376.939 168.636C349.436 183.412 339.473 209.452 329.276 235.322C328.733 235.202 328.19 235.082 327.642 234.962C328.743 228.442 328.927 221.592 331.114 215.462C337.161 198.487 345.54 182.717 360.47 171.762C365.551 168.036 371.31 164.876 377.223 162.776C382.229 161.001 385.263 164.681 383.161 169.507C374.981 188.277 375.176 208.162 374.912 228.012C374.827 234.627 374.897 241.247 374.897 247.862C374.184 248.082 373.467 248.302 372.755 248.522Z" fill="black"/>
<path d="M258.044 209.157C259.608 209.927 260.659 210.297 261.551 210.907C268.525 215.692 274.822 215.522 281.657 210.282C283.106 209.167 284.451 207.902 285.961 206.882C290.922 203.527 294.3 204.262 296.123 209.952C297.891 215.462 300.86 216.417 306.076 215.302C311.003 214.247 316.154 214.242 321.658 213.732C318.077 218.237 311.835 220.707 304.756 221.932C296.776 223.317 292.94 218.897 290.404 212.422C271.803 223.532 260.166 222.507 258.039 209.157H258.044Z" fill="black"/>
<path d="M246.866 214.972C248.903 224.972 255.878 220.032 260.849 220.912C257.95 225.917 250.786 227.782 246.547 224.582C243.1 221.982 243.145 218.967 246.866 214.972Z" fill="black"/>
<path d="M111.627 111.306C113.764 110.421 116.1 108.531 117.993 108.901C120.32 109.356 122.342 111.626 124.33 113.301C124.614 113.541 124.24 115.191 123.717 115.611C123.199 116.021 122.038 115.906 121.266 115.661C118.392 114.761 115.557 113.711 112.713 112.716C112.349 112.246 111.986 111.776 111.627 111.301V111.306Z" fill="black"/>
<path d="M80.7507 170.217C80.6261 176.737 76.875 182.197 74.1302 180.912C71.3953 179.632 68.6057 176.832 67.5496 174.042C66.4138 171.052 72.1824 166.407 76.332 167.002C78.2151 167.272 79.8191 169.497 80.7507 170.212V170.217Z" fill="black"/>
<path d="M115.607 159.811C115.228 160.756 114.805 163.032 113.565 164.692C110.904 168.242 107.726 167.657 106.167 163.547C105.649 162.176 105.265 160.721 105.076 159.271C104.638 155.886 104.264 152.316 108.797 151.416C112.01 150.776 115.517 154.656 115.607 159.811Z" fill="black"/>
<path d="M60.6058 173.782C60.5161 180.092 56.5956 185.662 54.1846 184.397C52.0774 183.292 49.467 179.782 49.8805 177.977C50.563 174.977 53.4872 172.497 55.4698 169.797C57.4923 171.367 59.5148 172.937 60.6058 173.787V173.782Z" fill="black"/>
<path d="M62.573 137.681C59.0112 135.076 60.8793 131.706 62.6477 129.686C64.6055 127.451 68.1524 124.806 70.5883 125.171C75.4952 125.906 72.6756 130.396 72.5411 133.301C72.4166 135.946 71.0964 137.781 67.8385 136.876C66.4387 136.486 64.9044 136.591 63.4298 136.471C63.1459 136.876 62.8619 137.276 62.578 137.681H62.573Z" fill="black"/>
<path d="M87.2821 147.257C85.5834 151.067 84.2732 154.422 82.5596 157.562C82.161 158.292 80.2232 158.777 79.3066 158.462C78.3551 158.132 77.0948 156.632 77.1745 155.752C77.4834 152.432 77.857 148.982 79.0725 145.931C79.6653 144.441 82.1859 142.906 83.8099 142.926C84.9358 142.941 86.0267 145.586 87.2771 147.257H87.2821Z" fill="black"/>
<path d="M43.4488 166.246C43.5186 171.946 40.1759 174.601 34.7411 174.441C33.7846 174.411 32.2453 172.511 32.0809 171.321C31.5628 167.586 36.3302 161.901 39.4985 162.721C41.3715 163.206 42.7564 165.586 43.4538 166.246H43.4488Z" fill="black"/>
<path d="M74.863 105.071C71.9339 108.021 69.9014 110.066 67.8739 112.106C66.5389 109.611 64.3221 107.191 64.1079 104.606C63.8787 101.851 64.4865 97.4409 68.8254 98.2659C70.7981 98.6409 72.2178 101.946 74.863 105.071Z" fill="black"/>
<path d="M86.7433 60.5855C86.9475 65.1756 82.6086 69.4756 79.0617 69.0756C77.7665 68.9306 75.5149 66.1456 75.6643 65.9356C77.7267 62.9606 79.9983 60.0755 82.6385 57.6255C82.9274 57.3555 85.8067 59.8905 86.7483 60.5855H86.7433Z" fill="black"/>
<path d="M51.7734 158.241C54.9666 155.111 57.0539 153.056 59.1461 151.006C60.4164 152.471 62.7328 153.936 62.7328 155.401C62.7328 158.601 62.0354 162.456 57.5819 162.321C56.0924 162.276 54.6627 160.351 51.7734 158.236V158.241Z" fill="black"/>
<path d="M481.198 196.532C478.408 196.312 475.066 196.952 472.993 195.612C471.215 194.467 470.707 191.107 470.029 188.622C469.84 187.927 470.881 186.392 471.678 186.087C472.386 185.817 473.79 186.477 474.443 187.157C476.769 189.572 478.902 192.172 481.108 194.707C481.138 195.317 481.168 195.922 481.198 196.532Z" fill="black"/>
<path d="M207.308 89.3558C203.417 90.4608 200.049 91.5059 196.632 92.3209C195.96 92.4809 194.749 91.9759 194.39 91.4009C194.032 90.8208 194.156 89.6208 194.53 88.9508C197.056 84.4008 203.681 84.4058 207.308 89.3608V89.3558Z" fill="black"/>
</g>
<defs>
<clipPath id="clip0_112_896">
<rect width="513" height="234" fill="white"/>
</clipPath>
</defs>
</svg>
