<svg width="766" height="874" viewBox="0 0 766 874" fill="none" xmlns="http://www.w3.org/2000/svg">
<path d="M759.4 265.33L690.42 223.98L683.46 210.98L685.56 195.51L700.25 126.04L695.4 110.86L681.27 125.37L650.47 191.65L611.2 253.59L556.72 292.73L529.84 294.69L501.55 288.84L495.41 274.17L521.94 177.11L531.18 161.31L609.64 105.6V86.3099L601.98 79.7799L539.58 120.44L519.03 125.04L507.53 119.7L505.86 105.82L578.47 38.9799L575.43 33.5999L563.13 25.0899L549.32 24.2599L484.74 62.0099L471.6 61.9399L451.19 44.6399L441.81 26.5699L427.85 0.189941L417.88 3.84994L419.72 45.6699L452.43 137.15L446.12 195.27L423.56 270.11L372.26 281.98L329.69 331.77L318.95 314.72L315.95 246.32L305.66 184.97L334.69 70.6599L324.14 71.8599L266.74 111.01L244.3 114.66L175.92 97.2799L154.13 101.33L150.63 126.81L192.41 143.71L201.13 155.42L187.12 191.65L119.23 182.69V204.06L132.63 215.7L191.21 226.99L245.54 230.45L231.92 316.98L245.33 376.3L200 407.51L122.81 420.64L94.5399 428.72L46.2999 485.4L13.3299 625.14L0.169922 728.8L49.4199 748.37L59.3899 732.03L67.5999 606.67L62.7299 554.93L82.6699 495.93L142.39 465.08L181.5 459.53L206.32 470.39L211.17 495.69L139.03 553.83L125.61 595.29L68.2499 790.38L59.4099 859.99L116.81 864.97L126.21 826.33L122.52 794.96L125.79 757.84L130.7 703.64L150.2 634.52L205.85 545.25L241.13 520.08L253.71 540.91L240.25 578.6L201.49 638.36L162.19 748.73L191.26 855.87H236.83L260.27 698.62L263.93 637.1L277.42 586.7L295.96 571.37L326.38 575.38L337.06 593.38L339.84 665.29L313.16 825.88L312.53 873.31L366.56 871.57L370.03 855.73L391.72 660.45L387.76 615.76L416.2 579.46L451.82 577L481.43 598.53L488.97 629.76L464.58 840.87L469.74 854.34H541.98L552.63 624.96L548.02 588.73L507.36 544.87L509.31 530.98L536.62 515.94L594.74 546.5L602.53 591.44L616.31 684.92L615.71 767.61L612.65 834.04L668.44 820.07L677.73 771.05L678.98 711.96L658.8 545.91L647.79 515.73L575.7 460.44L559.76 440.3L538.21 384.28L571.01 343.65L608.73 317.86L693.65 378.13L715.69 378.68L713.42 364.27L664.87 324.28L666.73 302.46L687.16 282.03L696.91 277.12L757.9 299.24L764.48 289.07L765.29 275.36L759.4 265.36V265.33ZM279.6 151.95L264.08 156.2L257.11 153.55L257.48 148.93L268.47 137.98L282.32 139.08L279.62 151.96L279.6 151.95ZM486.31 95.7699L470.79 100.02L463.82 97.3699L464.19 92.7499L475.18 81.7999L489.03 82.8999L486.33 95.7799L486.31 95.7699ZM662.22 248.62L652.34 235.91L657.9 223.98L669.64 231.4L671.87 246.75L669.39 250.67L662.22 248.61V248.62Z" fill="black"/>
</svg>
