<svg width="832" height="870" viewBox="0 0 832 870" fill="none" xmlns="http://www.w3.org/2000/svg">
<path d="M831.03 226.13L778.11 211.59L694.25 219.15H663.09L655.73 212.95L654.68 192.63L663.09 134.08V118.31L612.61 120.41L531.44 172.36L489.67 176.05L470.63 169.91L458.96 136.13L476.95 98.3099L480.49 57.3599L457.73 15.7399L417.8 0.379883L377.87 4.06988L347.77 24.3399L331.8 59.3499L350.56 118.62L377.25 141.04L416.56 149.03L432.53 192.64L436.83 334.02L407.82 353.36L275.87 280.56L258.81 229.37L233.22 186.14L176.34 161.11L171.79 125.85L144.49 128.69L150.75 175.33L184.91 192.7L217.74 205.38L214.18 226.74L195.11 250.41L142.78 252.69L111.5 275.44L102.97 259.51L80.2202 266.9L93.3002 292.94H137.66L158.14 276H193.4L401 382.36L413.97 406.25L406.69 446.06L270.18 469.38L211.28 510.49L75.7302 537.38L41.3102 534.15L31.6302 525.54L30.5502 495.42H0.430176V532L20.8702 558.89L76.8102 565.34L214.51 539.52L200.77 621.29L156.55 655L175.17 673.62L214.5 646.02L239.24 590.08L364.55 499.72L413.19 487.89L442.94 508.33L451.38 547.93L445.16 634.27L459.66 720.61L441.01 774.48L429.96 842.86L447.23 862.89L479 869.11L493.5 862.33L495.57 838.72L510.77 728.9L505.94 656.38L510.08 552.09L539.09 485.09L558.43 516.86L581.39 659.83L548.07 751.69L549.45 819.38L570.86 862.33H599.18L615.76 844.25L618.52 695.75L622.66 655.69L619.9 547.25L617.83 519.62L628.62 498.29L673.98 511.67L696.66 534.35L712.94 668.1L694.14 721.6L678.63 859.42L725.15 862.33L752.48 837.91L758.3 818.14L754.81 775.69L761.21 664.62L754.81 565.18L764.7 447.13L800.75 413.4L816.45 373.4L800.17 345.36L765.28 315.7L827.5 266.27L830.99 226.14L831.03 226.13ZM424.65 83.7499L395.27 91.7899L382.08 86.7699L382.77 78.0199L403.57 57.2899L429.77 59.3699L424.65 83.7499Z" fill="black"/>
</svg>
